<svg xmlns="http://www.w3.org/2000/svg" width="800" height="400">
<defs>
<style>
.axis-text { fill: #8b949e; font-family: monospace; font-size: 11px; }
.title { fill: #c9d1d9; font-family: monospace; font-size: 14px; font-weight: bold; }
.legend { fill: #8b949e; font-family: monospace; font-size: 10px; }
.grid { stroke: #21262d; stroke-width: 1; }
</style>
</defs>
<rect width="800" height="400" fill="#0d1117"/>
<text x="400.0" y="25" class="title" text-anchor="middle">Binary Size Trend (.bin)</text>
<line x1="70" y1="40.0" x2="650" y2="40.0" class="grid"/>
<text x="60" y="44.0" class="axis-text" text-anchor="end">138KB</text>
<line x1="70" y1="100.0" x2="650" y2="100.0" class="grid"/>
<text x="60" y="104.0" class="axis-text" text-anchor="end">126KB</text>
<line x1="70" y1="160.0" x2="650" y2="160.0" class="grid"/>
<text x="60" y="164.0" class="axis-text" text-anchor="end">115KB</text>
<line x1="70" y1="220.0" x2="650" y2="220.0" class="grid"/>
<text x="60" y="224.0" class="axis-text" text-anchor="end">103KB</text>
<line x1="70" y1="280.0" x2="650" y2="280.0" class="grid"/>
<text x="60" y="284.0" class="axis-text" text-anchor="end">91KB</text>
<line x1="70" y1="340.0" x2="650" y2="340.0" class="grid"/>
<text x="60" y="344.0" class="axis-text" text-anchor="end">80KB</text>
<text x="70.0" y="360" class="axis-text" text-anchor="middle">02-05</text>
<text x="164.69387755102042" y="360" class="axis-text" text-anchor="middle">02-05</text>
<text x="259.38775510204084" y="360" class="axis-text" text-anchor="middle">02-06</text>
<text x="354.0816326530612" y="360" class="axis-text" text-anchor="middle">02-11</text>
<text x="448.7755102040816" y="360" class="axis-text" text-anchor="middle">02-24</text>
<text x="543.469387755102" y="360" class="axis-text" text-anchor="middle">02-24</text>
<text x="638.1632653061224" y="360" class="axis-text" text-anchor="middle">02-24</text>
<path d="M 70.0 154.7 L 81.8 155.3 L 93.7 156.5 L 105.5 154.6 L 117.3 154.7 L 129.2 155.4 L 141.0 156.5 L 152.9 155.4 L 164.7 138.6 L 176.5 154.6 L 188.4 155.4 L 200.2 143.4 L 212.0 154.7 L 223.9 154.4 L 235.7 149.1 L 247.6 149.1 L 259.4 149.1 L 271.2 149.1 L 283.1 149.1 L 294.9 149.4 L 306.7 149.4 L 318.6 219.1 L 330.4 219.1 L 342.2 218.2 L 354.1 218.2 L 365.9 218.2 L 377.8 204.6 L 389.6 200.2 L 401.4 200.2 L 413.3 200.9 L 425.1 201.6 L 436.9 200.0 L 448.8 200.0 L 460.6 199.0 L 472.4 197.4 L 484.3 214.4 L 496.1 199.0 L 508.0 200.0 L 519.8 214.3 L 531.6 198.9 L 543.5 200.0 L 555.3 200.2 L 567.1 200.3 L 579.0 200.0 L 590.8 198.3 L 602.7 199.8 L 614.5 199.5 L 626.3 213.4 L 638.2 199.0 L 650.0 200.2" fill="none" stroke="#58a6ff" stroke-width="2" opacity="0.8"/>
<circle cx="70.0" cy="154.7" r="3" fill="#58a6ff"/>
<circle cx="188.4" cy="155.4" r="3" fill="#58a6ff"/>
<circle cx="306.7" cy="149.4" r="3" fill="#58a6ff"/>
<circle cx="425.1" cy="201.6" r="3" fill="#58a6ff"/>
<circle cx="543.5" cy="200.0" r="3" fill="#58a6ff"/>
<circle cx="650.0" cy="200.2" r="4" fill="#58a6ff"/>
<path d="M 70.0 154.7 L 81.8 155.7 L 93.7 156.9 L 105.5 154.7 L 117.3 154.7 L 129.2 155.8 L 141.0 156.9 L 152.9 155.8 L 164.7 138.7 L 176.5 154.7 L 188.4 155.8 L 200.2 142.5 L 212.0 154.7 L 223.9 155.5 L 235.7 149.1 L 247.6 149.1 L 259.4 149.1 L 271.2 149.1 L 283.1 149.1 L 294.9 149.4 L 306.7 149.4 L 318.6 254.3 L 330.4 254.3 L 342.2 253.1 L 354.1 253.1 L 365.9 253.1 L 377.8 255.1 L 389.6 252.3 L 401.4 252.3 L 413.3 252.8 L 425.1 254.4 L 436.9 252.3 L 448.8 252.3 L 460.6 250.7 L 472.4 250.2 L 484.3 253.9 L 496.1 250.7 L 508.0 252.3 L 519.8 254.1 L 531.6 251.0 L 543.5 252.3 L 555.3 252.3 L 567.1 252.7 L 579.0 252.3 L 590.8 250.6 L 602.7 251.8 L 614.5 251.3 L 626.3 252.7 L 638.2 250.7 L 650.0 252.3" fill="none" stroke="#1f6feb" stroke-width="2" opacity="0.8"/>
<circle cx="70.0" cy="154.7" r="3" fill="#1f6feb"/>
<circle cx="188.4" cy="155.8" r="3" fill="#1f6feb"/>
<circle cx="306.7" cy="149.4" r="3" fill="#1f6feb"/>
<circle cx="425.1" cy="254.4" r="3" fill="#1f6feb"/>
<circle cx="543.5" cy="252.3" r="3" fill="#1f6feb"/>
<circle cx="650.0" cy="252.3" r="4" fill="#1f6feb"/>
<path d="M 70.0 170.2 L 81.8 170.7 L 93.7 172.2 L 105.5 170.2 L 117.3 170.2 L 129.2 171.0 L 141.0 172.2 L 152.9 171.0 L 164.7 153.0 L 176.5 170.2 L 188.4 171.0 L 200.2 156.7 L 212.0 170.2 L 223.9 170.4 L 235.7 165.1 L 247.6 165.1 L 259.4 165.1 L 271.2 165.1 L 283.1 165.1 L 294.9 165.3 L 306.7 165.3 L 318.6 251.4 L 330.4 251.4 L 342.2 250.6 L 354.1 250.6 L 365.9 250.6 L 377.8 240.8 L 389.6 239.5 L 401.4 239.5 L 413.3 239.7 L 425.1 242.3 L 436.9 239.5 L 448.8 239.5 L 460.6 233.8 L 472.4 238.2 L 484.3 249.2 L 496.1 233.8 L 508.0 239.5 L 519.8 249.2 L 531.6 240.7 L 543.5 239.5 L 555.3 239.5 L 567.1 239.8 L 579.0 239.5 L 590.8 239.0 L 602.7 234.5 L 614.5 240.9 L 626.3 247.7 L 638.2 233.8 L 650.0 239.5" fill="none" stroke="#388bfd" stroke-width="2" opacity="0.8"/>
<circle cx="70.0" cy="170.2" r="3" fill="#388bfd"/>
<circle cx="188.4" cy="171.0" r="3" fill="#388bfd"/>
<circle cx="306.7" cy="165.3" r="3" fill="#388bfd"/>
<circle cx="425.1" cy="242.3" r="3" fill="#388bfd"/>
<circle cx="543.5" cy="239.5" r="3" fill="#388bfd"/>
<circle cx="650.0" cy="239.5" r="4" fill="#388bfd"/>
<path d="M 70.0 137.7 L 81.8 139.1 L 93.7 139.7 L 105.5 137.7 L 117.3 137.7 L 129.2 139.2 L 141.0 139.7 L 152.9 139.2 L 164.7 122.9 L 176.5 137.7 L 188.4 139.2 L 200.2 126.3 L 212.0 137.7 L 223.9 137.6 L 235.7 132.1 L 247.6 132.1 L 259.4 132.1 L 271.2 132.1 L 283.1 132.1 L 294.9 132.1 L 306.7 132.1 L 318.6 224.5 L 330.4 224.5 L 342.2 223.2 L 354.1 223.2 L 365.9 223.2 L 377.8 227.7 L 389.6 227.7 L 401.4 227.7 L 413.3 227.7 L 425.1 229.8 L 436.9 227.6 L 448.8 227.6 L 460.6 226.7 L 472.4 225.1 L 484.3 226.4 L 496.1 226.7 L 508.0 227.6 L 519.8 226.3 L 531.6 227.1 L 543.5 227.6 L 555.3 227.7 L 567.1 227.9 L 579.0 227.6 L 590.8 226.1 L 602.7 227.7 L 614.5 227.3 L 626.3 225.2 L 638.2 226.7 L 650.0 227.7" fill="none" stroke="#3fb950" stroke-width="2" opacity="0.8"/>
<circle cx="70.0" cy="137.7" r="3" fill="#3fb950"/>
<circle cx="188.4" cy="139.2" r="3" fill="#3fb950"/>
<circle cx="306.7" cy="132.1" r="3" fill="#3fb950"/>
<circle cx="425.1" cy="229.8" r="3" fill="#3fb950"/>
<circle cx="543.5" cy="227.6" r="3" fill="#3fb950"/>
<circle cx="650.0" cy="227.7" r="4" fill="#3fb950"/>
<path d="M 70.0 214.7 L 81.8 216.1 L 93.7 216.0 L 105.5 214.7 L 117.3 214.7 L 129.2 216.2 L 141.0 216.0 L 152.9 216.2 L 164.7 198.7 L 176.5 214.7 L 188.4 216.2 L 200.2 202.8 L 212.0 214.7 L 223.9 214.4 L 235.7 210.3 L 247.6 210.3 L 259.4 210.3 L 271.2 210.3 L 283.1 210.3 L 294.9 210.3 L 306.7 210.3 L 318.6 280.5 L 330.4 280.5 L 342.2 278.9 L 354.1 278.9 L 365.9 278.9 L 377.8 280.2 L 389.6 280.2 L 401.4 280.2 L 413.3 280.2 L 425.1 281.9 L 436.9 280.2 L 448.8 280.2 L 460.6 280.1 L 472.4 277.7 L 484.3 283.4 L 496.1 280.1 L 508.0 280.2 L 519.8 283.2 L 531.6 280.2 L 543.5 280.2 L 555.3 280.2 L 567.1 280.5 L 579.0 280.2 L 590.8 278.5 L 602.7 281.3 L 614.5 280.6 L 626.3 282.3 L 638.2 280.1 L 650.0 280.2" fill="none" stroke="#238636" stroke-width="2" opacity="0.8"/>
<circle cx="70.0" cy="214.7" r="3" fill="#238636"/>
<circle cx="188.4" cy="216.2" r="3" fill="#238636"/>
<circle cx="306.7" cy="210.3" r="3" fill="#238636"/>
<circle cx="425.1" cy="281.9" r="3" fill="#238636"/>
<circle cx="543.5" cy="280.2" r="3" fill="#238636"/>
<circle cx="650.0" cy="280.2" r="4" fill="#238636"/>
<path d="M 70.0 119.9 L 81.8 121.4 L 93.7 121.8 L 105.5 119.9 L 117.3 119.9 L 129.2 121.5 L 141.0 121.8 L 152.9 121.5 L 164.7 104.7 L 176.5 119.9 L 188.4 121.5 L 200.2 109.9 L 212.0 119.9 L 223.9 119.9 L 235.7 114.2 L 247.6 114.2 L 259.4 114.2 L 271.2 114.2 L 283.1 114.2 L 294.9 114.2 L 306.7 114.2 L 318.6 195.1 L 330.4 195.1 L 342.2 194.2 L 354.1 194.2 L 365.9 194.2 L 377.8 182.7 L 389.6 182.7 L 401.4 182.7 L 413.3 182.7 L 425.1 185.2 L 436.9 182.7 L 448.8 182.7 L 460.6 184.3 L 472.4 181.6 L 484.3 204.2 L 496.1 184.3 L 508.0 182.7 L 519.8 204.2 L 531.6 184.4 L 543.5 182.7 L 555.3 182.7 L 567.1 183.0 L 579.0 182.7 L 590.8 182.1 L 602.7 186.0 L 614.5 184.7 L 626.3 202.1 L 638.2 184.3 L 650.0 182.7" fill="none" stroke="#2ea043" stroke-width="2" opacity="0.8"/>
<circle cx="70.0" cy="119.9" r="3" fill="#2ea043"/>
<circle cx="188.4" cy="121.5" r="3" fill="#2ea043"/>
<circle cx="306.7" cy="114.2" r="3" fill="#2ea043"/>
<circle cx="425.1" cy="185.2" r="3" fill="#2ea043"/>
<circle cx="543.5" cy="182.7" r="3" fill="#2ea043"/>
<circle cx="650.0" cy="182.7" r="4" fill="#2ea043"/>
<path d="M 70.0 209.1 L 81.8 210.9 L 93.7 211.2 L 105.5 209.1 L 117.3 209.1 L 129.2 211.0 L 141.0 211.2 L 152.9 211.0 L 164.7 194.2 L 176.5 209.1 L 188.4 211.0 L 200.2 197.7 L 212.0 209.1 L 223.9 209.4 L 235.7 204.0 L 247.6 204.0 L 259.4 204.0 L 271.2 204.0 L 283.1 204.0 L 294.9 204.0 L 306.7 204.0 L 318.6 289.5 L 330.4 289.5 L 342.2 288.7 L 354.1 288.7 L 365.9 288.7 L 377.8 280.6 L 389.6 280.6 L 401.4 280.6 L 413.3 280.6 L 425.1 283.6 L 436.9 280.6 L 448.8 280.6 L 460.6 279.0 L 472.4 280.8 L 484.3 294.3 L 496.1 279.0 L 508.0 280.6 L 519.8 294.3 L 531.6 283.2 L 543.5 280.6 L 555.3 280.6 L 567.1 280.9 L 579.0 280.6 L 590.8 281.3 L 602.7 280.4 L 614.5 283.4 L 626.3 292.5 L 638.2 279.0 L 650.0 280.6" fill="none" stroke="#56d364" stroke-width="2" opacity="0.8"/>
<circle cx="70.0" cy="209.1" r="3" fill="#56d364"/>
<circle cx="188.4" cy="211.0" r="3" fill="#56d364"/>
<circle cx="306.7" cy="204.0" r="3" fill="#56d364"/>
<circle cx="425.1" cy="283.6" r="3" fill="#56d364"/>
<circle cx="543.5" cy="280.6" r="3" fill="#56d364"/>
<circle cx="650.0" cy="280.6" r="4" fill="#56d364"/>
<path d="M 70.0 152.4 L 81.8 153.4 L 93.7 154.6 L 105.5 152.3 L 117.3 152.4 L 129.2 153.4 L 141.0 154.6 L 152.9 153.4 L 164.7 136.8 L 176.5 152.3 L 188.4 153.4 L 200.2 140.5 L 212.0 152.4 L 223.9 153.2 L 235.7 147.1 L 247.6 147.1 L 259.4 147.1 L 271.2 147.1 L 283.1 147.1 L 294.9 147.1 L 306.7 147.1 L 318.6 251.4 L 330.4 251.4 L 342.2 250.2 L 354.1 250.2 L 365.9 250.2 L 377.8 255.3 L 389.6 255.3 L 401.4 255.3 L 413.3 255.3 L 425.1 257.4 L 436.9 255.3 L 448.8 255.3 L 460.6 255.3 L 472.4 253.5 L 484.3 254.5 L 496.1 255.3 L 508.0 255.3 L 519.8 254.5 L 531.6 255.5 L 543.5 255.3 L 555.3 255.3 L 567.1 255.7 L 579.0 255.3 L 590.8 254.2 L 602.7 256.2 L 614.5 255.8 L 626.3 253.2 L 638.2 255.3 L 650.0 255.3" fill="none" stroke="#f78166" stroke-width="2" opacity="0.8"/>
<circle cx="70.0" cy="152.4" r="3" fill="#f78166"/>
<circle cx="188.4" cy="153.4" r="3" fill="#f78166"/>
<circle cx="306.7" cy="147.1" r="3" fill="#f78166"/>
<circle cx="425.1" cy="257.4" r="3" fill="#f78166"/>
<circle cx="543.5" cy="255.3" r="3" fill="#f78166"/>
<circle cx="650.0" cy="255.3" r="4" fill="#f78166"/>
<path d="M 70.0 165.3 L 81.8 166.0 L 93.7 167.3 L 105.5 165.3 L 117.3 165.3 L 129.2 166.0 L 141.0 167.3 L 152.9 166.0 L 164.7 148.0 L 176.5 165.3 L 188.4 166.0 L 200.2 151.7 L 212.0 165.3 L 223.9 165.5 L 235.7 160.2 L 247.6 160.2 L 259.4 160.2 L 271.2 160.2 L 283.1 160.2 L 294.9 160.2 L 306.7 160.2 L 318.6 245.7 L 330.4 245.7 L 342.2 244.9 L 354.1 244.9 L 365.9 244.9 L 377.8 237.9 L 389.6 237.9 L 401.4 237.9 L 413.3 237.9 L 425.1 240.7 L 436.9 237.9 L 448.8 237.9 L 460.6 232.5 L 472.4 236.9 L 484.3 247.2 L 496.1 232.5 L 508.0 237.9 L 519.8 247.2 L 531.6 239.4 L 543.5 237.9 L 555.3 237.9 L 567.1 238.2 L 579.0 237.9 L 590.8 237.7 L 602.7 233.4 L 614.5 239.5 L 626.3 245.7 L 638.2 232.5 L 650.0 237.9" fill="none" stroke="#ffa657" stroke-width="2" opacity="0.8"/>
<circle cx="70.0" cy="165.3" r="3" fill="#ffa657"/>
<circle cx="188.4" cy="166.0" r="3" fill="#ffa657"/>
<circle cx="306.7" cy="160.2" r="3" fill="#ffa657"/>
<circle cx="425.1" cy="240.7" r="3" fill="#ffa657"/>
<circle cx="543.5" cy="237.9" r="3" fill="#ffa657"/>
<circle cx="650.0" cy="237.9" r="4" fill="#ffa657"/>
<text x="70.0" y="111.9" fill="#2ea043" font-family="monospace" font-size="8px" text-anchor="middle">122.6KB</text>
<text x="70.0" y="129.9" fill="#3fb950" font-family="monospace" font-size="8px" text-anchor="middle">119.1KB</text>
<text x="70.0" y="147.9" fill="#f78166" font-family="monospace" font-size="8px" text-anchor="middle">116.3KB</text>
<text x="70.0" y="165.9" fill="#1f6feb" font-family="monospace" font-size="8px" text-anchor="middle">115.8KB</text>
<text x="70.0" y="183.9" fill="#58a6ff" font-family="monospace" font-size="8px" text-anchor="middle">115.8KB</text>
<text x="70.0" y="201.9" fill="#ffa657" font-family="monospace" font-size="8px" text-anchor="middle">113.7KB</text>
<text x="70.0" y="219.9" fill="#388bfd" font-family="monospace" font-size="8px" text-anchor="middle">112.8KB</text>
<text x="70.0" y="237.9" fill="#56d364" font-family="monospace" font-size="8px" text-anchor="middle">105.2KB</text>
<text x="70.0" y="255.9" fill="#238636" font-family="monospace" font-size="8px" text-anchor="middle">104.2KB</text>
<text x="188.4" y="113.5" fill="#2ea043" font-family="monospace" font-size="8px" text-anchor="middle">122.2KB</text>
<text x="188.4" y="131.5" fill="#3fb950" font-family="monospace" font-size="8px" text-anchor="middle">118.8KB</text>
<text x="188.4" y="149.5" fill="#f78166" font-family="monospace" font-size="8px" text-anchor="middle">116.0KB</text>
<text x="188.4" y="167.5" fill="#58a6ff" font-family="monospace" font-size="8px" text-anchor="middle">115.7KB</text>
<text x="188.4" y="185.5" fill="#1f6feb" font-family="monospace" font-size="8px" text-anchor="middle">115.6KB</text>
<text x="188.4" y="203.5" fill="#ffa657" font-family="monospace" font-size="8px" text-anchor="middle">113.6KB</text>
<text x="188.4" y="221.5" fill="#388bfd" font-family="monospace" font-size="8px" text-anchor="middle">112.6KB</text>
<text x="188.4" y="239.5" fill="#56d364" font-family="monospace" font-size="8px" text-anchor="middle">104.9KB</text>
<text x="188.4" y="257.5" fill="#238636" font-family="monospace" font-size="8px" text-anchor="middle">103.9KB</text>
<text x="306.7" y="106.2" fill="#2ea043" font-family="monospace" font-size="8px" text-anchor="middle">123.7KB</text>
<text x="306.7" y="124.2" fill="#3fb950" font-family="monospace" font-size="8px" text-anchor="middle">120.2KB</text>
<text x="306.7" y="142.2" fill="#f78166" font-family="monospace" font-size="8px" text-anchor="middle">117.3KB</text>
<text x="306.7" y="160.2" fill="#1f6feb" font-family="monospace" font-size="8px" text-anchor="middle">116.8KB</text>
<text x="306.7" y="178.2" fill="#58a6ff" font-family="monospace" font-size="8px" text-anchor="middle">116.8KB</text>
<text x="306.7" y="196.2" fill="#ffa657" font-family="monospace" font-size="8px" text-anchor="middle">114.7KB</text>
<text x="306.7" y="214.2" fill="#388bfd" font-family="monospace" font-size="8px" text-anchor="middle">113.7KB</text>
<text x="306.7" y="232.2" fill="#56d364" font-family="monospace" font-size="8px" text-anchor="middle">106.2KB</text>
<text x="306.7" y="250.2" fill="#238636" font-family="monospace" font-size="8px" text-anchor="middle">105.0KB</text>
<text x="425.1" y="177.2" fill="#2ea043" font-family="monospace" font-size="8px" text-anchor="middle">109.9KB</text>
<text x="425.1" y="195.2" fill="#58a6ff" font-family="monospace" font-size="8px" text-anchor="middle">106.7KB</text>
<text x="425.1" y="221.8" fill="#3fb950" font-family="monospace" font-size="8px" text-anchor="middle">101.2KB</text>
<text x="425.1" y="239.8" fill="#ffa657" font-family="monospace" font-size="8px" text-anchor="middle">99.1KB</text>
<text x="425.1" y="257.8" fill="#388bfd" font-family="monospace" font-size="8px" text-anchor="middle">98.8KB</text>
<text x="425.1" y="275.8" fill="#1f6feb" font-family="monospace" font-size="8px" text-anchor="middle">96.5KB</text>
<text x="425.1" y="293.8" fill="#f78166" font-family="monospace" font-size="8px" text-anchor="middle">95.9KB</text>
<text x="425.1" y="311.8" fill="#238636" font-family="monospace" font-size="8px" text-anchor="middle">91.1KB</text>
<text x="425.1" y="329.8" fill="#56d364" font-family="monospace" font-size="8px" text-anchor="middle">90.8KB</text>
<text x="543.5" y="174.7" fill="#2ea043" font-family="monospace" font-size="8px" text-anchor="middle">110.4KB</text>
<text x="543.5" y="192.7" fill="#58a6ff" font-family="monospace" font-size="8px" text-anchor="middle">107.0KB</text>
<text x="543.5" y="219.6" fill="#3fb950" font-family="monospace" font-size="8px" text-anchor="middle">101.7KB</text>
<text x="543.5" y="237.6" fill="#ffa657" font-family="monospace" font-size="8px" text-anchor="middle">99.7KB</text>
<text x="543.5" y="255.6" fill="#388bfd" font-family="monospace" font-size="8px" text-anchor="middle">99.4KB</text>
<text x="543.5" y="273.6" fill="#1f6feb" font-family="monospace" font-size="8px" text-anchor="middle">96.9KB</text>
<text x="543.5" y="291.6" fill="#f78166" font-family="monospace" font-size="8px" text-anchor="middle">96.3KB</text>
<text x="543.5" y="309.6" fill="#238636" font-family="monospace" font-size="8px" text-anchor="middle">91.5KB</text>
<text x="543.5" y="327.6" fill="#56d364" font-family="monospace" font-size="8px" text-anchor="middle">91.4KB</text>
<text x="650.0" y="174.7" fill="#2ea043" font-family="monospace" font-size="8px" text-anchor="middle">110.4KB</text>
<text x="650.0" y="192.7" fill="#58a6ff" font-family="monospace" font-size="8px" text-anchor="middle">107.0KB</text>
<text x="650.0" y="219.7" fill="#3fb950" font-family="monospace" font-size="8px" text-anchor="middle">101.6KB</text>
<text x="650.0" y="237.7" fill="#ffa657" font-family="monospace" font-size="8px" text-anchor="middle">99.7KB</text>
<text x="650.0" y="255.7" fill="#388bfd" font-family="monospace" font-size="8px" text-anchor="middle">99.4KB</text>
<text x="650.0" y="273.7" fill="#1f6feb" font-family="monospace" font-size="8px" text-anchor="middle">96.9KB</text>
<text x="650.0" y="291.7" fill="#f78166" font-family="monospace" font-size="8px" text-anchor="middle">96.3KB</text>
<text x="650.0" y="309.7" fill="#238636" font-family="monospace" font-size="8px" text-anchor="middle">91.5KB</text>
<text x="650.0" y="327.7" fill="#56d364" font-family="monospace" font-size="8px" text-anchor="middle">91.4KB</text>
<rect x="665" y="44" width="12" height="12" fill="#58a6ff"/>
<text x="683" y="54" class="legend">Win i386</text>
<rect x="665" y="62" width="12" height="12" fill="#1f6feb"/>
<text x="683" y="72" class="legend">Win x64</text>
<rect x="665" y="80" width="12" height="12" fill="#388bfd"/>
<text x="683" y="90" class="legend">Win ARM64</text>
<rect x="665" y="98" width="12" height="12" fill="#3fb950"/>
<text x="683" y="108" class="legend">Linux i386</text>
<rect x="665" y="116" width="12" height="12" fill="#238636"/>
<text x="683" y="126" class="legend">Linux x64</text>
<rect x="665" y="134" width="12" height="12" fill="#2ea043"/>
<text x="683" y="144" class="legend">Linux ARM</text>
<rect x="665" y="152" width="12" height="12" fill="#56d364"/>
<text x="683" y="162" class="legend">Linux ARM64</text>
<rect x="665" y="170" width="12" height="12" fill="#f78166"/>
<text x="683" y="180" class="legend">UEFI x64</text>
<rect x="665" y="188" width="12" height="12" fill="#ffa657"/>
<text x="683" y="198" class="legend">UEFI ARM64</text>
</svg>