<svg xmlns="http://www.w3.org/2000/svg" width="800" height="400">
<defs>
<style>
.axis-text { fill: #8b949e; font-family: monospace; font-size: 11px; }
.title { fill: #c9d1d9; font-family: monospace; font-size: 14px; font-weight: bold; }
.legend { fill: #8b949e; font-family: monospace; font-size: 10px; }
.grid { stroke: #21262d; stroke-width: 1; }
</style>
</defs>
<rect width="800" height="400" fill="#0d1117"/>
<text x="400.0" y="25" class="title" text-anchor="middle">Binary Size Trend (.bin)</text>
<line x1="70" y1="40.0" x2="650" y2="40.0" class="grid"/>
<text x="60" y="44.0" class="axis-text" text-anchor="end">138KB</text>
<line x1="70" y1="100.0" x2="650" y2="100.0" class="grid"/>
<text x="60" y="104.0" class="axis-text" text-anchor="end">127KB</text>
<line x1="70" y1="160.0" x2="650" y2="160.0" class="grid"/>
<text x="60" y="164.0" class="axis-text" text-anchor="end">115KB</text>
<line x1="70" y1="220.0" x2="650" y2="220.0" class="grid"/>
<text x="60" y="224.0" class="axis-text" text-anchor="end">104KB</text>
<line x1="70" y1="280.0" x2="650" y2="280.0" class="grid"/>
<text x="60" y="284.0" class="axis-text" text-anchor="end">92KB</text>
<line x1="70" y1="340.0" x2="650" y2="340.0" class="grid"/>
<text x="60" y="344.0" class="axis-text" text-anchor="end">81KB</text>
<text x="70.0" y="360" class="axis-text" text-anchor="middle">02-05</text>
<text x="152.85714285714283" y="360" class="axis-text" text-anchor="middle">02-05</text>
<text x="235.7142857142857" y="360" class="axis-text" text-anchor="middle">02-05</text>
<text x="318.57142857142856" y="360" class="axis-text" text-anchor="middle">02-05</text>
<text x="401.4285714285714" y="360" class="axis-text" text-anchor="middle">02-05</text>
<text x="484.2857142857143" y="360" class="axis-text" text-anchor="middle">02-06</text>
<text x="567.1428571428571" y="360" class="axis-text" text-anchor="middle">02-09</text>
<text x="650.0" y="360" class="axis-text" text-anchor="middle">02-10</text>
<path d="M 70.0 156.4 L 97.6 157.0 L 125.2 158.2 L 152.9 156.3 L 180.5 156.4 L 208.1 157.1 L 235.7 158.2 L 263.3 157.1 L 291.0 140.0 L 318.6 156.3 L 346.2 157.1 L 373.8 144.9 L 401.4 156.4 L 429.0 156.0 L 456.7 150.7 L 484.3 150.7 L 511.9 150.7 L 539.5 150.7 L 567.1 150.7 L 594.8 151.0 L 622.4 151.0 L 650.0 221.7" fill="none" stroke="#58a6ff" stroke-width="2" opacity="0.8"/>
<circle cx="70.0" cy="156.4" r="3" fill="#58a6ff"/>
<circle cx="180.5" cy="156.4" r="3" fill="#58a6ff"/>
<circle cx="291.0" cy="140.0" r="3" fill="#58a6ff"/>
<circle cx="401.4" cy="156.4" r="3" fill="#58a6ff"/>
<circle cx="511.9" cy="150.7" r="3" fill="#58a6ff"/>
<circle cx="622.4" cy="151.0" r="3" fill="#58a6ff"/>
<circle cx="650.0" cy="221.7" r="4" fill="#58a6ff"/>
<path d="M 70.0 156.4 L 97.6 157.4 L 125.2 158.6 L 152.9 156.4 L 180.5 156.4 L 208.1 157.5 L 235.7 158.6 L 263.3 157.5 L 291.0 140.2 L 318.6 156.4 L 346.2 157.5 L 373.8 144.0 L 401.4 156.4 L 429.0 157.2 L 456.7 150.7 L 484.3 150.7 L 511.9 150.7 L 539.5 150.7 L 567.1 150.7 L 594.8 151.0 L 622.4 151.0 L 650.0 257.4" fill="none" stroke="#1f6feb" stroke-width="2" opacity="0.8"/>
<circle cx="70.0" cy="156.4" r="3" fill="#1f6feb"/>
<circle cx="180.5" cy="156.4" r="3" fill="#1f6feb"/>
<circle cx="291.0" cy="140.2" r="3" fill="#1f6feb"/>
<circle cx="401.4" cy="156.4" r="3" fill="#1f6feb"/>
<circle cx="511.9" cy="150.7" r="3" fill="#1f6feb"/>
<circle cx="622.4" cy="151.0" r="3" fill="#1f6feb"/>
<circle cx="650.0" cy="257.4" r="4" fill="#1f6feb"/>
<path d="M 70.0 172.1 L 97.6 172.7 L 125.2 174.2 L 152.9 172.1 L 180.5 172.1 L 208.1 172.9 L 235.7 174.2 L 263.3 172.9 L 291.0 154.7 L 318.6 172.1 L 346.2 172.9 L 373.8 158.4 L 401.4 172.1 L 429.0 172.3 L 456.7 166.9 L 484.3 166.9 L 511.9 166.9 L 539.5 166.9 L 567.1 166.9 L 594.8 167.1 L 622.4 167.1 L 650.0 254.5" fill="none" stroke="#388bfd" stroke-width="2" opacity="0.8"/>
<circle cx="70.0" cy="172.1" r="3" fill="#388bfd"/>
<circle cx="180.5" cy="172.1" r="3" fill="#388bfd"/>
<circle cx="291.0" cy="154.7" r="3" fill="#388bfd"/>
<circle cx="401.4" cy="172.1" r="3" fill="#388bfd"/>
<circle cx="511.9" cy="166.9" r="3" fill="#388bfd"/>
<circle cx="622.4" cy="167.1" r="3" fill="#388bfd"/>
<circle cx="650.0" cy="254.5" r="4" fill="#388bfd"/>
<path d="M 70.0 139.1 L 97.6 140.5 L 125.2 141.2 L 152.9 139.1 L 180.5 139.1 L 208.1 140.7 L 235.7 141.2 L 263.3 140.7 L 291.0 124.1 L 318.6 139.1 L 346.2 140.7 L 373.8 127.5 L 401.4 139.1 L 429.0 139.0 L 456.7 133.5 L 484.3 133.5 L 511.9 133.5 L 539.5 133.5 L 567.1 133.5 L 594.8 133.5 L 622.4 133.5 L 650.0 227.2" fill="none" stroke="#3fb950" stroke-width="2" opacity="0.8"/>
<circle cx="70.0" cy="139.1" r="3" fill="#3fb950"/>
<circle cx="180.5" cy="139.1" r="3" fill="#3fb950"/>
<circle cx="291.0" cy="124.1" r="3" fill="#3fb950"/>
<circle cx="401.4" cy="139.1" r="3" fill="#3fb950"/>
<circle cx="511.9" cy="133.5" r="3" fill="#3fb950"/>
<circle cx="622.4" cy="133.5" r="3" fill="#3fb950"/>
<circle cx="650.0" cy="227.2" r="4" fill="#3fb950"/>
<path d="M 70.0 217.2 L 97.6 218.7 L 125.2 218.6 L 152.9 217.2 L 180.5 217.2 L 208.1 218.8 L 235.7 218.6 L 263.3 218.8 L 291.0 201.0 L 318.6 217.2 L 346.2 218.8 L 373.8 205.2 L 401.4 217.2 L 429.0 216.9 L 456.7 212.8 L 484.3 212.8 L 511.9 212.8 L 539.5 212.8 L 567.1 212.8 L 594.8 212.8 L 622.4 212.8 L 650.0 284.0" fill="none" stroke="#238636" stroke-width="2" opacity="0.8"/>
<circle cx="70.0" cy="217.2" r="3" fill="#238636"/>
<circle cx="180.5" cy="217.2" r="3" fill="#238636"/>
<circle cx="291.0" cy="201.0" r="3" fill="#238636"/>
<circle cx="401.4" cy="217.2" r="3" fill="#238636"/>
<circle cx="511.9" cy="212.8" r="3" fill="#238636"/>
<circle cx="622.4" cy="212.8" r="3" fill="#238636"/>
<circle cx="650.0" cy="284.0" r="4" fill="#238636"/>
<path d="M 70.0 121.0 L 97.6 122.6 L 125.2 123.0 L 152.9 121.0 L 180.5 121.0 L 208.1 122.7 L 235.7 123.0 L 263.3 122.7 L 291.0 105.6 L 318.6 121.0 L 346.2 122.7 L 373.8 110.9 L 401.4 121.0 L 429.0 121.1 L 456.7 115.3 L 484.3 115.3 L 511.9 115.3 L 539.5 115.3 L 567.1 115.3 L 594.8 115.3 L 622.4 115.3 L 650.0 197.4" fill="none" stroke="#2ea043" stroke-width="2" opacity="0.8"/>
<circle cx="70.0" cy="121.0" r="3" fill="#2ea043"/>
<circle cx="180.5" cy="121.0" r="3" fill="#2ea043"/>
<circle cx="291.0" cy="105.6" r="3" fill="#2ea043"/>
<circle cx="401.4" cy="121.0" r="3" fill="#2ea043"/>
<circle cx="511.9" cy="115.3" r="3" fill="#2ea043"/>
<circle cx="622.4" cy="115.3" r="3" fill="#2ea043"/>
<circle cx="650.0" cy="197.4" r="4" fill="#2ea043"/>
<path d="M 70.0 211.5 L 97.6 213.3 L 125.2 213.7 L 152.9 211.5 L 180.5 211.5 L 208.1 213.5 L 235.7 213.7 L 263.3 213.5 L 291.0 196.5 L 318.6 211.5 L 346.2 213.5 L 373.8 200.0 L 401.4 211.5 L 429.0 211.8 L 456.7 206.4 L 484.3 206.4 L 511.9 206.4 L 539.5 206.4 L 567.1 206.4 L 594.8 206.4 L 622.4 206.4 L 650.0 293.1" fill="none" stroke="#56d364" stroke-width="2" opacity="0.8"/>
<circle cx="70.0" cy="211.5" r="3" fill="#56d364"/>
<circle cx="180.5" cy="211.5" r="3" fill="#56d364"/>
<circle cx="291.0" cy="196.5" r="3" fill="#56d364"/>
<circle cx="401.4" cy="211.5" r="3" fill="#56d364"/>
<circle cx="511.9" cy="206.4" r="3" fill="#56d364"/>
<circle cx="622.4" cy="206.4" r="3" fill="#56d364"/>
<circle cx="650.0" cy="293.1" r="4" fill="#56d364"/>
<path d="M 70.0 154.0 L 97.6 155.1 L 125.2 156.2 L 152.9 153.9 L 180.5 154.0 L 208.1 155.1 L 235.7 156.2 L 263.3 155.1 L 291.0 138.2 L 318.6 153.9 L 346.2 155.1 L 373.8 142.0 L 401.4 154.0 L 429.0 154.8 L 456.7 148.7 L 484.3 148.7 L 511.9 148.7 L 539.5 148.7 L 567.1 148.7 L 594.8 148.7 L 622.4 148.7 L 650.0 254.5" fill="none" stroke="#f78166" stroke-width="2" opacity="0.8"/>
<circle cx="70.0" cy="154.0" r="3" fill="#f78166"/>
<circle cx="180.5" cy="154.0" r="3" fill="#f78166"/>
<circle cx="291.0" cy="138.2" r="3" fill="#f78166"/>
<circle cx="401.4" cy="154.0" r="3" fill="#f78166"/>
<circle cx="511.9" cy="148.7" r="3" fill="#f78166"/>
<circle cx="622.4" cy="148.7" r="3" fill="#f78166"/>
<circle cx="650.0" cy="254.5" r="4" fill="#f78166"/>
<path d="M 70.0 167.1 L 97.6 167.9 L 125.2 169.2 L 152.9 167.1 L 180.5 167.1 L 208.1 167.9 L 235.7 169.2 L 263.3 167.9 L 291.0 149.6 L 318.6 167.1 L 346.2 167.9 L 373.8 153.3 L 401.4 167.1 L 429.0 167.3 L 456.7 162.0 L 484.3 162.0 L 511.9 162.0 L 539.5 162.0 L 567.1 162.0 L 594.8 162.0 L 622.4 162.0 L 650.0 248.7" fill="none" stroke="#ffa657" stroke-width="2" opacity="0.8"/>
<circle cx="70.0" cy="167.1" r="3" fill="#ffa657"/>
<circle cx="180.5" cy="167.1" r="3" fill="#ffa657"/>
<circle cx="291.0" cy="149.6" r="3" fill="#ffa657"/>
<circle cx="401.4" cy="167.1" r="3" fill="#ffa657"/>
<circle cx="511.9" cy="162.0" r="3" fill="#ffa657"/>
<circle cx="622.4" cy="162.0" r="3" fill="#ffa657"/>
<circle cx="650.0" cy="248.7" r="4" fill="#ffa657"/>
<text x="70.0" y="113.0" fill="#2ea043" font-family="monospace" font-size="8px" text-anchor="middle">122.6KB</text>
<text x="70.0" y="131.1" fill="#3fb950" font-family="monospace" font-size="8px" text-anchor="middle">119.1KB</text>
<text x="70.0" y="149.1" fill="#f78166" font-family="monospace" font-size="8px" text-anchor="middle">116.3KB</text>
<text x="70.0" y="167.1" fill="#1f6feb" font-family="monospace" font-size="8px" text-anchor="middle">115.8KB</text>
<text x="70.0" y="185.1" fill="#58a6ff" font-family="monospace" font-size="8px" text-anchor="middle">115.8KB</text>
<text x="70.0" y="203.1" fill="#ffa657" font-family="monospace" font-size="8px" text-anchor="middle">113.7KB</text>
<text x="70.0" y="221.1" fill="#388bfd" font-family="monospace" font-size="8px" text-anchor="middle">112.8KB</text>
<text x="70.0" y="239.1" fill="#56d364" font-family="monospace" font-size="8px" text-anchor="middle">105.2KB</text>
<text x="70.0" y="257.1" fill="#238636" font-family="monospace" font-size="8px" text-anchor="middle">104.2KB</text>
<text x="180.5" y="113.0" fill="#2ea043" font-family="monospace" font-size="8px" text-anchor="middle">122.6KB</text>
<text x="180.5" y="131.1" fill="#3fb950" font-family="monospace" font-size="8px" text-anchor="middle">119.1KB</text>
<text x="180.5" y="149.1" fill="#f78166" font-family="monospace" font-size="8px" text-anchor="middle">116.3KB</text>
<text x="180.5" y="167.1" fill="#1f6feb" font-family="monospace" font-size="8px" text-anchor="middle">115.8KB</text>
<text x="180.5" y="185.1" fill="#58a6ff" font-family="monospace" font-size="8px" text-anchor="middle">115.8KB</text>
<text x="180.5" y="203.1" fill="#ffa657" font-family="monospace" font-size="8px" text-anchor="middle">113.7KB</text>
<text x="180.5" y="221.1" fill="#388bfd" font-family="monospace" font-size="8px" text-anchor="middle">112.8KB</text>
<text x="180.5" y="239.1" fill="#56d364" font-family="monospace" font-size="8px" text-anchor="middle">105.2KB</text>
<text x="180.5" y="257.1" fill="#238636" font-family="monospace" font-size="8px" text-anchor="middle">104.2KB</text>
<text x="291.0" y="97.6" fill="#2ea043" font-family="monospace" font-size="8px" text-anchor="middle">125.5KB</text>
<text x="291.0" y="116.1" fill="#3fb950" font-family="monospace" font-size="8px" text-anchor="middle">122.0KB</text>
<text x="291.0" y="134.1" fill="#f78166" font-family="monospace" font-size="8px" text-anchor="middle">119.3KB</text>
<text x="291.0" y="152.1" fill="#58a6ff" font-family="monospace" font-size="8px" text-anchor="middle">118.9KB</text>
<text x="291.0" y="170.1" fill="#1f6feb" font-family="monospace" font-size="8px" text-anchor="middle">118.9KB</text>
<text x="291.0" y="188.1" fill="#ffa657" font-family="monospace" font-size="8px" text-anchor="middle">117.1KB</text>
<text x="291.0" y="206.1" fill="#388bfd" font-family="monospace" font-size="8px" text-anchor="middle">116.1KB</text>
<text x="291.0" y="224.1" fill="#56d364" font-family="monospace" font-size="8px" text-anchor="middle">108.1KB</text>
<text x="291.0" y="242.1" fill="#238636" font-family="monospace" font-size="8px" text-anchor="middle">107.3KB</text>
<text x="401.4" y="113.0" fill="#2ea043" font-family="monospace" font-size="8px" text-anchor="middle">122.6KB</text>
<text x="401.4" y="131.1" fill="#3fb950" font-family="monospace" font-size="8px" text-anchor="middle">119.1KB</text>
<text x="401.4" y="149.1" fill="#f78166" font-family="monospace" font-size="8px" text-anchor="middle">116.3KB</text>
<text x="401.4" y="167.1" fill="#1f6feb" font-family="monospace" font-size="8px" text-anchor="middle">115.8KB</text>
<text x="401.4" y="185.1" fill="#58a6ff" font-family="monospace" font-size="8px" text-anchor="middle">115.8KB</text>
<text x="401.4" y="203.1" fill="#ffa657" font-family="monospace" font-size="8px" text-anchor="middle">113.7KB</text>
<text x="401.4" y="221.1" fill="#388bfd" font-family="monospace" font-size="8px" text-anchor="middle">112.8KB</text>
<text x="401.4" y="239.1" fill="#56d364" font-family="monospace" font-size="8px" text-anchor="middle">105.2KB</text>
<text x="401.4" y="257.1" fill="#238636" font-family="monospace" font-size="8px" text-anchor="middle">104.2KB</text>
<text x="511.9" y="107.3" fill="#2ea043" font-family="monospace" font-size="8px" text-anchor="middle">123.7KB</text>
<text x="511.9" y="125.5" fill="#3fb950" font-family="monospace" font-size="8px" text-anchor="middle">120.2KB</text>
<text x="511.9" y="143.5" fill="#f78166" font-family="monospace" font-size="8px" text-anchor="middle">117.3KB</text>
<text x="511.9" y="161.5" fill="#1f6feb" font-family="monospace" font-size="8px" text-anchor="middle">116.9KB</text>
<text x="511.9" y="179.5" fill="#58a6ff" font-family="monospace" font-size="8px" text-anchor="middle">116.9KB</text>
<text x="511.9" y="197.5" fill="#ffa657" font-family="monospace" font-size="8px" text-anchor="middle">114.7KB</text>
<text x="511.9" y="215.5" fill="#388bfd" font-family="monospace" font-size="8px" text-anchor="middle">113.8KB</text>
<text x="511.9" y="233.5" fill="#56d364" font-family="monospace" font-size="8px" text-anchor="middle">106.2KB</text>
<text x="511.9" y="251.5" fill="#238636" font-family="monospace" font-size="8px" text-anchor="middle">105.0KB</text>
<text x="622.4" y="107.3" fill="#2ea043" font-family="monospace" font-size="8px" text-anchor="middle">123.7KB</text>
<text x="622.4" y="125.5" fill="#3fb950" font-family="monospace" font-size="8px" text-anchor="middle">120.2KB</text>
<text x="622.4" y="143.5" fill="#f78166" font-family="monospace" font-size="8px" text-anchor="middle">117.3KB</text>
<text x="622.4" y="161.5" fill="#1f6feb" font-family="monospace" font-size="8px" text-anchor="middle">116.8KB</text>
<text x="622.4" y="179.5" fill="#58a6ff" font-family="monospace" font-size="8px" text-anchor="middle">116.8KB</text>
<text x="622.4" y="197.5" fill="#ffa657" font-family="monospace" font-size="8px" text-anchor="middle">114.7KB</text>
<text x="622.4" y="215.5" fill="#388bfd" font-family="monospace" font-size="8px" text-anchor="middle">113.7KB</text>
<text x="622.4" y="233.5" fill="#56d364" font-family="monospace" font-size="8px" text-anchor="middle">106.2KB</text>
<text x="622.4" y="251.5" fill="#238636" font-family="monospace" font-size="8px" text-anchor="middle">105.0KB</text>
<text x="650.0" y="269.5" fill="#2ea043" font-family="monospace" font-size="8px" text-anchor="middle">108.0KB</text>
<text x="650.0" y="287.5" fill="#58a6ff" font-family="monospace" font-size="8px" text-anchor="middle">103.3KB</text>
<text x="650.0" y="305.5" fill="#3fb950" font-family="monospace" font-size="8px" text-anchor="middle">102.3KB</text>
<text x="650.0" y="323.5" fill="#ffa657" font-family="monospace" font-size="8px" text-anchor="middle">98.2KB</text>
<text x="650.0" y="341.5" fill="#f78166" font-family="monospace" font-size="8px" text-anchor="middle">97.0KB</text>
<text x="650.0" y="359.5" fill="#388bfd" font-family="monospace" font-size="8px" text-anchor="middle">97.0KB</text>
<text x="650.0" y="377.5" fill="#1f6feb" font-family="monospace" font-size="8px" text-anchor="middle">96.5KB</text>
<text x="650.0" y="395.5" fill="#238636" font-family="monospace" font-size="8px" text-anchor="middle">91.4KB</text>
<text x="650.0" y="413.5" fill="#56d364" font-family="monospace" font-size="8px" text-anchor="middle">89.7KB</text>
<rect x="665" y="44" width="12" height="12" fill="#58a6ff"/>
<text x="683" y="54" class="legend">Win i386</text>
<rect x="665" y="62" width="12" height="12" fill="#1f6feb"/>
<text x="683" y="72" class="legend">Win x64</text>
<rect x="665" y="80" width="12" height="12" fill="#388bfd"/>
<text x="683" y="90" class="legend">Win ARM64</text>
<rect x="665" y="98" width="12" height="12" fill="#3fb950"/>
<text x="683" y="108" class="legend">Linux i386</text>
<rect x="665" y="116" width="12" height="12" fill="#238636"/>
<text x="683" y="126" class="legend">Linux x64</text>
<rect x="665" y="134" width="12" height="12" fill="#2ea043"/>
<text x="683" y="144" class="legend">Linux ARM</text>
<rect x="665" y="152" width="12" height="12" fill="#56d364"/>
<text x="683" y="162" class="legend">Linux ARM64</text>
<rect x="665" y="170" width="12" height="12" fill="#f78166"/>
<text x="683" y="180" class="legend">UEFI x64</text>
<rect x="665" y="188" width="12" height="12" fill="#ffa657"/>
<text x="683" y="198" class="legend">UEFI ARM64</text>
</svg>