<svg xmlns="http://www.w3.org/2000/svg" width="800" height="400">
<defs>
<style>
.axis-text { fill: #8b949e; font-family: monospace; font-size: 11px; }
.title { fill: #c9d1d9; font-family: monospace; font-size: 14px; font-weight: bold; }
.legend { fill: #8b949e; font-family: monospace; font-size: 10px; }
.grid { stroke: #21262d; stroke-width: 1; }
</style>
</defs>
<rect width="800" height="400" fill="#0d1117"/>
<text x="400.0" y="25" class="title" text-anchor="middle">Binary Size Trend (.bin)</text>
<line x1="70" y1="40.0" x2="650" y2="40.0" class="grid"/>
<text x="60" y="44.0" class="axis-text" text-anchor="end">138KB</text>
<line x1="70" y1="100.0" x2="650" y2="100.0" class="grid"/>
<text x="60" y="104.0" class="axis-text" text-anchor="end">127KB</text>
<line x1="70" y1="160.0" x2="650" y2="160.0" class="grid"/>
<text x="60" y="164.0" class="axis-text" text-anchor="end">115KB</text>
<line x1="70" y1="220.0" x2="650" y2="220.0" class="grid"/>
<text x="60" y="224.0" class="axis-text" text-anchor="end">104KB</text>
<line x1="70" y1="280.0" x2="650" y2="280.0" class="grid"/>
<text x="60" y="284.0" class="axis-text" text-anchor="end">92KB</text>
<line x1="70" y1="340.0" x2="650" y2="340.0" class="grid"/>
<text x="60" y="344.0" class="axis-text" text-anchor="end">81KB</text>
<text x="70.0" y="360" class="axis-text" text-anchor="middle">02-05</text>
<text x="159.23076923076923" y="360" class="axis-text" text-anchor="middle">02-05</text>
<text x="248.46153846153848" y="360" class="axis-text" text-anchor="middle">02-05</text>
<text x="337.6923076923077" y="360" class="axis-text" text-anchor="middle">02-05</text>
<text x="426.92307692307696" y="360" class="axis-text" text-anchor="middle">02-06</text>
<text x="516.1538461538462" y="360" class="axis-text" text-anchor="middle">02-09</text>
<text x="605.3846153846154" y="360" class="axis-text" text-anchor="middle">02-11</text>
<path d="M 70.0 156.4 L 92.3 157.0 L 114.6 158.2 L 136.9 156.3 L 159.2 156.4 L 181.5 157.1 L 203.8 158.2 L 226.2 157.1 L 248.5 140.0 L 270.8 156.3 L 293.1 157.1 L 315.4 144.9 L 337.7 156.4 L 360.0 156.0 L 382.3 150.7 L 404.6 150.7 L 426.9 150.7 L 449.2 150.7 L 471.5 150.7 L 493.8 151.0 L 516.2 151.0 L 538.5 221.7 L 560.8 221.7 L 583.1 220.8 L 605.4 220.8 L 627.7 220.8 L 650.0 207.0" fill="none" stroke="#58a6ff" stroke-width="2" opacity="0.8"/>
<circle cx="70.0" cy="156.4" r="3" fill="#58a6ff"/>
<circle cx="181.5" cy="157.1" r="3" fill="#58a6ff"/>
<circle cx="293.1" cy="157.1" r="3" fill="#58a6ff"/>
<circle cx="404.6" cy="150.7" r="3" fill="#58a6ff"/>
<circle cx="516.2" cy="151.0" r="3" fill="#58a6ff"/>
<circle cx="627.7" cy="220.8" r="3" fill="#58a6ff"/>
<circle cx="650.0" cy="207.0" r="4" fill="#58a6ff"/>
<path d="M 70.0 156.4 L 92.3 157.4 L 114.6 158.6 L 136.9 156.4 L 159.2 156.4 L 181.5 157.5 L 203.8 158.6 L 226.2 157.5 L 248.5 140.2 L 270.8 156.4 L 293.1 157.5 L 315.4 144.0 L 337.7 156.4 L 360.0 157.2 L 382.3 150.7 L 404.6 150.7 L 426.9 150.7 L 449.2 150.7 L 471.5 150.7 L 493.8 151.0 L 516.2 151.0 L 538.5 257.4 L 560.8 257.4 L 583.1 256.2 L 605.4 256.2 L 627.7 256.2 L 650.0 258.3" fill="none" stroke="#1f6feb" stroke-width="2" opacity="0.8"/>
<circle cx="70.0" cy="156.4" r="3" fill="#1f6feb"/>
<circle cx="181.5" cy="157.5" r="3" fill="#1f6feb"/>
<circle cx="293.1" cy="157.5" r="3" fill="#1f6feb"/>
<circle cx="404.6" cy="150.7" r="3" fill="#1f6feb"/>
<circle cx="516.2" cy="151.0" r="3" fill="#1f6feb"/>
<circle cx="627.7" cy="256.2" r="3" fill="#1f6feb"/>
<circle cx="650.0" cy="258.3" r="4" fill="#1f6feb"/>
<path d="M 70.0 172.1 L 92.3 172.7 L 114.6 174.2 L 136.9 172.1 L 159.2 172.1 L 181.5 172.9 L 203.8 174.2 L 226.2 172.9 L 248.5 154.7 L 270.8 172.1 L 293.1 172.9 L 315.4 158.4 L 337.7 172.1 L 360.0 172.3 L 382.3 166.9 L 404.6 166.9 L 426.9 166.9 L 449.2 166.9 L 471.5 166.9 L 493.8 167.1 L 516.2 167.1 L 538.5 254.5 L 560.8 254.5 L 583.1 253.7 L 605.4 253.7 L 627.7 253.7 L 650.0 243.7" fill="none" stroke="#388bfd" stroke-width="2" opacity="0.8"/>
<circle cx="70.0" cy="172.1" r="3" fill="#388bfd"/>
<circle cx="181.5" cy="172.9" r="3" fill="#388bfd"/>
<circle cx="293.1" cy="172.9" r="3" fill="#388bfd"/>
<circle cx="404.6" cy="166.9" r="3" fill="#388bfd"/>
<circle cx="516.2" cy="167.1" r="3" fill="#388bfd"/>
<circle cx="627.7" cy="253.7" r="3" fill="#388bfd"/>
<circle cx="650.0" cy="243.7" r="4" fill="#388bfd"/>
<path d="M 70.0 139.1 L 92.3 140.5 L 114.6 141.2 L 136.9 139.1 L 159.2 139.1 L 181.5 140.7 L 203.8 141.2 L 226.2 140.7 L 248.5 124.1 L 270.8 139.1 L 293.1 140.7 L 315.4 127.5 L 337.7 139.1 L 360.0 139.0 L 382.3 133.5 L 404.6 133.5 L 426.9 133.5 L 449.2 133.5 L 471.5 133.5 L 493.8 133.5 L 516.2 133.5 L 538.5 227.2 L 560.8 227.2 L 583.1 225.9 L 605.4 225.9 L 627.7 225.9 L 650.0 230.5" fill="none" stroke="#3fb950" stroke-width="2" opacity="0.8"/>
<circle cx="70.0" cy="139.1" r="3" fill="#3fb950"/>
<circle cx="181.5" cy="140.7" r="3" fill="#3fb950"/>
<circle cx="293.1" cy="140.7" r="3" fill="#3fb950"/>
<circle cx="404.6" cy="133.5" r="3" fill="#3fb950"/>
<circle cx="516.2" cy="133.5" r="3" fill="#3fb950"/>
<circle cx="627.7" cy="225.9" r="3" fill="#3fb950"/>
<circle cx="650.0" cy="230.5" r="4" fill="#3fb950"/>
<path d="M 70.0 217.2 L 92.3 218.7 L 114.6 218.6 L 136.9 217.2 L 159.2 217.2 L 181.5 218.8 L 203.8 218.6 L 226.2 218.8 L 248.5 201.0 L 270.8 217.2 L 293.1 218.8 L 315.4 205.2 L 337.7 217.2 L 360.0 216.9 L 382.3 212.8 L 404.6 212.8 L 426.9 212.8 L 449.2 212.8 L 471.5 212.8 L 493.8 212.8 L 516.2 212.8 L 538.5 284.0 L 560.8 284.0 L 583.1 282.4 L 605.4 282.4 L 627.7 282.4 L 650.0 283.7" fill="none" stroke="#238636" stroke-width="2" opacity="0.8"/>
<circle cx="70.0" cy="217.2" r="3" fill="#238636"/>
<circle cx="181.5" cy="218.8" r="3" fill="#238636"/>
<circle cx="293.1" cy="218.8" r="3" fill="#238636"/>
<circle cx="404.6" cy="212.8" r="3" fill="#238636"/>
<circle cx="516.2" cy="212.8" r="3" fill="#238636"/>
<circle cx="627.7" cy="282.4" r="3" fill="#238636"/>
<circle cx="650.0" cy="283.7" r="4" fill="#238636"/>
<path d="M 70.0 121.0 L 92.3 122.6 L 114.6 123.0 L 136.9 121.0 L 159.2 121.0 L 181.5 122.7 L 203.8 123.0 L 226.2 122.7 L 248.5 105.6 L 270.8 121.0 L 293.1 122.7 L 315.4 110.9 L 337.7 121.0 L 360.0 121.1 L 382.3 115.3 L 404.6 115.3 L 426.9 115.3 L 449.2 115.3 L 471.5 115.3 L 493.8 115.3 L 516.2 115.3 L 538.5 197.4 L 560.8 197.4 L 583.1 196.4 L 605.4 196.4 L 627.7 196.4 L 650.0 184.8" fill="none" stroke="#2ea043" stroke-width="2" opacity="0.8"/>
<circle cx="70.0" cy="121.0" r="3" fill="#2ea043"/>
<circle cx="181.5" cy="122.7" r="3" fill="#2ea043"/>
<circle cx="293.1" cy="122.7" r="3" fill="#2ea043"/>
<circle cx="404.6" cy="115.3" r="3" fill="#2ea043"/>
<circle cx="516.2" cy="115.3" r="3" fill="#2ea043"/>
<circle cx="627.7" cy="196.4" r="3" fill="#2ea043"/>
<circle cx="650.0" cy="184.8" r="4" fill="#2ea043"/>
<path d="M 70.0 211.5 L 92.3 213.3 L 114.6 213.7 L 136.9 211.5 L 159.2 211.5 L 181.5 213.5 L 203.8 213.7 L 226.2 213.5 L 248.5 196.5 L 270.8 211.5 L 293.1 213.5 L 315.4 200.0 L 337.7 211.5 L 360.0 211.8 L 382.3 206.4 L 404.6 206.4 L 426.9 206.4 L 449.2 206.4 L 471.5 206.4 L 493.8 206.4 L 516.2 206.4 L 538.5 293.1 L 560.8 293.1 L 583.1 292.4 L 605.4 292.4 L 627.7 292.4 L 650.0 284.1" fill="none" stroke="#56d364" stroke-width="2" opacity="0.8"/>
<circle cx="70.0" cy="211.5" r="3" fill="#56d364"/>
<circle cx="181.5" cy="213.5" r="3" fill="#56d364"/>
<circle cx="293.1" cy="213.5" r="3" fill="#56d364"/>
<circle cx="404.6" cy="206.4" r="3" fill="#56d364"/>
<circle cx="516.2" cy="206.4" r="3" fill="#56d364"/>
<circle cx="627.7" cy="292.4" r="3" fill="#56d364"/>
<circle cx="650.0" cy="284.1" r="4" fill="#56d364"/>
<path d="M 70.0 154.0 L 92.3 155.1 L 114.6 156.2 L 136.9 153.9 L 159.2 154.0 L 181.5 155.1 L 203.8 156.2 L 226.2 155.1 L 248.5 138.2 L 270.8 153.9 L 293.1 155.1 L 315.4 142.0 L 337.7 154.0 L 360.0 154.8 L 382.3 148.7 L 404.6 148.7 L 426.9 148.7 L 449.2 148.7 L 471.5 148.7 L 493.8 148.7 L 516.2 148.7 L 538.5 254.5 L 560.8 254.5 L 583.1 253.3 L 605.4 253.3 L 627.7 253.3 L 650.0 258.5" fill="none" stroke="#f78166" stroke-width="2" opacity="0.8"/>
<circle cx="70.0" cy="154.0" r="3" fill="#f78166"/>
<circle cx="181.5" cy="155.1" r="3" fill="#f78166"/>
<circle cx="293.1" cy="155.1" r="3" fill="#f78166"/>
<circle cx="404.6" cy="148.7" r="3" fill="#f78166"/>
<circle cx="516.2" cy="148.7" r="3" fill="#f78166"/>
<circle cx="627.7" cy="253.3" r="3" fill="#f78166"/>
<circle cx="650.0" cy="258.5" r="4" fill="#f78166"/>
<path d="M 70.0 167.1 L 92.3 167.9 L 114.6 169.2 L 136.9 167.1 L 159.2 167.1 L 181.5 167.9 L 203.8 169.2 L 226.2 167.9 L 248.5 149.6 L 270.8 167.1 L 293.1 167.9 L 315.4 153.3 L 337.7 167.1 L 360.0 167.3 L 382.3 162.0 L 404.6 162.0 L 426.9 162.0 L 449.2 162.0 L 471.5 162.0 L 493.8 162.0 L 516.2 162.0 L 538.5 248.7 L 560.8 248.7 L 583.1 247.8 L 605.4 247.8 L 627.7 247.8 L 650.0 240.8" fill="none" stroke="#ffa657" stroke-width="2" opacity="0.8"/>
<circle cx="70.0" cy="167.1" r="3" fill="#ffa657"/>
<circle cx="181.5" cy="167.9" r="3" fill="#ffa657"/>
<circle cx="293.1" cy="167.9" r="3" fill="#ffa657"/>
<circle cx="404.6" cy="162.0" r="3" fill="#ffa657"/>
<circle cx="516.2" cy="162.0" r="3" fill="#ffa657"/>
<circle cx="627.7" cy="247.8" r="3" fill="#ffa657"/>
<circle cx="650.0" cy="240.8" r="4" fill="#ffa657"/>
<text x="70.0" y="113.0" fill="#2ea043" font-family="monospace" font-size="8px" text-anchor="middle">122.6KB</text>
<text x="70.0" y="131.1" fill="#3fb950" font-family="monospace" font-size="8px" text-anchor="middle">119.1KB</text>
<text x="70.0" y="149.1" fill="#f78166" font-family="monospace" font-size="8px" text-anchor="middle">116.3KB</text>
<text x="70.0" y="167.1" fill="#1f6feb" font-family="monospace" font-size="8px" text-anchor="middle">115.8KB</text>
<text x="70.0" y="185.1" fill="#58a6ff" font-family="monospace" font-size="8px" text-anchor="middle">115.8KB</text>
<text x="70.0" y="203.1" fill="#ffa657" font-family="monospace" font-size="8px" text-anchor="middle">113.7KB</text>
<text x="70.0" y="221.1" fill="#388bfd" font-family="monospace" font-size="8px" text-anchor="middle">112.8KB</text>
<text x="70.0" y="239.1" fill="#56d364" font-family="monospace" font-size="8px" text-anchor="middle">105.2KB</text>
<text x="70.0" y="257.1" fill="#238636" font-family="monospace" font-size="8px" text-anchor="middle">104.2KB</text>
<text x="181.5" y="114.7" fill="#2ea043" font-family="monospace" font-size="8px" text-anchor="middle">122.2KB</text>
<text x="181.5" y="132.7" fill="#3fb950" font-family="monospace" font-size="8px" text-anchor="middle">118.8KB</text>
<text x="181.5" y="150.7" fill="#f78166" font-family="monospace" font-size="8px" text-anchor="middle">116.0KB</text>
<text x="181.5" y="168.7" fill="#58a6ff" font-family="monospace" font-size="8px" text-anchor="middle">115.7KB</text>
<text x="181.5" y="186.7" fill="#1f6feb" font-family="monospace" font-size="8px" text-anchor="middle">115.6KB</text>
<text x="181.5" y="204.7" fill="#ffa657" font-family="monospace" font-size="8px" text-anchor="middle">113.6KB</text>
<text x="181.5" y="222.7" fill="#388bfd" font-family="monospace" font-size="8px" text-anchor="middle">112.6KB</text>
<text x="181.5" y="240.7" fill="#56d364" font-family="monospace" font-size="8px" text-anchor="middle">104.9KB</text>
<text x="181.5" y="258.7" fill="#238636" font-family="monospace" font-size="8px" text-anchor="middle">103.9KB</text>
<text x="293.1" y="114.7" fill="#2ea043" font-family="monospace" font-size="8px" text-anchor="middle">122.2KB</text>
<text x="293.1" y="132.7" fill="#3fb950" font-family="monospace" font-size="8px" text-anchor="middle">118.8KB</text>
<text x="293.1" y="150.7" fill="#f78166" font-family="monospace" font-size="8px" text-anchor="middle">116.0KB</text>
<text x="293.1" y="168.7" fill="#58a6ff" font-family="monospace" font-size="8px" text-anchor="middle">115.7KB</text>
<text x="293.1" y="186.7" fill="#1f6feb" font-family="monospace" font-size="8px" text-anchor="middle">115.6KB</text>
<text x="293.1" y="204.7" fill="#ffa657" font-family="monospace" font-size="8px" text-anchor="middle">113.6KB</text>
<text x="293.1" y="222.7" fill="#388bfd" font-family="monospace" font-size="8px" text-anchor="middle">112.6KB</text>
<text x="293.1" y="240.7" fill="#56d364" font-family="monospace" font-size="8px" text-anchor="middle">104.9KB</text>
<text x="293.1" y="258.7" fill="#238636" font-family="monospace" font-size="8px" text-anchor="middle">103.9KB</text>
<text x="404.6" y="107.3" fill="#2ea043" font-family="monospace" font-size="8px" text-anchor="middle">123.7KB</text>
<text x="404.6" y="125.5" fill="#3fb950" font-family="monospace" font-size="8px" text-anchor="middle">120.2KB</text>
<text x="404.6" y="143.5" fill="#f78166" font-family="monospace" font-size="8px" text-anchor="middle">117.3KB</text>
<text x="404.6" y="161.5" fill="#1f6feb" font-family="monospace" font-size="8px" text-anchor="middle">116.9KB</text>
<text x="404.6" y="179.5" fill="#58a6ff" font-family="monospace" font-size="8px" text-anchor="middle">116.9KB</text>
<text x="404.6" y="197.5" fill="#ffa657" font-family="monospace" font-size="8px" text-anchor="middle">114.7KB</text>
<text x="404.6" y="215.5" fill="#388bfd" font-family="monospace" font-size="8px" text-anchor="middle">113.8KB</text>
<text x="404.6" y="233.5" fill="#56d364" font-family="monospace" font-size="8px" text-anchor="middle">106.2KB</text>
<text x="404.6" y="251.5" fill="#238636" font-family="monospace" font-size="8px" text-anchor="middle">105.0KB</text>
<text x="516.2" y="107.3" fill="#2ea043" font-family="monospace" font-size="8px" text-anchor="middle">123.7KB</text>
<text x="516.2" y="125.5" fill="#3fb950" font-family="monospace" font-size="8px" text-anchor="middle">120.2KB</text>
<text x="516.2" y="143.5" fill="#f78166" font-family="monospace" font-size="8px" text-anchor="middle">117.3KB</text>
<text x="516.2" y="161.5" fill="#1f6feb" font-family="monospace" font-size="8px" text-anchor="middle">116.8KB</text>
<text x="516.2" y="179.5" fill="#58a6ff" font-family="monospace" font-size="8px" text-anchor="middle">116.8KB</text>
<text x="516.2" y="197.5" fill="#ffa657" font-family="monospace" font-size="8px" text-anchor="middle">114.7KB</text>
<text x="516.2" y="215.5" fill="#388bfd" font-family="monospace" font-size="8px" text-anchor="middle">113.7KB</text>
<text x="516.2" y="233.5" fill="#56d364" font-family="monospace" font-size="8px" text-anchor="middle">106.2KB</text>
<text x="516.2" y="251.5" fill="#238636" font-family="monospace" font-size="8px" text-anchor="middle">105.0KB</text>
<text x="627.7" y="188.4" fill="#2ea043" font-family="monospace" font-size="8px" text-anchor="middle">108.1KB</text>
<text x="627.7" y="212.8" fill="#58a6ff" font-family="monospace" font-size="8px" text-anchor="middle">103.5KB</text>
<text x="627.7" y="230.8" fill="#3fb950" font-family="monospace" font-size="8px" text-anchor="middle">102.5KB</text>
<text x="627.7" y="248.8" fill="#ffa657" font-family="monospace" font-size="8px" text-anchor="middle">98.3KB</text>
<text x="627.7" y="266.8" fill="#f78166" font-family="monospace" font-size="8px" text-anchor="middle">97.3KB</text>
<text x="627.7" y="284.8" fill="#388bfd" font-family="monospace" font-size="8px" text-anchor="middle">97.2KB</text>
<text x="627.7" y="302.8" fill="#1f6feb" font-family="monospace" font-size="8px" text-anchor="middle">96.7KB</text>
<text x="627.7" y="320.8" fill="#238636" font-family="monospace" font-size="8px" text-anchor="middle">91.7KB</text>
<text x="627.7" y="338.8" fill="#56d364" font-family="monospace" font-size="8px" text-anchor="middle">89.8KB</text>
<text x="650.0" y="170.4" fill="#2ea043" font-family="monospace" font-size="8px" text-anchor="middle">110.4KB</text>
<text x="650.0" y="194.8" fill="#58a6ff" font-family="monospace" font-size="8px" text-anchor="middle">106.1KB</text>
<text x="650.0" y="356.8" fill="#3fb950" font-family="monospace" font-size="8px" text-anchor="middle">101.6KB</text>
<text x="650.0" y="374.8" fill="#ffa657" font-family="monospace" font-size="8px" text-anchor="middle">99.7KB</text>
<text x="650.0" y="392.8" fill="#388bfd" font-family="monospace" font-size="8px" text-anchor="middle">99.1KB</text>
<text x="650.0" y="410.8" fill="#1f6feb" font-family="monospace" font-size="8px" text-anchor="middle">96.3KB</text>
<text x="650.0" y="428.8" fill="#f78166" font-family="monospace" font-size="8px" text-anchor="middle">96.3KB</text>
<text x="650.0" y="446.8" fill="#238636" font-family="monospace" font-size="8px" text-anchor="middle">91.5KB</text>
<text x="650.0" y="464.8" fill="#56d364" font-family="monospace" font-size="8px" text-anchor="middle">91.4KB</text>
<rect x="665" y="44" width="12" height="12" fill="#58a6ff"/>
<text x="683" y="54" class="legend">Win i386</text>
<rect x="665" y="62" width="12" height="12" fill="#1f6feb"/>
<text x="683" y="72" class="legend">Win x64</text>
<rect x="665" y="80" width="12" height="12" fill="#388bfd"/>
<text x="683" y="90" class="legend">Win ARM64</text>
<rect x="665" y="98" width="12" height="12" fill="#3fb950"/>
<text x="683" y="108" class="legend">Linux i386</text>
<rect x="665" y="116" width="12" height="12" fill="#238636"/>
<text x="683" y="126" class="legend">Linux x64</text>
<rect x="665" y="134" width="12" height="12" fill="#2ea043"/>
<text x="683" y="144" class="legend">Linux ARM</text>
<rect x="665" y="152" width="12" height="12" fill="#56d364"/>
<text x="683" y="162" class="legend">Linux ARM64</text>
<rect x="665" y="170" width="12" height="12" fill="#f78166"/>
<text x="683" y="180" class="legend">UEFI x64</text>
<rect x="665" y="188" width="12" height="12" fill="#ffa657"/>
<text x="683" y="198" class="legend">UEFI ARM64</text>
</svg>