<svg xmlns="http://www.w3.org/2000/svg" width="800" height="400">
<defs>
<style>
.axis-text { fill: #8b949e; font-family: monospace; font-size: 11px; }
.title { fill: #c9d1d9; font-family: monospace; font-size: 14px; font-weight: bold; }
.legend { fill: #8b949e; font-family: monospace; font-size: 10px; }
.grid { stroke: #21262d; stroke-width: 1; }
</style>
</defs>
<rect width="800" height="400" fill="#0d1117"/>
<text x="400.0" y="25" class="title" text-anchor="middle">Binary Size Trend (.bin)</text>
<line x1="70" y1="40.0" x2="650" y2="40.0" class="grid"/>
<text x="60" y="44.0" class="axis-text" text-anchor="end">138KB</text>
<line x1="70" y1="100.0" x2="650" y2="100.0" class="grid"/>
<text x="60" y="104.0" class="axis-text" text-anchor="end">129KB</text>
<line x1="70" y1="160.0" x2="650" y2="160.0" class="grid"/>
<text x="60" y="164.0" class="axis-text" text-anchor="end">120KB</text>
<line x1="70" y1="220.0" x2="650" y2="220.0" class="grid"/>
<text x="60" y="224.0" class="axis-text" text-anchor="end">111KB</text>
<line x1="70" y1="280.0" x2="650" y2="280.0" class="grid"/>
<text x="60" y="284.0" class="axis-text" text-anchor="end">102KB</text>
<line x1="70" y1="340.0" x2="650" y2="340.0" class="grid"/>
<text x="60" y="344.0" class="axis-text" text-anchor="end">93KB</text>
<text x="70.0" y="360" class="axis-text" text-anchor="middle">02-05</text>
<text x="159.23076923076923" y="360" class="axis-text" text-anchor="middle">02-05</text>
<text x="248.46153846153848" y="360" class="axis-text" text-anchor="middle">02-05</text>
<text x="337.6923076923077" y="360" class="axis-text" text-anchor="middle">02-05</text>
<text x="426.92307692307696" y="360" class="axis-text" text-anchor="middle">02-05</text>
<text x="516.1538461538462" y="360" class="axis-text" text-anchor="middle">02-05</text>
<text x="605.3846153846154" y="360" class="axis-text" text-anchor="middle">02-05</text>
<path d="M 70.0 189.8 L 114.6 190.6 L 159.2 192.1 L 203.8 189.7 L 248.5 189.8 L 293.1 190.7 L 337.7 192.1 L 382.3 190.7 L 426.9 168.7 L 471.5 189.7 L 516.2 190.7 L 560.8 175.0 L 605.4 189.8 L 650.0 189.3" fill="none" stroke="#58a6ff" stroke-width="2" opacity="0.8"/>
<circle cx="70.0" cy="189.8" r="3" fill="#58a6ff"/>
<circle cx="159.2" cy="192.1" r="3" fill="#58a6ff"/>
<circle cx="248.5" cy="189.8" r="3" fill="#58a6ff"/>
<circle cx="337.7" cy="192.1" r="3" fill="#58a6ff"/>
<circle cx="426.9" cy="168.7" r="3" fill="#58a6ff"/>
<circle cx="516.2" cy="190.7" r="3" fill="#58a6ff"/>
<circle cx="605.4" cy="189.8" r="3" fill="#58a6ff"/>
<circle cx="650.0" cy="189.3" r="4" fill="#58a6ff"/>
<path d="M 70.0 189.7 L 114.6 191.1 L 159.2 192.6 L 203.8 189.7 L 248.5 189.7 L 293.1 191.2 L 337.7 192.6 L 382.3 191.2 L 426.9 168.9 L 471.5 189.7 L 516.2 191.2 L 560.8 173.9 L 605.4 189.7 L 650.0 190.8" fill="none" stroke="#1f6feb" stroke-width="2" opacity="0.8"/>
<circle cx="70.0" cy="189.7" r="3" fill="#1f6feb"/>
<circle cx="159.2" cy="192.6" r="3" fill="#1f6feb"/>
<circle cx="248.5" cy="189.7" r="3" fill="#1f6feb"/>
<circle cx="337.7" cy="192.6" r="3" fill="#1f6feb"/>
<circle cx="426.9" cy="168.9" r="3" fill="#1f6feb"/>
<circle cx="516.2" cy="191.2" r="3" fill="#1f6feb"/>
<circle cx="605.4" cy="189.7" r="3" fill="#1f6feb"/>
<circle cx="650.0" cy="190.8" r="4" fill="#1f6feb"/>
<path d="M 70.0 210.0 L 114.6 210.7 L 159.2 212.7 L 203.8 210.0 L 248.5 210.0 L 293.1 211.0 L 337.7 212.7 L 382.3 211.0 L 426.9 187.6 L 471.5 210.0 L 516.2 211.0 L 560.8 192.4 L 605.4 210.0 L 650.0 210.3" fill="none" stroke="#388bfd" stroke-width="2" opacity="0.8"/>
<circle cx="70.0" cy="210.0" r="3" fill="#388bfd"/>
<circle cx="159.2" cy="212.7" r="3" fill="#388bfd"/>
<circle cx="248.5" cy="210.0" r="3" fill="#388bfd"/>
<circle cx="337.7" cy="212.7" r="3" fill="#388bfd"/>
<circle cx="426.9" cy="187.6" r="3" fill="#388bfd"/>
<circle cx="516.2" cy="211.0" r="3" fill="#388bfd"/>
<circle cx="605.4" cy="210.0" r="3" fill="#388bfd"/>
<circle cx="650.0" cy="210.3" r="4" fill="#388bfd"/>
<path d="M 70.0 167.6 L 114.6 169.4 L 159.2 170.2 L 203.8 167.6 L 248.5 167.6 L 293.1 169.6 L 337.7 170.2 L 382.3 169.6 L 426.9 148.2 L 471.5 167.6 L 516.2 169.6 L 560.8 152.6 L 605.4 167.6 L 650.0 167.5" fill="none" stroke="#3fb950" stroke-width="2" opacity="0.8"/>
<circle cx="70.0" cy="167.6" r="3" fill="#3fb950"/>
<circle cx="159.2" cy="170.2" r="3" fill="#3fb950"/>
<circle cx="248.5" cy="167.6" r="3" fill="#3fb950"/>
<circle cx="337.7" cy="170.2" r="3" fill="#3fb950"/>
<circle cx="426.9" cy="148.2" r="3" fill="#3fb950"/>
<circle cx="516.2" cy="169.6" r="3" fill="#3fb950"/>
<circle cx="605.4" cy="167.6" r="3" fill="#3fb950"/>
<circle cx="650.0" cy="167.5" r="4" fill="#3fb950"/>
<path d="M 70.0 268.1 L 114.6 270.0 L 159.2 269.8 L 203.8 268.1 L 248.5 268.1 L 293.1 270.1 L 337.7 269.8 L 382.3 270.1 L 426.9 247.2 L 471.5 268.1 L 516.2 270.1 L 560.8 252.5 L 605.4 268.1 L 650.0 267.7" fill="none" stroke="#238636" stroke-width="2" opacity="0.8"/>
<circle cx="70.0" cy="268.1" r="3" fill="#238636"/>
<circle cx="159.2" cy="269.8" r="3" fill="#238636"/>
<circle cx="248.5" cy="268.1" r="3" fill="#238636"/>
<circle cx="337.7" cy="269.8" r="3" fill="#238636"/>
<circle cx="426.9" cy="247.2" r="3" fill="#238636"/>
<circle cx="516.2" cy="270.1" r="3" fill="#238636"/>
<circle cx="605.4" cy="268.1" r="3" fill="#238636"/>
<circle cx="650.0" cy="267.7" r="4" fill="#238636"/>
<path d="M 70.0 144.3 L 114.6 146.3 L 159.2 146.8 L 203.8 144.3 L 248.5 144.3 L 293.1 146.5 L 337.7 146.8 L 382.3 146.5 L 426.9 124.5 L 471.5 144.3 L 516.2 146.5 L 560.8 131.3 L 605.4 144.3 L 650.0 144.4" fill="none" stroke="#2ea043" stroke-width="2" opacity="0.8"/>
<circle cx="70.0" cy="144.3" r="3" fill="#2ea043"/>
<circle cx="159.2" cy="146.8" r="3" fill="#2ea043"/>
<circle cx="248.5" cy="144.3" r="3" fill="#2ea043"/>
<circle cx="337.7" cy="146.8" r="3" fill="#2ea043"/>
<circle cx="426.9" cy="124.5" r="3" fill="#2ea043"/>
<circle cx="516.2" cy="146.5" r="3" fill="#2ea043"/>
<circle cx="605.4" cy="144.3" r="3" fill="#2ea043"/>
<circle cx="650.0" cy="144.4" r="4" fill="#2ea043"/>
<path d="M 70.0 260.8 L 114.6 263.1 L 159.2 263.5 L 203.8 260.8 L 248.5 260.8 L 293.1 263.3 L 337.7 263.5 L 382.3 263.3 L 426.9 241.3 L 471.5 260.8 L 516.2 263.3 L 560.8 245.9 L 605.4 260.8 L 650.0 261.1" fill="none" stroke="#56d364" stroke-width="2" opacity="0.8"/>
<circle cx="70.0" cy="260.8" r="3" fill="#56d364"/>
<circle cx="159.2" cy="263.5" r="3" fill="#56d364"/>
<circle cx="248.5" cy="260.8" r="3" fill="#56d364"/>
<circle cx="337.7" cy="263.5" r="3" fill="#56d364"/>
<circle cx="426.9" cy="241.3" r="3" fill="#56d364"/>
<circle cx="516.2" cy="263.3" r="3" fill="#56d364"/>
<circle cx="605.4" cy="260.8" r="3" fill="#56d364"/>
<circle cx="650.0" cy="261.1" r="4" fill="#56d364"/>
<path d="M 70.0 186.7 L 114.6 188.1 L 159.2 189.6 L 203.8 186.6 L 248.5 186.7 L 293.1 188.1 L 337.7 189.6 L 382.3 188.1 L 426.9 166.3 L 471.5 186.6 L 516.2 188.1 L 560.8 171.3 L 605.4 186.7 L 650.0 187.8" fill="none" stroke="#f78166" stroke-width="2" opacity="0.8"/>
<circle cx="70.0" cy="186.7" r="3" fill="#f78166"/>
<circle cx="159.2" cy="189.6" r="3" fill="#f78166"/>
<circle cx="248.5" cy="186.7" r="3" fill="#f78166"/>
<circle cx="337.7" cy="189.6" r="3" fill="#f78166"/>
<circle cx="426.9" cy="166.3" r="3" fill="#f78166"/>
<circle cx="516.2" cy="188.1" r="3" fill="#f78166"/>
<circle cx="605.4" cy="186.7" r="3" fill="#f78166"/>
<circle cx="650.0" cy="187.8" r="4" fill="#f78166"/>
<path d="M 70.0 203.6 L 114.6 204.6 L 159.2 206.2 L 203.8 203.6 L 248.5 203.6 L 293.1 204.6 L 337.7 206.2 L 382.3 204.6 L 426.9 181.0 L 471.5 203.6 L 516.2 204.6 L 560.8 185.8 L 605.4 203.6 L 650.0 203.9" fill="none" stroke="#ffa657" stroke-width="2" opacity="0.8"/>
<circle cx="70.0" cy="203.6" r="3" fill="#ffa657"/>
<circle cx="159.2" cy="206.2" r="3" fill="#ffa657"/>
<circle cx="248.5" cy="203.6" r="3" fill="#ffa657"/>
<circle cx="337.7" cy="206.2" r="3" fill="#ffa657"/>
<circle cx="426.9" cy="181.0" r="3" fill="#ffa657"/>
<circle cx="516.2" cy="204.6" r="3" fill="#ffa657"/>
<circle cx="605.4" cy="203.6" r="3" fill="#ffa657"/>
<circle cx="650.0" cy="203.9" r="4" fill="#ffa657"/>
<text x="70.0" y="136.3" fill="#2ea043" font-family="monospace" font-size="8px" text-anchor="middle">122.6KB</text>
<text x="70.0" y="159.6" fill="#3fb950" font-family="monospace" font-size="8px" text-anchor="middle">119.1KB</text>
<text x="70.0" y="178.7" fill="#f78166" font-family="monospace" font-size="8px" text-anchor="middle">116.3KB</text>
<text x="70.0" y="196.7" fill="#1f6feb" font-family="monospace" font-size="8px" text-anchor="middle">115.8KB</text>
<text x="70.0" y="214.7" fill="#58a6ff" font-family="monospace" font-size="8px" text-anchor="middle">115.8KB</text>
<text x="70.0" y="232.7" fill="#ffa657" font-family="monospace" font-size="8px" text-anchor="middle">113.7KB</text>
<text x="70.0" y="250.7" fill="#388bfd" font-family="monospace" font-size="8px" text-anchor="middle">112.8KB</text>
<text x="70.0" y="268.7" fill="#56d364" font-family="monospace" font-size="8px" text-anchor="middle">105.2KB</text>
<text x="70.0" y="286.7" fill="#238636" font-family="monospace" font-size="8px" text-anchor="middle">104.2KB</text>
<text x="159.2" y="138.8" fill="#2ea043" font-family="monospace" font-size="8px" text-anchor="middle">122.2KB</text>
<text x="159.2" y="162.2" fill="#3fb950" font-family="monospace" font-size="8px" text-anchor="middle">118.7KB</text>
<text x="159.2" y="181.6" fill="#f78166" font-family="monospace" font-size="8px" text-anchor="middle">115.8KB</text>
<text x="159.2" y="199.6" fill="#58a6ff" font-family="monospace" font-size="8px" text-anchor="middle">115.5KB</text>
<text x="159.2" y="217.6" fill="#1f6feb" font-family="monospace" font-size="8px" text-anchor="middle">115.4KB</text>
<text x="159.2" y="235.6" fill="#ffa657" font-family="monospace" font-size="8px" text-anchor="middle">113.4KB</text>
<text x="159.2" y="253.6" fill="#388bfd" font-family="monospace" font-size="8px" text-anchor="middle">112.4KB</text>
<text x="159.2" y="271.6" fill="#56d364" font-family="monospace" font-size="8px" text-anchor="middle">104.8KB</text>
<text x="159.2" y="289.6" fill="#238636" font-family="monospace" font-size="8px" text-anchor="middle">103.9KB</text>
<text x="248.5" y="136.3" fill="#2ea043" font-family="monospace" font-size="8px" text-anchor="middle">122.6KB</text>
<text x="248.5" y="159.6" fill="#3fb950" font-family="monospace" font-size="8px" text-anchor="middle">119.1KB</text>
<text x="248.5" y="178.7" fill="#f78166" font-family="monospace" font-size="8px" text-anchor="middle">116.3KB</text>
<text x="248.5" y="196.7" fill="#1f6feb" font-family="monospace" font-size="8px" text-anchor="middle">115.8KB</text>
<text x="248.5" y="214.7" fill="#58a6ff" font-family="monospace" font-size="8px" text-anchor="middle">115.8KB</text>
<text x="248.5" y="232.7" fill="#ffa657" font-family="monospace" font-size="8px" text-anchor="middle">113.7KB</text>
<text x="248.5" y="250.7" fill="#388bfd" font-family="monospace" font-size="8px" text-anchor="middle">112.8KB</text>
<text x="248.5" y="268.7" fill="#56d364" font-family="monospace" font-size="8px" text-anchor="middle">105.2KB</text>
<text x="248.5" y="286.7" fill="#238636" font-family="monospace" font-size="8px" text-anchor="middle">104.2KB</text>
<text x="337.7" y="138.8" fill="#2ea043" font-family="monospace" font-size="8px" text-anchor="middle">122.2KB</text>
<text x="337.7" y="162.2" fill="#3fb950" font-family="monospace" font-size="8px" text-anchor="middle">118.7KB</text>
<text x="337.7" y="181.6" fill="#f78166" font-family="monospace" font-size="8px" text-anchor="middle">115.8KB</text>
<text x="337.7" y="199.6" fill="#58a6ff" font-family="monospace" font-size="8px" text-anchor="middle">115.5KB</text>
<text x="337.7" y="217.6" fill="#1f6feb" font-family="monospace" font-size="8px" text-anchor="middle">115.4KB</text>
<text x="337.7" y="235.6" fill="#ffa657" font-family="monospace" font-size="8px" text-anchor="middle">113.4KB</text>
<text x="337.7" y="253.6" fill="#388bfd" font-family="monospace" font-size="8px" text-anchor="middle">112.4KB</text>
<text x="337.7" y="271.6" fill="#56d364" font-family="monospace" font-size="8px" text-anchor="middle">104.8KB</text>
<text x="337.7" y="289.6" fill="#238636" font-family="monospace" font-size="8px" text-anchor="middle">103.9KB</text>
<text x="426.9" y="116.5" fill="#2ea043" font-family="monospace" font-size="8px" text-anchor="middle">125.5KB</text>
<text x="426.9" y="140.2" fill="#3fb950" font-family="monospace" font-size="8px" text-anchor="middle">122.0KB</text>
<text x="426.9" y="158.3" fill="#f78166" font-family="monospace" font-size="8px" text-anchor="middle">119.3KB</text>
<text x="426.9" y="176.3" fill="#58a6ff" font-family="monospace" font-size="8px" text-anchor="middle">118.9KB</text>
<text x="426.9" y="194.3" fill="#1f6feb" font-family="monospace" font-size="8px" text-anchor="middle">118.9KB</text>
<text x="426.9" y="212.3" fill="#ffa657" font-family="monospace" font-size="8px" text-anchor="middle">117.1KB</text>
<text x="426.9" y="230.3" fill="#388bfd" font-family="monospace" font-size="8px" text-anchor="middle">116.1KB</text>
<text x="426.9" y="248.3" fill="#56d364" font-family="monospace" font-size="8px" text-anchor="middle">108.1KB</text>
<text x="426.9" y="266.3" fill="#238636" font-family="monospace" font-size="8px" text-anchor="middle">107.3KB</text>
<text x="516.2" y="138.5" fill="#2ea043" font-family="monospace" font-size="8px" text-anchor="middle">122.2KB</text>
<text x="516.2" y="161.6" fill="#3fb950" font-family="monospace" font-size="8px" text-anchor="middle">118.8KB</text>
<text x="516.2" y="180.1" fill="#f78166" font-family="monospace" font-size="8px" text-anchor="middle">116.0KB</text>
<text x="516.2" y="198.1" fill="#58a6ff" font-family="monospace" font-size="8px" text-anchor="middle">115.7KB</text>
<text x="516.2" y="216.1" fill="#1f6feb" font-family="monospace" font-size="8px" text-anchor="middle">115.6KB</text>
<text x="516.2" y="234.1" fill="#ffa657" font-family="monospace" font-size="8px" text-anchor="middle">113.6KB</text>
<text x="516.2" y="252.1" fill="#388bfd" font-family="monospace" font-size="8px" text-anchor="middle">112.6KB</text>
<text x="516.2" y="270.1" fill="#56d364" font-family="monospace" font-size="8px" text-anchor="middle">104.9KB</text>
<text x="516.2" y="288.1" fill="#238636" font-family="monospace" font-size="8px" text-anchor="middle">103.9KB</text>
<text x="605.4" y="136.3" fill="#2ea043" font-family="monospace" font-size="8px" text-anchor="middle">122.6KB</text>
<text x="605.4" y="159.6" fill="#3fb950" font-family="monospace" font-size="8px" text-anchor="middle">119.1KB</text>
<text x="605.4" y="178.7" fill="#f78166" font-family="monospace" font-size="8px" text-anchor="middle">116.3KB</text>
<text x="605.4" y="196.7" fill="#1f6feb" font-family="monospace" font-size="8px" text-anchor="middle">115.8KB</text>
<text x="605.4" y="214.7" fill="#58a6ff" font-family="monospace" font-size="8px" text-anchor="middle">115.8KB</text>
<text x="605.4" y="232.7" fill="#ffa657" font-family="monospace" font-size="8px" text-anchor="middle">113.7KB</text>
<text x="605.4" y="250.7" fill="#388bfd" font-family="monospace" font-size="8px" text-anchor="middle">112.8KB</text>
<text x="605.4" y="268.7" fill="#56d364" font-family="monospace" font-size="8px" text-anchor="middle">105.2KB</text>
<text x="605.4" y="286.7" fill="#238636" font-family="monospace" font-size="8px" text-anchor="middle">104.2KB</text>
<text x="650.0" y="141.6" fill="#2ea043" font-family="monospace" font-size="8px" text-anchor="middle">122.5KB</text>
<text x="650.0" y="160.7" fill="#3fb950" font-family="monospace" font-size="8px" text-anchor="middle">119.1KB</text>
<text x="650.0" y="304.7" fill="#f78166" font-family="monospace" font-size="8px" text-anchor="middle">116.1KB</text>
<text x="650.0" y="322.7" fill="#58a6ff" font-family="monospace" font-size="8px" text-anchor="middle">115.9KB</text>
<text x="650.0" y="340.7" fill="#1f6feb" font-family="monospace" font-size="8px" text-anchor="middle">115.6KB</text>
<text x="650.0" y="358.7" fill="#ffa657" font-family="monospace" font-size="8px" text-anchor="middle">113.7KB</text>
<text x="650.0" y="376.7" fill="#388bfd" font-family="monospace" font-size="8px" text-anchor="middle">112.8KB</text>
<text x="650.0" y="394.7" fill="#56d364" font-family="monospace" font-size="8px" text-anchor="middle">105.2KB</text>
<text x="650.0" y="412.7" fill="#238636" font-family="monospace" font-size="8px" text-anchor="middle">104.2KB</text>
<rect x="665" y="44" width="12" height="12" fill="#58a6ff"/>
<text x="683" y="54" class="legend">Win i386</text>
<rect x="665" y="62" width="12" height="12" fill="#1f6feb"/>
<text x="683" y="72" class="legend">Win x64</text>
<rect x="665" y="80" width="12" height="12" fill="#388bfd"/>
<text x="683" y="90" class="legend">Win ARM64</text>
<rect x="665" y="98" width="12" height="12" fill="#3fb950"/>
<text x="683" y="108" class="legend">Linux i386</text>
<rect x="665" y="116" width="12" height="12" fill="#238636"/>
<text x="683" y="126" class="legend">Linux x64</text>
<rect x="665" y="134" width="12" height="12" fill="#2ea043"/>
<text x="683" y="144" class="legend">Linux ARM</text>
<rect x="665" y="152" width="12" height="12" fill="#56d364"/>
<text x="683" y="162" class="legend">Linux ARM64</text>
<rect x="665" y="170" width="12" height="12" fill="#f78166"/>
<text x="683" y="180" class="legend">UEFI x64</text>
<rect x="665" y="188" width="12" height="12" fill="#ffa657"/>
<text x="683" y="198" class="legend">UEFI ARM64</text>
</svg>