<svg xmlns="http://www.w3.org/2000/svg" width="800" height="400">
<defs>
<style>
.axis-text { fill: #8b949e; font-family: monospace; font-size: 11px; }
.title { fill: #c9d1d9; font-family: monospace; font-size: 14px; font-weight: bold; }
.legend { fill: #8b949e; font-family: monospace; font-size: 10px; }
.grid { stroke: #21262d; stroke-width: 1; }
</style>
</defs>
<rect width="800" height="400" fill="#0d1117"/>
<text x="400.0" y="25" class="title" text-anchor="middle">Binary Size Trend (.bin)</text>
<line x1="70" y1="40.0" x2="650" y2="40.0" class="grid"/>
<text x="60" y="44.0" class="axis-text" text-anchor="end">138KB</text>
<line x1="70" y1="100.0" x2="650" y2="100.0" class="grid"/>
<text x="60" y="104.0" class="axis-text" text-anchor="end">127KB</text>
<line x1="70" y1="160.0" x2="650" y2="160.0" class="grid"/>
<text x="60" y="164.0" class="axis-text" text-anchor="end">115KB</text>
<line x1="70" y1="220.0" x2="650" y2="220.0" class="grid"/>
<text x="60" y="224.0" class="axis-text" text-anchor="end">104KB</text>
<line x1="70" y1="280.0" x2="650" y2="280.0" class="grid"/>
<text x="60" y="284.0" class="axis-text" text-anchor="end">92KB</text>
<line x1="70" y1="340.0" x2="650" y2="340.0" class="grid"/>
<text x="60" y="344.0" class="axis-text" text-anchor="end">81KB</text>
<text x="70.0" y="360" class="axis-text" text-anchor="middle">02-05</text>
<text x="166.66666666666666" y="360" class="axis-text" text-anchor="middle">02-05</text>
<text x="263.3333333333333" y="360" class="axis-text" text-anchor="middle">02-05</text>
<text x="360.0" y="360" class="axis-text" text-anchor="middle">02-09</text>
<text x="456.66666666666663" y="360" class="axis-text" text-anchor="middle">02-11</text>
<text x="553.3333333333334" y="360" class="axis-text" text-anchor="middle">02-24</text>
<text x="650.0" y="360" class="axis-text" text-anchor="middle">02-24</text>
<path d="M 70.0 156.4 L 86.1 157.0 L 102.2 158.2 L 118.3 156.3 L 134.4 156.4 L 150.6 157.1 L 166.7 158.2 L 182.8 157.1 L 198.9 140.0 L 215.0 156.3 L 231.1 157.1 L 247.2 144.9 L 263.3 156.4 L 279.4 156.0 L 295.6 150.7 L 311.7 150.7 L 327.8 150.7 L 343.9 150.7 L 360.0 150.7 L 376.1 151.0 L 392.2 151.0 L 408.3 221.7 L 424.4 221.7 L 440.6 220.8 L 456.7 220.8 L 472.8 220.8 L 488.9 207.0 L 505.0 202.6 L 521.1 202.6 L 537.2 203.2 L 553.3 202.3 L 569.4 202.3 L 585.6 202.3 L 601.7 202.3 L 617.8 202.6 L 633.9 202.3 L 650.0 202.6" fill="none" stroke="#58a6ff" stroke-width="2" opacity="0.8"/>
<circle cx="70.0" cy="156.4" r="3" fill="#58a6ff"/>
<circle cx="182.8" cy="157.1" r="3" fill="#58a6ff"/>
<circle cx="295.6" cy="150.7" r="3" fill="#58a6ff"/>
<circle cx="408.3" cy="221.7" r="3" fill="#58a6ff"/>
<circle cx="521.1" cy="202.6" r="3" fill="#58a6ff"/>
<circle cx="633.9" cy="202.3" r="3" fill="#58a6ff"/>
<circle cx="650.0" cy="202.6" r="4" fill="#58a6ff"/>
<path d="M 70.0 156.4 L 86.1 157.4 L 102.2 158.6 L 118.3 156.4 L 134.4 156.4 L 150.6 157.5 L 166.7 158.6 L 182.8 157.5 L 198.9 140.2 L 215.0 156.4 L 231.1 157.5 L 247.2 144.0 L 263.3 156.4 L 279.4 157.2 L 295.6 150.7 L 311.7 150.7 L 327.8 150.7 L 343.9 150.7 L 360.0 150.7 L 376.1 151.0 L 392.2 151.0 L 408.3 257.4 L 424.4 257.4 L 440.6 256.2 L 456.7 256.2 L 472.8 256.2 L 488.9 258.3 L 505.0 255.4 L 521.1 255.4 L 537.2 255.9 L 553.3 255.4 L 569.4 255.4 L 585.6 255.4 L 601.7 255.4 L 617.8 255.4 L 633.9 255.4 L 650.0 255.4" fill="none" stroke="#1f6feb" stroke-width="2" opacity="0.8"/>
<circle cx="70.0" cy="156.4" r="3" fill="#1f6feb"/>
<circle cx="182.8" cy="157.5" r="3" fill="#1f6feb"/>
<circle cx="295.6" cy="150.7" r="3" fill="#1f6feb"/>
<circle cx="408.3" cy="257.4" r="3" fill="#1f6feb"/>
<circle cx="521.1" cy="255.4" r="3" fill="#1f6feb"/>
<circle cx="633.9" cy="255.4" r="3" fill="#1f6feb"/>
<circle cx="650.0" cy="255.4" r="4" fill="#1f6feb"/>
<path d="M 70.0 172.1 L 86.1 172.7 L 102.2 174.2 L 118.3 172.1 L 134.4 172.1 L 150.6 172.9 L 166.7 174.2 L 182.8 172.9 L 198.9 154.7 L 215.0 172.1 L 231.1 172.9 L 247.2 158.4 L 263.3 172.1 L 279.4 172.3 L 295.6 166.9 L 311.7 166.9 L 327.8 166.9 L 343.9 166.9 L 360.0 166.9 L 376.1 167.1 L 392.2 167.1 L 408.3 254.5 L 424.4 254.5 L 440.6 253.7 L 456.7 253.7 L 472.8 253.7 L 488.9 243.7 L 505.0 242.4 L 521.1 242.4 L 537.2 242.6 L 553.3 242.4 L 569.4 242.4 L 585.6 242.4 L 601.7 242.4 L 617.8 242.4 L 633.9 242.4 L 650.0 242.4" fill="none" stroke="#388bfd" stroke-width="2" opacity="0.8"/>
<circle cx="70.0" cy="172.1" r="3" fill="#388bfd"/>
<circle cx="182.8" cy="172.9" r="3" fill="#388bfd"/>
<circle cx="295.6" cy="166.9" r="3" fill="#388bfd"/>
<circle cx="408.3" cy="254.5" r="3" fill="#388bfd"/>
<circle cx="521.1" cy="242.4" r="3" fill="#388bfd"/>
<circle cx="633.9" cy="242.4" r="3" fill="#388bfd"/>
<circle cx="650.0" cy="242.4" r="4" fill="#388bfd"/>
<path d="M 70.0 139.1 L 86.1 140.5 L 102.2 141.2 L 118.3 139.1 L 134.4 139.1 L 150.6 140.7 L 166.7 141.2 L 182.8 140.7 L 198.9 124.1 L 215.0 139.1 L 231.1 140.7 L 247.2 127.5 L 263.3 139.1 L 279.4 139.0 L 295.6 133.5 L 311.7 133.5 L 327.8 133.5 L 343.9 133.5 L 360.0 133.5 L 376.1 133.5 L 392.2 133.5 L 408.3 227.2 L 424.4 227.2 L 440.6 225.9 L 456.7 225.9 L 472.8 225.9 L 488.9 230.5 L 505.0 230.5 L 521.1 230.5 L 537.2 230.5 L 553.3 230.3 L 569.4 230.3 L 585.6 230.3 L 601.7 230.3 L 617.8 230.5 L 633.9 230.3 L 650.0 230.5" fill="none" stroke="#3fb950" stroke-width="2" opacity="0.8"/>
<circle cx="70.0" cy="139.1" r="3" fill="#3fb950"/>
<circle cx="182.8" cy="140.7" r="3" fill="#3fb950"/>
<circle cx="295.6" cy="133.5" r="3" fill="#3fb950"/>
<circle cx="408.3" cy="227.2" r="3" fill="#3fb950"/>
<circle cx="521.1" cy="230.5" r="3" fill="#3fb950"/>
<circle cx="633.9" cy="230.3" r="3" fill="#3fb950"/>
<circle cx="650.0" cy="230.5" r="4" fill="#3fb950"/>
<path d="M 70.0 217.2 L 86.1 218.7 L 102.2 218.6 L 118.3 217.2 L 134.4 217.2 L 150.6 218.8 L 166.7 218.6 L 182.8 218.8 L 198.9 201.0 L 215.0 217.2 L 231.1 218.8 L 247.2 205.2 L 263.3 217.2 L 279.4 216.9 L 295.6 212.8 L 311.7 212.8 L 327.8 212.8 L 343.9 212.8 L 360.0 212.8 L 376.1 212.8 L 392.2 212.8 L 408.3 284.0 L 424.4 284.0 L 440.6 282.4 L 456.7 282.4 L 472.8 282.4 L 488.9 283.7 L 505.0 283.7 L 521.1 283.7 L 537.2 283.7 L 553.3 283.7 L 569.4 283.7 L 585.6 283.7 L 601.7 283.7 L 617.8 283.7 L 633.9 283.7 L 650.0 283.7" fill="none" stroke="#238636" stroke-width="2" opacity="0.8"/>
<circle cx="70.0" cy="217.2" r="3" fill="#238636"/>
<circle cx="182.8" cy="218.8" r="3" fill="#238636"/>
<circle cx="295.6" cy="212.8" r="3" fill="#238636"/>
<circle cx="408.3" cy="284.0" r="3" fill="#238636"/>
<circle cx="521.1" cy="283.7" r="3" fill="#238636"/>
<circle cx="633.9" cy="283.7" r="3" fill="#238636"/>
<circle cx="650.0" cy="283.7" r="4" fill="#238636"/>
<path d="M 70.0 121.0 L 86.1 122.6 L 102.2 123.0 L 118.3 121.0 L 134.4 121.0 L 150.6 122.7 L 166.7 123.0 L 182.8 122.7 L 198.9 105.6 L 215.0 121.0 L 231.1 122.7 L 247.2 110.9 L 263.3 121.0 L 279.4 121.1 L 295.6 115.3 L 311.7 115.3 L 327.8 115.3 L 343.9 115.3 L 360.0 115.3 L 376.1 115.3 L 392.2 115.3 L 408.3 197.4 L 424.4 197.4 L 440.6 196.4 L 456.7 196.4 L 472.8 196.4 L 488.9 184.8 L 505.0 184.8 L 521.1 184.8 L 537.2 184.8 L 553.3 184.8 L 569.4 184.8 L 585.6 184.8 L 601.7 184.8 L 617.8 184.8 L 633.9 184.8 L 650.0 184.8" fill="none" stroke="#2ea043" stroke-width="2" opacity="0.8"/>
<circle cx="70.0" cy="121.0" r="3" fill="#2ea043"/>
<circle cx="182.8" cy="122.7" r="3" fill="#2ea043"/>
<circle cx="295.6" cy="115.3" r="3" fill="#2ea043"/>
<circle cx="408.3" cy="197.4" r="3" fill="#2ea043"/>
<circle cx="521.1" cy="184.8" r="3" fill="#2ea043"/>
<circle cx="633.9" cy="184.8" r="3" fill="#2ea043"/>
<circle cx="650.0" cy="184.8" r="4" fill="#2ea043"/>
<path d="M 70.0 211.5 L 86.1 213.3 L 102.2 213.7 L 118.3 211.5 L 134.4 211.5 L 150.6 213.5 L 166.7 213.7 L 182.8 213.5 L 198.9 196.5 L 215.0 211.5 L 231.1 213.5 L 247.2 200.0 L 263.3 211.5 L 279.4 211.8 L 295.6 206.4 L 311.7 206.4 L 327.8 206.4 L 343.9 206.4 L 360.0 206.4 L 376.1 206.4 L 392.2 206.4 L 408.3 293.1 L 424.4 293.1 L 440.6 292.4 L 456.7 292.4 L 472.8 292.4 L 488.9 284.1 L 505.0 284.1 L 521.1 284.1 L 537.2 284.1 L 553.3 284.1 L 569.4 284.1 L 585.6 284.1 L 601.7 284.1 L 617.8 284.1 L 633.9 284.1 L 650.0 284.1" fill="none" stroke="#56d364" stroke-width="2" opacity="0.8"/>
<circle cx="70.0" cy="211.5" r="3" fill="#56d364"/>
<circle cx="182.8" cy="213.5" r="3" fill="#56d364"/>
<circle cx="295.6" cy="206.4" r="3" fill="#56d364"/>
<circle cx="408.3" cy="293.1" r="3" fill="#56d364"/>
<circle cx="521.1" cy="284.1" r="3" fill="#56d364"/>
<circle cx="633.9" cy="284.1" r="3" fill="#56d364"/>
<circle cx="650.0" cy="284.1" r="4" fill="#56d364"/>
<path d="M 70.0 154.0 L 86.1 155.1 L 102.2 156.2 L 118.3 153.9 L 134.4 154.0 L 150.6 155.1 L 166.7 156.2 L 182.8 155.1 L 198.9 138.2 L 215.0 153.9 L 231.1 155.1 L 247.2 142.0 L 263.3 154.0 L 279.4 154.8 L 295.6 148.7 L 311.7 148.7 L 327.8 148.7 L 343.9 148.7 L 360.0 148.7 L 376.1 148.7 L 392.2 148.7 L 408.3 254.5 L 424.4 254.5 L 440.6 253.3 L 456.7 253.3 L 472.8 253.3 L 488.9 258.5 L 505.0 258.5 L 521.1 258.5 L 537.2 258.5 L 553.3 258.5 L 569.4 258.5 L 585.6 258.5 L 601.7 258.5 L 617.8 258.5 L 633.9 258.5 L 650.0 258.5" fill="none" stroke="#f78166" stroke-width="2" opacity="0.8"/>
<circle cx="70.0" cy="154.0" r="3" fill="#f78166"/>
<circle cx="182.8" cy="155.1" r="3" fill="#f78166"/>
<circle cx="295.6" cy="148.7" r="3" fill="#f78166"/>
<circle cx="408.3" cy="254.5" r="3" fill="#f78166"/>
<circle cx="521.1" cy="258.5" r="3" fill="#f78166"/>
<circle cx="633.9" cy="258.5" r="3" fill="#f78166"/>
<circle cx="650.0" cy="258.5" r="4" fill="#f78166"/>
<path d="M 70.0 167.1 L 86.1 167.9 L 102.2 169.2 L 118.3 167.1 L 134.4 167.1 L 150.6 167.9 L 166.7 169.2 L 182.8 167.9 L 198.9 149.6 L 215.0 167.1 L 231.1 167.9 L 247.2 153.3 L 263.3 167.1 L 279.4 167.3 L 295.6 162.0 L 311.7 162.0 L 327.8 162.0 L 343.9 162.0 L 360.0 162.0 L 376.1 162.0 L 392.2 162.0 L 408.3 248.7 L 424.4 248.7 L 440.6 247.8 L 456.7 247.8 L 472.8 247.8 L 488.9 240.8 L 505.0 240.8 L 521.1 240.8 L 537.2 240.8 L 553.3 240.8 L 569.4 240.8 L 585.6 240.8 L 601.7 240.8 L 617.8 240.8 L 633.9 240.8 L 650.0 240.8" fill="none" stroke="#ffa657" stroke-width="2" opacity="0.8"/>
<circle cx="70.0" cy="167.1" r="3" fill="#ffa657"/>
<circle cx="182.8" cy="167.9" r="3" fill="#ffa657"/>
<circle cx="295.6" cy="162.0" r="3" fill="#ffa657"/>
<circle cx="408.3" cy="248.7" r="3" fill="#ffa657"/>
<circle cx="521.1" cy="240.8" r="3" fill="#ffa657"/>
<circle cx="633.9" cy="240.8" r="3" fill="#ffa657"/>
<circle cx="650.0" cy="240.8" r="4" fill="#ffa657"/>
<text x="70.0" y="113.0" fill="#2ea043" font-family="monospace" font-size="8px" text-anchor="middle">122.6KB</text>
<text x="70.0" y="131.1" fill="#3fb950" font-family="monospace" font-size="8px" text-anchor="middle">119.1KB</text>
<text x="70.0" y="149.1" fill="#f78166" font-family="monospace" font-size="8px" text-anchor="middle">116.3KB</text>
<text x="70.0" y="167.1" fill="#1f6feb" font-family="monospace" font-size="8px" text-anchor="middle">115.8KB</text>
<text x="70.0" y="185.1" fill="#58a6ff" font-family="monospace" font-size="8px" text-anchor="middle">115.8KB</text>
<text x="70.0" y="203.1" fill="#ffa657" font-family="monospace" font-size="8px" text-anchor="middle">113.7KB</text>
<text x="70.0" y="221.1" fill="#388bfd" font-family="monospace" font-size="8px" text-anchor="middle">112.8KB</text>
<text x="70.0" y="239.1" fill="#56d364" font-family="monospace" font-size="8px" text-anchor="middle">105.2KB</text>
<text x="70.0" y="257.1" fill="#238636" font-family="monospace" font-size="8px" text-anchor="middle">104.2KB</text>
<text x="182.8" y="114.7" fill="#2ea043" font-family="monospace" font-size="8px" text-anchor="middle">122.2KB</text>
<text x="182.8" y="132.7" fill="#3fb950" font-family="monospace" font-size="8px" text-anchor="middle">118.8KB</text>
<text x="182.8" y="150.7" fill="#f78166" font-family="monospace" font-size="8px" text-anchor="middle">116.0KB</text>
<text x="182.8" y="168.7" fill="#58a6ff" font-family="monospace" font-size="8px" text-anchor="middle">115.7KB</text>
<text x="182.8" y="186.7" fill="#1f6feb" font-family="monospace" font-size="8px" text-anchor="middle">115.6KB</text>
<text x="182.8" y="204.7" fill="#ffa657" font-family="monospace" font-size="8px" text-anchor="middle">113.6KB</text>
<text x="182.8" y="222.7" fill="#388bfd" font-family="monospace" font-size="8px" text-anchor="middle">112.6KB</text>
<text x="182.8" y="240.7" fill="#56d364" font-family="monospace" font-size="8px" text-anchor="middle">104.9KB</text>
<text x="182.8" y="258.7" fill="#238636" font-family="monospace" font-size="8px" text-anchor="middle">103.9KB</text>
<text x="295.6" y="107.3" fill="#2ea043" font-family="monospace" font-size="8px" text-anchor="middle">123.7KB</text>
<text x="295.6" y="125.5" fill="#3fb950" font-family="monospace" font-size="8px" text-anchor="middle">120.2KB</text>
<text x="295.6" y="143.5" fill="#f78166" font-family="monospace" font-size="8px" text-anchor="middle">117.3KB</text>
<text x="295.6" y="161.5" fill="#1f6feb" font-family="monospace" font-size="8px" text-anchor="middle">116.9KB</text>
<text x="295.6" y="179.5" fill="#58a6ff" font-family="monospace" font-size="8px" text-anchor="middle">116.9KB</text>
<text x="295.6" y="197.5" fill="#ffa657" font-family="monospace" font-size="8px" text-anchor="middle">114.7KB</text>
<text x="295.6" y="215.5" fill="#388bfd" font-family="monospace" font-size="8px" text-anchor="middle">113.8KB</text>
<text x="295.6" y="233.5" fill="#56d364" font-family="monospace" font-size="8px" text-anchor="middle">106.2KB</text>
<text x="295.6" y="251.5" fill="#238636" font-family="monospace" font-size="8px" text-anchor="middle">105.0KB</text>
<text x="408.3" y="189.4" fill="#2ea043" font-family="monospace" font-size="8px" text-anchor="middle">108.0KB</text>
<text x="408.3" y="213.7" fill="#58a6ff" font-family="monospace" font-size="8px" text-anchor="middle">103.3KB</text>
<text x="408.3" y="231.7" fill="#3fb950" font-family="monospace" font-size="8px" text-anchor="middle">102.3KB</text>
<text x="408.3" y="249.7" fill="#ffa657" font-family="monospace" font-size="8px" text-anchor="middle">98.2KB</text>
<text x="408.3" y="267.7" fill="#f78166" font-family="monospace" font-size="8px" text-anchor="middle">97.0KB</text>
<text x="408.3" y="285.7" fill="#388bfd" font-family="monospace" font-size="8px" text-anchor="middle">97.0KB</text>
<text x="408.3" y="303.7" fill="#1f6feb" font-family="monospace" font-size="8px" text-anchor="middle">96.5KB</text>
<text x="408.3" y="321.7" fill="#238636" font-family="monospace" font-size="8px" text-anchor="middle">91.4KB</text>
<text x="408.3" y="339.7" fill="#56d364" font-family="monospace" font-size="8px" text-anchor="middle">89.7KB</text>
<text x="521.1" y="176.8" fill="#2ea043" font-family="monospace" font-size="8px" text-anchor="middle">110.4KB</text>
<text x="521.1" y="194.8" fill="#58a6ff" font-family="monospace" font-size="8px" text-anchor="middle">107.0KB</text>
<text x="521.1" y="222.5" fill="#3fb950" font-family="monospace" font-size="8px" text-anchor="middle">101.6KB</text>
<text x="521.1" y="240.5" fill="#ffa657" font-family="monospace" font-size="8px" text-anchor="middle">99.7KB</text>
<text x="521.1" y="258.5" fill="#388bfd" font-family="monospace" font-size="8px" text-anchor="middle">99.4KB</text>
<text x="521.1" y="276.5" fill="#1f6feb" font-family="monospace" font-size="8px" text-anchor="middle">96.9KB</text>
<text x="521.1" y="294.5" fill="#f78166" font-family="monospace" font-size="8px" text-anchor="middle">96.3KB</text>
<text x="521.1" y="312.5" fill="#238636" font-family="monospace" font-size="8px" text-anchor="middle">91.5KB</text>
<text x="521.1" y="330.5" fill="#56d364" font-family="monospace" font-size="8px" text-anchor="middle">91.4KB</text>
<text x="633.9" y="176.8" fill="#2ea043" font-family="monospace" font-size="8px" text-anchor="middle">110.4KB</text>
<text x="633.9" y="194.8" fill="#58a6ff" font-family="monospace" font-size="8px" text-anchor="middle">107.0KB</text>
<text x="633.9" y="222.3" fill="#3fb950" font-family="monospace" font-size="8px" text-anchor="middle">101.7KB</text>
<text x="633.9" y="240.3" fill="#ffa657" font-family="monospace" font-size="8px" text-anchor="middle">99.7KB</text>
<text x="633.9" y="258.3" fill="#388bfd" font-family="monospace" font-size="8px" text-anchor="middle">99.4KB</text>
<text x="633.9" y="276.3" fill="#1f6feb" font-family="monospace" font-size="8px" text-anchor="middle">96.9KB</text>
<text x="633.9" y="294.3" fill="#f78166" font-family="monospace" font-size="8px" text-anchor="middle">96.3KB</text>
<text x="633.9" y="312.3" fill="#238636" font-family="monospace" font-size="8px" text-anchor="middle">91.5KB</text>
<text x="633.9" y="330.3" fill="#56d364" font-family="monospace" font-size="8px" text-anchor="middle">91.4KB</text>
<text x="650.0" y="204.3" fill="#2ea043" font-family="monospace" font-size="8px" text-anchor="middle">110.4KB</text>
<text x="650.0" y="348.3" fill="#58a6ff" font-family="monospace" font-size="8px" text-anchor="middle">107.0KB</text>
<text x="650.0" y="366.3" fill="#3fb950" font-family="monospace" font-size="8px" text-anchor="middle">101.6KB</text>
<text x="650.0" y="384.3" fill="#ffa657" font-family="monospace" font-size="8px" text-anchor="middle">99.7KB</text>
<text x="650.0" y="402.3" fill="#388bfd" font-family="monospace" font-size="8px" text-anchor="middle">99.4KB</text>
<text x="650.0" y="420.3" fill="#1f6feb" font-family="monospace" font-size="8px" text-anchor="middle">96.9KB</text>
<text x="650.0" y="438.3" fill="#f78166" font-family="monospace" font-size="8px" text-anchor="middle">96.3KB</text>
<text x="650.0" y="456.3" fill="#238636" font-family="monospace" font-size="8px" text-anchor="middle">91.5KB</text>
<text x="650.0" y="474.3" fill="#56d364" font-family="monospace" font-size="8px" text-anchor="middle">91.4KB</text>
<rect x="665" y="44" width="12" height="12" fill="#58a6ff"/>
<text x="683" y="54" class="legend">Win i386</text>
<rect x="665" y="62" width="12" height="12" fill="#1f6feb"/>
<text x="683" y="72" class="legend">Win x64</text>
<rect x="665" y="80" width="12" height="12" fill="#388bfd"/>
<text x="683" y="90" class="legend">Win ARM64</text>
<rect x="665" y="98" width="12" height="12" fill="#3fb950"/>
<text x="683" y="108" class="legend">Linux i386</text>
<rect x="665" y="116" width="12" height="12" fill="#238636"/>
<text x="683" y="126" class="legend">Linux x64</text>
<rect x="665" y="134" width="12" height="12" fill="#2ea043"/>
<text x="683" y="144" class="legend">Linux ARM</text>
<rect x="665" y="152" width="12" height="12" fill="#56d364"/>
<text x="683" y="162" class="legend">Linux ARM64</text>
<rect x="665" y="170" width="12" height="12" fill="#f78166"/>
<text x="683" y="180" class="legend">UEFI x64</text>
<rect x="665" y="188" width="12" height="12" fill="#ffa657"/>
<text x="683" y="198" class="legend">UEFI ARM64</text>
</svg>