<svg xmlns="http://www.w3.org/2000/svg" width="800" height="400">
<defs>
<style>
.axis-text { fill: #8b949e; font-family: monospace; font-size: 11px; }
.title { fill: #c9d1d9; font-family: monospace; font-size: 14px; font-weight: bold; }
.legend { fill: #8b949e; font-family: monospace; font-size: 10px; }
.grid { stroke: #21262d; stroke-width: 1; }
</style>
</defs>
<rect width="800" height="400" fill="#0d1117"/>
<text x="400.0" y="25" class="title" text-anchor="middle">Binary Size Trend (.bin)</text>
<line x1="70" y1="40.0" x2="650" y2="40.0" class="grid"/>
<text x="60" y="44.0" class="axis-text" text-anchor="end">138KB</text>
<line x1="70" y1="100.0" x2="650" y2="100.0" class="grid"/>
<text x="60" y="104.0" class="axis-text" text-anchor="end">127KB</text>
<line x1="70" y1="160.0" x2="650" y2="160.0" class="grid"/>
<text x="60" y="164.0" class="axis-text" text-anchor="end">115KB</text>
<line x1="70" y1="220.0" x2="650" y2="220.0" class="grid"/>
<text x="60" y="224.0" class="axis-text" text-anchor="end">104KB</text>
<line x1="70" y1="280.0" x2="650" y2="280.0" class="grid"/>
<text x="60" y="284.0" class="axis-text" text-anchor="end">92KB</text>
<line x1="70" y1="340.0" x2="650" y2="340.0" class="grid"/>
<text x="60" y="344.0" class="axis-text" text-anchor="end">81KB</text>
<text x="70.0" y="360" class="axis-text" text-anchor="middle">02-05</text>
<text x="152.85714285714283" y="360" class="axis-text" text-anchor="middle">02-05</text>
<text x="235.7142857142857" y="360" class="axis-text" text-anchor="middle">02-05</text>
<text x="318.57142857142856" y="360" class="axis-text" text-anchor="middle">02-05</text>
<text x="401.4285714285714" y="360" class="axis-text" text-anchor="middle">02-06</text>
<text x="484.2857142857143" y="360" class="axis-text" text-anchor="middle">02-09</text>
<text x="567.1428571428571" y="360" class="axis-text" text-anchor="middle">02-11</text>
<text x="650.0" y="360" class="axis-text" text-anchor="middle">02-23</text>
<path d="M 70.0 156.4 L 90.7 157.0 L 111.4 158.2 L 132.1 156.3 L 152.9 156.4 L 173.6 157.1 L 194.3 158.2 L 215.0 157.1 L 235.7 140.0 L 256.4 156.3 L 277.1 157.1 L 297.9 144.9 L 318.6 156.4 L 339.3 156.0 L 360.0 150.7 L 380.7 150.7 L 401.4 150.7 L 422.1 150.7 L 442.9 150.7 L 463.6 151.0 L 484.3 151.0 L 505.0 221.7 L 525.7 221.7 L 546.4 220.8 L 567.1 220.8 L 587.9 220.8 L 608.6 207.0 L 629.3 202.6 L 650.0 203.2" fill="none" stroke="#58a6ff" stroke-width="2" opacity="0.8"/>
<circle cx="70.0" cy="156.4" r="3" fill="#58a6ff"/>
<circle cx="173.6" cy="157.1" r="3" fill="#58a6ff"/>
<circle cx="277.1" cy="157.1" r="3" fill="#58a6ff"/>
<circle cx="380.7" cy="150.7" r="3" fill="#58a6ff"/>
<circle cx="484.3" cy="151.0" r="3" fill="#58a6ff"/>
<circle cx="587.9" cy="220.8" r="3" fill="#58a6ff"/>
<circle cx="650.0" cy="203.2" r="4" fill="#58a6ff"/>
<path d="M 70.0 156.4 L 90.7 157.4 L 111.4 158.6 L 132.1 156.4 L 152.9 156.4 L 173.6 157.5 L 194.3 158.6 L 215.0 157.5 L 235.7 140.2 L 256.4 156.4 L 277.1 157.5 L 297.9 144.0 L 318.6 156.4 L 339.3 157.2 L 360.0 150.7 L 380.7 150.7 L 401.4 150.7 L 422.1 150.7 L 442.9 150.7 L 463.6 151.0 L 484.3 151.0 L 505.0 257.4 L 525.7 257.4 L 546.4 256.2 L 567.1 256.2 L 587.9 256.2 L 608.6 258.3 L 629.3 255.4 L 650.0 255.9" fill="none" stroke="#1f6feb" stroke-width="2" opacity="0.8"/>
<circle cx="70.0" cy="156.4" r="3" fill="#1f6feb"/>
<circle cx="173.6" cy="157.5" r="3" fill="#1f6feb"/>
<circle cx="277.1" cy="157.5" r="3" fill="#1f6feb"/>
<circle cx="380.7" cy="150.7" r="3" fill="#1f6feb"/>
<circle cx="484.3" cy="151.0" r="3" fill="#1f6feb"/>
<circle cx="587.9" cy="256.2" r="3" fill="#1f6feb"/>
<circle cx="650.0" cy="255.9" r="4" fill="#1f6feb"/>
<path d="M 70.0 172.1 L 90.7 172.7 L 111.4 174.2 L 132.1 172.1 L 152.9 172.1 L 173.6 172.9 L 194.3 174.2 L 215.0 172.9 L 235.7 154.7 L 256.4 172.1 L 277.1 172.9 L 297.9 158.4 L 318.6 172.1 L 339.3 172.3 L 360.0 166.9 L 380.7 166.9 L 401.4 166.9 L 422.1 166.9 L 442.9 166.9 L 463.6 167.1 L 484.3 167.1 L 505.0 254.5 L 525.7 254.5 L 546.4 253.7 L 567.1 253.7 L 587.9 253.7 L 608.6 243.7 L 629.3 242.4 L 650.0 242.6" fill="none" stroke="#388bfd" stroke-width="2" opacity="0.8"/>
<circle cx="70.0" cy="172.1" r="3" fill="#388bfd"/>
<circle cx="173.6" cy="172.9" r="3" fill="#388bfd"/>
<circle cx="277.1" cy="172.9" r="3" fill="#388bfd"/>
<circle cx="380.7" cy="166.9" r="3" fill="#388bfd"/>
<circle cx="484.3" cy="167.1" r="3" fill="#388bfd"/>
<circle cx="587.9" cy="253.7" r="3" fill="#388bfd"/>
<circle cx="650.0" cy="242.6" r="4" fill="#388bfd"/>
<path d="M 70.0 139.1 L 90.7 140.5 L 111.4 141.2 L 132.1 139.1 L 152.9 139.1 L 173.6 140.7 L 194.3 141.2 L 215.0 140.7 L 235.7 124.1 L 256.4 139.1 L 277.1 140.7 L 297.9 127.5 L 318.6 139.1 L 339.3 139.0 L 360.0 133.5 L 380.7 133.5 L 401.4 133.5 L 422.1 133.5 L 442.9 133.5 L 463.6 133.5 L 484.3 133.5 L 505.0 227.2 L 525.7 227.2 L 546.4 225.9 L 567.1 225.9 L 587.9 225.9 L 608.6 230.5 L 629.3 230.5 L 650.0 230.5" fill="none" stroke="#3fb950" stroke-width="2" opacity="0.8"/>
<circle cx="70.0" cy="139.1" r="3" fill="#3fb950"/>
<circle cx="173.6" cy="140.7" r="3" fill="#3fb950"/>
<circle cx="277.1" cy="140.7" r="3" fill="#3fb950"/>
<circle cx="380.7" cy="133.5" r="3" fill="#3fb950"/>
<circle cx="484.3" cy="133.5" r="3" fill="#3fb950"/>
<circle cx="587.9" cy="225.9" r="3" fill="#3fb950"/>
<circle cx="650.0" cy="230.5" r="4" fill="#3fb950"/>
<path d="M 70.0 217.2 L 90.7 218.7 L 111.4 218.6 L 132.1 217.2 L 152.9 217.2 L 173.6 218.8 L 194.3 218.6 L 215.0 218.8 L 235.7 201.0 L 256.4 217.2 L 277.1 218.8 L 297.9 205.2 L 318.6 217.2 L 339.3 216.9 L 360.0 212.8 L 380.7 212.8 L 401.4 212.8 L 422.1 212.8 L 442.9 212.8 L 463.6 212.8 L 484.3 212.8 L 505.0 284.0 L 525.7 284.0 L 546.4 282.4 L 567.1 282.4 L 587.9 282.4 L 608.6 283.7 L 629.3 283.7 L 650.0 283.7" fill="none" stroke="#238636" stroke-width="2" opacity="0.8"/>
<circle cx="70.0" cy="217.2" r="3" fill="#238636"/>
<circle cx="173.6" cy="218.8" r="3" fill="#238636"/>
<circle cx="277.1" cy="218.8" r="3" fill="#238636"/>
<circle cx="380.7" cy="212.8" r="3" fill="#238636"/>
<circle cx="484.3" cy="212.8" r="3" fill="#238636"/>
<circle cx="587.9" cy="282.4" r="3" fill="#238636"/>
<circle cx="650.0" cy="283.7" r="4" fill="#238636"/>
<path d="M 70.0 121.0 L 90.7 122.6 L 111.4 123.0 L 132.1 121.0 L 152.9 121.0 L 173.6 122.7 L 194.3 123.0 L 215.0 122.7 L 235.7 105.6 L 256.4 121.0 L 277.1 122.7 L 297.9 110.9 L 318.6 121.0 L 339.3 121.1 L 360.0 115.3 L 380.7 115.3 L 401.4 115.3 L 422.1 115.3 L 442.9 115.3 L 463.6 115.3 L 484.3 115.3 L 505.0 197.4 L 525.7 197.4 L 546.4 196.4 L 567.1 196.4 L 587.9 196.4 L 608.6 184.8 L 629.3 184.8 L 650.0 184.8" fill="none" stroke="#2ea043" stroke-width="2" opacity="0.8"/>
<circle cx="70.0" cy="121.0" r="3" fill="#2ea043"/>
<circle cx="173.6" cy="122.7" r="3" fill="#2ea043"/>
<circle cx="277.1" cy="122.7" r="3" fill="#2ea043"/>
<circle cx="380.7" cy="115.3" r="3" fill="#2ea043"/>
<circle cx="484.3" cy="115.3" r="3" fill="#2ea043"/>
<circle cx="587.9" cy="196.4" r="3" fill="#2ea043"/>
<circle cx="650.0" cy="184.8" r="4" fill="#2ea043"/>
<path d="M 70.0 211.5 L 90.7 213.3 L 111.4 213.7 L 132.1 211.5 L 152.9 211.5 L 173.6 213.5 L 194.3 213.7 L 215.0 213.5 L 235.7 196.5 L 256.4 211.5 L 277.1 213.5 L 297.9 200.0 L 318.6 211.5 L 339.3 211.8 L 360.0 206.4 L 380.7 206.4 L 401.4 206.4 L 422.1 206.4 L 442.9 206.4 L 463.6 206.4 L 484.3 206.4 L 505.0 293.1 L 525.7 293.1 L 546.4 292.4 L 567.1 292.4 L 587.9 292.4 L 608.6 284.1 L 629.3 284.1 L 650.0 284.1" fill="none" stroke="#56d364" stroke-width="2" opacity="0.8"/>
<circle cx="70.0" cy="211.5" r="3" fill="#56d364"/>
<circle cx="173.6" cy="213.5" r="3" fill="#56d364"/>
<circle cx="277.1" cy="213.5" r="3" fill="#56d364"/>
<circle cx="380.7" cy="206.4" r="3" fill="#56d364"/>
<circle cx="484.3" cy="206.4" r="3" fill="#56d364"/>
<circle cx="587.9" cy="292.4" r="3" fill="#56d364"/>
<circle cx="650.0" cy="284.1" r="4" fill="#56d364"/>
<path d="M 70.0 154.0 L 90.7 155.1 L 111.4 156.2 L 132.1 153.9 L 152.9 154.0 L 173.6 155.1 L 194.3 156.2 L 215.0 155.1 L 235.7 138.2 L 256.4 153.9 L 277.1 155.1 L 297.9 142.0 L 318.6 154.0 L 339.3 154.8 L 360.0 148.7 L 380.7 148.7 L 401.4 148.7 L 422.1 148.7 L 442.9 148.7 L 463.6 148.7 L 484.3 148.7 L 505.0 254.5 L 525.7 254.5 L 546.4 253.3 L 567.1 253.3 L 587.9 253.3 L 608.6 258.5 L 629.3 258.5 L 650.0 258.5" fill="none" stroke="#f78166" stroke-width="2" opacity="0.8"/>
<circle cx="70.0" cy="154.0" r="3" fill="#f78166"/>
<circle cx="173.6" cy="155.1" r="3" fill="#f78166"/>
<circle cx="277.1" cy="155.1" r="3" fill="#f78166"/>
<circle cx="380.7" cy="148.7" r="3" fill="#f78166"/>
<circle cx="484.3" cy="148.7" r="3" fill="#f78166"/>
<circle cx="587.9" cy="253.3" r="3" fill="#f78166"/>
<circle cx="650.0" cy="258.5" r="4" fill="#f78166"/>
<path d="M 70.0 167.1 L 90.7 167.9 L 111.4 169.2 L 132.1 167.1 L 152.9 167.1 L 173.6 167.9 L 194.3 169.2 L 215.0 167.9 L 235.7 149.6 L 256.4 167.1 L 277.1 167.9 L 297.9 153.3 L 318.6 167.1 L 339.3 167.3 L 360.0 162.0 L 380.7 162.0 L 401.4 162.0 L 422.1 162.0 L 442.9 162.0 L 463.6 162.0 L 484.3 162.0 L 505.0 248.7 L 525.7 248.7 L 546.4 247.8 L 567.1 247.8 L 587.9 247.8 L 608.6 240.8 L 629.3 240.8 L 650.0 240.8" fill="none" stroke="#ffa657" stroke-width="2" opacity="0.8"/>
<circle cx="70.0" cy="167.1" r="3" fill="#ffa657"/>
<circle cx="173.6" cy="167.9" r="3" fill="#ffa657"/>
<circle cx="277.1" cy="167.9" r="3" fill="#ffa657"/>
<circle cx="380.7" cy="162.0" r="3" fill="#ffa657"/>
<circle cx="484.3" cy="162.0" r="3" fill="#ffa657"/>
<circle cx="587.9" cy="247.8" r="3" fill="#ffa657"/>
<circle cx="650.0" cy="240.8" r="4" fill="#ffa657"/>
<text x="70.0" y="113.0" fill="#2ea043" font-family="monospace" font-size="8px" text-anchor="middle">122.6KB</text>
<text x="70.0" y="131.1" fill="#3fb950" font-family="monospace" font-size="8px" text-anchor="middle">119.1KB</text>
<text x="70.0" y="149.1" fill="#f78166" font-family="monospace" font-size="8px" text-anchor="middle">116.3KB</text>
<text x="70.0" y="167.1" fill="#1f6feb" font-family="monospace" font-size="8px" text-anchor="middle">115.8KB</text>
<text x="70.0" y="185.1" fill="#58a6ff" font-family="monospace" font-size="8px" text-anchor="middle">115.8KB</text>
<text x="70.0" y="203.1" fill="#ffa657" font-family="monospace" font-size="8px" text-anchor="middle">113.7KB</text>
<text x="70.0" y="221.1" fill="#388bfd" font-family="monospace" font-size="8px" text-anchor="middle">112.8KB</text>
<text x="70.0" y="239.1" fill="#56d364" font-family="monospace" font-size="8px" text-anchor="middle">105.2KB</text>
<text x="70.0" y="257.1" fill="#238636" font-family="monospace" font-size="8px" text-anchor="middle">104.2KB</text>
<text x="173.6" y="114.7" fill="#2ea043" font-family="monospace" font-size="8px" text-anchor="middle">122.2KB</text>
<text x="173.6" y="132.7" fill="#3fb950" font-family="monospace" font-size="8px" text-anchor="middle">118.8KB</text>
<text x="173.6" y="150.7" fill="#f78166" font-family="monospace" font-size="8px" text-anchor="middle">116.0KB</text>
<text x="173.6" y="168.7" fill="#58a6ff" font-family="monospace" font-size="8px" text-anchor="middle">115.7KB</text>
<text x="173.6" y="186.7" fill="#1f6feb" font-family="monospace" font-size="8px" text-anchor="middle">115.6KB</text>
<text x="173.6" y="204.7" fill="#ffa657" font-family="monospace" font-size="8px" text-anchor="middle">113.6KB</text>
<text x="173.6" y="222.7" fill="#388bfd" font-family="monospace" font-size="8px" text-anchor="middle">112.6KB</text>
<text x="173.6" y="240.7" fill="#56d364" font-family="monospace" font-size="8px" text-anchor="middle">104.9KB</text>
<text x="173.6" y="258.7" fill="#238636" font-family="monospace" font-size="8px" text-anchor="middle">103.9KB</text>
<text x="277.1" y="114.7" fill="#2ea043" font-family="monospace" font-size="8px" text-anchor="middle">122.2KB</text>
<text x="277.1" y="132.7" fill="#3fb950" font-family="monospace" font-size="8px" text-anchor="middle">118.8KB</text>
<text x="277.1" y="150.7" fill="#f78166" font-family="monospace" font-size="8px" text-anchor="middle">116.0KB</text>
<text x="277.1" y="168.7" fill="#58a6ff" font-family="monospace" font-size="8px" text-anchor="middle">115.7KB</text>
<text x="277.1" y="186.7" fill="#1f6feb" font-family="monospace" font-size="8px" text-anchor="middle">115.6KB</text>
<text x="277.1" y="204.7" fill="#ffa657" font-family="monospace" font-size="8px" text-anchor="middle">113.6KB</text>
<text x="277.1" y="222.7" fill="#388bfd" font-family="monospace" font-size="8px" text-anchor="middle">112.6KB</text>
<text x="277.1" y="240.7" fill="#56d364" font-family="monospace" font-size="8px" text-anchor="middle">104.9KB</text>
<text x="277.1" y="258.7" fill="#238636" font-family="monospace" font-size="8px" text-anchor="middle">103.9KB</text>
<text x="380.7" y="107.3" fill="#2ea043" font-family="monospace" font-size="8px" text-anchor="middle">123.7KB</text>
<text x="380.7" y="125.5" fill="#3fb950" font-family="monospace" font-size="8px" text-anchor="middle">120.2KB</text>
<text x="380.7" y="143.5" fill="#f78166" font-family="monospace" font-size="8px" text-anchor="middle">117.3KB</text>
<text x="380.7" y="161.5" fill="#1f6feb" font-family="monospace" font-size="8px" text-anchor="middle">116.9KB</text>
<text x="380.7" y="179.5" fill="#58a6ff" font-family="monospace" font-size="8px" text-anchor="middle">116.9KB</text>
<text x="380.7" y="197.5" fill="#ffa657" font-family="monospace" font-size="8px" text-anchor="middle">114.7KB</text>
<text x="380.7" y="215.5" fill="#388bfd" font-family="monospace" font-size="8px" text-anchor="middle">113.8KB</text>
<text x="380.7" y="233.5" fill="#56d364" font-family="monospace" font-size="8px" text-anchor="middle">106.2KB</text>
<text x="380.7" y="251.5" fill="#238636" font-family="monospace" font-size="8px" text-anchor="middle">105.0KB</text>
<text x="484.3" y="107.3" fill="#2ea043" font-family="monospace" font-size="8px" text-anchor="middle">123.7KB</text>
<text x="484.3" y="125.5" fill="#3fb950" font-family="monospace" font-size="8px" text-anchor="middle">120.2KB</text>
<text x="484.3" y="143.5" fill="#f78166" font-family="monospace" font-size="8px" text-anchor="middle">117.3KB</text>
<text x="484.3" y="161.5" fill="#1f6feb" font-family="monospace" font-size="8px" text-anchor="middle">116.8KB</text>
<text x="484.3" y="179.5" fill="#58a6ff" font-family="monospace" font-size="8px" text-anchor="middle">116.8KB</text>
<text x="484.3" y="197.5" fill="#ffa657" font-family="monospace" font-size="8px" text-anchor="middle">114.7KB</text>
<text x="484.3" y="215.5" fill="#388bfd" font-family="monospace" font-size="8px" text-anchor="middle">113.7KB</text>
<text x="484.3" y="233.5" fill="#56d364" font-family="monospace" font-size="8px" text-anchor="middle">106.2KB</text>
<text x="484.3" y="251.5" fill="#238636" font-family="monospace" font-size="8px" text-anchor="middle">105.0KB</text>
<text x="587.9" y="188.4" fill="#2ea043" font-family="monospace" font-size="8px" text-anchor="middle">108.1KB</text>
<text x="587.9" y="212.8" fill="#58a6ff" font-family="monospace" font-size="8px" text-anchor="middle">103.5KB</text>
<text x="587.9" y="230.8" fill="#3fb950" font-family="monospace" font-size="8px" text-anchor="middle">102.5KB</text>
<text x="587.9" y="248.8" fill="#ffa657" font-family="monospace" font-size="8px" text-anchor="middle">98.3KB</text>
<text x="587.9" y="266.8" fill="#f78166" font-family="monospace" font-size="8px" text-anchor="middle">97.3KB</text>
<text x="587.9" y="284.8" fill="#388bfd" font-family="monospace" font-size="8px" text-anchor="middle">97.2KB</text>
<text x="587.9" y="302.8" fill="#1f6feb" font-family="monospace" font-size="8px" text-anchor="middle">96.7KB</text>
<text x="587.9" y="320.8" fill="#238636" font-family="monospace" font-size="8px" text-anchor="middle">91.7KB</text>
<text x="587.9" y="338.8" fill="#56d364" font-family="monospace" font-size="8px" text-anchor="middle">89.8KB</text>
<text x="650.0" y="176.8" fill="#2ea043" font-family="monospace" font-size="8px" text-anchor="middle">110.4KB</text>
<text x="650.0" y="195.2" fill="#58a6ff" font-family="monospace" font-size="8px" text-anchor="middle">106.8KB</text>
<text x="650.0" y="222.5" fill="#3fb950" font-family="monospace" font-size="8px" text-anchor="middle">101.6KB</text>
<text x="650.0" y="240.5" fill="#ffa657" font-family="monospace" font-size="8px" text-anchor="middle">99.7KB</text>
<text x="650.0" y="258.5" fill="#388bfd" font-family="monospace" font-size="8px" text-anchor="middle">99.3KB</text>
<text x="650.0" y="276.5" fill="#1f6feb" font-family="monospace" font-size="8px" text-anchor="middle">96.8KB</text>
<text x="650.0" y="294.5" fill="#f78166" font-family="monospace" font-size="8px" text-anchor="middle">96.3KB</text>
<text x="650.0" y="312.5" fill="#238636" font-family="monospace" font-size="8px" text-anchor="middle">91.5KB</text>
<text x="650.0" y="330.5" fill="#56d364" font-family="monospace" font-size="8px" text-anchor="middle">91.4KB</text>
<rect x="665" y="44" width="12" height="12" fill="#58a6ff"/>
<text x="683" y="54" class="legend">Win i386</text>
<rect x="665" y="62" width="12" height="12" fill="#1f6feb"/>
<text x="683" y="72" class="legend">Win x64</text>
<rect x="665" y="80" width="12" height="12" fill="#388bfd"/>
<text x="683" y="90" class="legend">Win ARM64</text>
<rect x="665" y="98" width="12" height="12" fill="#3fb950"/>
<text x="683" y="108" class="legend">Linux i386</text>
<rect x="665" y="116" width="12" height="12" fill="#238636"/>
<text x="683" y="126" class="legend">Linux x64</text>
<rect x="665" y="134" width="12" height="12" fill="#2ea043"/>
<text x="683" y="144" class="legend">Linux ARM</text>
<rect x="665" y="152" width="12" height="12" fill="#56d364"/>
<text x="683" y="162" class="legend">Linux ARM64</text>
<rect x="665" y="170" width="12" height="12" fill="#f78166"/>
<text x="683" y="180" class="legend">UEFI x64</text>
<rect x="665" y="188" width="12" height="12" fill="#ffa657"/>
<text x="683" y="198" class="legend">UEFI ARM64</text>
</svg>