<svg xmlns="http://www.w3.org/2000/svg" width="960" height="520">
<defs>
<style>
.ax { fill: #8b949e; font-family: -apple-system, BlinkMacSystemFont, "Segoe UI", Helvetica, Arial, monospace; font-size: 11px; }
.tt { fill: #e6edf3; font-family: -apple-system, BlinkMacSystemFont, "Segoe UI", Helvetica, Arial, monospace; font-size: 16px; font-weight: 600; }
.lb { font-family: monospace; font-size: 11px; }
.gd { stroke: #21262d; stroke-width: 1; }
.gm { stroke: #161b22; stroke-width: 1; }
.al { stroke: #30363d; stroke-width: 1.5; }
</style>
</defs>
<rect width="960" height="520" fill="#0d1117"/>
<text x="80" y="28" class="tt">Binary Size Trend (.bin)</text>
<line x1="80" y1="45.0" x2="750" y2="45.0" class="gd"/>
<text x="70" y="49.0" class="ax" text-anchor="end">138.1 KB</text>
<line x1="80" y1="96.25" x2="750" y2="96.25" class="gd"/>
<text x="70" y="100.25" class="ax" text-anchor="end">128.6 KB</text>
<line x1="80" y1="147.5" x2="750" y2="147.5" class="gd"/>
<text x="70" y="151.5" class="ax" text-anchor="end">119.2 KB</text>
<line x1="80" y1="198.75" x2="750" y2="198.75" class="gd"/>
<text x="70" y="202.75" class="ax" text-anchor="end">109.8 KB</text>
<line x1="80" y1="250.0" x2="750" y2="250.0" class="gd"/>
<text x="70" y="254.0" class="ax" text-anchor="end">100.4 KB</text>
<line x1="80" y1="301.25" x2="750" y2="301.25" class="gd"/>
<text x="70" y="305.25" class="ax" text-anchor="end">91.0 KB</text>
<line x1="80" y1="352.5" x2="750" y2="352.5" class="gd"/>
<text x="70" y="356.5" class="ax" text-anchor="end">81.6 KB</text>
<line x1="80" y1="403.75" x2="750" y2="403.75" class="gd"/>
<text x="70" y="407.75" class="ax" text-anchor="end">72.2 KB</text>
<line x1="80" y1="455.0" x2="750" y2="455.0" class="gd"/>
<text x="70" y="459.0" class="ax" text-anchor="end">62.8 KB</text>
<line x1="80.0" y1="45" x2="80.0" y2="455" class="gm"/>
<text x="80.0" y="475" class="ax" text-anchor="middle">02-05</text>
<line x1="162.0408163265306" y1="45" x2="162.0408163265306" y2="455" class="gm"/>
<text x="162.0408163265306" y="475" class="ax" text-anchor="middle">02-06</text>
<line x1="244.08163265306123" y1="45" x2="244.08163265306123" y2="455" class="gm"/>
<text x="244.08163265306123" y="475" class="ax" text-anchor="middle">02-09</text>
<line x1="326.1224489795918" y1="45" x2="326.1224489795918" y2="455" class="gm"/>
<text x="326.1224489795918" y="475" class="ax" text-anchor="middle">02-23</text>
<line x1="408.16326530612247" y1="45" x2="408.16326530612247" y2="455" class="gm"/>
<text x="408.16326530612247" y="475" class="ax" text-anchor="middle">02-24</text>
<line x1="490.2040816326531" y1="45" x2="490.2040816326531" y2="455" class="gm"/>
<text x="490.2040816326531" y="475" class="ax" text-anchor="middle">02-24</text>
<line x1="572.2448979591836" y1="45" x2="572.2448979591836" y2="455" class="gm"/>
<text x="572.2448979591836" y="475" class="ax" text-anchor="middle">02-24</text>
<line x1="654.2857142857142" y1="45" x2="654.2857142857142" y2="455" class="gm"/>
<text x="654.2857142857142" y="475" class="ax" text-anchor="middle">02-25</text>
<line x1="736.3265306122449" y1="45" x2="736.3265306122449" y2="455" class="gm"/>
<text x="736.3265306122449" y="475" class="ax" text-anchor="middle">02-26</text>
<text x="750.0" y="475" class="ax" text-anchor="middle">02-26</text>
<line x1="80" y1="45" x2="80" y2="455" class="al"/>
<line x1="80" y1="455" x2="750" y2="455" class="al"/>
<path d="M 80.0 149.2 L 93.7 166.1 L 107.3 167.0 L 121.0 154.3 L 134.7 166.2 L 148.4 165.9 L 162.0 160.3 L 175.7 160.3 L 189.4 160.3 L 203.1 160.3 L 216.7 160.3 L 230.4 160.6 L 244.1 160.6 L 257.8 234.2 L 271.4 234.2 L 285.1 233.3 L 298.8 233.3 L 312.4 233.3 L 326.1 218.9 L 339.8 214.3 L 353.5 214.3 L 367.1 215.0 L 380.8 215.8 L 394.5 214.1 L 408.2 214.1 L 421.8 213.0 L 435.5 211.3 L 449.2 229.3 L 462.9 213.0 L 476.5 214.1 L 490.2 229.2 L 503.9 213.0 L 517.6 214.1 L 531.2 214.3 L 544.9 214.4 L 558.6 214.1 L 572.2 212.3 L 585.9 213.9 L 599.6 213.5 L 613.3 228.2 L 626.9 213.0 L 640.6 214.3 L 654.3 229.0 L 668.0 229.0 L 681.6 229.0 L 695.3 318.4 L 709.0 319.5 L 722.7 318.4 L 736.3 319.5 L 750.0 247.5" fill="none" stroke="#58a6ff" stroke-width="2" opacity="0.85" stroke-dasharray="4,3"/>
<circle cx="750.0" cy="247.5" r="3.5" fill="#58a6ff"/>
<path d="M 80.0 149.3 L 93.7 166.2 L 107.3 167.4 L 121.0 153.3 L 134.7 166.2 L 148.4 167.0 L 162.0 160.3 L 175.7 160.3 L 189.4 160.3 L 203.1 160.3 L 216.7 160.3 L 230.4 160.6 L 244.1 160.6 L 257.8 271.4 L 271.4 271.4 L 285.1 270.2 L 298.8 270.2 L 312.4 270.2 L 326.1 272.4 L 339.8 269.4 L 353.5 269.4 L 367.1 269.9 L 380.8 271.6 L 394.5 269.4 L 408.2 269.4 L 421.8 267.7 L 435.5 267.1 L 449.2 271.1 L 462.9 267.7 L 476.5 269.4 L 490.2 271.2 L 503.9 267.9 L 517.6 269.4 L 531.2 269.4 L 544.9 269.7 L 558.6 269.4 L 572.2 267.5 L 585.9 268.8 L 599.6 268.3 L 613.3 269.8 L 626.9 267.7 L 640.6 269.4 L 654.3 271.1 L 668.0 271.1 L 681.6 271.1 L 695.3 336.5 L 709.0 337.8 L 722.7 336.5 L 736.3 337.8 L 750.0 272.3" fill="none" stroke="#1f6feb" stroke-width="2" opacity="0.85"/>
<circle cx="750.0" cy="272.3" r="3.5" fill="#1f6feb"/>
<path d="M 80.0 164.4 L 93.7 182.6 L 107.3 183.4 L 121.0 168.4 L 134.7 182.6 L 148.4 182.8 L 162.0 177.2 L 175.7 177.2 L 189.4 177.2 L 203.1 177.2 L 216.7 177.2 L 230.4 177.4 L 244.1 177.4 L 257.8 268.4 L 271.4 268.4 L 285.1 267.5 L 298.8 267.5 L 312.4 267.5 L 326.1 257.2 L 339.8 255.8 L 353.5 255.8 L 367.1 256.0 L 380.8 258.7 L 394.5 255.8 L 408.2 255.8 L 421.8 249.8 L 435.5 254.4 L 449.2 266.1 L 462.9 249.8 L 476.5 255.8 L 490.2 266.1 L 503.9 257.0 L 517.6 255.8 L 531.2 255.8 L 544.9 256.1 L 558.6 255.8 L 572.2 255.2 L 585.9 250.5 L 599.6 257.2 L 613.3 264.5 L 626.9 249.8 L 640.6 255.8 L 654.3 265.9 L 668.0 265.9 L 681.6 265.9 L 695.3 349.8 L 709.0 351.9 L 750.0 275.2" fill="none" stroke="#388bfd" stroke-width="2" opacity="0.85" stroke-dasharray="8,4"/>
<circle cx="750.0" cy="275.2" r="3.5" fill="#388bfd"/>
<path d="M 80.0 132.6 L 93.7 148.2 L 107.3 149.9 L 121.0 136.2 L 134.7 148.2 L 148.4 148.2 L 162.0 142.4 L 175.7 142.4 L 189.4 142.4 L 203.1 142.4 L 216.7 142.4 L 230.4 142.4 L 244.1 142.4 L 257.8 240.0 L 271.4 240.0 L 285.1 238.6 L 298.8 238.6 L 312.4 238.6 L 326.1 243.4 L 339.8 243.4 L 353.5 243.4 L 367.1 243.4 L 380.8 245.5 L 394.5 243.2 L 408.2 243.2 L 421.8 242.3 L 435.5 240.6 L 449.2 241.9 L 462.9 242.3 L 476.5 243.2 L 490.2 241.8 L 503.9 242.7 L 517.6 243.2 L 531.2 243.4 L 544.9 243.6 L 558.6 243.2 L 572.2 241.6 L 585.9 243.3 L 599.6 243.0 L 613.3 240.7 L 626.9 242.3 L 640.6 243.4 L 654.3 241.8 L 668.0 241.8 L 681.6 241.8 L 695.3 300.1 L 709.0 300.2 L 722.7 300.1 L 750.0 155.5" fill="none" stroke="#3fb950" stroke-width="2" opacity="0.85" stroke-dasharray="4,3"/>
<circle cx="750.0" cy="155.5" r="3.5" fill="#3fb950"/>
<path d="M 80.0 212.7 L 93.7 229.6 L 107.3 231.2 L 121.0 217.0 L 134.7 229.6 L 148.4 229.3 L 162.0 225.0 L 175.7 225.0 L 189.4 225.0 L 203.1 225.0 L 216.7 225.0 L 230.4 225.0 L 244.1 225.0 L 257.8 299.1 L 271.4 299.1 L 285.1 297.5 L 298.8 297.5 L 312.4 297.5 L 326.1 298.8 L 339.8 298.8 L 353.5 298.8 L 367.1 298.8 L 380.8 300.6 L 394.5 298.8 L 408.2 298.8 L 421.8 298.7 L 435.5 296.2 L 449.2 302.2 L 462.9 298.7 L 476.5 298.8 L 490.2 302.0 L 503.9 298.9 L 517.6 298.8 L 531.2 298.8 L 544.9 299.1 L 558.6 298.8 L 572.2 297.1 L 585.9 300.0 L 599.6 299.3 L 613.3 301.1 L 626.9 298.7 L 640.6 298.8 L 654.3 301.8 L 668.0 301.8 L 681.6 301.8 L 695.3 334.4 L 709.0 334.4 L 722.7 334.4 L 750.0 205.8" fill="none" stroke="#238636" stroke-width="2" opacity="0.85"/>
<circle cx="750.0" cy="205.8" r="3.5" fill="#238636"/>
<path d="M 80.0 113.4 L 93.7 129.4 L 107.3 131.2 L 121.0 118.9 L 134.7 129.4 L 148.4 129.5 L 162.0 123.4 L 175.7 123.4 L 189.4 123.4 L 203.1 123.4 L 216.7 123.4 L 230.4 123.4 L 244.1 123.4 L 257.8 208.9 L 271.4 208.9 L 285.1 207.9 L 298.8 207.9 L 312.4 207.9 L 326.1 195.8 L 339.8 195.8 L 353.5 195.8 L 367.1 195.8 L 380.8 198.4 L 394.5 195.8 L 408.2 195.8 L 421.8 197.5 L 435.5 194.7 L 449.2 218.5 L 462.9 197.5 L 476.5 195.8 L 490.2 218.5 L 503.9 197.6 L 517.6 195.8 L 531.2 195.8 L 544.9 196.1 L 558.6 195.8 L 572.2 195.1 L 585.9 199.3 L 599.6 197.9 L 613.3 216.3 L 626.9 197.5 L 640.6 195.8 L 654.3 218.4 L 668.0 218.4 L 681.6 218.4 L 695.3 275.4 L 709.0 275.9 L 722.7 275.4 L 750.0 145.3" fill="none" stroke="#2ea043" stroke-width="2" opacity="0.85" stroke-dasharray="2,2"/>
<circle cx="750.0" cy="145.3" r="3.5" fill="#2ea043"/>
<path d="M 80.0 208.0 L 93.7 223.7 L 107.3 225.7 L 121.0 211.6 L 134.7 223.7 L 148.4 224.0 L 162.0 218.3 L 175.7 218.3 L 189.4 218.3 L 203.1 218.3 L 216.7 218.3 L 230.4 218.3 L 244.1 218.3 L 257.8 308.6 L 271.4 308.6 L 285.1 307.8 L 298.8 307.8 L 312.4 307.8 L 326.1 299.2 L 339.8 299.2 L 353.5 299.2 L 367.1 299.2 L 380.8 302.4 L 394.5 299.2 L 408.2 299.2 L 421.8 297.6 L 435.5 299.4 L 449.2 313.7 L 462.9 297.6 L 476.5 299.2 L 490.2 313.7 L 503.9 302.0 L 517.6 299.2 L 531.2 299.2 L 544.9 299.5 L 558.6 299.2 L 572.2 300.0 L 585.9 299.0 L 599.6 302.2 L 613.3 311.8 L 626.9 297.6 L 640.6 299.2 L 654.3 313.6 L 668.0 313.6 L 681.6 313.6 L 695.3 415.2 L 709.0 416.2 L 722.7 415.2 L 750.0 315.3" fill="none" stroke="#56d364" stroke-width="2" opacity="0.85" stroke-dasharray="8,4"/>
<circle cx="750.0" cy="315.3" r="3.5" fill="#56d364"/>
<path d="M 695.3 330.9 L 709.0 331.1 L 722.7 330.9 L 750.0 202.4" fill="none" stroke="#bc8cff" stroke-width="2" opacity="0.85"/>
<circle cx="750.0" cy="202.4" r="3.5" fill="#bc8cff"/>
<path d="M 695.3 416.2 L 709.0 417.0 L 722.7 416.2 L 750.0 325.7" fill="none" stroke="#d2a8ff" stroke-width="2" opacity="0.85" stroke-dasharray="8,4"/>
<circle cx="750.0" cy="325.7" r="3.5" fill="#d2a8ff"/>
<path d="M 80.0 147.2 L 93.7 163.7 L 107.3 164.9 L 121.0 151.2 L 134.7 163.8 L 148.4 164.6 L 162.0 158.2 L 175.7 158.2 L 189.4 158.2 L 203.1 158.2 L 216.7 158.2 L 230.4 158.2 L 244.1 158.2 L 257.8 268.4 L 271.4 268.4 L 285.1 267.1 L 298.8 267.1 L 312.4 267.1 L 326.1 272.6 L 339.8 272.6 L 353.5 272.6 L 367.1 272.6 L 380.8 274.8 L 394.5 272.6 L 408.2 272.6 L 421.8 272.5 L 435.5 270.6 L 449.2 271.6 L 462.9 272.5 L 476.5 272.6 L 490.2 271.7 L 503.9 272.7 L 517.6 272.6 L 531.2 272.6 L 544.9 272.9 L 558.6 272.6 L 572.2 271.4 L 585.9 273.5 L 599.6 273.1 L 613.3 270.3 L 626.9 272.5 L 640.6 272.6 L 654.3 271.5 L 668.0 271.5 L 681.6 271.5 L 695.3 343.3 L 709.0 344.7 L 722.7 343.3 L 736.3 344.7 L 750.0 277.8" fill="none" stroke="#f78166" stroke-width="2" opacity="0.85"/>
<circle cx="750.0" cy="277.8" r="3.5" fill="#f78166"/>
<path d="M 80.0 159.1 L 93.7 177.4 L 107.3 178.2 L 121.0 163.0 L 134.7 177.4 L 148.4 177.6 L 162.0 172.0 L 175.7 172.0 L 189.4 172.0 L 203.1 172.0 L 216.7 172.0 L 230.4 172.0 L 244.1 172.0 L 257.8 262.3 L 271.4 262.3 L 285.1 261.5 L 298.8 261.5 L 312.4 261.5 L 326.1 254.2 L 339.8 254.2 L 353.5 254.2 L 367.1 254.2 L 380.8 257.1 L 394.5 254.1 L 408.2 254.1 L 421.8 248.4 L 435.5 253.1 L 449.2 263.9 L 462.9 248.4 L 476.5 254.1 L 490.2 263.9 L 503.9 255.7 L 517.6 254.1 L 531.2 254.2 L 544.9 254.5 L 558.6 254.1 L 572.2 253.9 L 585.9 249.4 L 599.6 255.8 L 613.3 262.4 L 626.9 248.4 L 640.6 254.2 L 654.3 263.8 L 668.0 263.8 L 681.6 263.8 L 695.3 354.2 L 709.0 356.3 L 722.7 354.2 L 750.0 279.7" fill="none" stroke="#ffa657" stroke-width="2" opacity="0.85" stroke-dasharray="8,4"/>
<circle cx="750.0" cy="279.7" r="3.5" fill="#ffa657"/>
<line x1="754.0" y1="145.3" x2="757.0" y2="145.3" stroke="#2ea043" stroke-width="0.8" opacity="0.35"/>
<text x="760" y="149.3" class="lb" fill="#2ea043">Linux ARMv7  119.6 KB</text>
<line x1="754.0" y1="155.5" x2="757.0" y2="160.3" stroke="#3fb950" stroke-width="0.8" opacity="0.35"/>
<text x="760" y="164.3" class="lb" fill="#3fb950">Linux i386  117.8 KB</text>
<line x1="754.0" y1="202.4" x2="757.0" y2="202.4" stroke="#bc8cff" stroke-width="0.8" opacity="0.35"/>
<text x="760" y="206.4" class="lb" fill="#bc8cff">macOS x64  109.1 KB</text>
<line x1="754.0" y1="205.8" x2="757.0" y2="217.4" stroke="#238636" stroke-width="0.8" opacity="0.35"/>
<text x="760" y="221.4" class="lb" fill="#238636">Linux x64  108.5 KB</text>
<line x1="754.0" y1="247.5" x2="757.0" y2="247.5" stroke="#58a6ff" stroke-width="0.8" opacity="0.35"/>
<text x="760" y="251.5" class="lb" fill="#58a6ff">Win i386  100.9 KB</text>
<line x1="754.0" y1="272.3" x2="757.0" y2="272.3" stroke="#1f6feb" stroke-width="0.8" opacity="0.35"/>
<text x="760" y="276.3" class="lb" fill="#1f6feb">Win x64  96.3 KB</text>
<line x1="754.0" y1="275.2" x2="757.0" y2="287.3" stroke="#388bfd" stroke-width="0.8" opacity="0.35"/>
<text x="760" y="291.3" class="lb" fill="#388bfd">Win ARM64  95.8 KB</text>
<line x1="754.0" y1="277.8" x2="757.0" y2="302.3" stroke="#f78166" stroke-width="0.8" opacity="0.35"/>
<text x="760" y="306.3" class="lb" fill="#f78166">UEFI x64  95.3 KB</text>
<line x1="754.0" y1="279.7" x2="757.0" y2="317.3" stroke="#ffa657" stroke-width="0.8" opacity="0.35"/>
<text x="760" y="321.3" class="lb" fill="#ffa657">UEFI ARM64  95.0 KB</text>
<line x1="754.0" y1="315.3" x2="757.0" y2="332.3" stroke="#56d364" stroke-width="0.8" opacity="0.35"/>
<text x="760" y="336.3" class="lb" fill="#56d364">Linux ARM64  88.4 KB</text>
<line x1="754.0" y1="325.7" x2="757.0" y2="347.3" stroke="#d2a8ff" stroke-width="0.8" opacity="0.35"/>
<text x="760" y="351.3" class="lb" fill="#d2a8ff">macOS ARM64  86.5 KB</text>
</svg>