<svg xmlns="http://www.w3.org/2000/svg" width="800" height="400">
<defs>
<style>
.axis-text { fill: #8b949e; font-family: monospace; font-size: 11px; }
.title { fill: #c9d1d9; font-family: monospace; font-size: 14px; font-weight: bold; }
.legend { fill: #8b949e; font-family: monospace; font-size: 10px; }
.grid { stroke: #21262d; stroke-width: 1; }
</style>
</defs>
<rect width="800" height="400" fill="#0d1117"/>
<text x="400.0" y="25" class="title" text-anchor="middle">Binary Size Trend (.bin)</text>
<line x1="70" y1="40.0" x2="650" y2="40.0" class="grid"/>
<text x="60" y="44.0" class="axis-text" text-anchor="end">138KB</text>
<line x1="70" y1="100.0" x2="650" y2="100.0" class="grid"/>
<text x="60" y="104.0" class="axis-text" text-anchor="end">129KB</text>
<line x1="70" y1="160.0" x2="650" y2="160.0" class="grid"/>
<text x="60" y="164.0" class="axis-text" text-anchor="end">120KB</text>
<line x1="70" y1="220.0" x2="650" y2="220.0" class="grid"/>
<text x="60" y="224.0" class="axis-text" text-anchor="end">111KB</text>
<line x1="70" y1="280.0" x2="650" y2="280.0" class="grid"/>
<text x="60" y="284.0" class="axis-text" text-anchor="end">102KB</text>
<line x1="70" y1="340.0" x2="650" y2="340.0" class="grid"/>
<text x="60" y="344.0" class="axis-text" text-anchor="end">93KB</text>
<text x="70.0" y="360" class="axis-text" text-anchor="middle">02-05</text>
<text x="215.0" y="360" class="axis-text" text-anchor="middle">02-05</text>
<text x="360.0" y="360" class="axis-text" text-anchor="middle">02-05</text>
<text x="505.0" y="360" class="axis-text" text-anchor="middle">02-05</text>
<text x="650.0" y="360" class="axis-text" text-anchor="middle">02-05</text>
<path d="M 70.0 190.6 L 215.0 190.7 L 360.0 168.7 L 505.0 190.7 L 650.0 175.0" fill="none" stroke="#58a6ff" stroke-width="2" opacity="0.8"/>
<circle cx="650.0" cy="175.0" r="4" fill="#58a6ff"/>
<text x="656.0" y="179.0" fill="#58a6ff" font-family="monospace" font-size="9px">118.0KB</text>
<path d="M 70.0 191.1 L 215.0 191.2 L 360.0 168.9 L 505.0 191.2 L 650.0 173.9" fill="none" stroke="#1f6feb" stroke-width="2" opacity="0.8"/>
<circle cx="650.0" cy="173.9" r="4" fill="#1f6feb"/>
<text x="656.0" y="177.9" fill="#1f6feb" font-family="monospace" font-size="9px">118.2KB</text>
<path d="M 70.0 210.7 L 215.0 211.0 L 360.0 187.6 L 505.0 211.0 L 650.0 192.4" fill="none" stroke="#388bfd" stroke-width="2" opacity="0.8"/>
<circle cx="650.0" cy="192.4" r="4" fill="#388bfd"/>
<text x="656.0" y="196.4" fill="#388bfd" font-family="monospace" font-size="9px">115.4KB</text>
<path d="M 70.0 169.4 L 215.0 169.6 L 360.0 148.2 L 505.0 169.6 L 650.0 152.6" fill="none" stroke="#3fb950" stroke-width="2" opacity="0.8"/>
<circle cx="650.0" cy="152.6" r="4" fill="#3fb950"/>
<text x="656.0" y="156.6" fill="#3fb950" font-family="monospace" font-size="9px">121.3KB</text>
<path d="M 70.0 270.0 L 215.0 270.1 L 360.0 247.2 L 505.0 270.1 L 650.0 252.5" fill="none" stroke="#238636" stroke-width="2" opacity="0.8"/>
<circle cx="650.0" cy="252.5" r="4" fill="#238636"/>
<text x="656.0" y="256.5" fill="#238636" font-family="monospace" font-size="9px">106.5KB</text>
<path d="M 70.0 146.3 L 215.0 146.5 L 360.0 124.5 L 505.0 146.5 L 650.0 131.3" fill="none" stroke="#2ea043" stroke-width="2" opacity="0.8"/>
<circle cx="650.0" cy="131.3" r="4" fill="#2ea043"/>
<text x="656.0" y="135.3" fill="#2ea043" font-family="monospace" font-size="9px">124.5KB</text>
<path d="M 70.0 263.1 L 215.0 263.3 L 360.0 241.3 L 505.0 263.3 L 650.0 245.9" fill="none" stroke="#56d364" stroke-width="2" opacity="0.8"/>
<circle cx="650.0" cy="245.9" r="4" fill="#56d364"/>
<text x="656.0" y="249.9" fill="#56d364" font-family="monospace" font-size="9px">107.5KB</text>
<path d="M 70.0 188.1 L 215.0 188.1 L 360.0 166.3 L 505.0 188.1 L 650.0 171.3" fill="none" stroke="#f78166" stroke-width="2" opacity="0.8"/>
<circle cx="650.0" cy="171.3" r="4" fill="#f78166"/>
<text x="656.0" y="175.3" fill="#f78166" font-family="monospace" font-size="9px">118.5KB</text>
<path d="M 70.0 204.6 L 215.0 204.6 L 360.0 181.0 L 505.0 204.6 L 650.0 185.8" fill="none" stroke="#ffa657" stroke-width="2" opacity="0.8"/>
<circle cx="650.0" cy="185.8" r="4" fill="#ffa657"/>
<text x="656.0" y="189.8" fill="#ffa657" font-family="monospace" font-size="9px">116.4KB</text>
<rect x="665" y="44" width="12" height="12" fill="#58a6ff"/>
<text x="683" y="54" class="legend">Win i386</text>
<rect x="665" y="62" width="12" height="12" fill="#1f6feb"/>
<text x="683" y="72" class="legend">Win x64</text>
<rect x="665" y="80" width="12" height="12" fill="#388bfd"/>
<text x="683" y="90" class="legend">Win ARM64</text>
<rect x="665" y="98" width="12" height="12" fill="#3fb950"/>
<text x="683" y="108" class="legend">Linux i386</text>
<rect x="665" y="116" width="12" height="12" fill="#238636"/>
<text x="683" y="126" class="legend">Linux x64</text>
<rect x="665" y="134" width="12" height="12" fill="#2ea043"/>
<text x="683" y="144" class="legend">Linux ARM</text>
<rect x="665" y="152" width="12" height="12" fill="#56d364"/>
<text x="683" y="162" class="legend">Linux ARM64</text>
<rect x="665" y="170" width="12" height="12" fill="#f78166"/>
<text x="683" y="180" class="legend">UEFI x64</text>
<rect x="665" y="188" width="12" height="12" fill="#ffa657"/>
<text x="683" y="198" class="legend">UEFI ARM64</text>
</svg>