<svg xmlns="http://www.w3.org/2000/svg" width="800" height="400">
<defs>
<style>
.axis-text { fill: #8b949e; font-family: monospace; font-size: 11px; }
.title { fill: #c9d1d9; font-family: monospace; font-size: 14px; font-weight: bold; }
.legend { fill: #8b949e; font-family: monospace; font-size: 10px; }
.grid { stroke: #21262d; stroke-width: 1; }
</style>
</defs>
<rect width="800" height="400" fill="#0d1117"/>
<text x="400.0" y="25" class="title" text-anchor="middle">Binary Size Trend (.bin)</text>
<line x1="70" y1="40.0" x2="650" y2="40.0" class="grid"/>
<text x="60" y="44.0" class="axis-text" text-anchor="end">138KB</text>
<line x1="70" y1="100.0" x2="650" y2="100.0" class="grid"/>
<text x="60" y="104.0" class="axis-text" text-anchor="end">126KB</text>
<line x1="70" y1="160.0" x2="650" y2="160.0" class="grid"/>
<text x="60" y="164.0" class="axis-text" text-anchor="end">115KB</text>
<line x1="70" y1="220.0" x2="650" y2="220.0" class="grid"/>
<text x="60" y="224.0" class="axis-text" text-anchor="end">103KB</text>
<line x1="70" y1="280.0" x2="650" y2="280.0" class="grid"/>
<text x="60" y="284.0" class="axis-text" text-anchor="end">91KB</text>
<line x1="70" y1="340.0" x2="650" y2="340.0" class="grid"/>
<text x="60" y="344.0" class="axis-text" text-anchor="end">80KB</text>
<text x="70.0" y="360" class="axis-text" text-anchor="middle">02-05</text>
<text x="164.69387755102042" y="360" class="axis-text" text-anchor="middle">02-05</text>
<text x="259.38775510204084" y="360" class="axis-text" text-anchor="middle">02-09</text>
<text x="354.0816326530612" y="360" class="axis-text" text-anchor="middle">02-23</text>
<text x="448.7755102040816" y="360" class="axis-text" text-anchor="middle">02-24</text>
<text x="543.469387755102" y="360" class="axis-text" text-anchor="middle">02-24</text>
<text x="638.1632653061224" y="360" class="axis-text" text-anchor="middle">02-25</text>
<path d="M 70.0 154.6 L 81.8 154.7 L 93.7 155.4 L 105.5 156.5 L 117.3 155.4 L 129.2 138.6 L 141.0 154.6 L 152.9 155.4 L 164.7 143.4 L 176.5 154.7 L 188.4 154.4 L 200.2 149.1 L 212.0 149.1 L 223.9 149.1 L 235.7 149.1 L 247.6 149.1 L 259.4 149.4 L 271.2 149.4 L 283.1 219.1 L 294.9 219.1 L 306.7 218.2 L 318.6 218.2 L 330.4 218.2 L 342.2 204.6 L 354.1 200.2 L 365.9 200.2 L 377.8 200.9 L 389.6 201.6 L 401.4 200.0 L 413.3 200.0 L 425.1 199.0 L 436.9 197.4 L 448.8 214.4 L 460.6 199.0 L 472.4 200.0 L 484.3 214.3 L 496.1 198.9 L 508.0 200.0 L 519.8 200.2 L 531.6 200.3 L 543.5 200.0 L 555.3 198.3 L 567.1 199.8 L 579.0 199.5 L 590.8 213.4 L 602.7 199.0 L 614.5 200.2 L 626.3 214.2 L 638.2 214.2 L 650.0 214.2" fill="none" stroke="#58a6ff" stroke-width="2" opacity="0.8"/>
<circle cx="70.0" cy="154.6" r="3" fill="#58a6ff"/>
<circle cx="188.4" cy="154.4" r="3" fill="#58a6ff"/>
<circle cx="306.7" cy="218.2" r="3" fill="#58a6ff"/>
<circle cx="425.1" cy="199.0" r="3" fill="#58a6ff"/>
<circle cx="543.5" cy="200.0" r="3" fill="#58a6ff"/>
<circle cx="650.0" cy="214.2" r="4" fill="#58a6ff"/>
<path d="M 70.0 154.7 L 81.8 154.7 L 93.7 155.8 L 105.5 156.9 L 117.3 155.8 L 129.2 138.7 L 141.0 154.7 L 152.9 155.8 L 164.7 142.5 L 176.5 154.7 L 188.4 155.5 L 200.2 149.1 L 212.0 149.1 L 223.9 149.1 L 235.7 149.1 L 247.6 149.1 L 259.4 149.4 L 271.2 149.4 L 283.1 254.3 L 294.9 254.3 L 306.7 253.1 L 318.6 253.1 L 330.4 253.1 L 342.2 255.1 L 354.1 252.3 L 365.9 252.3 L 377.8 252.8 L 389.6 254.4 L 401.4 252.3 L 413.3 252.3 L 425.1 250.7 L 436.9 250.2 L 448.8 253.9 L 460.6 250.7 L 472.4 252.3 L 484.3 254.1 L 496.1 251.0 L 508.0 252.3 L 519.8 252.3 L 531.6 252.7 L 543.5 252.3 L 555.3 250.6 L 567.1 251.8 L 579.0 251.3 L 590.8 252.7 L 602.7 250.7 L 614.5 252.3 L 626.3 253.9 L 638.2 253.9 L 650.0 253.9" fill="none" stroke="#1f6feb" stroke-width="2" opacity="0.8"/>
<circle cx="70.0" cy="154.7" r="3" fill="#1f6feb"/>
<circle cx="188.4" cy="155.5" r="3" fill="#1f6feb"/>
<circle cx="306.7" cy="253.1" r="3" fill="#1f6feb"/>
<circle cx="425.1" cy="250.7" r="3" fill="#1f6feb"/>
<circle cx="543.5" cy="252.3" r="3" fill="#1f6feb"/>
<circle cx="650.0" cy="253.9" r="4" fill="#1f6feb"/>
<path d="M 70.0 170.2 L 81.8 170.2 L 93.7 171.0 L 105.5 172.2 L 117.3 171.0 L 129.2 153.0 L 141.0 170.2 L 152.9 171.0 L 164.7 156.7 L 176.5 170.2 L 188.4 170.4 L 200.2 165.1 L 212.0 165.1 L 223.9 165.1 L 235.7 165.1 L 247.6 165.1 L 259.4 165.3 L 271.2 165.3 L 283.1 251.4 L 294.9 251.4 L 306.7 250.6 L 318.6 250.6 L 330.4 250.6 L 342.2 240.8 L 354.1 239.5 L 365.9 239.5 L 377.8 239.7 L 389.6 242.3 L 401.4 239.5 L 413.3 239.5 L 425.1 233.8 L 436.9 238.2 L 448.8 249.2 L 460.6 233.8 L 472.4 239.5 L 484.3 249.2 L 496.1 240.7 L 508.0 239.5 L 519.8 239.5 L 531.6 239.8 L 543.5 239.5 L 555.3 239.0 L 567.1 234.5 L 579.0 240.9 L 590.8 247.7 L 602.7 233.8 L 614.5 239.5 L 626.3 249.1 L 638.2 249.1 L 650.0 249.1" fill="none" stroke="#388bfd" stroke-width="2" opacity="0.8"/>
<circle cx="70.0" cy="170.2" r="3" fill="#388bfd"/>
<circle cx="188.4" cy="170.4" r="3" fill="#388bfd"/>
<circle cx="306.7" cy="250.6" r="3" fill="#388bfd"/>
<circle cx="425.1" cy="233.8" r="3" fill="#388bfd"/>
<circle cx="543.5" cy="239.5" r="3" fill="#388bfd"/>
<circle cx="650.0" cy="249.1" r="4" fill="#388bfd"/>
<path d="M 70.0 137.7 L 81.8 137.7 L 93.7 139.2 L 105.5 139.7 L 117.3 139.2 L 129.2 122.9 L 141.0 137.7 L 152.9 139.2 L 164.7 126.3 L 176.5 137.7 L 188.4 137.6 L 200.2 132.1 L 212.0 132.1 L 223.9 132.1 L 235.7 132.1 L 247.6 132.1 L 259.4 132.1 L 271.2 132.1 L 283.1 224.5 L 294.9 224.5 L 306.7 223.2 L 318.6 223.2 L 330.4 223.2 L 342.2 227.7 L 354.1 227.7 L 365.9 227.7 L 377.8 227.7 L 389.6 229.8 L 401.4 227.6 L 413.3 227.6 L 425.1 226.7 L 436.9 225.1 L 448.8 226.4 L 460.6 226.7 L 472.4 227.6 L 484.3 226.3 L 496.1 227.1 L 508.0 227.6 L 519.8 227.7 L 531.6 227.9 L 543.5 227.6 L 555.3 226.1 L 567.1 227.7 L 579.0 227.3 L 590.8 225.2 L 602.7 226.7 L 614.5 227.7 L 626.3 226.2 L 638.2 226.2 L 650.0 226.2" fill="none" stroke="#3fb950" stroke-width="2" opacity="0.8"/>
<circle cx="70.0" cy="137.7" r="3" fill="#3fb950"/>
<circle cx="188.4" cy="137.6" r="3" fill="#3fb950"/>
<circle cx="306.7" cy="223.2" r="3" fill="#3fb950"/>
<circle cx="425.1" cy="226.7" r="3" fill="#3fb950"/>
<circle cx="543.5" cy="227.6" r="3" fill="#3fb950"/>
<circle cx="650.0" cy="226.2" r="4" fill="#3fb950"/>
<path d="M 70.0 214.7 L 81.8 214.7 L 93.7 216.2 L 105.5 216.0 L 117.3 216.2 L 129.2 198.7 L 141.0 214.7 L 152.9 216.2 L 164.7 202.8 L 176.5 214.7 L 188.4 214.4 L 200.2 210.3 L 212.0 210.3 L 223.9 210.3 L 235.7 210.3 L 247.6 210.3 L 259.4 210.3 L 271.2 210.3 L 283.1 280.5 L 294.9 280.5 L 306.7 278.9 L 318.6 278.9 L 330.4 278.9 L 342.2 280.2 L 354.1 280.2 L 365.9 280.2 L 377.8 280.2 L 389.6 281.9 L 401.4 280.2 L 413.3 280.2 L 425.1 280.1 L 436.9 277.7 L 448.8 283.4 L 460.6 280.1 L 472.4 280.2 L 484.3 283.2 L 496.1 280.2 L 508.0 280.2 L 519.8 280.2 L 531.6 280.5 L 543.5 280.2 L 555.3 278.5 L 567.1 281.3 L 579.0 280.6 L 590.8 282.3 L 602.7 280.1 L 614.5 280.2 L 626.3 283.1 L 638.2 283.1 L 650.0 283.1" fill="none" stroke="#238636" stroke-width="2" opacity="0.8"/>
<circle cx="70.0" cy="214.7" r="3" fill="#238636"/>
<circle cx="188.4" cy="214.4" r="3" fill="#238636"/>
<circle cx="306.7" cy="278.9" r="3" fill="#238636"/>
<circle cx="425.1" cy="280.1" r="3" fill="#238636"/>
<circle cx="543.5" cy="280.2" r="3" fill="#238636"/>
<circle cx="650.0" cy="283.1" r="4" fill="#238636"/>
<path d="M 70.0 119.9 L 81.8 119.9 L 93.7 121.5 L 105.5 121.8 L 117.3 121.5 L 129.2 104.7 L 141.0 119.9 L 152.9 121.5 L 164.7 109.9 L 176.5 119.9 L 188.4 119.9 L 200.2 114.2 L 212.0 114.2 L 223.9 114.2 L 235.7 114.2 L 247.6 114.2 L 259.4 114.2 L 271.2 114.2 L 283.1 195.1 L 294.9 195.1 L 306.7 194.2 L 318.6 194.2 L 330.4 194.2 L 342.2 182.7 L 354.1 182.7 L 365.9 182.7 L 377.8 182.7 L 389.6 185.2 L 401.4 182.7 L 413.3 182.7 L 425.1 184.3 L 436.9 181.6 L 448.8 204.2 L 460.6 184.3 L 472.4 182.7 L 484.3 204.2 L 496.1 184.4 L 508.0 182.7 L 519.8 182.7 L 531.6 183.0 L 543.5 182.7 L 555.3 182.1 L 567.1 186.0 L 579.0 184.7 L 590.8 202.1 L 602.7 184.3 L 614.5 182.7 L 626.3 204.0 L 638.2 204.0 L 650.0 204.0" fill="none" stroke="#2ea043" stroke-width="2" opacity="0.8"/>
<circle cx="70.0" cy="119.9" r="3" fill="#2ea043"/>
<circle cx="188.4" cy="119.9" r="3" fill="#2ea043"/>
<circle cx="306.7" cy="194.2" r="3" fill="#2ea043"/>
<circle cx="425.1" cy="184.3" r="3" fill="#2ea043"/>
<circle cx="543.5" cy="182.7" r="3" fill="#2ea043"/>
<circle cx="650.0" cy="204.0" r="4" fill="#2ea043"/>
<path d="M 70.0 209.1 L 81.8 209.1 L 93.7 211.0 L 105.5 211.2 L 117.3 211.0 L 129.2 194.2 L 141.0 209.1 L 152.9 211.0 L 164.7 197.7 L 176.5 209.1 L 188.4 209.4 L 200.2 204.0 L 212.0 204.0 L 223.9 204.0 L 235.7 204.0 L 247.6 204.0 L 259.4 204.0 L 271.2 204.0 L 283.1 289.5 L 294.9 289.5 L 306.7 288.7 L 318.6 288.7 L 330.4 288.7 L 342.2 280.6 L 354.1 280.6 L 365.9 280.6 L 377.8 280.6 L 389.6 283.6 L 401.4 280.6 L 413.3 280.6 L 425.1 279.0 L 436.9 280.8 L 448.8 294.3 L 460.6 279.0 L 472.4 280.6 L 484.3 294.3 L 496.1 283.2 L 508.0 280.6 L 519.8 280.6 L 531.6 280.9 L 543.5 280.6 L 555.3 281.3 L 567.1 280.4 L 579.0 283.4 L 590.8 292.5 L 602.7 279.0 L 614.5 280.6 L 626.3 294.2 L 638.2 294.2 L 650.0 294.2" fill="none" stroke="#56d364" stroke-width="2" opacity="0.8"/>
<circle cx="70.0" cy="209.1" r="3" fill="#56d364"/>
<circle cx="188.4" cy="209.4" r="3" fill="#56d364"/>
<circle cx="306.7" cy="288.7" r="3" fill="#56d364"/>
<circle cx="425.1" cy="279.0" r="3" fill="#56d364"/>
<circle cx="543.5" cy="280.6" r="3" fill="#56d364"/>
<circle cx="650.0" cy="294.2" r="4" fill="#56d364"/>
<path d="M 70.0 152.3 L 81.8 152.4 L 93.7 153.4 L 105.5 154.6 L 117.3 153.4 L 129.2 136.8 L 141.0 152.3 L 152.9 153.4 L 164.7 140.5 L 176.5 152.4 L 188.4 153.2 L 200.2 147.1 L 212.0 147.1 L 223.9 147.1 L 235.7 147.1 L 247.6 147.1 L 259.4 147.1 L 271.2 147.1 L 283.1 251.4 L 294.9 251.4 L 306.7 250.2 L 318.6 250.2 L 330.4 250.2 L 342.2 255.3 L 354.1 255.3 L 365.9 255.3 L 377.8 255.3 L 389.6 257.4 L 401.4 255.3 L 413.3 255.3 L 425.1 255.3 L 436.9 253.5 L 448.8 254.5 L 460.6 255.3 L 472.4 255.3 L 484.3 254.5 L 496.1 255.5 L 508.0 255.3 L 519.8 255.3 L 531.6 255.7 L 543.5 255.3 L 555.3 254.2 L 567.1 256.2 L 579.0 255.8 L 590.8 253.2 L 602.7 255.3 L 614.5 255.3 L 626.3 254.4 L 638.2 254.4 L 650.0 254.4" fill="none" stroke="#f78166" stroke-width="2" opacity="0.8"/>
<circle cx="70.0" cy="152.3" r="3" fill="#f78166"/>
<circle cx="188.4" cy="153.2" r="3" fill="#f78166"/>
<circle cx="306.7" cy="250.2" r="3" fill="#f78166"/>
<circle cx="425.1" cy="255.3" r="3" fill="#f78166"/>
<circle cx="543.5" cy="255.3" r="3" fill="#f78166"/>
<circle cx="650.0" cy="254.4" r="4" fill="#f78166"/>
<path d="M 70.0 165.3 L 81.8 165.3 L 93.7 166.0 L 105.5 167.3 L 117.3 166.0 L 129.2 148.0 L 141.0 165.3 L 152.9 166.0 L 164.7 151.7 L 176.5 165.3 L 188.4 165.5 L 200.2 160.2 L 212.0 160.2 L 223.9 160.2 L 235.7 160.2 L 247.6 160.2 L 259.4 160.2 L 271.2 160.2 L 283.1 245.7 L 294.9 245.7 L 306.7 244.9 L 318.6 244.9 L 330.4 244.9 L 342.2 237.9 L 354.1 237.9 L 365.9 237.9 L 377.8 237.9 L 389.6 240.7 L 401.4 237.9 L 413.3 237.9 L 425.1 232.5 L 436.9 236.9 L 448.8 247.2 L 460.6 232.5 L 472.4 237.9 L 484.3 247.2 L 496.1 239.4 L 508.0 237.9 L 519.8 237.9 L 531.6 238.2 L 543.5 237.9 L 555.3 237.7 L 567.1 233.4 L 579.0 239.5 L 590.8 245.7 L 602.7 232.5 L 614.5 237.9 L 626.3 247.1 L 638.2 247.1 L 650.0 247.1" fill="none" stroke="#ffa657" stroke-width="2" opacity="0.8"/>
<circle cx="70.0" cy="165.3" r="3" fill="#ffa657"/>
<circle cx="188.4" cy="165.5" r="3" fill="#ffa657"/>
<circle cx="306.7" cy="244.9" r="3" fill="#ffa657"/>
<circle cx="425.1" cy="232.5" r="3" fill="#ffa657"/>
<circle cx="543.5" cy="237.9" r="3" fill="#ffa657"/>
<circle cx="650.0" cy="247.1" r="4" fill="#ffa657"/>
<text x="70.0" y="111.9" fill="#2ea043" font-family="monospace" font-size="8px" text-anchor="middle">122.6KB</text>
<text x="70.0" y="129.9" fill="#3fb950" font-family="monospace" font-size="8px" text-anchor="middle">119.1KB</text>
<text x="70.0" y="147.9" fill="#f78166" font-family="monospace" font-size="8px" text-anchor="middle">116.3KB</text>
<text x="70.0" y="165.9" fill="#58a6ff" font-family="monospace" font-size="8px" text-anchor="middle">115.8KB</text>
<text x="70.0" y="183.9" fill="#1f6feb" font-family="monospace" font-size="8px" text-anchor="middle">115.8KB</text>
<text x="70.0" y="201.9" fill="#ffa657" font-family="monospace" font-size="8px" text-anchor="middle">113.7KB</text>
<text x="70.0" y="219.9" fill="#388bfd" font-family="monospace" font-size="8px" text-anchor="middle">112.8KB</text>
<text x="70.0" y="237.9" fill="#56d364" font-family="monospace" font-size="8px" text-anchor="middle">105.2KB</text>
<text x="70.0" y="255.9" fill="#238636" font-family="monospace" font-size="8px" text-anchor="middle">104.2KB</text>
<text x="188.4" y="111.9" fill="#2ea043" font-family="monospace" font-size="8px" text-anchor="middle">122.5KB</text>
<text x="188.4" y="129.9" fill="#3fb950" font-family="monospace" font-size="8px" text-anchor="middle">119.1KB</text>
<text x="188.4" y="147.9" fill="#f78166" font-family="monospace" font-size="8px" text-anchor="middle">116.1KB</text>
<text x="188.4" y="165.9" fill="#58a6ff" font-family="monospace" font-size="8px" text-anchor="middle">115.9KB</text>
<text x="188.4" y="183.9" fill="#1f6feb" font-family="monospace" font-size="8px" text-anchor="middle">115.6KB</text>
<text x="188.4" y="201.9" fill="#ffa657" font-family="monospace" font-size="8px" text-anchor="middle">113.7KB</text>
<text x="188.4" y="219.9" fill="#388bfd" font-family="monospace" font-size="8px" text-anchor="middle">112.8KB</text>
<text x="188.4" y="237.9" fill="#56d364" font-family="monospace" font-size="8px" text-anchor="middle">105.2KB</text>
<text x="188.4" y="255.9" fill="#238636" font-family="monospace" font-size="8px" text-anchor="middle">104.2KB</text>
<text x="306.7" y="186.2" fill="#2ea043" font-family="monospace" font-size="8px" text-anchor="middle">108.1KB</text>
<text x="306.7" y="210.2" fill="#58a6ff" font-family="monospace" font-size="8px" text-anchor="middle">103.5KB</text>
<text x="306.7" y="228.2" fill="#3fb950" font-family="monospace" font-size="8px" text-anchor="middle">102.5KB</text>
<text x="306.7" y="246.2" fill="#ffa657" font-family="monospace" font-size="8px" text-anchor="middle">98.3KB</text>
<text x="306.7" y="264.2" fill="#f78166" font-family="monospace" font-size="8px" text-anchor="middle">97.3KB</text>
<text x="306.7" y="282.2" fill="#388bfd" font-family="monospace" font-size="8px" text-anchor="middle">97.2KB</text>
<text x="306.7" y="300.2" fill="#1f6feb" font-family="monospace" font-size="8px" text-anchor="middle">96.7KB</text>
<text x="306.7" y="318.2" fill="#238636" font-family="monospace" font-size="8px" text-anchor="middle">91.7KB</text>
<text x="306.7" y="336.2" fill="#56d364" font-family="monospace" font-size="8px" text-anchor="middle">89.8KB</text>
<text x="425.1" y="176.3" fill="#2ea043" font-family="monospace" font-size="8px" text-anchor="middle">110.1KB</text>
<text x="425.1" y="194.3" fill="#58a6ff" font-family="monospace" font-size="8px" text-anchor="middle">107.2KB</text>
<text x="425.1" y="218.7" fill="#3fb950" font-family="monospace" font-size="8px" text-anchor="middle">101.8KB</text>
<text x="425.1" y="236.7" fill="#ffa657" font-family="monospace" font-size="8px" text-anchor="middle">100.7KB</text>
<text x="425.1" y="254.7" fill="#388bfd" font-family="monospace" font-size="8px" text-anchor="middle">100.5KB</text>
<text x="425.1" y="272.7" fill="#1f6feb" font-family="monospace" font-size="8px" text-anchor="middle">97.2KB</text>
<text x="425.1" y="290.7" fill="#f78166" font-family="monospace" font-size="8px" text-anchor="middle">96.3KB</text>
<text x="425.1" y="308.7" fill="#56d364" font-family="monospace" font-size="8px" text-anchor="middle">91.7KB</text>
<text x="425.1" y="326.7" fill="#238636" font-family="monospace" font-size="8px" text-anchor="middle">91.5KB</text>
<text x="543.5" y="174.7" fill="#2ea043" font-family="monospace" font-size="8px" text-anchor="middle">110.4KB</text>
<text x="543.5" y="192.7" fill="#58a6ff" font-family="monospace" font-size="8px" text-anchor="middle">107.0KB</text>
<text x="543.5" y="219.6" fill="#3fb950" font-family="monospace" font-size="8px" text-anchor="middle">101.7KB</text>
<text x="543.5" y="237.6" fill="#ffa657" font-family="monospace" font-size="8px" text-anchor="middle">99.7KB</text>
<text x="543.5" y="255.6" fill="#388bfd" font-family="monospace" font-size="8px" text-anchor="middle">99.4KB</text>
<text x="543.5" y="273.6" fill="#1f6feb" font-family="monospace" font-size="8px" text-anchor="middle">96.9KB</text>
<text x="543.5" y="291.6" fill="#f78166" font-family="monospace" font-size="8px" text-anchor="middle">96.3KB</text>
<text x="543.5" y="309.6" fill="#238636" font-family="monospace" font-size="8px" text-anchor="middle">91.5KB</text>
<text x="543.5" y="327.6" fill="#56d364" font-family="monospace" font-size="8px" text-anchor="middle">91.4KB</text>
<text x="650.0" y="196.0" fill="#2ea043" font-family="monospace" font-size="8px" text-anchor="middle">106.2KB</text>
<text x="650.0" y="214.0" fill="#58a6ff" font-family="monospace" font-size="8px" text-anchor="middle">104.3KB</text>
<text x="650.0" y="232.0" fill="#3fb950" font-family="monospace" font-size="8px" text-anchor="middle">101.9KB</text>
<text x="650.0" y="250.0" fill="#ffa657" font-family="monospace" font-size="8px" text-anchor="middle">97.9KB</text>
<text x="650.0" y="268.0" fill="#388bfd" font-family="monospace" font-size="8px" text-anchor="middle">97.5KB</text>
<text x="650.0" y="286.0" fill="#1f6feb" font-family="monospace" font-size="8px" text-anchor="middle">96.5KB</text>
<text x="650.0" y="304.0" fill="#f78166" font-family="monospace" font-size="8px" text-anchor="middle">96.5KB</text>
<text x="650.0" y="322.0" fill="#238636" font-family="monospace" font-size="8px" text-anchor="middle">90.9KB</text>
<text x="650.0" y="340.0" fill="#56d364" font-family="monospace" font-size="8px" text-anchor="middle">88.7KB</text>
<rect x="665" y="44" width="12" height="12" fill="#58a6ff"/>
<text x="683" y="54" class="legend">Win i386</text>
<rect x="665" y="62" width="12" height="12" fill="#1f6feb"/>
<text x="683" y="72" class="legend">Win x64</text>
<rect x="665" y="80" width="12" height="12" fill="#388bfd"/>
<text x="683" y="90" class="legend">Win ARM64</text>
<rect x="665" y="98" width="12" height="12" fill="#3fb950"/>
<text x="683" y="108" class="legend">Linux i386</text>
<rect x="665" y="116" width="12" height="12" fill="#238636"/>
<text x="683" y="126" class="legend">Linux x64</text>
<rect x="665" y="134" width="12" height="12" fill="#2ea043"/>
<text x="683" y="144" class="legend">Linux ARM</text>
<rect x="665" y="152" width="12" height="12" fill="#56d364"/>
<text x="683" y="162" class="legend">Linux ARM64</text>
<rect x="665" y="170" width="12" height="12" fill="#f78166"/>
<text x="683" y="180" class="legend">UEFI x64</text>
<rect x="665" y="188" width="12" height="12" fill="#ffa657"/>
<text x="683" y="198" class="legend">UEFI ARM64</text>
</svg>