<svg xmlns="http://www.w3.org/2000/svg" width="800" height="400">
<defs>
<style>
.axis-text { fill: #8b949e; font-family: monospace; font-size: 11px; }
.title { fill: #c9d1d9; font-family: monospace; font-size: 14px; font-weight: bold; }
.legend { fill: #8b949e; font-family: monospace; font-size: 10px; }
.grid { stroke: #21262d; stroke-width: 1; }
</style>
</defs>
<rect width="800" height="400" fill="#0d1117"/>
<text x="400.0" y="25" class="title" text-anchor="middle">Binary Size Trend (.bin)</text>
<line x1="70" y1="40.0" x2="650" y2="40.0" class="grid"/>
<text x="60" y="44.0" class="axis-text" text-anchor="end">138KB</text>
<line x1="70" y1="100.0" x2="650" y2="100.0" class="grid"/>
<text x="60" y="104.0" class="axis-text" text-anchor="end">127KB</text>
<line x1="70" y1="160.0" x2="650" y2="160.0" class="grid"/>
<text x="60" y="164.0" class="axis-text" text-anchor="end">115KB</text>
<line x1="70" y1="220.0" x2="650" y2="220.0" class="grid"/>
<text x="60" y="224.0" class="axis-text" text-anchor="end">104KB</text>
<line x1="70" y1="280.0" x2="650" y2="280.0" class="grid"/>
<text x="60" y="284.0" class="axis-text" text-anchor="end">92KB</text>
<line x1="70" y1="340.0" x2="650" y2="340.0" class="grid"/>
<text x="60" y="344.0" class="axis-text" text-anchor="end">81KB</text>
<text x="70.0" y="360" class="axis-text" text-anchor="middle">02-05</text>
<text x="170.8695652173913" y="360" class="axis-text" text-anchor="middle">02-05</text>
<text x="271.7391304347826" y="360" class="axis-text" text-anchor="middle">02-05</text>
<text x="372.6086956521739" y="360" class="axis-text" text-anchor="middle">02-05</text>
<text x="473.4782608695652" y="360" class="axis-text" text-anchor="middle">02-06</text>
<text x="574.3478260869565" y="360" class="axis-text" text-anchor="middle">02-09</text>
<path d="M 70.0 156.4 L 95.2 157.0 L 120.4 158.2 L 145.7 156.3 L 170.9 156.4 L 196.1 157.1 L 221.3 158.2 L 246.5 157.1 L 271.7 140.0 L 297.0 156.3 L 322.2 157.1 L 347.4 144.9 L 372.6 156.4 L 397.8 156.0 L 423.0 150.7 L 448.3 150.7 L 473.5 150.7 L 498.7 150.7 L 523.9 150.7 L 549.1 151.0 L 574.3 151.0 L 599.6 221.7 L 624.8 221.7 L 650.0 220.8" fill="none" stroke="#58a6ff" stroke-width="2" opacity="0.8"/>
<circle cx="70.0" cy="156.4" r="3" fill="#58a6ff"/>
<circle cx="170.9" cy="156.4" r="3" fill="#58a6ff"/>
<circle cx="271.7" cy="140.0" r="3" fill="#58a6ff"/>
<circle cx="372.6" cy="156.4" r="3" fill="#58a6ff"/>
<circle cx="473.5" cy="150.7" r="3" fill="#58a6ff"/>
<circle cx="574.3" cy="151.0" r="3" fill="#58a6ff"/>
<circle cx="650.0" cy="220.8" r="4" fill="#58a6ff"/>
<path d="M 70.0 156.4 L 95.2 157.4 L 120.4 158.6 L 145.7 156.4 L 170.9 156.4 L 196.1 157.5 L 221.3 158.6 L 246.5 157.5 L 271.7 140.2 L 297.0 156.4 L 322.2 157.5 L 347.4 144.0 L 372.6 156.4 L 397.8 157.2 L 423.0 150.7 L 448.3 150.7 L 473.5 150.7 L 498.7 150.7 L 523.9 150.7 L 549.1 151.0 L 574.3 151.0 L 599.6 257.4 L 624.8 257.4 L 650.0 256.2" fill="none" stroke="#1f6feb" stroke-width="2" opacity="0.8"/>
<circle cx="70.0" cy="156.4" r="3" fill="#1f6feb"/>
<circle cx="170.9" cy="156.4" r="3" fill="#1f6feb"/>
<circle cx="271.7" cy="140.2" r="3" fill="#1f6feb"/>
<circle cx="372.6" cy="156.4" r="3" fill="#1f6feb"/>
<circle cx="473.5" cy="150.7" r="3" fill="#1f6feb"/>
<circle cx="574.3" cy="151.0" r="3" fill="#1f6feb"/>
<circle cx="650.0" cy="256.2" r="4" fill="#1f6feb"/>
<path d="M 70.0 172.1 L 95.2 172.7 L 120.4 174.2 L 145.7 172.1 L 170.9 172.1 L 196.1 172.9 L 221.3 174.2 L 246.5 172.9 L 271.7 154.7 L 297.0 172.1 L 322.2 172.9 L 347.4 158.4 L 372.6 172.1 L 397.8 172.3 L 423.0 166.9 L 448.3 166.9 L 473.5 166.9 L 498.7 166.9 L 523.9 166.9 L 549.1 167.1 L 574.3 167.1 L 599.6 254.5 L 624.8 254.5 L 650.0 253.7" fill="none" stroke="#388bfd" stroke-width="2" opacity="0.8"/>
<circle cx="70.0" cy="172.1" r="3" fill="#388bfd"/>
<circle cx="170.9" cy="172.1" r="3" fill="#388bfd"/>
<circle cx="271.7" cy="154.7" r="3" fill="#388bfd"/>
<circle cx="372.6" cy="172.1" r="3" fill="#388bfd"/>
<circle cx="473.5" cy="166.9" r="3" fill="#388bfd"/>
<circle cx="574.3" cy="167.1" r="3" fill="#388bfd"/>
<circle cx="650.0" cy="253.7" r="4" fill="#388bfd"/>
<path d="M 70.0 139.1 L 95.2 140.5 L 120.4 141.2 L 145.7 139.1 L 170.9 139.1 L 196.1 140.7 L 221.3 141.2 L 246.5 140.7 L 271.7 124.1 L 297.0 139.1 L 322.2 140.7 L 347.4 127.5 L 372.6 139.1 L 397.8 139.0 L 423.0 133.5 L 448.3 133.5 L 473.5 133.5 L 498.7 133.5 L 523.9 133.5 L 549.1 133.5 L 574.3 133.5 L 599.6 227.2 L 624.8 227.2 L 650.0 225.9" fill="none" stroke="#3fb950" stroke-width="2" opacity="0.8"/>
<circle cx="70.0" cy="139.1" r="3" fill="#3fb950"/>
<circle cx="170.9" cy="139.1" r="3" fill="#3fb950"/>
<circle cx="271.7" cy="124.1" r="3" fill="#3fb950"/>
<circle cx="372.6" cy="139.1" r="3" fill="#3fb950"/>
<circle cx="473.5" cy="133.5" r="3" fill="#3fb950"/>
<circle cx="574.3" cy="133.5" r="3" fill="#3fb950"/>
<circle cx="650.0" cy="225.9" r="4" fill="#3fb950"/>
<path d="M 70.0 217.2 L 95.2 218.7 L 120.4 218.6 L 145.7 217.2 L 170.9 217.2 L 196.1 218.8 L 221.3 218.6 L 246.5 218.8 L 271.7 201.0 L 297.0 217.2 L 322.2 218.8 L 347.4 205.2 L 372.6 217.2 L 397.8 216.9 L 423.0 212.8 L 448.3 212.8 L 473.5 212.8 L 498.7 212.8 L 523.9 212.8 L 549.1 212.8 L 574.3 212.8 L 599.6 284.0 L 624.8 284.0 L 650.0 282.4" fill="none" stroke="#238636" stroke-width="2" opacity="0.8"/>
<circle cx="70.0" cy="217.2" r="3" fill="#238636"/>
<circle cx="170.9" cy="217.2" r="3" fill="#238636"/>
<circle cx="271.7" cy="201.0" r="3" fill="#238636"/>
<circle cx="372.6" cy="217.2" r="3" fill="#238636"/>
<circle cx="473.5" cy="212.8" r="3" fill="#238636"/>
<circle cx="574.3" cy="212.8" r="3" fill="#238636"/>
<circle cx="650.0" cy="282.4" r="4" fill="#238636"/>
<path d="M 70.0 121.0 L 95.2 122.6 L 120.4 123.0 L 145.7 121.0 L 170.9 121.0 L 196.1 122.7 L 221.3 123.0 L 246.5 122.7 L 271.7 105.6 L 297.0 121.0 L 322.2 122.7 L 347.4 110.9 L 372.6 121.0 L 397.8 121.1 L 423.0 115.3 L 448.3 115.3 L 473.5 115.3 L 498.7 115.3 L 523.9 115.3 L 549.1 115.3 L 574.3 115.3 L 599.6 197.4 L 624.8 197.4 L 650.0 196.4" fill="none" stroke="#2ea043" stroke-width="2" opacity="0.8"/>
<circle cx="70.0" cy="121.0" r="3" fill="#2ea043"/>
<circle cx="170.9" cy="121.0" r="3" fill="#2ea043"/>
<circle cx="271.7" cy="105.6" r="3" fill="#2ea043"/>
<circle cx="372.6" cy="121.0" r="3" fill="#2ea043"/>
<circle cx="473.5" cy="115.3" r="3" fill="#2ea043"/>
<circle cx="574.3" cy="115.3" r="3" fill="#2ea043"/>
<circle cx="650.0" cy="196.4" r="4" fill="#2ea043"/>
<path d="M 70.0 211.5 L 95.2 213.3 L 120.4 213.7 L 145.7 211.5 L 170.9 211.5 L 196.1 213.5 L 221.3 213.7 L 246.5 213.5 L 271.7 196.5 L 297.0 211.5 L 322.2 213.5 L 347.4 200.0 L 372.6 211.5 L 397.8 211.8 L 423.0 206.4 L 448.3 206.4 L 473.5 206.4 L 498.7 206.4 L 523.9 206.4 L 549.1 206.4 L 574.3 206.4 L 599.6 293.1 L 624.8 293.1 L 650.0 292.4" fill="none" stroke="#56d364" stroke-width="2" opacity="0.8"/>
<circle cx="70.0" cy="211.5" r="3" fill="#56d364"/>
<circle cx="170.9" cy="211.5" r="3" fill="#56d364"/>
<circle cx="271.7" cy="196.5" r="3" fill="#56d364"/>
<circle cx="372.6" cy="211.5" r="3" fill="#56d364"/>
<circle cx="473.5" cy="206.4" r="3" fill="#56d364"/>
<circle cx="574.3" cy="206.4" r="3" fill="#56d364"/>
<circle cx="650.0" cy="292.4" r="4" fill="#56d364"/>
<path d="M 70.0 154.0 L 95.2 155.1 L 120.4 156.2 L 145.7 153.9 L 170.9 154.0 L 196.1 155.1 L 221.3 156.2 L 246.5 155.1 L 271.7 138.2 L 297.0 153.9 L 322.2 155.1 L 347.4 142.0 L 372.6 154.0 L 397.8 154.8 L 423.0 148.7 L 448.3 148.7 L 473.5 148.7 L 498.7 148.7 L 523.9 148.7 L 549.1 148.7 L 574.3 148.7 L 599.6 254.5 L 624.8 254.5 L 650.0 253.3" fill="none" stroke="#f78166" stroke-width="2" opacity="0.8"/>
<circle cx="70.0" cy="154.0" r="3" fill="#f78166"/>
<circle cx="170.9" cy="154.0" r="3" fill="#f78166"/>
<circle cx="271.7" cy="138.2" r="3" fill="#f78166"/>
<circle cx="372.6" cy="154.0" r="3" fill="#f78166"/>
<circle cx="473.5" cy="148.7" r="3" fill="#f78166"/>
<circle cx="574.3" cy="148.7" r="3" fill="#f78166"/>
<circle cx="650.0" cy="253.3" r="4" fill="#f78166"/>
<path d="M 70.0 167.1 L 95.2 167.9 L 120.4 169.2 L 145.7 167.1 L 170.9 167.1 L 196.1 167.9 L 221.3 169.2 L 246.5 167.9 L 271.7 149.6 L 297.0 167.1 L 322.2 167.9 L 347.4 153.3 L 372.6 167.1 L 397.8 167.3 L 423.0 162.0 L 448.3 162.0 L 473.5 162.0 L 498.7 162.0 L 523.9 162.0 L 549.1 162.0 L 574.3 162.0 L 599.6 248.7 L 624.8 248.7 L 650.0 247.8" fill="none" stroke="#ffa657" stroke-width="2" opacity="0.8"/>
<circle cx="70.0" cy="167.1" r="3" fill="#ffa657"/>
<circle cx="170.9" cy="167.1" r="3" fill="#ffa657"/>
<circle cx="271.7" cy="149.6" r="3" fill="#ffa657"/>
<circle cx="372.6" cy="167.1" r="3" fill="#ffa657"/>
<circle cx="473.5" cy="162.0" r="3" fill="#ffa657"/>
<circle cx="574.3" cy="162.0" r="3" fill="#ffa657"/>
<circle cx="650.0" cy="247.8" r="4" fill="#ffa657"/>
<text x="70.0" y="113.0" fill="#2ea043" font-family="monospace" font-size="8px" text-anchor="middle">122.6KB</text>
<text x="70.0" y="131.1" fill="#3fb950" font-family="monospace" font-size="8px" text-anchor="middle">119.1KB</text>
<text x="70.0" y="149.1" fill="#f78166" font-family="monospace" font-size="8px" text-anchor="middle">116.3KB</text>
<text x="70.0" y="167.1" fill="#1f6feb" font-family="monospace" font-size="8px" text-anchor="middle">115.8KB</text>
<text x="70.0" y="185.1" fill="#58a6ff" font-family="monospace" font-size="8px" text-anchor="middle">115.8KB</text>
<text x="70.0" y="203.1" fill="#ffa657" font-family="monospace" font-size="8px" text-anchor="middle">113.7KB</text>
<text x="70.0" y="221.1" fill="#388bfd" font-family="monospace" font-size="8px" text-anchor="middle">112.8KB</text>
<text x="70.0" y="239.1" fill="#56d364" font-family="monospace" font-size="8px" text-anchor="middle">105.2KB</text>
<text x="70.0" y="257.1" fill="#238636" font-family="monospace" font-size="8px" text-anchor="middle">104.2KB</text>
<text x="170.9" y="113.0" fill="#2ea043" font-family="monospace" font-size="8px" text-anchor="middle">122.6KB</text>
<text x="170.9" y="131.1" fill="#3fb950" font-family="monospace" font-size="8px" text-anchor="middle">119.1KB</text>
<text x="170.9" y="149.1" fill="#f78166" font-family="monospace" font-size="8px" text-anchor="middle">116.3KB</text>
<text x="170.9" y="167.1" fill="#1f6feb" font-family="monospace" font-size="8px" text-anchor="middle">115.8KB</text>
<text x="170.9" y="185.1" fill="#58a6ff" font-family="monospace" font-size="8px" text-anchor="middle">115.8KB</text>
<text x="170.9" y="203.1" fill="#ffa657" font-family="monospace" font-size="8px" text-anchor="middle">113.7KB</text>
<text x="170.9" y="221.1" fill="#388bfd" font-family="monospace" font-size="8px" text-anchor="middle">112.8KB</text>
<text x="170.9" y="239.1" fill="#56d364" font-family="monospace" font-size="8px" text-anchor="middle">105.2KB</text>
<text x="170.9" y="257.1" fill="#238636" font-family="monospace" font-size="8px" text-anchor="middle">104.2KB</text>
<text x="271.7" y="97.6" fill="#2ea043" font-family="monospace" font-size="8px" text-anchor="middle">125.5KB</text>
<text x="271.7" y="116.1" fill="#3fb950" font-family="monospace" font-size="8px" text-anchor="middle">122.0KB</text>
<text x="271.7" y="134.1" fill="#f78166" font-family="monospace" font-size="8px" text-anchor="middle">119.3KB</text>
<text x="271.7" y="152.1" fill="#58a6ff" font-family="monospace" font-size="8px" text-anchor="middle">118.9KB</text>
<text x="271.7" y="170.1" fill="#1f6feb" font-family="monospace" font-size="8px" text-anchor="middle">118.9KB</text>
<text x="271.7" y="188.1" fill="#ffa657" font-family="monospace" font-size="8px" text-anchor="middle">117.1KB</text>
<text x="271.7" y="206.1" fill="#388bfd" font-family="monospace" font-size="8px" text-anchor="middle">116.1KB</text>
<text x="271.7" y="224.1" fill="#56d364" font-family="monospace" font-size="8px" text-anchor="middle">108.1KB</text>
<text x="271.7" y="242.1" fill="#238636" font-family="monospace" font-size="8px" text-anchor="middle">107.3KB</text>
<text x="372.6" y="113.0" fill="#2ea043" font-family="monospace" font-size="8px" text-anchor="middle">122.6KB</text>
<text x="372.6" y="131.1" fill="#3fb950" font-family="monospace" font-size="8px" text-anchor="middle">119.1KB</text>
<text x="372.6" y="149.1" fill="#f78166" font-family="monospace" font-size="8px" text-anchor="middle">116.3KB</text>
<text x="372.6" y="167.1" fill="#1f6feb" font-family="monospace" font-size="8px" text-anchor="middle">115.8KB</text>
<text x="372.6" y="185.1" fill="#58a6ff" font-family="monospace" font-size="8px" text-anchor="middle">115.8KB</text>
<text x="372.6" y="203.1" fill="#ffa657" font-family="monospace" font-size="8px" text-anchor="middle">113.7KB</text>
<text x="372.6" y="221.1" fill="#388bfd" font-family="monospace" font-size="8px" text-anchor="middle">112.8KB</text>
<text x="372.6" y="239.1" fill="#56d364" font-family="monospace" font-size="8px" text-anchor="middle">105.2KB</text>
<text x="372.6" y="257.1" fill="#238636" font-family="monospace" font-size="8px" text-anchor="middle">104.2KB</text>
<text x="473.5" y="107.3" fill="#2ea043" font-family="monospace" font-size="8px" text-anchor="middle">123.7KB</text>
<text x="473.5" y="125.5" fill="#3fb950" font-family="monospace" font-size="8px" text-anchor="middle">120.2KB</text>
<text x="473.5" y="143.5" fill="#f78166" font-family="monospace" font-size="8px" text-anchor="middle">117.3KB</text>
<text x="473.5" y="161.5" fill="#1f6feb" font-family="monospace" font-size="8px" text-anchor="middle">116.9KB</text>
<text x="473.5" y="179.5" fill="#58a6ff" font-family="monospace" font-size="8px" text-anchor="middle">116.9KB</text>
<text x="473.5" y="197.5" fill="#ffa657" font-family="monospace" font-size="8px" text-anchor="middle">114.7KB</text>
<text x="473.5" y="215.5" fill="#388bfd" font-family="monospace" font-size="8px" text-anchor="middle">113.8KB</text>
<text x="473.5" y="233.5" fill="#56d364" font-family="monospace" font-size="8px" text-anchor="middle">106.2KB</text>
<text x="473.5" y="251.5" fill="#238636" font-family="monospace" font-size="8px" text-anchor="middle">105.0KB</text>
<text x="574.3" y="107.3" fill="#2ea043" font-family="monospace" font-size="8px" text-anchor="middle">123.7KB</text>
<text x="574.3" y="125.5" fill="#3fb950" font-family="monospace" font-size="8px" text-anchor="middle">120.2KB</text>
<text x="574.3" y="143.5" fill="#f78166" font-family="monospace" font-size="8px" text-anchor="middle">117.3KB</text>
<text x="574.3" y="161.5" fill="#1f6feb" font-family="monospace" font-size="8px" text-anchor="middle">116.8KB</text>
<text x="574.3" y="179.5" fill="#58a6ff" font-family="monospace" font-size="8px" text-anchor="middle">116.8KB</text>
<text x="574.3" y="197.5" fill="#ffa657" font-family="monospace" font-size="8px" text-anchor="middle">114.7KB</text>
<text x="574.3" y="215.5" fill="#388bfd" font-family="monospace" font-size="8px" text-anchor="middle">113.7KB</text>
<text x="574.3" y="233.5" fill="#56d364" font-family="monospace" font-size="8px" text-anchor="middle">106.2KB</text>
<text x="574.3" y="251.5" fill="#238636" font-family="monospace" font-size="8px" text-anchor="middle">105.0KB</text>
<text x="650.0" y="188.4" fill="#2ea043" font-family="monospace" font-size="8px" text-anchor="middle">108.1KB</text>
<text x="650.0" y="212.8" fill="#58a6ff" font-family="monospace" font-size="8px" text-anchor="middle">103.5KB</text>
<text x="650.0" y="230.8" fill="#3fb950" font-family="monospace" font-size="8px" text-anchor="middle">102.5KB</text>
<text x="650.0" y="248.8" fill="#ffa657" font-family="monospace" font-size="8px" text-anchor="middle">98.3KB</text>
<text x="650.0" y="266.8" fill="#f78166" font-family="monospace" font-size="8px" text-anchor="middle">97.3KB</text>
<text x="650.0" y="284.8" fill="#388bfd" font-family="monospace" font-size="8px" text-anchor="middle">97.2KB</text>
<text x="650.0" y="302.8" fill="#1f6feb" font-family="monospace" font-size="8px" text-anchor="middle">96.7KB</text>
<text x="650.0" y="320.8" fill="#238636" font-family="monospace" font-size="8px" text-anchor="middle">91.7KB</text>
<text x="650.0" y="338.8" fill="#56d364" font-family="monospace" font-size="8px" text-anchor="middle">89.8KB</text>
<rect x="665" y="44" width="12" height="12" fill="#58a6ff"/>
<text x="683" y="54" class="legend">Win i386</text>
<rect x="665" y="62" width="12" height="12" fill="#1f6feb"/>
<text x="683" y="72" class="legend">Win x64</text>
<rect x="665" y="80" width="12" height="12" fill="#388bfd"/>
<text x="683" y="90" class="legend">Win ARM64</text>
<rect x="665" y="98" width="12" height="12" fill="#3fb950"/>
<text x="683" y="108" class="legend">Linux i386</text>
<rect x="665" y="116" width="12" height="12" fill="#238636"/>
<text x="683" y="126" class="legend">Linux x64</text>
<rect x="665" y="134" width="12" height="12" fill="#2ea043"/>
<text x="683" y="144" class="legend">Linux ARM</text>
<rect x="665" y="152" width="12" height="12" fill="#56d364"/>
<text x="683" y="162" class="legend">Linux ARM64</text>
<rect x="665" y="170" width="12" height="12" fill="#f78166"/>
<text x="683" y="180" class="legend">UEFI x64</text>
<rect x="665" y="188" width="12" height="12" fill="#ffa657"/>
<text x="683" y="198" class="legend">UEFI ARM64</text>
</svg>