<svg xmlns="http://www.w3.org/2000/svg" width="800" height="400">
<defs>
<style>
.axis-text { fill: #8b949e; font-family: monospace; font-size: 11px; }
.title { fill: #c9d1d9; font-family: monospace; font-size: 14px; font-weight: bold; }
.legend { fill: #8b949e; font-family: monospace; font-size: 10px; }
.grid { stroke: #21262d; stroke-width: 1; }
</style>
</defs>
<rect width="800" height="400" fill="#0d1117"/>
<text x="400.0" y="25" class="title" text-anchor="middle">Binary Size Trend (.bin)</text>
<line x1="70" y1="40.0" x2="650" y2="40.0" class="grid"/>
<text x="60" y="44.0" class="axis-text" text-anchor="end">138KB</text>
<line x1="70" y1="100.0" x2="650" y2="100.0" class="grid"/>
<text x="60" y="104.0" class="axis-text" text-anchor="end">129KB</text>
<line x1="70" y1="160.0" x2="650" y2="160.0" class="grid"/>
<text x="60" y="164.0" class="axis-text" text-anchor="end">120KB</text>
<line x1="70" y1="220.0" x2="650" y2="220.0" class="grid"/>
<text x="60" y="224.0" class="axis-text" text-anchor="end">111KB</text>
<line x1="70" y1="280.0" x2="650" y2="280.0" class="grid"/>
<text x="60" y="284.0" class="axis-text" text-anchor="end">102KB</text>
<line x1="70" y1="340.0" x2="650" y2="340.0" class="grid"/>
<text x="60" y="344.0" class="axis-text" text-anchor="end">93KB</text>
<text x="70.0" y="360" class="axis-text" text-anchor="middle">02-05</text>
<text x="142.5" y="360" class="axis-text" text-anchor="middle">02-05</text>
<text x="215.0" y="360" class="axis-text" text-anchor="middle">02-05</text>
<text x="287.5" y="360" class="axis-text" text-anchor="middle">02-05</text>
<text x="360.0" y="360" class="axis-text" text-anchor="middle">02-05</text>
<text x="432.5" y="360" class="axis-text" text-anchor="middle">02-05</text>
<text x="505.0" y="360" class="axis-text" text-anchor="middle">02-05</text>
<text x="577.5" y="360" class="axis-text" text-anchor="middle">02-05</text>
<text x="650.0" y="360" class="axis-text" text-anchor="middle">02-05</text>
<path d="M 70.0 190.6 L 142.5 192.1 L 215.0 190.7 L 287.5 192.1 L 360.0 190.7 L 432.5 168.7 L 505.0 190.7 L 577.5 175.0 L 650.0 189.3" fill="none" stroke="#58a6ff" stroke-width="2" opacity="0.8"/>
<circle cx="70.0" cy="190.6" r="3" fill="#58a6ff"/>
<circle cx="142.5" cy="192.1" r="3" fill="#58a6ff"/>
<circle cx="215.0" cy="190.7" r="3" fill="#58a6ff"/>
<circle cx="287.5" cy="192.1" r="3" fill="#58a6ff"/>
<circle cx="360.0" cy="190.7" r="3" fill="#58a6ff"/>
<circle cx="432.5" cy="168.7" r="3" fill="#58a6ff"/>
<circle cx="505.0" cy="190.7" r="3" fill="#58a6ff"/>
<circle cx="577.5" cy="175.0" r="3" fill="#58a6ff"/>
<circle cx="650.0" cy="189.3" r="4" fill="#58a6ff"/>
<path d="M 70.0 191.1 L 142.5 192.6 L 215.0 191.2 L 287.5 192.6 L 360.0 191.2 L 432.5 168.9 L 505.0 191.2 L 577.5 173.9 L 650.0 190.8" fill="none" stroke="#1f6feb" stroke-width="2" opacity="0.8"/>
<circle cx="70.0" cy="191.1" r="3" fill="#1f6feb"/>
<circle cx="142.5" cy="192.6" r="3" fill="#1f6feb"/>
<circle cx="215.0" cy="191.2" r="3" fill="#1f6feb"/>
<circle cx="287.5" cy="192.6" r="3" fill="#1f6feb"/>
<circle cx="360.0" cy="191.2" r="3" fill="#1f6feb"/>
<circle cx="432.5" cy="168.9" r="3" fill="#1f6feb"/>
<circle cx="505.0" cy="191.2" r="3" fill="#1f6feb"/>
<circle cx="577.5" cy="173.9" r="3" fill="#1f6feb"/>
<circle cx="650.0" cy="190.8" r="4" fill="#1f6feb"/>
<path d="M 70.0 210.7 L 142.5 212.7 L 215.0 211.0 L 287.5 212.7 L 360.0 211.0 L 432.5 187.6 L 505.0 211.0 L 577.5 192.4 L 650.0 210.3" fill="none" stroke="#388bfd" stroke-width="2" opacity="0.8"/>
<circle cx="70.0" cy="210.7" r="3" fill="#388bfd"/>
<circle cx="142.5" cy="212.7" r="3" fill="#388bfd"/>
<circle cx="215.0" cy="211.0" r="3" fill="#388bfd"/>
<circle cx="287.5" cy="212.7" r="3" fill="#388bfd"/>
<circle cx="360.0" cy="211.0" r="3" fill="#388bfd"/>
<circle cx="432.5" cy="187.6" r="3" fill="#388bfd"/>
<circle cx="505.0" cy="211.0" r="3" fill="#388bfd"/>
<circle cx="577.5" cy="192.4" r="3" fill="#388bfd"/>
<circle cx="650.0" cy="210.3" r="4" fill="#388bfd"/>
<path d="M 70.0 169.4 L 142.5 170.2 L 215.0 169.6 L 287.5 170.2 L 360.0 169.6 L 432.5 148.2 L 505.0 169.6 L 577.5 152.6 L 650.0 167.5" fill="none" stroke="#3fb950" stroke-width="2" opacity="0.8"/>
<circle cx="70.0" cy="169.4" r="3" fill="#3fb950"/>
<circle cx="142.5" cy="170.2" r="3" fill="#3fb950"/>
<circle cx="215.0" cy="169.6" r="3" fill="#3fb950"/>
<circle cx="287.5" cy="170.2" r="3" fill="#3fb950"/>
<circle cx="360.0" cy="169.6" r="3" fill="#3fb950"/>
<circle cx="432.5" cy="148.2" r="3" fill="#3fb950"/>
<circle cx="505.0" cy="169.6" r="3" fill="#3fb950"/>
<circle cx="577.5" cy="152.6" r="3" fill="#3fb950"/>
<circle cx="650.0" cy="167.5" r="4" fill="#3fb950"/>
<path d="M 70.0 270.0 L 142.5 269.8 L 215.0 270.1 L 287.5 269.8 L 360.0 270.1 L 432.5 247.2 L 505.0 270.1 L 577.5 252.5 L 650.0 267.7" fill="none" stroke="#238636" stroke-width="2" opacity="0.8"/>
<circle cx="70.0" cy="270.0" r="3" fill="#238636"/>
<circle cx="142.5" cy="269.8" r="3" fill="#238636"/>
<circle cx="215.0" cy="270.1" r="3" fill="#238636"/>
<circle cx="287.5" cy="269.8" r="3" fill="#238636"/>
<circle cx="360.0" cy="270.1" r="3" fill="#238636"/>
<circle cx="432.5" cy="247.2" r="3" fill="#238636"/>
<circle cx="505.0" cy="270.1" r="3" fill="#238636"/>
<circle cx="577.5" cy="252.5" r="3" fill="#238636"/>
<circle cx="650.0" cy="267.7" r="4" fill="#238636"/>
<path d="M 70.0 146.3 L 142.5 146.8 L 215.0 146.5 L 287.5 146.8 L 360.0 146.5 L 432.5 124.5 L 505.0 146.5 L 577.5 131.3 L 650.0 144.4" fill="none" stroke="#2ea043" stroke-width="2" opacity="0.8"/>
<circle cx="70.0" cy="146.3" r="3" fill="#2ea043"/>
<circle cx="142.5" cy="146.8" r="3" fill="#2ea043"/>
<circle cx="215.0" cy="146.5" r="3" fill="#2ea043"/>
<circle cx="287.5" cy="146.8" r="3" fill="#2ea043"/>
<circle cx="360.0" cy="146.5" r="3" fill="#2ea043"/>
<circle cx="432.5" cy="124.5" r="3" fill="#2ea043"/>
<circle cx="505.0" cy="146.5" r="3" fill="#2ea043"/>
<circle cx="577.5" cy="131.3" r="3" fill="#2ea043"/>
<circle cx="650.0" cy="144.4" r="4" fill="#2ea043"/>
<path d="M 70.0 263.1 L 142.5 263.5 L 215.0 263.3 L 287.5 263.5 L 360.0 263.3 L 432.5 241.3 L 505.0 263.3 L 577.5 245.9 L 650.0 261.1" fill="none" stroke="#56d364" stroke-width="2" opacity="0.8"/>
<circle cx="70.0" cy="263.1" r="3" fill="#56d364"/>
<circle cx="142.5" cy="263.5" r="3" fill="#56d364"/>
<circle cx="215.0" cy="263.3" r="3" fill="#56d364"/>
<circle cx="287.5" cy="263.5" r="3" fill="#56d364"/>
<circle cx="360.0" cy="263.3" r="3" fill="#56d364"/>
<circle cx="432.5" cy="241.3" r="3" fill="#56d364"/>
<circle cx="505.0" cy="263.3" r="3" fill="#56d364"/>
<circle cx="577.5" cy="245.9" r="3" fill="#56d364"/>
<circle cx="650.0" cy="261.1" r="4" fill="#56d364"/>
<path d="M 70.0 188.1 L 142.5 189.6 L 215.0 188.1 L 287.5 189.6 L 360.0 188.1 L 432.5 166.3 L 505.0 188.1 L 577.5 171.3 L 650.0 187.8" fill="none" stroke="#f78166" stroke-width="2" opacity="0.8"/>
<circle cx="70.0" cy="188.1" r="3" fill="#f78166"/>
<circle cx="142.5" cy="189.6" r="3" fill="#f78166"/>
<circle cx="215.0" cy="188.1" r="3" fill="#f78166"/>
<circle cx="287.5" cy="189.6" r="3" fill="#f78166"/>
<circle cx="360.0" cy="188.1" r="3" fill="#f78166"/>
<circle cx="432.5" cy="166.3" r="3" fill="#f78166"/>
<circle cx="505.0" cy="188.1" r="3" fill="#f78166"/>
<circle cx="577.5" cy="171.3" r="3" fill="#f78166"/>
<circle cx="650.0" cy="187.8" r="4" fill="#f78166"/>
<path d="M 70.0 204.6 L 142.5 206.2 L 215.0 204.6 L 287.5 206.2 L 360.0 204.6 L 432.5 181.0 L 505.0 204.6 L 577.5 185.8 L 650.0 203.9" fill="none" stroke="#ffa657" stroke-width="2" opacity="0.8"/>
<circle cx="70.0" cy="204.6" r="3" fill="#ffa657"/>
<circle cx="142.5" cy="206.2" r="3" fill="#ffa657"/>
<circle cx="215.0" cy="204.6" r="3" fill="#ffa657"/>
<circle cx="287.5" cy="206.2" r="3" fill="#ffa657"/>
<circle cx="360.0" cy="204.6" r="3" fill="#ffa657"/>
<circle cx="432.5" cy="181.0" r="3" fill="#ffa657"/>
<circle cx="505.0" cy="204.6" r="3" fill="#ffa657"/>
<circle cx="577.5" cy="185.8" r="3" fill="#ffa657"/>
<circle cx="650.0" cy="203.9" r="4" fill="#ffa657"/>
<text x="70.0" y="138.3" fill="#2ea043" font-family="monospace" font-size="8px" text-anchor="middle">122.3KB</text>
<text x="70.0" y="161.4" fill="#3fb950" font-family="monospace" font-size="8px" text-anchor="middle">118.8KB</text>
<text x="70.0" y="180.1" fill="#f78166" font-family="monospace" font-size="8px" text-anchor="middle">116.0KB</text>
<text x="70.0" y="192.1" fill="#58a6ff" font-family="monospace" font-size="8px" text-anchor="middle">115.7KB</text>
<text x="70.0" y="204.1" fill="#1f6feb" font-family="monospace" font-size="8px" text-anchor="middle">115.6KB</text>
<text x="70.0" y="216.1" fill="#ffa657" font-family="monospace" font-size="8px" text-anchor="middle">113.6KB</text>
<text x="70.0" y="228.1" fill="#388bfd" font-family="monospace" font-size="8px" text-anchor="middle">112.7KB</text>
<text x="70.0" y="255.1" fill="#56d364" font-family="monospace" font-size="8px" text-anchor="middle">104.9KB</text>
<text x="70.0" y="267.1" fill="#238636" font-family="monospace" font-size="8px" text-anchor="middle">103.9KB</text>
<text x="142.5" y="138.8" fill="#2ea043" font-family="monospace" font-size="8px" text-anchor="middle">122.2KB</text>
<text x="142.5" y="162.2" fill="#3fb950" font-family="monospace" font-size="8px" text-anchor="middle">118.7KB</text>
<text x="142.5" y="181.6" fill="#f78166" font-family="monospace" font-size="8px" text-anchor="middle">115.8KB</text>
<text x="142.5" y="193.6" fill="#58a6ff" font-family="monospace" font-size="8px" text-anchor="middle">115.5KB</text>
<text x="142.5" y="205.6" fill="#1f6feb" font-family="monospace" font-size="8px" text-anchor="middle">115.4KB</text>
<text x="142.5" y="217.6" fill="#ffa657" font-family="monospace" font-size="8px" text-anchor="middle">113.4KB</text>
<text x="142.5" y="229.6" fill="#388bfd" font-family="monospace" font-size="8px" text-anchor="middle">112.4KB</text>
<text x="142.5" y="255.5" fill="#56d364" font-family="monospace" font-size="8px" text-anchor="middle">104.8KB</text>
<text x="142.5" y="267.5" fill="#238636" font-family="monospace" font-size="8px" text-anchor="middle">103.9KB</text>
<text x="215.0" y="138.5" fill="#2ea043" font-family="monospace" font-size="8px" text-anchor="middle">122.2KB</text>
<text x="215.0" y="161.6" fill="#3fb950" font-family="monospace" font-size="8px" text-anchor="middle">118.8KB</text>
<text x="215.0" y="180.1" fill="#f78166" font-family="monospace" font-size="8px" text-anchor="middle">116.0KB</text>
<text x="215.0" y="192.1" fill="#58a6ff" font-family="monospace" font-size="8px" text-anchor="middle">115.7KB</text>
<text x="215.0" y="204.1" fill="#1f6feb" font-family="monospace" font-size="8px" text-anchor="middle">115.6KB</text>
<text x="215.0" y="216.1" fill="#ffa657" font-family="monospace" font-size="8px" text-anchor="middle">113.6KB</text>
<text x="215.0" y="228.1" fill="#388bfd" font-family="monospace" font-size="8px" text-anchor="middle">112.6KB</text>
<text x="215.0" y="255.3" fill="#56d364" font-family="monospace" font-size="8px" text-anchor="middle">104.9KB</text>
<text x="215.0" y="267.3" fill="#238636" font-family="monospace" font-size="8px" text-anchor="middle">103.9KB</text>
<text x="287.5" y="138.8" fill="#2ea043" font-family="monospace" font-size="8px" text-anchor="middle">122.2KB</text>
<text x="287.5" y="162.2" fill="#3fb950" font-family="monospace" font-size="8px" text-anchor="middle">118.7KB</text>
<text x="287.5" y="181.6" fill="#f78166" font-family="monospace" font-size="8px" text-anchor="middle">115.8KB</text>
<text x="287.5" y="193.6" fill="#58a6ff" font-family="monospace" font-size="8px" text-anchor="middle">115.5KB</text>
<text x="287.5" y="205.6" fill="#1f6feb" font-family="monospace" font-size="8px" text-anchor="middle">115.4KB</text>
<text x="287.5" y="217.6" fill="#ffa657" font-family="monospace" font-size="8px" text-anchor="middle">113.4KB</text>
<text x="287.5" y="229.6" fill="#388bfd" font-family="monospace" font-size="8px" text-anchor="middle">112.4KB</text>
<text x="287.5" y="255.5" fill="#56d364" font-family="monospace" font-size="8px" text-anchor="middle">104.8KB</text>
<text x="287.5" y="267.5" fill="#238636" font-family="monospace" font-size="8px" text-anchor="middle">103.9KB</text>
<text x="360.0" y="138.5" fill="#2ea043" font-family="monospace" font-size="8px" text-anchor="middle">122.2KB</text>
<text x="360.0" y="161.6" fill="#3fb950" font-family="monospace" font-size="8px" text-anchor="middle">118.8KB</text>
<text x="360.0" y="180.1" fill="#f78166" font-family="monospace" font-size="8px" text-anchor="middle">116.0KB</text>
<text x="360.0" y="192.1" fill="#58a6ff" font-family="monospace" font-size="8px" text-anchor="middle">115.7KB</text>
<text x="360.0" y="204.1" fill="#1f6feb" font-family="monospace" font-size="8px" text-anchor="middle">115.6KB</text>
<text x="360.0" y="216.1" fill="#ffa657" font-family="monospace" font-size="8px" text-anchor="middle">113.6KB</text>
<text x="360.0" y="228.1" fill="#388bfd" font-family="monospace" font-size="8px" text-anchor="middle">112.6KB</text>
<text x="360.0" y="255.3" fill="#56d364" font-family="monospace" font-size="8px" text-anchor="middle">104.9KB</text>
<text x="360.0" y="267.3" fill="#238636" font-family="monospace" font-size="8px" text-anchor="middle">103.9KB</text>
<text x="432.5" y="116.5" fill="#2ea043" font-family="monospace" font-size="8px" text-anchor="middle">125.5KB</text>
<text x="432.5" y="140.2" fill="#3fb950" font-family="monospace" font-size="8px" text-anchor="middle">122.0KB</text>
<text x="432.5" y="158.3" fill="#f78166" font-family="monospace" font-size="8px" text-anchor="middle">119.3KB</text>
<text x="432.5" y="170.3" fill="#58a6ff" font-family="monospace" font-size="8px" text-anchor="middle">118.9KB</text>
<text x="432.5" y="182.3" fill="#1f6feb" font-family="monospace" font-size="8px" text-anchor="middle">118.9KB</text>
<text x="432.5" y="194.3" fill="#ffa657" font-family="monospace" font-size="8px" text-anchor="middle">117.1KB</text>
<text x="432.5" y="206.3" fill="#388bfd" font-family="monospace" font-size="8px" text-anchor="middle">116.1KB</text>
<text x="432.5" y="233.3" fill="#56d364" font-family="monospace" font-size="8px" text-anchor="middle">108.1KB</text>
<text x="432.5" y="245.3" fill="#238636" font-family="monospace" font-size="8px" text-anchor="middle">107.3KB</text>
<text x="505.0" y="138.5" fill="#2ea043" font-family="monospace" font-size="8px" text-anchor="middle">122.2KB</text>
<text x="505.0" y="161.6" fill="#3fb950" font-family="monospace" font-size="8px" text-anchor="middle">118.8KB</text>
<text x="505.0" y="180.1" fill="#f78166" font-family="monospace" font-size="8px" text-anchor="middle">116.0KB</text>
<text x="505.0" y="192.1" fill="#58a6ff" font-family="monospace" font-size="8px" text-anchor="middle">115.7KB</text>
<text x="505.0" y="204.1" fill="#1f6feb" font-family="monospace" font-size="8px" text-anchor="middle">115.6KB</text>
<text x="505.0" y="216.1" fill="#ffa657" font-family="monospace" font-size="8px" text-anchor="middle">113.6KB</text>
<text x="505.0" y="228.1" fill="#388bfd" font-family="monospace" font-size="8px" text-anchor="middle">112.6KB</text>
<text x="505.0" y="255.3" fill="#56d364" font-family="monospace" font-size="8px" text-anchor="middle">104.9KB</text>
<text x="505.0" y="267.3" fill="#238636" font-family="monospace" font-size="8px" text-anchor="middle">103.9KB</text>
<text x="577.5" y="123.3" fill="#2ea043" font-family="monospace" font-size="8px" text-anchor="middle">124.5KB</text>
<text x="577.5" y="144.6" fill="#3fb950" font-family="monospace" font-size="8px" text-anchor="middle">121.3KB</text>
<text x="577.5" y="163.3" fill="#f78166" font-family="monospace" font-size="8px" text-anchor="middle">118.5KB</text>
<text x="577.5" y="175.3" fill="#1f6feb" font-family="monospace" font-size="8px" text-anchor="middle">118.2KB</text>
<text x="577.5" y="187.3" fill="#58a6ff" font-family="monospace" font-size="8px" text-anchor="middle">118.0KB</text>
<text x="577.5" y="199.3" fill="#ffa657" font-family="monospace" font-size="8px" text-anchor="middle">116.4KB</text>
<text x="577.5" y="211.3" fill="#388bfd" font-family="monospace" font-size="8px" text-anchor="middle">115.4KB</text>
<text x="577.5" y="237.9" fill="#56d364" font-family="monospace" font-size="8px" text-anchor="middle">107.5KB</text>
<text x="577.5" y="249.9" fill="#238636" font-family="monospace" font-size="8px" text-anchor="middle">106.5KB</text>
<text x="650.0" y="136.4" fill="#2ea043" font-family="monospace" font-size="8px" text-anchor="middle">122.5KB</text>
<text x="650.0" y="159.5" fill="#3fb950" font-family="monospace" font-size="8px" text-anchor="middle">119.1KB</text>
<text x="650.0" y="179.8" fill="#f78166" font-family="monospace" font-size="8px" text-anchor="middle">116.1KB</text>
<text x="650.0" y="191.8" fill="#58a6ff" font-family="monospace" font-size="8px" text-anchor="middle">115.9KB</text>
<text x="650.0" y="203.8" fill="#1f6feb" font-family="monospace" font-size="8px" text-anchor="middle">115.6KB</text>
<text x="650.0" y="215.8" fill="#ffa657" font-family="monospace" font-size="8px" text-anchor="middle">113.7KB</text>
<text x="650.0" y="227.8" fill="#388bfd" font-family="monospace" font-size="8px" text-anchor="middle">112.8KB</text>
<text x="650.0" y="253.1" fill="#56d364" font-family="monospace" font-size="8px" text-anchor="middle">105.2KB</text>
<text x="650.0" y="265.1" fill="#238636" font-family="monospace" font-size="8px" text-anchor="middle">104.2KB</text>
<rect x="665" y="44" width="12" height="12" fill="#58a6ff"/>
<text x="683" y="54" class="legend">Win i386</text>
<rect x="665" y="62" width="12" height="12" fill="#1f6feb"/>
<text x="683" y="72" class="legend">Win x64</text>
<rect x="665" y="80" width="12" height="12" fill="#388bfd"/>
<text x="683" y="90" class="legend">Win ARM64</text>
<rect x="665" y="98" width="12" height="12" fill="#3fb950"/>
<text x="683" y="108" class="legend">Linux i386</text>
<rect x="665" y="116" width="12" height="12" fill="#238636"/>
<text x="683" y="126" class="legend">Linux x64</text>
<rect x="665" y="134" width="12" height="12" fill="#2ea043"/>
<text x="683" y="144" class="legend">Linux ARM</text>
<rect x="665" y="152" width="12" height="12" fill="#56d364"/>
<text x="683" y="162" class="legend">Linux ARM64</text>
<rect x="665" y="170" width="12" height="12" fill="#f78166"/>
<text x="683" y="180" class="legend">UEFI x64</text>
<rect x="665" y="188" width="12" height="12" fill="#ffa657"/>
<text x="683" y="198" class="legend">UEFI ARM64</text>
</svg>