<svg xmlns="http://www.w3.org/2000/svg" width="800" height="400">
<defs>
<style>
.axis-text { fill: #8b949e; font-family: monospace; font-size: 11px; }
.title { fill: #c9d1d9; font-family: monospace; font-size: 14px; font-weight: bold; }
.legend { fill: #8b949e; font-family: monospace; font-size: 10px; }
.grid { stroke: #21262d; stroke-width: 1; }
</style>
</defs>
<rect width="800" height="400" fill="#0d1117"/>
<text x="400.0" y="25" class="title" text-anchor="middle">Binary Size Trend (.bin)</text>
<line x1="70" y1="40.0" x2="650" y2="40.0" class="grid"/>
<text x="60" y="44.0" class="axis-text" text-anchor="end">138KB</text>
<line x1="70" y1="100.0" x2="650" y2="100.0" class="grid"/>
<text x="60" y="104.0" class="axis-text" text-anchor="end">127KB</text>
<line x1="70" y1="160.0" x2="650" y2="160.0" class="grid"/>
<text x="60" y="164.0" class="axis-text" text-anchor="end">115KB</text>
<line x1="70" y1="220.0" x2="650" y2="220.0" class="grid"/>
<text x="60" y="224.0" class="axis-text" text-anchor="end">104KB</text>
<line x1="70" y1="280.0" x2="650" y2="280.0" class="grid"/>
<text x="60" y="284.0" class="axis-text" text-anchor="end">92KB</text>
<line x1="70" y1="340.0" x2="650" y2="340.0" class="grid"/>
<text x="60" y="344.0" class="axis-text" text-anchor="end">81KB</text>
<text x="70.0" y="360" class="axis-text" text-anchor="middle">02-05</text>
<text x="166.66666666666666" y="360" class="axis-text" text-anchor="middle">02-05</text>
<text x="263.3333333333333" y="360" class="axis-text" text-anchor="middle">02-05</text>
<text x="360.0" y="360" class="axis-text" text-anchor="middle">02-05</text>
<text x="456.66666666666663" y="360" class="axis-text" text-anchor="middle">02-06</text>
<text x="553.3333333333334" y="360" class="axis-text" text-anchor="middle">02-09</text>
<text x="650.0" y="360" class="axis-text" text-anchor="middle">02-11</text>
<path d="M 70.0 156.4 L 94.2 157.0 L 118.3 158.2 L 142.5 156.3 L 166.7 156.4 L 190.8 157.1 L 215.0 158.2 L 239.2 157.1 L 263.3 140.0 L 287.5 156.3 L 311.7 157.1 L 335.8 144.9 L 360.0 156.4 L 384.2 156.0 L 408.3 150.7 L 432.5 150.7 L 456.7 150.7 L 480.8 150.7 L 505.0 150.7 L 529.2 151.0 L 553.3 151.0 L 577.5 221.7 L 601.7 221.7 L 625.8 220.8 L 650.0 220.8" fill="none" stroke="#58a6ff" stroke-width="2" opacity="0.8"/>
<circle cx="70.0" cy="156.4" r="3" fill="#58a6ff"/>
<circle cx="190.8" cy="157.1" r="3" fill="#58a6ff"/>
<circle cx="311.7" cy="157.1" r="3" fill="#58a6ff"/>
<circle cx="432.5" cy="150.7" r="3" fill="#58a6ff"/>
<circle cx="553.3" cy="151.0" r="3" fill="#58a6ff"/>
<circle cx="650.0" cy="220.8" r="4" fill="#58a6ff"/>
<path d="M 70.0 156.4 L 94.2 157.4 L 118.3 158.6 L 142.5 156.4 L 166.7 156.4 L 190.8 157.5 L 215.0 158.6 L 239.2 157.5 L 263.3 140.2 L 287.5 156.4 L 311.7 157.5 L 335.8 144.0 L 360.0 156.4 L 384.2 157.2 L 408.3 150.7 L 432.5 150.7 L 456.7 150.7 L 480.8 150.7 L 505.0 150.7 L 529.2 151.0 L 553.3 151.0 L 577.5 257.4 L 601.7 257.4 L 625.8 256.2 L 650.0 256.2" fill="none" stroke="#1f6feb" stroke-width="2" opacity="0.8"/>
<circle cx="70.0" cy="156.4" r="3" fill="#1f6feb"/>
<circle cx="190.8" cy="157.5" r="3" fill="#1f6feb"/>
<circle cx="311.7" cy="157.5" r="3" fill="#1f6feb"/>
<circle cx="432.5" cy="150.7" r="3" fill="#1f6feb"/>
<circle cx="553.3" cy="151.0" r="3" fill="#1f6feb"/>
<circle cx="650.0" cy="256.2" r="4" fill="#1f6feb"/>
<path d="M 70.0 172.1 L 94.2 172.7 L 118.3 174.2 L 142.5 172.1 L 166.7 172.1 L 190.8 172.9 L 215.0 174.2 L 239.2 172.9 L 263.3 154.7 L 287.5 172.1 L 311.7 172.9 L 335.8 158.4 L 360.0 172.1 L 384.2 172.3 L 408.3 166.9 L 432.5 166.9 L 456.7 166.9 L 480.8 166.9 L 505.0 166.9 L 529.2 167.1 L 553.3 167.1 L 577.5 254.5 L 601.7 254.5 L 625.8 253.7 L 650.0 253.7" fill="none" stroke="#388bfd" stroke-width="2" opacity="0.8"/>
<circle cx="70.0" cy="172.1" r="3" fill="#388bfd"/>
<circle cx="190.8" cy="172.9" r="3" fill="#388bfd"/>
<circle cx="311.7" cy="172.9" r="3" fill="#388bfd"/>
<circle cx="432.5" cy="166.9" r="3" fill="#388bfd"/>
<circle cx="553.3" cy="167.1" r="3" fill="#388bfd"/>
<circle cx="650.0" cy="253.7" r="4" fill="#388bfd"/>
<path d="M 70.0 139.1 L 94.2 140.5 L 118.3 141.2 L 142.5 139.1 L 166.7 139.1 L 190.8 140.7 L 215.0 141.2 L 239.2 140.7 L 263.3 124.1 L 287.5 139.1 L 311.7 140.7 L 335.8 127.5 L 360.0 139.1 L 384.2 139.0 L 408.3 133.5 L 432.5 133.5 L 456.7 133.5 L 480.8 133.5 L 505.0 133.5 L 529.2 133.5 L 553.3 133.5 L 577.5 227.2 L 601.7 227.2 L 625.8 225.9 L 650.0 225.9" fill="none" stroke="#3fb950" stroke-width="2" opacity="0.8"/>
<circle cx="70.0" cy="139.1" r="3" fill="#3fb950"/>
<circle cx="190.8" cy="140.7" r="3" fill="#3fb950"/>
<circle cx="311.7" cy="140.7" r="3" fill="#3fb950"/>
<circle cx="432.5" cy="133.5" r="3" fill="#3fb950"/>
<circle cx="553.3" cy="133.5" r="3" fill="#3fb950"/>
<circle cx="650.0" cy="225.9" r="4" fill="#3fb950"/>
<path d="M 70.0 217.2 L 94.2 218.7 L 118.3 218.6 L 142.5 217.2 L 166.7 217.2 L 190.8 218.8 L 215.0 218.6 L 239.2 218.8 L 263.3 201.0 L 287.5 217.2 L 311.7 218.8 L 335.8 205.2 L 360.0 217.2 L 384.2 216.9 L 408.3 212.8 L 432.5 212.8 L 456.7 212.8 L 480.8 212.8 L 505.0 212.8 L 529.2 212.8 L 553.3 212.8 L 577.5 284.0 L 601.7 284.0 L 625.8 282.4 L 650.0 282.4" fill="none" stroke="#238636" stroke-width="2" opacity="0.8"/>
<circle cx="70.0" cy="217.2" r="3" fill="#238636"/>
<circle cx="190.8" cy="218.8" r="3" fill="#238636"/>
<circle cx="311.7" cy="218.8" r="3" fill="#238636"/>
<circle cx="432.5" cy="212.8" r="3" fill="#238636"/>
<circle cx="553.3" cy="212.8" r="3" fill="#238636"/>
<circle cx="650.0" cy="282.4" r="4" fill="#238636"/>
<path d="M 70.0 121.0 L 94.2 122.6 L 118.3 123.0 L 142.5 121.0 L 166.7 121.0 L 190.8 122.7 L 215.0 123.0 L 239.2 122.7 L 263.3 105.6 L 287.5 121.0 L 311.7 122.7 L 335.8 110.9 L 360.0 121.0 L 384.2 121.1 L 408.3 115.3 L 432.5 115.3 L 456.7 115.3 L 480.8 115.3 L 505.0 115.3 L 529.2 115.3 L 553.3 115.3 L 577.5 197.4 L 601.7 197.4 L 625.8 196.4 L 650.0 196.4" fill="none" stroke="#2ea043" stroke-width="2" opacity="0.8"/>
<circle cx="70.0" cy="121.0" r="3" fill="#2ea043"/>
<circle cx="190.8" cy="122.7" r="3" fill="#2ea043"/>
<circle cx="311.7" cy="122.7" r="3" fill="#2ea043"/>
<circle cx="432.5" cy="115.3" r="3" fill="#2ea043"/>
<circle cx="553.3" cy="115.3" r="3" fill="#2ea043"/>
<circle cx="650.0" cy="196.4" r="4" fill="#2ea043"/>
<path d="M 70.0 211.5 L 94.2 213.3 L 118.3 213.7 L 142.5 211.5 L 166.7 211.5 L 190.8 213.5 L 215.0 213.7 L 239.2 213.5 L 263.3 196.5 L 287.5 211.5 L 311.7 213.5 L 335.8 200.0 L 360.0 211.5 L 384.2 211.8 L 408.3 206.4 L 432.5 206.4 L 456.7 206.4 L 480.8 206.4 L 505.0 206.4 L 529.2 206.4 L 553.3 206.4 L 577.5 293.1 L 601.7 293.1 L 625.8 292.4 L 650.0 292.4" fill="none" stroke="#56d364" stroke-width="2" opacity="0.8"/>
<circle cx="70.0" cy="211.5" r="3" fill="#56d364"/>
<circle cx="190.8" cy="213.5" r="3" fill="#56d364"/>
<circle cx="311.7" cy="213.5" r="3" fill="#56d364"/>
<circle cx="432.5" cy="206.4" r="3" fill="#56d364"/>
<circle cx="553.3" cy="206.4" r="3" fill="#56d364"/>
<circle cx="650.0" cy="292.4" r="4" fill="#56d364"/>
<path d="M 70.0 154.0 L 94.2 155.1 L 118.3 156.2 L 142.5 153.9 L 166.7 154.0 L 190.8 155.1 L 215.0 156.2 L 239.2 155.1 L 263.3 138.2 L 287.5 153.9 L 311.7 155.1 L 335.8 142.0 L 360.0 154.0 L 384.2 154.8 L 408.3 148.7 L 432.5 148.7 L 456.7 148.7 L 480.8 148.7 L 505.0 148.7 L 529.2 148.7 L 553.3 148.7 L 577.5 254.5 L 601.7 254.5 L 625.8 253.3 L 650.0 253.3" fill="none" stroke="#f78166" stroke-width="2" opacity="0.8"/>
<circle cx="70.0" cy="154.0" r="3" fill="#f78166"/>
<circle cx="190.8" cy="155.1" r="3" fill="#f78166"/>
<circle cx="311.7" cy="155.1" r="3" fill="#f78166"/>
<circle cx="432.5" cy="148.7" r="3" fill="#f78166"/>
<circle cx="553.3" cy="148.7" r="3" fill="#f78166"/>
<circle cx="650.0" cy="253.3" r="4" fill="#f78166"/>
<path d="M 70.0 167.1 L 94.2 167.9 L 118.3 169.2 L 142.5 167.1 L 166.7 167.1 L 190.8 167.9 L 215.0 169.2 L 239.2 167.9 L 263.3 149.6 L 287.5 167.1 L 311.7 167.9 L 335.8 153.3 L 360.0 167.1 L 384.2 167.3 L 408.3 162.0 L 432.5 162.0 L 456.7 162.0 L 480.8 162.0 L 505.0 162.0 L 529.2 162.0 L 553.3 162.0 L 577.5 248.7 L 601.7 248.7 L 625.8 247.8 L 650.0 247.8" fill="none" stroke="#ffa657" stroke-width="2" opacity="0.8"/>
<circle cx="70.0" cy="167.1" r="3" fill="#ffa657"/>
<circle cx="190.8" cy="167.9" r="3" fill="#ffa657"/>
<circle cx="311.7" cy="167.9" r="3" fill="#ffa657"/>
<circle cx="432.5" cy="162.0" r="3" fill="#ffa657"/>
<circle cx="553.3" cy="162.0" r="3" fill="#ffa657"/>
<circle cx="650.0" cy="247.8" r="4" fill="#ffa657"/>
<text x="70.0" y="113.0" fill="#2ea043" font-family="monospace" font-size="8px" text-anchor="middle">122.6KB</text>
<text x="70.0" y="131.1" fill="#3fb950" font-family="monospace" font-size="8px" text-anchor="middle">119.1KB</text>
<text x="70.0" y="149.1" fill="#f78166" font-family="monospace" font-size="8px" text-anchor="middle">116.3KB</text>
<text x="70.0" y="167.1" fill="#1f6feb" font-family="monospace" font-size="8px" text-anchor="middle">115.8KB</text>
<text x="70.0" y="185.1" fill="#58a6ff" font-family="monospace" font-size="8px" text-anchor="middle">115.8KB</text>
<text x="70.0" y="203.1" fill="#ffa657" font-family="monospace" font-size="8px" text-anchor="middle">113.7KB</text>
<text x="70.0" y="221.1" fill="#388bfd" font-family="monospace" font-size="8px" text-anchor="middle">112.8KB</text>
<text x="70.0" y="239.1" fill="#56d364" font-family="monospace" font-size="8px" text-anchor="middle">105.2KB</text>
<text x="70.0" y="257.1" fill="#238636" font-family="monospace" font-size="8px" text-anchor="middle">104.2KB</text>
<text x="190.8" y="114.7" fill="#2ea043" font-family="monospace" font-size="8px" text-anchor="middle">122.2KB</text>
<text x="190.8" y="132.7" fill="#3fb950" font-family="monospace" font-size="8px" text-anchor="middle">118.8KB</text>
<text x="190.8" y="150.7" fill="#f78166" font-family="monospace" font-size="8px" text-anchor="middle">116.0KB</text>
<text x="190.8" y="168.7" fill="#58a6ff" font-family="monospace" font-size="8px" text-anchor="middle">115.7KB</text>
<text x="190.8" y="186.7" fill="#1f6feb" font-family="monospace" font-size="8px" text-anchor="middle">115.6KB</text>
<text x="190.8" y="204.7" fill="#ffa657" font-family="monospace" font-size="8px" text-anchor="middle">113.6KB</text>
<text x="190.8" y="222.7" fill="#388bfd" font-family="monospace" font-size="8px" text-anchor="middle">112.6KB</text>
<text x="190.8" y="240.7" fill="#56d364" font-family="monospace" font-size="8px" text-anchor="middle">104.9KB</text>
<text x="190.8" y="258.7" fill="#238636" font-family="monospace" font-size="8px" text-anchor="middle">103.9KB</text>
<text x="311.7" y="114.7" fill="#2ea043" font-family="monospace" font-size="8px" text-anchor="middle">122.2KB</text>
<text x="311.7" y="132.7" fill="#3fb950" font-family="monospace" font-size="8px" text-anchor="middle">118.8KB</text>
<text x="311.7" y="150.7" fill="#f78166" font-family="monospace" font-size="8px" text-anchor="middle">116.0KB</text>
<text x="311.7" y="168.7" fill="#58a6ff" font-family="monospace" font-size="8px" text-anchor="middle">115.7KB</text>
<text x="311.7" y="186.7" fill="#1f6feb" font-family="monospace" font-size="8px" text-anchor="middle">115.6KB</text>
<text x="311.7" y="204.7" fill="#ffa657" font-family="monospace" font-size="8px" text-anchor="middle">113.6KB</text>
<text x="311.7" y="222.7" fill="#388bfd" font-family="monospace" font-size="8px" text-anchor="middle">112.6KB</text>
<text x="311.7" y="240.7" fill="#56d364" font-family="monospace" font-size="8px" text-anchor="middle">104.9KB</text>
<text x="311.7" y="258.7" fill="#238636" font-family="monospace" font-size="8px" text-anchor="middle">103.9KB</text>
<text x="432.5" y="107.3" fill="#2ea043" font-family="monospace" font-size="8px" text-anchor="middle">123.7KB</text>
<text x="432.5" y="125.5" fill="#3fb950" font-family="monospace" font-size="8px" text-anchor="middle">120.2KB</text>
<text x="432.5" y="143.5" fill="#f78166" font-family="monospace" font-size="8px" text-anchor="middle">117.3KB</text>
<text x="432.5" y="161.5" fill="#1f6feb" font-family="monospace" font-size="8px" text-anchor="middle">116.9KB</text>
<text x="432.5" y="179.5" fill="#58a6ff" font-family="monospace" font-size="8px" text-anchor="middle">116.9KB</text>
<text x="432.5" y="197.5" fill="#ffa657" font-family="monospace" font-size="8px" text-anchor="middle">114.7KB</text>
<text x="432.5" y="215.5" fill="#388bfd" font-family="monospace" font-size="8px" text-anchor="middle">113.8KB</text>
<text x="432.5" y="233.5" fill="#56d364" font-family="monospace" font-size="8px" text-anchor="middle">106.2KB</text>
<text x="432.5" y="251.5" fill="#238636" font-family="monospace" font-size="8px" text-anchor="middle">105.0KB</text>
<text x="553.3" y="107.3" fill="#2ea043" font-family="monospace" font-size="8px" text-anchor="middle">123.7KB</text>
<text x="553.3" y="125.5" fill="#3fb950" font-family="monospace" font-size="8px" text-anchor="middle">120.2KB</text>
<text x="553.3" y="143.5" fill="#f78166" font-family="monospace" font-size="8px" text-anchor="middle">117.3KB</text>
<text x="553.3" y="161.5" fill="#1f6feb" font-family="monospace" font-size="8px" text-anchor="middle">116.8KB</text>
<text x="553.3" y="179.5" fill="#58a6ff" font-family="monospace" font-size="8px" text-anchor="middle">116.8KB</text>
<text x="553.3" y="197.5" fill="#ffa657" font-family="monospace" font-size="8px" text-anchor="middle">114.7KB</text>
<text x="553.3" y="215.5" fill="#388bfd" font-family="monospace" font-size="8px" text-anchor="middle">113.7KB</text>
<text x="553.3" y="233.5" fill="#56d364" font-family="monospace" font-size="8px" text-anchor="middle">106.2KB</text>
<text x="553.3" y="251.5" fill="#238636" font-family="monospace" font-size="8px" text-anchor="middle">105.0KB</text>
<text x="650.0" y="188.4" fill="#2ea043" font-family="monospace" font-size="8px" text-anchor="middle">108.1KB</text>
<text x="650.0" y="212.8" fill="#58a6ff" font-family="monospace" font-size="8px" text-anchor="middle">103.5KB</text>
<text x="650.0" y="230.8" fill="#3fb950" font-family="monospace" font-size="8px" text-anchor="middle">102.5KB</text>
<text x="650.0" y="248.8" fill="#ffa657" font-family="monospace" font-size="8px" text-anchor="middle">98.3KB</text>
<text x="650.0" y="266.8" fill="#f78166" font-family="monospace" font-size="8px" text-anchor="middle">97.3KB</text>
<text x="650.0" y="284.8" fill="#388bfd" font-family="monospace" font-size="8px" text-anchor="middle">97.2KB</text>
<text x="650.0" y="302.8" fill="#1f6feb" font-family="monospace" font-size="8px" text-anchor="middle">96.7KB</text>
<text x="650.0" y="320.8" fill="#238636" font-family="monospace" font-size="8px" text-anchor="middle">91.7KB</text>
<text x="650.0" y="338.8" fill="#56d364" font-family="monospace" font-size="8px" text-anchor="middle">89.8KB</text>
<rect x="665" y="44" width="12" height="12" fill="#58a6ff"/>
<text x="683" y="54" class="legend">Win i386</text>
<rect x="665" y="62" width="12" height="12" fill="#1f6feb"/>
<text x="683" y="72" class="legend">Win x64</text>
<rect x="665" y="80" width="12" height="12" fill="#388bfd"/>
<text x="683" y="90" class="legend">Win ARM64</text>
<rect x="665" y="98" width="12" height="12" fill="#3fb950"/>
<text x="683" y="108" class="legend">Linux i386</text>
<rect x="665" y="116" width="12" height="12" fill="#238636"/>
<text x="683" y="126" class="legend">Linux x64</text>
<rect x="665" y="134" width="12" height="12" fill="#2ea043"/>
<text x="683" y="144" class="legend">Linux ARM</text>
<rect x="665" y="152" width="12" height="12" fill="#56d364"/>
<text x="683" y="162" class="legend">Linux ARM64</text>
<rect x="665" y="170" width="12" height="12" fill="#f78166"/>
<text x="683" y="180" class="legend">UEFI x64</text>
<rect x="665" y="188" width="12" height="12" fill="#ffa657"/>
<text x="683" y="198" class="legend">UEFI ARM64</text>
</svg>