<svg xmlns="http://www.w3.org/2000/svg" width="800" height="400">
<defs>
<style>
.axis-text { fill: #8b949e; font-family: monospace; font-size: 11px; }
.title { fill: #c9d1d9; font-family: monospace; font-size: 14px; font-weight: bold; }
.legend { fill: #8b949e; font-family: monospace; font-size: 10px; }
.grid { stroke: #21262d; stroke-width: 1; }
</style>
</defs>
<rect width="800" height="400" fill="#0d1117"/>
<text x="400.0" y="25" class="title" text-anchor="middle">Binary Size Trend (.bin)</text>
<line x1="70" y1="40.0" x2="650" y2="40.0" class="grid"/>
<text x="60" y="44.0" class="axis-text" text-anchor="end">138KB</text>
<line x1="70" y1="100.0" x2="650" y2="100.0" class="grid"/>
<text x="60" y="104.0" class="axis-text" text-anchor="end">129KB</text>
<line x1="70" y1="160.0" x2="650" y2="160.0" class="grid"/>
<text x="60" y="164.0" class="axis-text" text-anchor="end">120KB</text>
<line x1="70" y1="220.0" x2="650" y2="220.0" class="grid"/>
<text x="60" y="224.0" class="axis-text" text-anchor="end">111KB</text>
<line x1="70" y1="280.0" x2="650" y2="280.0" class="grid"/>
<text x="60" y="284.0" class="axis-text" text-anchor="end">102KB</text>
<line x1="70" y1="340.0" x2="650" y2="340.0" class="grid"/>
<text x="60" y="344.0" class="axis-text" text-anchor="end">93KB</text>
<text x="70.0" y="360" class="axis-text" text-anchor="middle">02-05</text>
<text x="161.57894736842104" y="360" class="axis-text" text-anchor="middle">02-05</text>
<text x="253.15789473684208" y="360" class="axis-text" text-anchor="middle">02-05</text>
<text x="344.7368421052631" y="360" class="axis-text" text-anchor="middle">02-05</text>
<text x="436.31578947368416" y="360" class="axis-text" text-anchor="middle">02-05</text>
<text x="527.8947368421052" y="360" class="axis-text" text-anchor="middle">02-06</text>
<text x="619.4736842105262" y="360" class="axis-text" text-anchor="middle">02-09</text>
<path d="M 70.0 189.8 L 100.5 190.6 L 131.1 192.1 L 161.6 189.7 L 192.1 189.8 L 222.6 190.7 L 253.2 192.1 L 283.7 190.7 L 314.2 168.7 L 344.7 189.7 L 375.3 190.7 L 405.8 175.0 L 436.3 189.8 L 466.8 189.3 L 497.4 182.5 L 527.9 182.5 L 558.4 182.5 L 588.9 182.5 L 619.5 182.5 L 650.0 182.8" fill="none" stroke="#58a6ff" stroke-width="2" opacity="0.8"/>
<circle cx="70.0" cy="189.8" r="3" fill="#58a6ff"/>
<circle cx="192.1" cy="189.8" r="3" fill="#58a6ff"/>
<circle cx="314.2" cy="168.7" r="3" fill="#58a6ff"/>
<circle cx="436.3" cy="189.8" r="3" fill="#58a6ff"/>
<circle cx="558.4" cy="182.5" r="3" fill="#58a6ff"/>
<circle cx="650.0" cy="182.8" r="4" fill="#58a6ff"/>
<path d="M 70.0 189.7 L 100.5 191.1 L 131.1 192.6 L 161.6 189.7 L 192.1 189.7 L 222.6 191.2 L 253.2 192.6 L 283.7 191.2 L 314.2 168.9 L 344.7 189.7 L 375.3 191.2 L 405.8 173.9 L 436.3 189.7 L 466.8 190.8 L 497.4 182.5 L 527.9 182.5 L 558.4 182.5 L 588.9 182.5 L 619.5 182.5 L 650.0 182.8" fill="none" stroke="#1f6feb" stroke-width="2" opacity="0.8"/>
<circle cx="70.0" cy="189.7" r="3" fill="#1f6feb"/>
<circle cx="192.1" cy="189.7" r="3" fill="#1f6feb"/>
<circle cx="314.2" cy="168.9" r="3" fill="#1f6feb"/>
<circle cx="436.3" cy="189.7" r="3" fill="#1f6feb"/>
<circle cx="558.4" cy="182.5" r="3" fill="#1f6feb"/>
<circle cx="650.0" cy="182.8" r="4" fill="#1f6feb"/>
<path d="M 70.0 210.0 L 100.5 210.7 L 131.1 212.7 L 161.6 210.0 L 192.1 210.0 L 222.6 211.0 L 253.2 212.7 L 283.7 211.0 L 314.2 187.6 L 344.7 210.0 L 375.3 211.0 L 405.8 192.4 L 436.3 210.0 L 466.8 210.3 L 497.4 203.3 L 527.9 203.3 L 558.4 203.3 L 588.9 203.3 L 619.5 203.3 L 650.0 203.6" fill="none" stroke="#388bfd" stroke-width="2" opacity="0.8"/>
<circle cx="70.0" cy="210.0" r="3" fill="#388bfd"/>
<circle cx="192.1" cy="210.0" r="3" fill="#388bfd"/>
<circle cx="314.2" cy="187.6" r="3" fill="#388bfd"/>
<circle cx="436.3" cy="210.0" r="3" fill="#388bfd"/>
<circle cx="558.4" cy="203.3" r="3" fill="#388bfd"/>
<circle cx="650.0" cy="203.6" r="4" fill="#388bfd"/>
<path d="M 70.0 167.6 L 100.5 169.4 L 131.1 170.2 L 161.6 167.6 L 192.1 167.6 L 222.6 169.6 L 253.2 170.2 L 283.7 169.6 L 314.2 148.2 L 344.7 167.6 L 375.3 169.6 L 405.8 152.6 L 436.3 167.6 L 466.8 167.5 L 497.4 160.3 L 527.9 160.3 L 558.4 160.3 L 588.9 160.3 L 619.5 160.3 L 650.0 160.3" fill="none" stroke="#3fb950" stroke-width="2" opacity="0.8"/>
<circle cx="70.0" cy="167.6" r="3" fill="#3fb950"/>
<circle cx="192.1" cy="167.6" r="3" fill="#3fb950"/>
<circle cx="314.2" cy="148.2" r="3" fill="#3fb950"/>
<circle cx="436.3" cy="167.6" r="3" fill="#3fb950"/>
<circle cx="558.4" cy="160.3" r="3" fill="#3fb950"/>
<circle cx="650.0" cy="160.3" r="4" fill="#3fb950"/>
<path d="M 70.0 268.1 L 100.5 270.0 L 131.1 269.8 L 161.6 268.1 L 192.1 268.1 L 222.6 270.1 L 253.2 269.8 L 283.7 270.1 L 314.2 247.2 L 344.7 268.1 L 375.3 270.1 L 405.8 252.5 L 436.3 268.1 L 466.8 267.7 L 497.4 262.4 L 527.9 262.4 L 558.4 262.4 L 588.9 262.4 L 619.5 262.4 L 650.0 262.4" fill="none" stroke="#238636" stroke-width="2" opacity="0.8"/>
<circle cx="70.0" cy="268.1" r="3" fill="#238636"/>
<circle cx="192.1" cy="268.1" r="3" fill="#238636"/>
<circle cx="314.2" cy="247.2" r="3" fill="#238636"/>
<circle cx="436.3" cy="268.1" r="3" fill="#238636"/>
<circle cx="558.4" cy="262.4" r="3" fill="#238636"/>
<circle cx="650.0" cy="262.4" r="4" fill="#238636"/>
<path d="M 70.0 144.3 L 100.5 146.3 L 131.1 146.8 L 161.6 144.3 L 192.1 144.3 L 222.6 146.5 L 253.2 146.8 L 283.7 146.5 L 314.2 124.5 L 344.7 144.3 L 375.3 146.5 L 405.8 131.3 L 436.3 144.3 L 466.8 144.4 L 497.4 136.9 L 527.9 136.9 L 558.4 136.9 L 588.9 136.9 L 619.5 136.9 L 650.0 136.9" fill="none" stroke="#2ea043" stroke-width="2" opacity="0.8"/>
<circle cx="70.0" cy="144.3" r="3" fill="#2ea043"/>
<circle cx="192.1" cy="144.3" r="3" fill="#2ea043"/>
<circle cx="314.2" cy="124.5" r="3" fill="#2ea043"/>
<circle cx="436.3" cy="144.3" r="3" fill="#2ea043"/>
<circle cx="558.4" cy="136.9" r="3" fill="#2ea043"/>
<circle cx="650.0" cy="136.9" r="4" fill="#2ea043"/>
<path d="M 70.0 260.8 L 100.5 263.1 L 131.1 263.5 L 161.6 260.8 L 192.1 260.8 L 222.6 263.3 L 253.2 263.5 L 283.7 263.3 L 314.2 241.3 L 344.7 260.8 L 375.3 263.3 L 405.8 245.9 L 436.3 260.8 L 466.8 261.1 L 497.4 254.1 L 527.9 254.1 L 558.4 254.1 L 588.9 254.1 L 619.5 254.1 L 650.0 254.1" fill="none" stroke="#56d364" stroke-width="2" opacity="0.8"/>
<circle cx="70.0" cy="260.8" r="3" fill="#56d364"/>
<circle cx="192.1" cy="260.8" r="3" fill="#56d364"/>
<circle cx="314.2" cy="241.3" r="3" fill="#56d364"/>
<circle cx="436.3" cy="260.8" r="3" fill="#56d364"/>
<circle cx="558.4" cy="254.1" r="3" fill="#56d364"/>
<circle cx="650.0" cy="254.1" r="4" fill="#56d364"/>
<path d="M 70.0 186.7 L 100.5 188.1 L 131.1 189.6 L 161.6 186.6 L 192.1 186.7 L 222.6 188.1 L 253.2 189.6 L 283.7 188.1 L 314.2 166.3 L 344.7 186.6 L 375.3 188.1 L 405.8 171.3 L 436.3 186.7 L 466.8 187.8 L 497.4 179.9 L 527.9 179.9 L 558.4 179.9 L 588.9 179.9 L 619.5 179.9 L 650.0 179.9" fill="none" stroke="#f78166" stroke-width="2" opacity="0.8"/>
<circle cx="70.0" cy="186.7" r="3" fill="#f78166"/>
<circle cx="192.1" cy="186.7" r="3" fill="#f78166"/>
<circle cx="314.2" cy="166.3" r="3" fill="#f78166"/>
<circle cx="436.3" cy="186.7" r="3" fill="#f78166"/>
<circle cx="558.4" cy="179.9" r="3" fill="#f78166"/>
<circle cx="650.0" cy="179.9" r="4" fill="#f78166"/>
<path d="M 70.0 203.6 L 100.5 204.6 L 131.1 206.2 L 161.6 203.6 L 192.1 203.6 L 222.6 204.6 L 253.2 206.2 L 283.7 204.6 L 314.2 181.0 L 344.7 203.6 L 375.3 204.6 L 405.8 185.8 L 436.3 203.6 L 466.8 203.9 L 497.4 196.9 L 527.9 196.9 L 558.4 196.9 L 588.9 196.9 L 619.5 196.9 L 650.0 196.9" fill="none" stroke="#ffa657" stroke-width="2" opacity="0.8"/>
<circle cx="70.0" cy="203.6" r="3" fill="#ffa657"/>
<circle cx="192.1" cy="203.6" r="3" fill="#ffa657"/>
<circle cx="314.2" cy="181.0" r="3" fill="#ffa657"/>
<circle cx="436.3" cy="203.6" r="3" fill="#ffa657"/>
<circle cx="558.4" cy="196.9" r="3" fill="#ffa657"/>
<circle cx="650.0" cy="196.9" r="4" fill="#ffa657"/>
<text x="70.0" y="136.3" fill="#2ea043" font-family="monospace" font-size="8px" text-anchor="middle">122.6KB</text>
<text x="70.0" y="159.6" fill="#3fb950" font-family="monospace" font-size="8px" text-anchor="middle">119.1KB</text>
<text x="70.0" y="178.7" fill="#f78166" font-family="monospace" font-size="8px" text-anchor="middle">116.3KB</text>
<text x="70.0" y="196.7" fill="#1f6feb" font-family="monospace" font-size="8px" text-anchor="middle">115.8KB</text>
<text x="70.0" y="214.7" fill="#58a6ff" font-family="monospace" font-size="8px" text-anchor="middle">115.8KB</text>
<text x="70.0" y="232.7" fill="#ffa657" font-family="monospace" font-size="8px" text-anchor="middle">113.7KB</text>
<text x="70.0" y="250.7" fill="#388bfd" font-family="monospace" font-size="8px" text-anchor="middle">112.8KB</text>
<text x="70.0" y="268.7" fill="#56d364" font-family="monospace" font-size="8px" text-anchor="middle">105.2KB</text>
<text x="70.0" y="286.7" fill="#238636" font-family="monospace" font-size="8px" text-anchor="middle">104.2KB</text>
<text x="192.1" y="136.3" fill="#2ea043" font-family="monospace" font-size="8px" text-anchor="middle">122.6KB</text>
<text x="192.1" y="159.6" fill="#3fb950" font-family="monospace" font-size="8px" text-anchor="middle">119.1KB</text>
<text x="192.1" y="178.7" fill="#f78166" font-family="monospace" font-size="8px" text-anchor="middle">116.3KB</text>
<text x="192.1" y="196.7" fill="#1f6feb" font-family="monospace" font-size="8px" text-anchor="middle">115.8KB</text>
<text x="192.1" y="214.7" fill="#58a6ff" font-family="monospace" font-size="8px" text-anchor="middle">115.8KB</text>
<text x="192.1" y="232.7" fill="#ffa657" font-family="monospace" font-size="8px" text-anchor="middle">113.7KB</text>
<text x="192.1" y="250.7" fill="#388bfd" font-family="monospace" font-size="8px" text-anchor="middle">112.8KB</text>
<text x="192.1" y="268.7" fill="#56d364" font-family="monospace" font-size="8px" text-anchor="middle">105.2KB</text>
<text x="192.1" y="286.7" fill="#238636" font-family="monospace" font-size="8px" text-anchor="middle">104.2KB</text>
<text x="314.2" y="116.5" fill="#2ea043" font-family="monospace" font-size="8px" text-anchor="middle">125.5KB</text>
<text x="314.2" y="140.2" fill="#3fb950" font-family="monospace" font-size="8px" text-anchor="middle">122.0KB</text>
<text x="314.2" y="158.3" fill="#f78166" font-family="monospace" font-size="8px" text-anchor="middle">119.3KB</text>
<text x="314.2" y="176.3" fill="#58a6ff" font-family="monospace" font-size="8px" text-anchor="middle">118.9KB</text>
<text x="314.2" y="194.3" fill="#1f6feb" font-family="monospace" font-size="8px" text-anchor="middle">118.9KB</text>
<text x="314.2" y="212.3" fill="#ffa657" font-family="monospace" font-size="8px" text-anchor="middle">117.1KB</text>
<text x="314.2" y="230.3" fill="#388bfd" font-family="monospace" font-size="8px" text-anchor="middle">116.1KB</text>
<text x="314.2" y="248.3" fill="#56d364" font-family="monospace" font-size="8px" text-anchor="middle">108.1KB</text>
<text x="314.2" y="266.3" fill="#238636" font-family="monospace" font-size="8px" text-anchor="middle">107.3KB</text>
<text x="436.3" y="136.3" fill="#2ea043" font-family="monospace" font-size="8px" text-anchor="middle">122.6KB</text>
<text x="436.3" y="159.6" fill="#3fb950" font-family="monospace" font-size="8px" text-anchor="middle">119.1KB</text>
<text x="436.3" y="178.7" fill="#f78166" font-family="monospace" font-size="8px" text-anchor="middle">116.3KB</text>
<text x="436.3" y="196.7" fill="#1f6feb" font-family="monospace" font-size="8px" text-anchor="middle">115.8KB</text>
<text x="436.3" y="214.7" fill="#58a6ff" font-family="monospace" font-size="8px" text-anchor="middle">115.8KB</text>
<text x="436.3" y="232.7" fill="#ffa657" font-family="monospace" font-size="8px" text-anchor="middle">113.7KB</text>
<text x="436.3" y="250.7" fill="#388bfd" font-family="monospace" font-size="8px" text-anchor="middle">112.8KB</text>
<text x="436.3" y="268.7" fill="#56d364" font-family="monospace" font-size="8px" text-anchor="middle">105.2KB</text>
<text x="436.3" y="286.7" fill="#238636" font-family="monospace" font-size="8px" text-anchor="middle">104.2KB</text>
<text x="558.4" y="128.9" fill="#2ea043" font-family="monospace" font-size="8px" text-anchor="middle">123.7KB</text>
<text x="558.4" y="152.3" fill="#3fb950" font-family="monospace" font-size="8px" text-anchor="middle">120.2KB</text>
<text x="558.4" y="171.9" fill="#f78166" font-family="monospace" font-size="8px" text-anchor="middle">117.3KB</text>
<text x="558.4" y="189.9" fill="#1f6feb" font-family="monospace" font-size="8px" text-anchor="middle">116.9KB</text>
<text x="558.4" y="207.9" fill="#58a6ff" font-family="monospace" font-size="8px" text-anchor="middle">116.9KB</text>
<text x="558.4" y="225.9" fill="#ffa657" font-family="monospace" font-size="8px" text-anchor="middle">114.7KB</text>
<text x="558.4" y="243.9" fill="#388bfd" font-family="monospace" font-size="8px" text-anchor="middle">113.8KB</text>
<text x="558.4" y="261.9" fill="#56d364" font-family="monospace" font-size="8px" text-anchor="middle">106.2KB</text>
<text x="558.4" y="279.9" fill="#238636" font-family="monospace" font-size="8px" text-anchor="middle">105.0KB</text>
<text x="650.0" y="128.9" fill="#2ea043" font-family="monospace" font-size="8px" text-anchor="middle">123.7KB</text>
<text x="650.0" y="152.3" fill="#3fb950" font-family="monospace" font-size="8px" text-anchor="middle">120.2KB</text>
<text x="650.0" y="171.9" fill="#f78166" font-family="monospace" font-size="8px" text-anchor="middle">117.3KB</text>
<text x="650.0" y="189.9" fill="#1f6feb" font-family="monospace" font-size="8px" text-anchor="middle">116.8KB</text>
<text x="650.0" y="207.9" fill="#58a6ff" font-family="monospace" font-size="8px" text-anchor="middle">116.8KB</text>
<text x="650.0" y="225.9" fill="#ffa657" font-family="monospace" font-size="8px" text-anchor="middle">114.7KB</text>
<text x="650.0" y="243.9" fill="#388bfd" font-family="monospace" font-size="8px" text-anchor="middle">113.7KB</text>
<text x="650.0" y="261.9" fill="#56d364" font-family="monospace" font-size="8px" text-anchor="middle">106.2KB</text>
<text x="650.0" y="279.9" fill="#238636" font-family="monospace" font-size="8px" text-anchor="middle">105.0KB</text>
<rect x="665" y="44" width="12" height="12" fill="#58a6ff"/>
<text x="683" y="54" class="legend">Win i386</text>
<rect x="665" y="62" width="12" height="12" fill="#1f6feb"/>
<text x="683" y="72" class="legend">Win x64</text>
<rect x="665" y="80" width="12" height="12" fill="#388bfd"/>
<text x="683" y="90" class="legend">Win ARM64</text>
<rect x="665" y="98" width="12" height="12" fill="#3fb950"/>
<text x="683" y="108" class="legend">Linux i386</text>
<rect x="665" y="116" width="12" height="12" fill="#238636"/>
<text x="683" y="126" class="legend">Linux x64</text>
<rect x="665" y="134" width="12" height="12" fill="#2ea043"/>
<text x="683" y="144" class="legend">Linux ARM</text>
<rect x="665" y="152" width="12" height="12" fill="#56d364"/>
<text x="683" y="162" class="legend">Linux ARM64</text>
<rect x="665" y="170" width="12" height="12" fill="#f78166"/>
<text x="683" y="180" class="legend">UEFI x64</text>
<rect x="665" y="188" width="12" height="12" fill="#ffa657"/>
<text x="683" y="198" class="legend">UEFI ARM64</text>
</svg>