<svg xmlns="http://www.w3.org/2000/svg" width="800" height="400">
<defs>
<style>
.axis-text { fill: #8b949e; font-family: monospace; font-size: 11px; }
.title { fill: #c9d1d9; font-family: monospace; font-size: 14px; font-weight: bold; }
.legend { fill: #8b949e; font-family: monospace; font-size: 10px; }
.grid { stroke: #21262d; stroke-width: 1; }
</style>
</defs>
<rect width="800" height="400" fill="#0d1117"/>
<text x="400.0" y="25" class="title" text-anchor="middle">Binary Size Trend (.bin)</text>
<line x1="70" y1="40.0" x2="650" y2="40.0" class="grid"/>
<text x="60" y="44.0" class="axis-text" text-anchor="end">138KB</text>
<line x1="70" y1="100.0" x2="650" y2="100.0" class="grid"/>
<text x="60" y="104.0" class="axis-text" text-anchor="end">127KB</text>
<line x1="70" y1="160.0" x2="650" y2="160.0" class="grid"/>
<text x="60" y="164.0" class="axis-text" text-anchor="end">115KB</text>
<line x1="70" y1="220.0" x2="650" y2="220.0" class="grid"/>
<text x="60" y="224.0" class="axis-text" text-anchor="end">104KB</text>
<line x1="70" y1="280.0" x2="650" y2="280.0" class="grid"/>
<text x="60" y="284.0" class="axis-text" text-anchor="end">92KB</text>
<line x1="70" y1="340.0" x2="650" y2="340.0" class="grid"/>
<text x="60" y="344.0" class="axis-text" text-anchor="end">81KB</text>
<text x="70.0" y="360" class="axis-text" text-anchor="middle">02-05</text>
<text x="157.87878787878788" y="360" class="axis-text" text-anchor="middle">02-05</text>
<text x="245.75757575757575" y="360" class="axis-text" text-anchor="middle">02-05</text>
<text x="333.6363636363636" y="360" class="axis-text" text-anchor="middle">02-06</text>
<text x="421.5151515151515" y="360" class="axis-text" text-anchor="middle">02-09</text>
<text x="509.3939393939394" y="360" class="axis-text" text-anchor="middle">02-12</text>
<text x="597.2727272727273" y="360" class="axis-text" text-anchor="middle">02-24</text>
<path d="M 70.0 156.4 L 87.6 157.0 L 105.2 158.2 L 122.7 156.3 L 140.3 156.4 L 157.9 157.1 L 175.5 158.2 L 193.0 157.1 L 210.6 140.0 L 228.2 156.3 L 245.8 157.1 L 263.3 144.9 L 280.9 156.4 L 298.5 156.0 L 316.1 150.7 L 333.6 150.7 L 351.2 150.7 L 368.8 150.7 L 386.4 150.7 L 403.9 151.0 L 421.5 151.0 L 439.1 221.7 L 456.7 221.7 L 474.2 220.8 L 491.8 220.8 L 509.4 220.8 L 527.0 207.0 L 544.5 202.6 L 562.1 202.6 L 579.7 203.2 L 597.3 202.3 L 614.8 202.3 L 632.4 202.6 L 650.0 202.6" fill="none" stroke="#58a6ff" stroke-width="2" opacity="0.8"/>
<circle cx="70.0" cy="156.4" r="3" fill="#58a6ff"/>
<circle cx="175.5" cy="158.2" r="3" fill="#58a6ff"/>
<circle cx="280.9" cy="156.4" r="3" fill="#58a6ff"/>
<circle cx="386.4" cy="150.7" r="3" fill="#58a6ff"/>
<circle cx="491.8" cy="220.8" r="3" fill="#58a6ff"/>
<circle cx="597.3" cy="202.3" r="3" fill="#58a6ff"/>
<circle cx="650.0" cy="202.6" r="4" fill="#58a6ff"/>
<path d="M 70.0 156.4 L 87.6 157.4 L 105.2 158.6 L 122.7 156.4 L 140.3 156.4 L 157.9 157.5 L 175.5 158.6 L 193.0 157.5 L 210.6 140.2 L 228.2 156.4 L 245.8 157.5 L 263.3 144.0 L 280.9 156.4 L 298.5 157.2 L 316.1 150.7 L 333.6 150.7 L 351.2 150.7 L 368.8 150.7 L 386.4 150.7 L 403.9 151.0 L 421.5 151.0 L 439.1 257.4 L 456.7 257.4 L 474.2 256.2 L 491.8 256.2 L 509.4 256.2 L 527.0 258.3 L 544.5 255.4 L 562.1 255.4 L 579.7 255.9 L 597.3 255.4 L 614.8 255.4 L 632.4 255.4 L 650.0 255.4" fill="none" stroke="#1f6feb" stroke-width="2" opacity="0.8"/>
<circle cx="70.0" cy="156.4" r="3" fill="#1f6feb"/>
<circle cx="175.5" cy="158.6" r="3" fill="#1f6feb"/>
<circle cx="280.9" cy="156.4" r="3" fill="#1f6feb"/>
<circle cx="386.4" cy="150.7" r="3" fill="#1f6feb"/>
<circle cx="491.8" cy="256.2" r="3" fill="#1f6feb"/>
<circle cx="597.3" cy="255.4" r="3" fill="#1f6feb"/>
<circle cx="650.0" cy="255.4" r="4" fill="#1f6feb"/>
<path d="M 70.0 172.1 L 87.6 172.7 L 105.2 174.2 L 122.7 172.1 L 140.3 172.1 L 157.9 172.9 L 175.5 174.2 L 193.0 172.9 L 210.6 154.7 L 228.2 172.1 L 245.8 172.9 L 263.3 158.4 L 280.9 172.1 L 298.5 172.3 L 316.1 166.9 L 333.6 166.9 L 351.2 166.9 L 368.8 166.9 L 386.4 166.9 L 403.9 167.1 L 421.5 167.1 L 439.1 254.5 L 456.7 254.5 L 474.2 253.7 L 491.8 253.7 L 509.4 253.7 L 527.0 243.7 L 544.5 242.4 L 562.1 242.4 L 579.7 242.6 L 597.3 242.4 L 614.8 242.4 L 632.4 242.4 L 650.0 242.4" fill="none" stroke="#388bfd" stroke-width="2" opacity="0.8"/>
<circle cx="70.0" cy="172.1" r="3" fill="#388bfd"/>
<circle cx="175.5" cy="174.2" r="3" fill="#388bfd"/>
<circle cx="280.9" cy="172.1" r="3" fill="#388bfd"/>
<circle cx="386.4" cy="166.9" r="3" fill="#388bfd"/>
<circle cx="491.8" cy="253.7" r="3" fill="#388bfd"/>
<circle cx="597.3" cy="242.4" r="3" fill="#388bfd"/>
<circle cx="650.0" cy="242.4" r="4" fill="#388bfd"/>
<path d="M 70.0 139.1 L 87.6 140.5 L 105.2 141.2 L 122.7 139.1 L 140.3 139.1 L 157.9 140.7 L 175.5 141.2 L 193.0 140.7 L 210.6 124.1 L 228.2 139.1 L 245.8 140.7 L 263.3 127.5 L 280.9 139.1 L 298.5 139.0 L 316.1 133.5 L 333.6 133.5 L 351.2 133.5 L 368.8 133.5 L 386.4 133.5 L 403.9 133.5 L 421.5 133.5 L 439.1 227.2 L 456.7 227.2 L 474.2 225.9 L 491.8 225.9 L 509.4 225.9 L 527.0 230.5 L 544.5 230.5 L 562.1 230.5 L 579.7 230.5 L 597.3 230.3 L 614.8 230.3 L 632.4 230.5 L 650.0 230.5" fill="none" stroke="#3fb950" stroke-width="2" opacity="0.8"/>
<circle cx="70.0" cy="139.1" r="3" fill="#3fb950"/>
<circle cx="175.5" cy="141.2" r="3" fill="#3fb950"/>
<circle cx="280.9" cy="139.1" r="3" fill="#3fb950"/>
<circle cx="386.4" cy="133.5" r="3" fill="#3fb950"/>
<circle cx="491.8" cy="225.9" r="3" fill="#3fb950"/>
<circle cx="597.3" cy="230.3" r="3" fill="#3fb950"/>
<circle cx="650.0" cy="230.5" r="4" fill="#3fb950"/>
<path d="M 70.0 217.2 L 87.6 218.7 L 105.2 218.6 L 122.7 217.2 L 140.3 217.2 L 157.9 218.8 L 175.5 218.6 L 193.0 218.8 L 210.6 201.0 L 228.2 217.2 L 245.8 218.8 L 263.3 205.2 L 280.9 217.2 L 298.5 216.9 L 316.1 212.8 L 333.6 212.8 L 351.2 212.8 L 368.8 212.8 L 386.4 212.8 L 403.9 212.8 L 421.5 212.8 L 439.1 284.0 L 456.7 284.0 L 474.2 282.4 L 491.8 282.4 L 509.4 282.4 L 527.0 283.7 L 544.5 283.7 L 562.1 283.7 L 579.7 283.7 L 597.3 283.7 L 614.8 283.7 L 632.4 283.7 L 650.0 283.7" fill="none" stroke="#238636" stroke-width="2" opacity="0.8"/>
<circle cx="70.0" cy="217.2" r="3" fill="#238636"/>
<circle cx="175.5" cy="218.6" r="3" fill="#238636"/>
<circle cx="280.9" cy="217.2" r="3" fill="#238636"/>
<circle cx="386.4" cy="212.8" r="3" fill="#238636"/>
<circle cx="491.8" cy="282.4" r="3" fill="#238636"/>
<circle cx="597.3" cy="283.7" r="3" fill="#238636"/>
<circle cx="650.0" cy="283.7" r="4" fill="#238636"/>
<path d="M 70.0 121.0 L 87.6 122.6 L 105.2 123.0 L 122.7 121.0 L 140.3 121.0 L 157.9 122.7 L 175.5 123.0 L 193.0 122.7 L 210.6 105.6 L 228.2 121.0 L 245.8 122.7 L 263.3 110.9 L 280.9 121.0 L 298.5 121.1 L 316.1 115.3 L 333.6 115.3 L 351.2 115.3 L 368.8 115.3 L 386.4 115.3 L 403.9 115.3 L 421.5 115.3 L 439.1 197.4 L 456.7 197.4 L 474.2 196.4 L 491.8 196.4 L 509.4 196.4 L 527.0 184.8 L 544.5 184.8 L 562.1 184.8 L 579.7 184.8 L 597.3 184.8 L 614.8 184.8 L 632.4 184.8 L 650.0 184.8" fill="none" stroke="#2ea043" stroke-width="2" opacity="0.8"/>
<circle cx="70.0" cy="121.0" r="3" fill="#2ea043"/>
<circle cx="175.5" cy="123.0" r="3" fill="#2ea043"/>
<circle cx="280.9" cy="121.0" r="3" fill="#2ea043"/>
<circle cx="386.4" cy="115.3" r="3" fill="#2ea043"/>
<circle cx="491.8" cy="196.4" r="3" fill="#2ea043"/>
<circle cx="597.3" cy="184.8" r="3" fill="#2ea043"/>
<circle cx="650.0" cy="184.8" r="4" fill="#2ea043"/>
<path d="M 70.0 211.5 L 87.6 213.3 L 105.2 213.7 L 122.7 211.5 L 140.3 211.5 L 157.9 213.5 L 175.5 213.7 L 193.0 213.5 L 210.6 196.5 L 228.2 211.5 L 245.8 213.5 L 263.3 200.0 L 280.9 211.5 L 298.5 211.8 L 316.1 206.4 L 333.6 206.4 L 351.2 206.4 L 368.8 206.4 L 386.4 206.4 L 403.9 206.4 L 421.5 206.4 L 439.1 293.1 L 456.7 293.1 L 474.2 292.4 L 491.8 292.4 L 509.4 292.4 L 527.0 284.1 L 544.5 284.1 L 562.1 284.1 L 579.7 284.1 L 597.3 284.1 L 614.8 284.1 L 632.4 284.1 L 650.0 284.1" fill="none" stroke="#56d364" stroke-width="2" opacity="0.8"/>
<circle cx="70.0" cy="211.5" r="3" fill="#56d364"/>
<circle cx="175.5" cy="213.7" r="3" fill="#56d364"/>
<circle cx="280.9" cy="211.5" r="3" fill="#56d364"/>
<circle cx="386.4" cy="206.4" r="3" fill="#56d364"/>
<circle cx="491.8" cy="292.4" r="3" fill="#56d364"/>
<circle cx="597.3" cy="284.1" r="3" fill="#56d364"/>
<circle cx="650.0" cy="284.1" r="4" fill="#56d364"/>
<path d="M 70.0 154.0 L 87.6 155.1 L 105.2 156.2 L 122.7 153.9 L 140.3 154.0 L 157.9 155.1 L 175.5 156.2 L 193.0 155.1 L 210.6 138.2 L 228.2 153.9 L 245.8 155.1 L 263.3 142.0 L 280.9 154.0 L 298.5 154.8 L 316.1 148.7 L 333.6 148.7 L 351.2 148.7 L 368.8 148.7 L 386.4 148.7 L 403.9 148.7 L 421.5 148.7 L 439.1 254.5 L 456.7 254.5 L 474.2 253.3 L 491.8 253.3 L 509.4 253.3 L 527.0 258.5 L 544.5 258.5 L 562.1 258.5 L 579.7 258.5 L 597.3 258.5 L 614.8 258.5 L 632.4 258.5 L 650.0 258.5" fill="none" stroke="#f78166" stroke-width="2" opacity="0.8"/>
<circle cx="70.0" cy="154.0" r="3" fill="#f78166"/>
<circle cx="175.5" cy="156.2" r="3" fill="#f78166"/>
<circle cx="280.9" cy="154.0" r="3" fill="#f78166"/>
<circle cx="386.4" cy="148.7" r="3" fill="#f78166"/>
<circle cx="491.8" cy="253.3" r="3" fill="#f78166"/>
<circle cx="597.3" cy="258.5" r="3" fill="#f78166"/>
<circle cx="650.0" cy="258.5" r="4" fill="#f78166"/>
<path d="M 70.0 167.1 L 87.6 167.9 L 105.2 169.2 L 122.7 167.1 L 140.3 167.1 L 157.9 167.9 L 175.5 169.2 L 193.0 167.9 L 210.6 149.6 L 228.2 167.1 L 245.8 167.9 L 263.3 153.3 L 280.9 167.1 L 298.5 167.3 L 316.1 162.0 L 333.6 162.0 L 351.2 162.0 L 368.8 162.0 L 386.4 162.0 L 403.9 162.0 L 421.5 162.0 L 439.1 248.7 L 456.7 248.7 L 474.2 247.8 L 491.8 247.8 L 509.4 247.8 L 527.0 240.8 L 544.5 240.8 L 562.1 240.8 L 579.7 240.8 L 597.3 240.8 L 614.8 240.8 L 632.4 240.8 L 650.0 240.8" fill="none" stroke="#ffa657" stroke-width="2" opacity="0.8"/>
<circle cx="70.0" cy="167.1" r="3" fill="#ffa657"/>
<circle cx="175.5" cy="169.2" r="3" fill="#ffa657"/>
<circle cx="280.9" cy="167.1" r="3" fill="#ffa657"/>
<circle cx="386.4" cy="162.0" r="3" fill="#ffa657"/>
<circle cx="491.8" cy="247.8" r="3" fill="#ffa657"/>
<circle cx="597.3" cy="240.8" r="3" fill="#ffa657"/>
<circle cx="650.0" cy="240.8" r="4" fill="#ffa657"/>
<text x="70.0" y="113.0" fill="#2ea043" font-family="monospace" font-size="8px" text-anchor="middle">122.6KB</text>
<text x="70.0" y="131.1" fill="#3fb950" font-family="monospace" font-size="8px" text-anchor="middle">119.1KB</text>
<text x="70.0" y="149.1" fill="#f78166" font-family="monospace" font-size="8px" text-anchor="middle">116.3KB</text>
<text x="70.0" y="167.1" fill="#1f6feb" font-family="monospace" font-size="8px" text-anchor="middle">115.8KB</text>
<text x="70.0" y="185.1" fill="#58a6ff" font-family="monospace" font-size="8px" text-anchor="middle">115.8KB</text>
<text x="70.0" y="203.1" fill="#ffa657" font-family="monospace" font-size="8px" text-anchor="middle">113.7KB</text>
<text x="70.0" y="221.1" fill="#388bfd" font-family="monospace" font-size="8px" text-anchor="middle">112.8KB</text>
<text x="70.0" y="239.1" fill="#56d364" font-family="monospace" font-size="8px" text-anchor="middle">105.2KB</text>
<text x="70.0" y="257.1" fill="#238636" font-family="monospace" font-size="8px" text-anchor="middle">104.2KB</text>
<text x="175.5" y="115.0" fill="#2ea043" font-family="monospace" font-size="8px" text-anchor="middle">122.2KB</text>
<text x="175.5" y="133.2" fill="#3fb950" font-family="monospace" font-size="8px" text-anchor="middle">118.7KB</text>
<text x="175.5" y="151.2" fill="#f78166" font-family="monospace" font-size="8px" text-anchor="middle">115.8KB</text>
<text x="175.5" y="169.2" fill="#58a6ff" font-family="monospace" font-size="8px" text-anchor="middle">115.5KB</text>
<text x="175.5" y="187.2" fill="#1f6feb" font-family="monospace" font-size="8px" text-anchor="middle">115.4KB</text>
<text x="175.5" y="205.2" fill="#ffa657" font-family="monospace" font-size="8px" text-anchor="middle">113.4KB</text>
<text x="175.5" y="223.2" fill="#388bfd" font-family="monospace" font-size="8px" text-anchor="middle">112.4KB</text>
<text x="175.5" y="241.2" fill="#56d364" font-family="monospace" font-size="8px" text-anchor="middle">104.8KB</text>
<text x="175.5" y="259.2" fill="#238636" font-family="monospace" font-size="8px" text-anchor="middle">103.9KB</text>
<text x="280.9" y="113.0" fill="#2ea043" font-family="monospace" font-size="8px" text-anchor="middle">122.6KB</text>
<text x="280.9" y="131.1" fill="#3fb950" font-family="monospace" font-size="8px" text-anchor="middle">119.1KB</text>
<text x="280.9" y="149.1" fill="#f78166" font-family="monospace" font-size="8px" text-anchor="middle">116.3KB</text>
<text x="280.9" y="167.1" fill="#1f6feb" font-family="monospace" font-size="8px" text-anchor="middle">115.8KB</text>
<text x="280.9" y="185.1" fill="#58a6ff" font-family="monospace" font-size="8px" text-anchor="middle">115.8KB</text>
<text x="280.9" y="203.1" fill="#ffa657" font-family="monospace" font-size="8px" text-anchor="middle">113.7KB</text>
<text x="280.9" y="221.1" fill="#388bfd" font-family="monospace" font-size="8px" text-anchor="middle">112.8KB</text>
<text x="280.9" y="239.1" fill="#56d364" font-family="monospace" font-size="8px" text-anchor="middle">105.2KB</text>
<text x="280.9" y="257.1" fill="#238636" font-family="monospace" font-size="8px" text-anchor="middle">104.2KB</text>
<text x="386.4" y="107.3" fill="#2ea043" font-family="monospace" font-size="8px" text-anchor="middle">123.7KB</text>
<text x="386.4" y="125.5" fill="#3fb950" font-family="monospace" font-size="8px" text-anchor="middle">120.2KB</text>
<text x="386.4" y="143.5" fill="#f78166" font-family="monospace" font-size="8px" text-anchor="middle">117.3KB</text>
<text x="386.4" y="161.5" fill="#1f6feb" font-family="monospace" font-size="8px" text-anchor="middle">116.9KB</text>
<text x="386.4" y="179.5" fill="#58a6ff" font-family="monospace" font-size="8px" text-anchor="middle">116.9KB</text>
<text x="386.4" y="197.5" fill="#ffa657" font-family="monospace" font-size="8px" text-anchor="middle">114.7KB</text>
<text x="386.4" y="215.5" fill="#388bfd" font-family="monospace" font-size="8px" text-anchor="middle">113.8KB</text>
<text x="386.4" y="233.5" fill="#56d364" font-family="monospace" font-size="8px" text-anchor="middle">106.2KB</text>
<text x="386.4" y="251.5" fill="#238636" font-family="monospace" font-size="8px" text-anchor="middle">105.0KB</text>
<text x="491.8" y="188.4" fill="#2ea043" font-family="monospace" font-size="8px" text-anchor="middle">108.1KB</text>
<text x="491.8" y="212.8" fill="#58a6ff" font-family="monospace" font-size="8px" text-anchor="middle">103.5KB</text>
<text x="491.8" y="230.8" fill="#3fb950" font-family="monospace" font-size="8px" text-anchor="middle">102.5KB</text>
<text x="491.8" y="248.8" fill="#ffa657" font-family="monospace" font-size="8px" text-anchor="middle">98.3KB</text>
<text x="491.8" y="266.8" fill="#f78166" font-family="monospace" font-size="8px" text-anchor="middle">97.3KB</text>
<text x="491.8" y="284.8" fill="#388bfd" font-family="monospace" font-size="8px" text-anchor="middle">97.2KB</text>
<text x="491.8" y="302.8" fill="#1f6feb" font-family="monospace" font-size="8px" text-anchor="middle">96.7KB</text>
<text x="491.8" y="320.8" fill="#238636" font-family="monospace" font-size="8px" text-anchor="middle">91.7KB</text>
<text x="491.8" y="338.8" fill="#56d364" font-family="monospace" font-size="8px" text-anchor="middle">89.8KB</text>
<text x="597.3" y="176.8" fill="#2ea043" font-family="monospace" font-size="8px" text-anchor="middle">110.4KB</text>
<text x="597.3" y="194.8" fill="#58a6ff" font-family="monospace" font-size="8px" text-anchor="middle">107.0KB</text>
<text x="597.3" y="222.3" fill="#3fb950" font-family="monospace" font-size="8px" text-anchor="middle">101.7KB</text>
<text x="597.3" y="240.3" fill="#ffa657" font-family="monospace" font-size="8px" text-anchor="middle">99.7KB</text>
<text x="597.3" y="258.3" fill="#388bfd" font-family="monospace" font-size="8px" text-anchor="middle">99.4KB</text>
<text x="597.3" y="276.3" fill="#1f6feb" font-family="monospace" font-size="8px" text-anchor="middle">96.9KB</text>
<text x="597.3" y="294.3" fill="#f78166" font-family="monospace" font-size="8px" text-anchor="middle">96.3KB</text>
<text x="597.3" y="312.3" fill="#238636" font-family="monospace" font-size="8px" text-anchor="middle">91.5KB</text>
<text x="597.3" y="330.3" fill="#56d364" font-family="monospace" font-size="8px" text-anchor="middle">91.4KB</text>
<text x="650.0" y="176.8" fill="#2ea043" font-family="monospace" font-size="8px" text-anchor="middle">110.4KB</text>
<text x="650.0" y="194.8" fill="#58a6ff" font-family="monospace" font-size="8px" text-anchor="middle">107.0KB</text>
<text x="650.0" y="222.5" fill="#3fb950" font-family="monospace" font-size="8px" text-anchor="middle">101.6KB</text>
<text x="650.0" y="240.5" fill="#ffa657" font-family="monospace" font-size="8px" text-anchor="middle">99.7KB</text>
<text x="650.0" y="258.5" fill="#388bfd" font-family="monospace" font-size="8px" text-anchor="middle">99.4KB</text>
<text x="650.0" y="276.5" fill="#1f6feb" font-family="monospace" font-size="8px" text-anchor="middle">96.9KB</text>
<text x="650.0" y="294.5" fill="#f78166" font-family="monospace" font-size="8px" text-anchor="middle">96.3KB</text>
<text x="650.0" y="312.5" fill="#238636" font-family="monospace" font-size="8px" text-anchor="middle">91.5KB</text>
<text x="650.0" y="330.5" fill="#56d364" font-family="monospace" font-size="8px" text-anchor="middle">91.4KB</text>
<rect x="665" y="44" width="12" height="12" fill="#58a6ff"/>
<text x="683" y="54" class="legend">Win i386</text>
<rect x="665" y="62" width="12" height="12" fill="#1f6feb"/>
<text x="683" y="72" class="legend">Win x64</text>
<rect x="665" y="80" width="12" height="12" fill="#388bfd"/>
<text x="683" y="90" class="legend">Win ARM64</text>
<rect x="665" y="98" width="12" height="12" fill="#3fb950"/>
<text x="683" y="108" class="legend">Linux i386</text>
<rect x="665" y="116" width="12" height="12" fill="#238636"/>
<text x="683" y="126" class="legend">Linux x64</text>
<rect x="665" y="134" width="12" height="12" fill="#2ea043"/>
<text x="683" y="144" class="legend">Linux ARM</text>
<rect x="665" y="152" width="12" height="12" fill="#56d364"/>
<text x="683" y="162" class="legend">Linux ARM64</text>
<rect x="665" y="170" width="12" height="12" fill="#f78166"/>
<text x="683" y="180" class="legend">UEFI x64</text>
<rect x="665" y="188" width="12" height="12" fill="#ffa657"/>
<text x="683" y="198" class="legend">UEFI ARM64</text>
</svg>