<svg xmlns="http://www.w3.org/2000/svg" width="800" height="400">
<defs>
<style>
.axis-text { fill: #8b949e; font-family: monospace; font-size: 11px; }
.title { fill: #c9d1d9; font-family: monospace; font-size: 14px; font-weight: bold; }
.legend { fill: #8b949e; font-family: monospace; font-size: 10px; }
.grid { stroke: #21262d; stroke-width: 1; }
</style>
</defs>
<rect width="800" height="400" fill="#0d1117"/>
<text x="400.0" y="25" class="title" text-anchor="middle">Binary Size Trend (.bin)</text>
<line x1="70" y1="40.0" x2="650" y2="40.0" class="grid"/>
<text x="60" y="44.0" class="axis-text" text-anchor="end">138KB</text>
<line x1="70" y1="100.0" x2="650" y2="100.0" class="grid"/>
<text x="60" y="104.0" class="axis-text" text-anchor="end">127KB</text>
<line x1="70" y1="160.0" x2="650" y2="160.0" class="grid"/>
<text x="60" y="164.0" class="axis-text" text-anchor="end">115KB</text>
<line x1="70" y1="220.0" x2="650" y2="220.0" class="grid"/>
<text x="60" y="224.0" class="axis-text" text-anchor="end">104KB</text>
<line x1="70" y1="280.0" x2="650" y2="280.0" class="grid"/>
<text x="60" y="284.0" class="axis-text" text-anchor="end">92KB</text>
<line x1="70" y1="340.0" x2="650" y2="340.0" class="grid"/>
<text x="60" y="344.0" class="axis-text" text-anchor="end">81KB</text>
<text x="70.0" y="360" class="axis-text" text-anchor="middle">02-05</text>
<text x="160.625" y="360" class="axis-text" text-anchor="middle">02-05</text>
<text x="251.25" y="360" class="axis-text" text-anchor="middle">02-05</text>
<text x="341.875" y="360" class="axis-text" text-anchor="middle">02-06</text>
<text x="432.5" y="360" class="axis-text" text-anchor="middle">02-09</text>
<text x="523.125" y="360" class="axis-text" text-anchor="middle">02-12</text>
<text x="613.75" y="360" class="axis-text" text-anchor="middle">02-24</text>
<path d="M 70.0 156.4 L 88.1 157.0 L 106.2 158.2 L 124.4 156.3 L 142.5 156.4 L 160.6 157.1 L 178.8 158.2 L 196.9 157.1 L 215.0 140.0 L 233.1 156.3 L 251.2 157.1 L 269.4 144.9 L 287.5 156.4 L 305.6 156.0 L 323.8 150.7 L 341.9 150.7 L 360.0 150.7 L 378.1 150.7 L 396.2 150.7 L 414.4 151.0 L 432.5 151.0 L 450.6 221.7 L 468.8 221.7 L 486.9 220.8 L 505.0 220.8 L 523.1 220.8 L 541.2 207.0 L 559.4 202.6 L 577.5 202.6 L 595.6 203.2 L 613.8 202.3 L 631.9 202.6 L 650.0 202.6" fill="none" stroke="#58a6ff" stroke-width="2" opacity="0.8"/>
<circle cx="70.0" cy="156.4" r="3" fill="#58a6ff"/>
<circle cx="178.8" cy="158.2" r="3" fill="#58a6ff"/>
<circle cx="287.5" cy="156.4" r="3" fill="#58a6ff"/>
<circle cx="396.2" cy="150.7" r="3" fill="#58a6ff"/>
<circle cx="505.0" cy="220.8" r="3" fill="#58a6ff"/>
<circle cx="613.8" cy="202.3" r="3" fill="#58a6ff"/>
<circle cx="650.0" cy="202.6" r="4" fill="#58a6ff"/>
<path d="M 70.0 156.4 L 88.1 157.4 L 106.2 158.6 L 124.4 156.4 L 142.5 156.4 L 160.6 157.5 L 178.8 158.6 L 196.9 157.5 L 215.0 140.2 L 233.1 156.4 L 251.2 157.5 L 269.4 144.0 L 287.5 156.4 L 305.6 157.2 L 323.8 150.7 L 341.9 150.7 L 360.0 150.7 L 378.1 150.7 L 396.2 150.7 L 414.4 151.0 L 432.5 151.0 L 450.6 257.4 L 468.8 257.4 L 486.9 256.2 L 505.0 256.2 L 523.1 256.2 L 541.2 258.3 L 559.4 255.4 L 577.5 255.4 L 595.6 255.9 L 613.8 255.4 L 631.9 255.4 L 650.0 255.4" fill="none" stroke="#1f6feb" stroke-width="2" opacity="0.8"/>
<circle cx="70.0" cy="156.4" r="3" fill="#1f6feb"/>
<circle cx="178.8" cy="158.6" r="3" fill="#1f6feb"/>
<circle cx="287.5" cy="156.4" r="3" fill="#1f6feb"/>
<circle cx="396.2" cy="150.7" r="3" fill="#1f6feb"/>
<circle cx="505.0" cy="256.2" r="3" fill="#1f6feb"/>
<circle cx="613.8" cy="255.4" r="3" fill="#1f6feb"/>
<circle cx="650.0" cy="255.4" r="4" fill="#1f6feb"/>
<path d="M 70.0 172.1 L 88.1 172.7 L 106.2 174.2 L 124.4 172.1 L 142.5 172.1 L 160.6 172.9 L 178.8 174.2 L 196.9 172.9 L 215.0 154.7 L 233.1 172.1 L 251.2 172.9 L 269.4 158.4 L 287.5 172.1 L 305.6 172.3 L 323.8 166.9 L 341.9 166.9 L 360.0 166.9 L 378.1 166.9 L 396.2 166.9 L 414.4 167.1 L 432.5 167.1 L 450.6 254.5 L 468.8 254.5 L 486.9 253.7 L 505.0 253.7 L 523.1 253.7 L 541.2 243.7 L 559.4 242.4 L 577.5 242.4 L 595.6 242.6 L 613.8 242.4 L 631.9 242.4 L 650.0 242.4" fill="none" stroke="#388bfd" stroke-width="2" opacity="0.8"/>
<circle cx="70.0" cy="172.1" r="3" fill="#388bfd"/>
<circle cx="178.8" cy="174.2" r="3" fill="#388bfd"/>
<circle cx="287.5" cy="172.1" r="3" fill="#388bfd"/>
<circle cx="396.2" cy="166.9" r="3" fill="#388bfd"/>
<circle cx="505.0" cy="253.7" r="3" fill="#388bfd"/>
<circle cx="613.8" cy="242.4" r="3" fill="#388bfd"/>
<circle cx="650.0" cy="242.4" r="4" fill="#388bfd"/>
<path d="M 70.0 139.1 L 88.1 140.5 L 106.2 141.2 L 124.4 139.1 L 142.5 139.1 L 160.6 140.7 L 178.8 141.2 L 196.9 140.7 L 215.0 124.1 L 233.1 139.1 L 251.2 140.7 L 269.4 127.5 L 287.5 139.1 L 305.6 139.0 L 323.8 133.5 L 341.9 133.5 L 360.0 133.5 L 378.1 133.5 L 396.2 133.5 L 414.4 133.5 L 432.5 133.5 L 450.6 227.2 L 468.8 227.2 L 486.9 225.9 L 505.0 225.9 L 523.1 225.9 L 541.2 230.5 L 559.4 230.5 L 577.5 230.5 L 595.6 230.5 L 613.8 230.3 L 631.9 230.5 L 650.0 230.5" fill="none" stroke="#3fb950" stroke-width="2" opacity="0.8"/>
<circle cx="70.0" cy="139.1" r="3" fill="#3fb950"/>
<circle cx="178.8" cy="141.2" r="3" fill="#3fb950"/>
<circle cx="287.5" cy="139.1" r="3" fill="#3fb950"/>
<circle cx="396.2" cy="133.5" r="3" fill="#3fb950"/>
<circle cx="505.0" cy="225.9" r="3" fill="#3fb950"/>
<circle cx="613.8" cy="230.3" r="3" fill="#3fb950"/>
<circle cx="650.0" cy="230.5" r="4" fill="#3fb950"/>
<path d="M 70.0 217.2 L 88.1 218.7 L 106.2 218.6 L 124.4 217.2 L 142.5 217.2 L 160.6 218.8 L 178.8 218.6 L 196.9 218.8 L 215.0 201.0 L 233.1 217.2 L 251.2 218.8 L 269.4 205.2 L 287.5 217.2 L 305.6 216.9 L 323.8 212.8 L 341.9 212.8 L 360.0 212.8 L 378.1 212.8 L 396.2 212.8 L 414.4 212.8 L 432.5 212.8 L 450.6 284.0 L 468.8 284.0 L 486.9 282.4 L 505.0 282.4 L 523.1 282.4 L 541.2 283.7 L 559.4 283.7 L 577.5 283.7 L 595.6 283.7 L 613.8 283.7 L 631.9 283.7 L 650.0 283.7" fill="none" stroke="#238636" stroke-width="2" opacity="0.8"/>
<circle cx="70.0" cy="217.2" r="3" fill="#238636"/>
<circle cx="178.8" cy="218.6" r="3" fill="#238636"/>
<circle cx="287.5" cy="217.2" r="3" fill="#238636"/>
<circle cx="396.2" cy="212.8" r="3" fill="#238636"/>
<circle cx="505.0" cy="282.4" r="3" fill="#238636"/>
<circle cx="613.8" cy="283.7" r="3" fill="#238636"/>
<circle cx="650.0" cy="283.7" r="4" fill="#238636"/>
<path d="M 70.0 121.0 L 88.1 122.6 L 106.2 123.0 L 124.4 121.0 L 142.5 121.0 L 160.6 122.7 L 178.8 123.0 L 196.9 122.7 L 215.0 105.6 L 233.1 121.0 L 251.2 122.7 L 269.4 110.9 L 287.5 121.0 L 305.6 121.1 L 323.8 115.3 L 341.9 115.3 L 360.0 115.3 L 378.1 115.3 L 396.2 115.3 L 414.4 115.3 L 432.5 115.3 L 450.6 197.4 L 468.8 197.4 L 486.9 196.4 L 505.0 196.4 L 523.1 196.4 L 541.2 184.8 L 559.4 184.8 L 577.5 184.8 L 595.6 184.8 L 613.8 184.8 L 631.9 184.8 L 650.0 184.8" fill="none" stroke="#2ea043" stroke-width="2" opacity="0.8"/>
<circle cx="70.0" cy="121.0" r="3" fill="#2ea043"/>
<circle cx="178.8" cy="123.0" r="3" fill="#2ea043"/>
<circle cx="287.5" cy="121.0" r="3" fill="#2ea043"/>
<circle cx="396.2" cy="115.3" r="3" fill="#2ea043"/>
<circle cx="505.0" cy="196.4" r="3" fill="#2ea043"/>
<circle cx="613.8" cy="184.8" r="3" fill="#2ea043"/>
<circle cx="650.0" cy="184.8" r="4" fill="#2ea043"/>
<path d="M 70.0 211.5 L 88.1 213.3 L 106.2 213.7 L 124.4 211.5 L 142.5 211.5 L 160.6 213.5 L 178.8 213.7 L 196.9 213.5 L 215.0 196.5 L 233.1 211.5 L 251.2 213.5 L 269.4 200.0 L 287.5 211.5 L 305.6 211.8 L 323.8 206.4 L 341.9 206.4 L 360.0 206.4 L 378.1 206.4 L 396.2 206.4 L 414.4 206.4 L 432.5 206.4 L 450.6 293.1 L 468.8 293.1 L 486.9 292.4 L 505.0 292.4 L 523.1 292.4 L 541.2 284.1 L 559.4 284.1 L 577.5 284.1 L 595.6 284.1 L 613.8 284.1 L 631.9 284.1 L 650.0 284.1" fill="none" stroke="#56d364" stroke-width="2" opacity="0.8"/>
<circle cx="70.0" cy="211.5" r="3" fill="#56d364"/>
<circle cx="178.8" cy="213.7" r="3" fill="#56d364"/>
<circle cx="287.5" cy="211.5" r="3" fill="#56d364"/>
<circle cx="396.2" cy="206.4" r="3" fill="#56d364"/>
<circle cx="505.0" cy="292.4" r="3" fill="#56d364"/>
<circle cx="613.8" cy="284.1" r="3" fill="#56d364"/>
<circle cx="650.0" cy="284.1" r="4" fill="#56d364"/>
<path d="M 70.0 154.0 L 88.1 155.1 L 106.2 156.2 L 124.4 153.9 L 142.5 154.0 L 160.6 155.1 L 178.8 156.2 L 196.9 155.1 L 215.0 138.2 L 233.1 153.9 L 251.2 155.1 L 269.4 142.0 L 287.5 154.0 L 305.6 154.8 L 323.8 148.7 L 341.9 148.7 L 360.0 148.7 L 378.1 148.7 L 396.2 148.7 L 414.4 148.7 L 432.5 148.7 L 450.6 254.5 L 468.8 254.5 L 486.9 253.3 L 505.0 253.3 L 523.1 253.3 L 541.2 258.5 L 559.4 258.5 L 577.5 258.5 L 595.6 258.5 L 613.8 258.5 L 631.9 258.5 L 650.0 258.5" fill="none" stroke="#f78166" stroke-width="2" opacity="0.8"/>
<circle cx="70.0" cy="154.0" r="3" fill="#f78166"/>
<circle cx="178.8" cy="156.2" r="3" fill="#f78166"/>
<circle cx="287.5" cy="154.0" r="3" fill="#f78166"/>
<circle cx="396.2" cy="148.7" r="3" fill="#f78166"/>
<circle cx="505.0" cy="253.3" r="3" fill="#f78166"/>
<circle cx="613.8" cy="258.5" r="3" fill="#f78166"/>
<circle cx="650.0" cy="258.5" r="4" fill="#f78166"/>
<path d="M 70.0 167.1 L 88.1 167.9 L 106.2 169.2 L 124.4 167.1 L 142.5 167.1 L 160.6 167.9 L 178.8 169.2 L 196.9 167.9 L 215.0 149.6 L 233.1 167.1 L 251.2 167.9 L 269.4 153.3 L 287.5 167.1 L 305.6 167.3 L 323.8 162.0 L 341.9 162.0 L 360.0 162.0 L 378.1 162.0 L 396.2 162.0 L 414.4 162.0 L 432.5 162.0 L 450.6 248.7 L 468.8 248.7 L 486.9 247.8 L 505.0 247.8 L 523.1 247.8 L 541.2 240.8 L 559.4 240.8 L 577.5 240.8 L 595.6 240.8 L 613.8 240.8 L 631.9 240.8 L 650.0 240.8" fill="none" stroke="#ffa657" stroke-width="2" opacity="0.8"/>
<circle cx="70.0" cy="167.1" r="3" fill="#ffa657"/>
<circle cx="178.8" cy="169.2" r="3" fill="#ffa657"/>
<circle cx="287.5" cy="167.1" r="3" fill="#ffa657"/>
<circle cx="396.2" cy="162.0" r="3" fill="#ffa657"/>
<circle cx="505.0" cy="247.8" r="3" fill="#ffa657"/>
<circle cx="613.8" cy="240.8" r="3" fill="#ffa657"/>
<circle cx="650.0" cy="240.8" r="4" fill="#ffa657"/>
<text x="70.0" y="113.0" fill="#2ea043" font-family="monospace" font-size="8px" text-anchor="middle">122.6KB</text>
<text x="70.0" y="131.1" fill="#3fb950" font-family="monospace" font-size="8px" text-anchor="middle">119.1KB</text>
<text x="70.0" y="149.1" fill="#f78166" font-family="monospace" font-size="8px" text-anchor="middle">116.3KB</text>
<text x="70.0" y="167.1" fill="#1f6feb" font-family="monospace" font-size="8px" text-anchor="middle">115.8KB</text>
<text x="70.0" y="185.1" fill="#58a6ff" font-family="monospace" font-size="8px" text-anchor="middle">115.8KB</text>
<text x="70.0" y="203.1" fill="#ffa657" font-family="monospace" font-size="8px" text-anchor="middle">113.7KB</text>
<text x="70.0" y="221.1" fill="#388bfd" font-family="monospace" font-size="8px" text-anchor="middle">112.8KB</text>
<text x="70.0" y="239.1" fill="#56d364" font-family="monospace" font-size="8px" text-anchor="middle">105.2KB</text>
<text x="70.0" y="257.1" fill="#238636" font-family="monospace" font-size="8px" text-anchor="middle">104.2KB</text>
<text x="178.8" y="115.0" fill="#2ea043" font-family="monospace" font-size="8px" text-anchor="middle">122.2KB</text>
<text x="178.8" y="133.2" fill="#3fb950" font-family="monospace" font-size="8px" text-anchor="middle">118.7KB</text>
<text x="178.8" y="151.2" fill="#f78166" font-family="monospace" font-size="8px" text-anchor="middle">115.8KB</text>
<text x="178.8" y="169.2" fill="#58a6ff" font-family="monospace" font-size="8px" text-anchor="middle">115.5KB</text>
<text x="178.8" y="187.2" fill="#1f6feb" font-family="monospace" font-size="8px" text-anchor="middle">115.4KB</text>
<text x="178.8" y="205.2" fill="#ffa657" font-family="monospace" font-size="8px" text-anchor="middle">113.4KB</text>
<text x="178.8" y="223.2" fill="#388bfd" font-family="monospace" font-size="8px" text-anchor="middle">112.4KB</text>
<text x="178.8" y="241.2" fill="#56d364" font-family="monospace" font-size="8px" text-anchor="middle">104.8KB</text>
<text x="178.8" y="259.2" fill="#238636" font-family="monospace" font-size="8px" text-anchor="middle">103.9KB</text>
<text x="287.5" y="113.0" fill="#2ea043" font-family="monospace" font-size="8px" text-anchor="middle">122.6KB</text>
<text x="287.5" y="131.1" fill="#3fb950" font-family="monospace" font-size="8px" text-anchor="middle">119.1KB</text>
<text x="287.5" y="149.1" fill="#f78166" font-family="monospace" font-size="8px" text-anchor="middle">116.3KB</text>
<text x="287.5" y="167.1" fill="#1f6feb" font-family="monospace" font-size="8px" text-anchor="middle">115.8KB</text>
<text x="287.5" y="185.1" fill="#58a6ff" font-family="monospace" font-size="8px" text-anchor="middle">115.8KB</text>
<text x="287.5" y="203.1" fill="#ffa657" font-family="monospace" font-size="8px" text-anchor="middle">113.7KB</text>
<text x="287.5" y="221.1" fill="#388bfd" font-family="monospace" font-size="8px" text-anchor="middle">112.8KB</text>
<text x="287.5" y="239.1" fill="#56d364" font-family="monospace" font-size="8px" text-anchor="middle">105.2KB</text>
<text x="287.5" y="257.1" fill="#238636" font-family="monospace" font-size="8px" text-anchor="middle">104.2KB</text>
<text x="396.2" y="107.3" fill="#2ea043" font-family="monospace" font-size="8px" text-anchor="middle">123.7KB</text>
<text x="396.2" y="125.5" fill="#3fb950" font-family="monospace" font-size="8px" text-anchor="middle">120.2KB</text>
<text x="396.2" y="143.5" fill="#f78166" font-family="monospace" font-size="8px" text-anchor="middle">117.3KB</text>
<text x="396.2" y="161.5" fill="#1f6feb" font-family="monospace" font-size="8px" text-anchor="middle">116.9KB</text>
<text x="396.2" y="179.5" fill="#58a6ff" font-family="monospace" font-size="8px" text-anchor="middle">116.9KB</text>
<text x="396.2" y="197.5" fill="#ffa657" font-family="monospace" font-size="8px" text-anchor="middle">114.7KB</text>
<text x="396.2" y="215.5" fill="#388bfd" font-family="monospace" font-size="8px" text-anchor="middle">113.8KB</text>
<text x="396.2" y="233.5" fill="#56d364" font-family="monospace" font-size="8px" text-anchor="middle">106.2KB</text>
<text x="396.2" y="251.5" fill="#238636" font-family="monospace" font-size="8px" text-anchor="middle">105.0KB</text>
<text x="505.0" y="188.4" fill="#2ea043" font-family="monospace" font-size="8px" text-anchor="middle">108.1KB</text>
<text x="505.0" y="212.8" fill="#58a6ff" font-family="monospace" font-size="8px" text-anchor="middle">103.5KB</text>
<text x="505.0" y="230.8" fill="#3fb950" font-family="monospace" font-size="8px" text-anchor="middle">102.5KB</text>
<text x="505.0" y="248.8" fill="#ffa657" font-family="monospace" font-size="8px" text-anchor="middle">98.3KB</text>
<text x="505.0" y="266.8" fill="#f78166" font-family="monospace" font-size="8px" text-anchor="middle">97.3KB</text>
<text x="505.0" y="284.8" fill="#388bfd" font-family="monospace" font-size="8px" text-anchor="middle">97.2KB</text>
<text x="505.0" y="302.8" fill="#1f6feb" font-family="monospace" font-size="8px" text-anchor="middle">96.7KB</text>
<text x="505.0" y="320.8" fill="#238636" font-family="monospace" font-size="8px" text-anchor="middle">91.7KB</text>
<text x="505.0" y="338.8" fill="#56d364" font-family="monospace" font-size="8px" text-anchor="middle">89.8KB</text>
<text x="613.8" y="176.8" fill="#2ea043" font-family="monospace" font-size="8px" text-anchor="middle">110.4KB</text>
<text x="613.8" y="194.8" fill="#58a6ff" font-family="monospace" font-size="8px" text-anchor="middle">107.0KB</text>
<text x="613.8" y="222.3" fill="#3fb950" font-family="monospace" font-size="8px" text-anchor="middle">101.7KB</text>
<text x="613.8" y="240.3" fill="#ffa657" font-family="monospace" font-size="8px" text-anchor="middle">99.7KB</text>
<text x="613.8" y="258.3" fill="#388bfd" font-family="monospace" font-size="8px" text-anchor="middle">99.4KB</text>
<text x="613.8" y="276.3" fill="#1f6feb" font-family="monospace" font-size="8px" text-anchor="middle">96.9KB</text>
<text x="613.8" y="294.3" fill="#f78166" font-family="monospace" font-size="8px" text-anchor="middle">96.3KB</text>
<text x="613.8" y="312.3" fill="#238636" font-family="monospace" font-size="8px" text-anchor="middle">91.5KB</text>
<text x="613.8" y="330.3" fill="#56d364" font-family="monospace" font-size="8px" text-anchor="middle">91.4KB</text>
<text x="650.0" y="204.3" fill="#2ea043" font-family="monospace" font-size="8px" text-anchor="middle">110.4KB</text>
<text x="650.0" y="348.3" fill="#58a6ff" font-family="monospace" font-size="8px" text-anchor="middle">107.0KB</text>
<text x="650.0" y="366.3" fill="#3fb950" font-family="monospace" font-size="8px" text-anchor="middle">101.6KB</text>
<text x="650.0" y="384.3" fill="#ffa657" font-family="monospace" font-size="8px" text-anchor="middle">99.7KB</text>
<text x="650.0" y="402.3" fill="#388bfd" font-family="monospace" font-size="8px" text-anchor="middle">99.4KB</text>
<text x="650.0" y="420.3" fill="#1f6feb" font-family="monospace" font-size="8px" text-anchor="middle">96.9KB</text>
<text x="650.0" y="438.3" fill="#f78166" font-family="monospace" font-size="8px" text-anchor="middle">96.3KB</text>
<text x="650.0" y="456.3" fill="#238636" font-family="monospace" font-size="8px" text-anchor="middle">91.5KB</text>
<text x="650.0" y="474.3" fill="#56d364" font-family="monospace" font-size="8px" text-anchor="middle">91.4KB</text>
<rect x="665" y="44" width="12" height="12" fill="#58a6ff"/>
<text x="683" y="54" class="legend">Win i386</text>
<rect x="665" y="62" width="12" height="12" fill="#1f6feb"/>
<text x="683" y="72" class="legend">Win x64</text>
<rect x="665" y="80" width="12" height="12" fill="#388bfd"/>
<text x="683" y="90" class="legend">Win ARM64</text>
<rect x="665" y="98" width="12" height="12" fill="#3fb950"/>
<text x="683" y="108" class="legend">Linux i386</text>
<rect x="665" y="116" width="12" height="12" fill="#238636"/>
<text x="683" y="126" class="legend">Linux x64</text>
<rect x="665" y="134" width="12" height="12" fill="#2ea043"/>
<text x="683" y="144" class="legend">Linux ARM</text>
<rect x="665" y="152" width="12" height="12" fill="#56d364"/>
<text x="683" y="162" class="legend">Linux ARM64</text>
<rect x="665" y="170" width="12" height="12" fill="#f78166"/>
<text x="683" y="180" class="legend">UEFI x64</text>
<rect x="665" y="188" width="12" height="12" fill="#ffa657"/>
<text x="683" y="198" class="legend">UEFI ARM64</text>
</svg>