<svg xmlns="http://www.w3.org/2000/svg" width="800" height="400">
<defs>
<style>
.axis-text { fill: #8b949e; font-family: monospace; font-size: 11px; }
.title { fill: #c9d1d9; font-family: monospace; font-size: 14px; font-weight: bold; }
.legend { fill: #8b949e; font-family: monospace; font-size: 10px; }
.grid { stroke: #21262d; stroke-width: 1; }
</style>
</defs>
<rect width="800" height="400" fill="#0d1117"/>
<text x="400.0" y="25" class="title" text-anchor="middle">Binary Size Trend (.bin)</text>
<line x1="70" y1="40.0" x2="650" y2="40.0" class="grid"/>
<text x="60" y="44.0" class="axis-text" text-anchor="end">138KB</text>
<line x1="70" y1="100.0" x2="650" y2="100.0" class="grid"/>
<text x="60" y="104.0" class="axis-text" text-anchor="end">127KB</text>
<line x1="70" y1="160.0" x2="650" y2="160.0" class="grid"/>
<text x="60" y="164.0" class="axis-text" text-anchor="end">115KB</text>
<line x1="70" y1="220.0" x2="650" y2="220.0" class="grid"/>
<text x="60" y="224.0" class="axis-text" text-anchor="end">104KB</text>
<line x1="70" y1="280.0" x2="650" y2="280.0" class="grid"/>
<text x="60" y="284.0" class="axis-text" text-anchor="end">92KB</text>
<line x1="70" y1="340.0" x2="650" y2="340.0" class="grid"/>
<text x="60" y="344.0" class="axis-text" text-anchor="end">81KB</text>
<text x="70.0" y="360" class="axis-text" text-anchor="middle">02-05</text>
<text x="166.66666666666666" y="360" class="axis-text" text-anchor="middle">02-05</text>
<text x="263.3333333333333" y="360" class="axis-text" text-anchor="middle">02-06</text>
<text x="360.0" y="360" class="axis-text" text-anchor="middle">02-10</text>
<text x="456.66666666666663" y="360" class="axis-text" text-anchor="middle">02-23</text>
<text x="553.3333333333334" y="360" class="axis-text" text-anchor="middle">02-24</text>
<text x="650.0" y="360" class="axis-text" text-anchor="middle">02-24</text>
<path d="M 70.0 156.4 L 83.8 157.0 L 97.6 158.2 L 111.4 156.3 L 125.2 156.4 L 139.0 157.1 L 152.9 158.2 L 166.7 157.1 L 180.5 140.0 L 194.3 156.3 L 208.1 157.1 L 221.9 144.9 L 235.7 156.4 L 249.5 156.0 L 263.3 150.7 L 277.1 150.7 L 291.0 150.7 L 304.8 150.7 L 318.6 150.7 L 332.4 151.0 L 346.2 151.0 L 360.0 221.7 L 373.8 221.7 L 387.6 220.8 L 401.4 220.8 L 415.2 220.8 L 429.0 207.0 L 442.9 202.6 L 456.7 202.6 L 470.5 203.2 L 484.3 204.0 L 498.1 202.3 L 511.9 202.3 L 525.7 199.7 L 539.5 202.3 L 553.3 201.3 L 567.1 202.3 L 581.0 202.6 L 594.8 202.6 L 608.6 202.3 L 622.4 200.6 L 636.2 201.8 L 650.0 202.6" fill="none" stroke="#58a6ff" stroke-width="2" opacity="0.8"/>
<circle cx="70.0" cy="156.4" r="3" fill="#58a6ff"/>
<circle cx="180.5" cy="140.0" r="3" fill="#58a6ff"/>
<circle cx="291.0" cy="150.7" r="3" fill="#58a6ff"/>
<circle cx="401.4" cy="220.8" r="3" fill="#58a6ff"/>
<circle cx="511.9" cy="202.3" r="3" fill="#58a6ff"/>
<circle cx="622.4" cy="200.6" r="3" fill="#58a6ff"/>
<circle cx="650.0" cy="202.6" r="4" fill="#58a6ff"/>
<path d="M 70.0 156.4 L 83.8 157.4 L 97.6 158.6 L 111.4 156.4 L 125.2 156.4 L 139.0 157.5 L 152.9 158.6 L 166.7 157.5 L 180.5 140.2 L 194.3 156.4 L 208.1 157.5 L 221.9 144.0 L 235.7 156.4 L 249.5 157.2 L 263.3 150.7 L 277.1 150.7 L 291.0 150.7 L 304.8 150.7 L 318.6 150.7 L 332.4 151.0 L 346.2 151.0 L 360.0 257.4 L 373.8 257.4 L 387.6 256.2 L 401.4 256.2 L 415.2 256.2 L 429.0 258.3 L 442.9 255.4 L 456.7 255.4 L 470.5 255.9 L 484.3 257.6 L 498.1 255.4 L 511.9 255.4 L 525.7 253.2 L 539.5 255.4 L 553.3 254.0 L 567.1 255.4 L 581.0 255.4 L 594.8 255.8 L 608.6 255.4 L 622.4 253.6 L 636.2 254.4 L 650.0 255.4" fill="none" stroke="#1f6feb" stroke-width="2" opacity="0.8"/>
<circle cx="70.0" cy="156.4" r="3" fill="#1f6feb"/>
<circle cx="180.5" cy="140.2" r="3" fill="#1f6feb"/>
<circle cx="291.0" cy="150.7" r="3" fill="#1f6feb"/>
<circle cx="401.4" cy="256.2" r="3" fill="#1f6feb"/>
<circle cx="511.9" cy="255.4" r="3" fill="#1f6feb"/>
<circle cx="622.4" cy="253.6" r="3" fill="#1f6feb"/>
<circle cx="650.0" cy="255.4" r="4" fill="#1f6feb"/>
<path d="M 70.0 172.1 L 83.8 172.7 L 97.6 174.2 L 111.4 172.1 L 125.2 172.1 L 139.0 172.9 L 152.9 174.2 L 166.7 172.9 L 180.5 154.7 L 194.3 172.1 L 208.1 172.9 L 221.9 158.4 L 235.7 172.1 L 249.5 172.3 L 263.3 166.9 L 277.1 166.9 L 291.0 166.9 L 304.8 166.9 L 318.6 166.9 L 332.4 167.1 L 346.2 167.1 L 360.0 254.5 L 373.8 254.5 L 387.6 253.7 L 401.4 253.7 L 415.2 253.7 L 429.0 243.7 L 442.9 242.4 L 456.7 242.4 L 470.5 242.6 L 484.3 245.2 L 498.1 242.4 L 511.9 242.4 L 525.7 241.0 L 539.5 242.4 L 553.3 243.6 L 567.1 242.4 L 581.0 242.4 L 594.8 242.7 L 608.6 242.4 L 622.4 241.9 L 636.2 243.8 L 650.0 242.4" fill="none" stroke="#388bfd" stroke-width="2" opacity="0.8"/>
<circle cx="70.0" cy="172.1" r="3" fill="#388bfd"/>
<circle cx="180.5" cy="154.7" r="3" fill="#388bfd"/>
<circle cx="291.0" cy="166.9" r="3" fill="#388bfd"/>
<circle cx="401.4" cy="253.7" r="3" fill="#388bfd"/>
<circle cx="511.9" cy="242.4" r="3" fill="#388bfd"/>
<circle cx="622.4" cy="241.9" r="3" fill="#388bfd"/>
<circle cx="650.0" cy="242.4" r="4" fill="#388bfd"/>
<path d="M 70.0 139.1 L 83.8 140.5 L 97.6 141.2 L 111.4 139.1 L 125.2 139.1 L 139.0 140.7 L 152.9 141.2 L 166.7 140.7 L 180.5 124.1 L 194.3 139.1 L 208.1 140.7 L 221.9 127.5 L 235.7 139.1 L 249.5 139.0 L 263.3 133.5 L 277.1 133.5 L 291.0 133.5 L 304.8 133.5 L 318.6 133.5 L 332.4 133.5 L 346.2 133.5 L 360.0 227.2 L 373.8 227.2 L 387.6 225.9 L 401.4 225.9 L 415.2 225.9 L 429.0 230.5 L 442.9 230.5 L 456.7 230.5 L 470.5 230.5 L 484.3 232.5 L 498.1 230.3 L 511.9 230.3 L 525.7 227.8 L 539.5 230.3 L 553.3 229.8 L 567.1 230.3 L 581.0 230.5 L 594.8 230.6 L 608.6 230.3 L 622.4 228.8 L 636.2 230.1 L 650.0 230.5" fill="none" stroke="#3fb950" stroke-width="2" opacity="0.8"/>
<circle cx="70.0" cy="139.1" r="3" fill="#3fb950"/>
<circle cx="180.5" cy="124.1" r="3" fill="#3fb950"/>
<circle cx="291.0" cy="133.5" r="3" fill="#3fb950"/>
<circle cx="401.4" cy="225.9" r="3" fill="#3fb950"/>
<circle cx="511.9" cy="230.3" r="3" fill="#3fb950"/>
<circle cx="622.4" cy="228.8" r="3" fill="#3fb950"/>
<circle cx="650.0" cy="230.5" r="4" fill="#3fb950"/>
<path d="M 70.0 217.2 L 83.8 218.7 L 97.6 218.6 L 111.4 217.2 L 125.2 217.2 L 139.0 218.8 L 152.9 218.6 L 166.7 218.8 L 180.5 201.0 L 194.3 217.2 L 208.1 218.8 L 221.9 205.2 L 235.7 217.2 L 249.5 216.9 L 263.3 212.8 L 277.1 212.8 L 291.0 212.8 L 304.8 212.8 L 318.6 212.8 L 332.4 212.8 L 346.2 212.8 L 360.0 284.0 L 373.8 284.0 L 387.6 282.4 L 401.4 282.4 L 415.2 282.4 L 429.0 283.7 L 442.9 283.7 L 456.7 283.7 L 470.5 283.7 L 484.3 285.5 L 498.1 283.7 L 511.9 283.7 L 525.7 281.2 L 539.5 283.7 L 553.3 283.7 L 567.1 283.7 L 581.0 283.7 L 594.8 284.0 L 608.6 283.7 L 622.4 282.0 L 636.2 284.1 L 650.0 283.7" fill="none" stroke="#238636" stroke-width="2" opacity="0.8"/>
<circle cx="70.0" cy="217.2" r="3" fill="#238636"/>
<circle cx="180.5" cy="201.0" r="3" fill="#238636"/>
<circle cx="291.0" cy="212.8" r="3" fill="#238636"/>
<circle cx="401.4" cy="282.4" r="3" fill="#238636"/>
<circle cx="511.9" cy="283.7" r="3" fill="#238636"/>
<circle cx="622.4" cy="282.0" r="3" fill="#238636"/>
<circle cx="650.0" cy="283.7" r="4" fill="#238636"/>
<path d="M 70.0 121.0 L 83.8 122.6 L 97.6 123.0 L 111.4 121.0 L 125.2 121.0 L 139.0 122.7 L 152.9 123.0 L 166.7 122.7 L 180.5 105.6 L 194.3 121.0 L 208.1 122.7 L 221.9 110.9 L 235.7 121.0 L 249.5 121.1 L 263.3 115.3 L 277.1 115.3 L 291.0 115.3 L 304.8 115.3 L 318.6 115.3 L 332.4 115.3 L 346.2 115.3 L 360.0 197.4 L 373.8 197.4 L 387.6 196.4 L 401.4 196.4 L 415.2 196.4 L 429.0 184.8 L 442.9 184.8 L 456.7 184.8 L 470.5 184.8 L 484.3 187.3 L 498.1 184.8 L 511.9 184.8 L 525.7 183.7 L 539.5 184.8 L 553.3 186.5 L 567.1 184.8 L 581.0 184.8 L 594.8 185.1 L 608.6 184.8 L 622.4 184.2 L 636.2 186.8 L 650.0 184.8" fill="none" stroke="#2ea043" stroke-width="2" opacity="0.8"/>
<circle cx="70.0" cy="121.0" r="3" fill="#2ea043"/>
<circle cx="180.5" cy="105.6" r="3" fill="#2ea043"/>
<circle cx="291.0" cy="115.3" r="3" fill="#2ea043"/>
<circle cx="401.4" cy="196.4" r="3" fill="#2ea043"/>
<circle cx="511.9" cy="184.8" r="3" fill="#2ea043"/>
<circle cx="622.4" cy="184.2" r="3" fill="#2ea043"/>
<circle cx="650.0" cy="184.8" r="4" fill="#2ea043"/>
<path d="M 70.0 211.5 L 83.8 213.3 L 97.6 213.7 L 111.4 211.5 L 125.2 211.5 L 139.0 213.5 L 152.9 213.7 L 166.7 213.5 L 180.5 196.5 L 194.3 211.5 L 208.1 213.5 L 221.9 200.0 L 235.7 211.5 L 249.5 211.8 L 263.3 206.4 L 277.1 206.4 L 291.0 206.4 L 304.8 206.4 L 318.6 206.4 L 332.4 206.4 L 346.2 206.4 L 360.0 293.1 L 373.8 293.1 L 387.6 292.4 L 401.4 292.4 L 415.2 292.4 L 429.0 284.1 L 442.9 284.1 L 456.7 284.1 L 470.5 284.1 L 484.3 287.2 L 498.1 284.1 L 511.9 284.1 L 525.7 284.3 L 539.5 284.1 L 553.3 286.7 L 567.1 284.1 L 581.0 284.1 L 594.8 284.4 L 608.6 284.1 L 622.4 284.8 L 636.2 286.9 L 650.0 284.1" fill="none" stroke="#56d364" stroke-width="2" opacity="0.8"/>
<circle cx="70.0" cy="211.5" r="3" fill="#56d364"/>
<circle cx="180.5" cy="196.5" r="3" fill="#56d364"/>
<circle cx="291.0" cy="206.4" r="3" fill="#56d364"/>
<circle cx="401.4" cy="292.4" r="3" fill="#56d364"/>
<circle cx="511.9" cy="284.1" r="3" fill="#56d364"/>
<circle cx="622.4" cy="284.8" r="3" fill="#56d364"/>
<circle cx="650.0" cy="284.1" r="4" fill="#56d364"/>
<path d="M 70.0 154.0 L 83.8 155.1 L 97.6 156.2 L 111.4 153.9 L 125.2 154.0 L 139.0 155.1 L 152.9 156.2 L 166.7 155.1 L 180.5 138.2 L 194.3 153.9 L 208.1 155.1 L 221.9 142.0 L 235.7 154.0 L 249.5 154.8 L 263.3 148.7 L 277.1 148.7 L 291.0 148.7 L 304.8 148.7 L 318.6 148.7 L 332.4 148.7 L 346.2 148.7 L 360.0 254.5 L 373.8 254.5 L 387.6 253.3 L 401.4 253.3 L 415.2 253.3 L 429.0 258.5 L 442.9 258.5 L 456.7 258.5 L 470.5 258.5 L 484.3 260.6 L 498.1 258.5 L 511.9 258.5 L 525.7 256.6 L 539.5 258.5 L 553.3 258.6 L 567.1 258.5 L 581.0 258.5 L 594.8 258.8 L 608.6 258.5 L 622.4 257.3 L 636.2 259.0 L 650.0 258.5" fill="none" stroke="#f78166" stroke-width="2" opacity="0.8"/>
<circle cx="70.0" cy="154.0" r="3" fill="#f78166"/>
<circle cx="180.5" cy="138.2" r="3" fill="#f78166"/>
<circle cx="291.0" cy="148.7" r="3" fill="#f78166"/>
<circle cx="401.4" cy="253.3" r="3" fill="#f78166"/>
<circle cx="511.9" cy="258.5" r="3" fill="#f78166"/>
<circle cx="622.4" cy="257.3" r="3" fill="#f78166"/>
<circle cx="650.0" cy="258.5" r="4" fill="#f78166"/>
<path d="M 70.0 167.1 L 83.8 167.9 L 97.6 169.2 L 111.4 167.1 L 125.2 167.1 L 139.0 167.9 L 152.9 169.2 L 166.7 167.9 L 180.5 149.6 L 194.3 167.1 L 208.1 167.9 L 221.9 153.3 L 235.7 167.1 L 249.5 167.3 L 263.3 162.0 L 277.1 162.0 L 291.0 162.0 L 304.8 162.0 L 318.6 162.0 L 332.4 162.0 L 346.2 162.0 L 360.0 248.7 L 373.8 248.7 L 387.6 247.8 L 401.4 247.8 L 415.2 247.8 L 429.0 240.8 L 442.9 240.8 L 456.7 240.8 L 470.5 240.8 L 484.3 243.6 L 498.1 240.8 L 511.9 240.8 L 525.7 239.8 L 539.5 240.8 L 553.3 242.3 L 567.1 240.8 L 581.0 240.8 L 594.8 241.1 L 608.6 240.8 L 622.4 240.6 L 636.2 242.4 L 650.0 240.8" fill="none" stroke="#ffa657" stroke-width="2" opacity="0.8"/>
<circle cx="70.0" cy="167.1" r="3" fill="#ffa657"/>
<circle cx="180.5" cy="149.6" r="3" fill="#ffa657"/>
<circle cx="291.0" cy="162.0" r="3" fill="#ffa657"/>
<circle cx="401.4" cy="247.8" r="3" fill="#ffa657"/>
<circle cx="511.9" cy="240.8" r="3" fill="#ffa657"/>
<circle cx="622.4" cy="240.6" r="3" fill="#ffa657"/>
<circle cx="650.0" cy="240.8" r="4" fill="#ffa657"/>
<text x="70.0" y="113.0" fill="#2ea043" font-family="monospace" font-size="8px" text-anchor="middle">122.6KB</text>
<text x="70.0" y="131.1" fill="#3fb950" font-family="monospace" font-size="8px" text-anchor="middle">119.1KB</text>
<text x="70.0" y="149.1" fill="#f78166" font-family="monospace" font-size="8px" text-anchor="middle">116.3KB</text>
<text x="70.0" y="167.1" fill="#1f6feb" font-family="monospace" font-size="8px" text-anchor="middle">115.8KB</text>
<text x="70.0" y="185.1" fill="#58a6ff" font-family="monospace" font-size="8px" text-anchor="middle">115.8KB</text>
<text x="70.0" y="203.1" fill="#ffa657" font-family="monospace" font-size="8px" text-anchor="middle">113.7KB</text>
<text x="70.0" y="221.1" fill="#388bfd" font-family="monospace" font-size="8px" text-anchor="middle">112.8KB</text>
<text x="70.0" y="239.1" fill="#56d364" font-family="monospace" font-size="8px" text-anchor="middle">105.2KB</text>
<text x="70.0" y="257.1" fill="#238636" font-family="monospace" font-size="8px" text-anchor="middle">104.2KB</text>
<text x="180.5" y="97.6" fill="#2ea043" font-family="monospace" font-size="8px" text-anchor="middle">125.5KB</text>
<text x="180.5" y="116.1" fill="#3fb950" font-family="monospace" font-size="8px" text-anchor="middle">122.0KB</text>
<text x="180.5" y="134.1" fill="#f78166" font-family="monospace" font-size="8px" text-anchor="middle">119.3KB</text>
<text x="180.5" y="152.1" fill="#58a6ff" font-family="monospace" font-size="8px" text-anchor="middle">118.9KB</text>
<text x="180.5" y="170.1" fill="#1f6feb" font-family="monospace" font-size="8px" text-anchor="middle">118.9KB</text>
<text x="180.5" y="188.1" fill="#ffa657" font-family="monospace" font-size="8px" text-anchor="middle">117.1KB</text>
<text x="180.5" y="206.1" fill="#388bfd" font-family="monospace" font-size="8px" text-anchor="middle">116.1KB</text>
<text x="180.5" y="224.1" fill="#56d364" font-family="monospace" font-size="8px" text-anchor="middle">108.1KB</text>
<text x="180.5" y="242.1" fill="#238636" font-family="monospace" font-size="8px" text-anchor="middle">107.3KB</text>
<text x="291.0" y="107.3" fill="#2ea043" font-family="monospace" font-size="8px" text-anchor="middle">123.7KB</text>
<text x="291.0" y="125.5" fill="#3fb950" font-family="monospace" font-size="8px" text-anchor="middle">120.2KB</text>
<text x="291.0" y="143.5" fill="#f78166" font-family="monospace" font-size="8px" text-anchor="middle">117.3KB</text>
<text x="291.0" y="161.5" fill="#1f6feb" font-family="monospace" font-size="8px" text-anchor="middle">116.9KB</text>
<text x="291.0" y="179.5" fill="#58a6ff" font-family="monospace" font-size="8px" text-anchor="middle">116.9KB</text>
<text x="291.0" y="197.5" fill="#ffa657" font-family="monospace" font-size="8px" text-anchor="middle">114.7KB</text>
<text x="291.0" y="215.5" fill="#388bfd" font-family="monospace" font-size="8px" text-anchor="middle">113.8KB</text>
<text x="291.0" y="233.5" fill="#56d364" font-family="monospace" font-size="8px" text-anchor="middle">106.2KB</text>
<text x="291.0" y="251.5" fill="#238636" font-family="monospace" font-size="8px" text-anchor="middle">105.0KB</text>
<text x="401.4" y="188.4" fill="#2ea043" font-family="monospace" font-size="8px" text-anchor="middle">108.1KB</text>
<text x="401.4" y="212.8" fill="#58a6ff" font-family="monospace" font-size="8px" text-anchor="middle">103.5KB</text>
<text x="401.4" y="230.8" fill="#3fb950" font-family="monospace" font-size="8px" text-anchor="middle">102.5KB</text>
<text x="401.4" y="248.8" fill="#ffa657" font-family="monospace" font-size="8px" text-anchor="middle">98.3KB</text>
<text x="401.4" y="266.8" fill="#f78166" font-family="monospace" font-size="8px" text-anchor="middle">97.3KB</text>
<text x="401.4" y="284.8" fill="#388bfd" font-family="monospace" font-size="8px" text-anchor="middle">97.2KB</text>
<text x="401.4" y="302.8" fill="#1f6feb" font-family="monospace" font-size="8px" text-anchor="middle">96.7KB</text>
<text x="401.4" y="320.8" fill="#238636" font-family="monospace" font-size="8px" text-anchor="middle">91.7KB</text>
<text x="401.4" y="338.8" fill="#56d364" font-family="monospace" font-size="8px" text-anchor="middle">89.8KB</text>
<text x="511.9" y="176.8" fill="#2ea043" font-family="monospace" font-size="8px" text-anchor="middle">110.4KB</text>
<text x="511.9" y="194.8" fill="#58a6ff" font-family="monospace" font-size="8px" text-anchor="middle">107.0KB</text>
<text x="511.9" y="222.3" fill="#3fb950" font-family="monospace" font-size="8px" text-anchor="middle">101.7KB</text>
<text x="511.9" y="240.3" fill="#ffa657" font-family="monospace" font-size="8px" text-anchor="middle">99.7KB</text>
<text x="511.9" y="258.3" fill="#388bfd" font-family="monospace" font-size="8px" text-anchor="middle">99.4KB</text>
<text x="511.9" y="276.3" fill="#1f6feb" font-family="monospace" font-size="8px" text-anchor="middle">96.9KB</text>
<text x="511.9" y="294.3" fill="#f78166" font-family="monospace" font-size="8px" text-anchor="middle">96.3KB</text>
<text x="511.9" y="312.3" fill="#238636" font-family="monospace" font-size="8px" text-anchor="middle">91.5KB</text>
<text x="511.9" y="330.3" fill="#56d364" font-family="monospace" font-size="8px" text-anchor="middle">91.4KB</text>
<text x="622.4" y="176.2" fill="#2ea043" font-family="monospace" font-size="8px" text-anchor="middle">110.5KB</text>
<text x="622.4" y="194.2" fill="#58a6ff" font-family="monospace" font-size="8px" text-anchor="middle">107.3KB</text>
<text x="622.4" y="220.8" fill="#3fb950" font-family="monospace" font-size="8px" text-anchor="middle">102.0KB</text>
<text x="622.4" y="238.8" fill="#ffa657" font-family="monospace" font-size="8px" text-anchor="middle">99.7KB</text>
<text x="622.4" y="256.8" fill="#388bfd" font-family="monospace" font-size="8px" text-anchor="middle">99.5KB</text>
<text x="622.4" y="274.8" fill="#1f6feb" font-family="monospace" font-size="8px" text-anchor="middle">97.2KB</text>
<text x="622.4" y="292.8" fill="#f78166" font-family="monospace" font-size="8px" text-anchor="middle">96.5KB</text>
<text x="622.4" y="310.8" fill="#238636" font-family="monospace" font-size="8px" text-anchor="middle">91.8KB</text>
<text x="622.4" y="328.8" fill="#56d364" font-family="monospace" font-size="8px" text-anchor="middle">91.2KB</text>
<text x="650.0" y="202.8" fill="#2ea043" font-family="monospace" font-size="8px" text-anchor="middle">110.4KB</text>
<text x="650.0" y="346.8" fill="#58a6ff" font-family="monospace" font-size="8px" text-anchor="middle">107.0KB</text>
<text x="650.0" y="364.8" fill="#3fb950" font-family="monospace" font-size="8px" text-anchor="middle">101.6KB</text>
<text x="650.0" y="382.8" fill="#ffa657" font-family="monospace" font-size="8px" text-anchor="middle">99.7KB</text>
<text x="650.0" y="400.8" fill="#388bfd" font-family="monospace" font-size="8px" text-anchor="middle">99.4KB</text>
<text x="650.0" y="418.8" fill="#1f6feb" font-family="monospace" font-size="8px" text-anchor="middle">96.9KB</text>
<text x="650.0" y="436.8" fill="#f78166" font-family="monospace" font-size="8px" text-anchor="middle">96.3KB</text>
<text x="650.0" y="454.8" fill="#238636" font-family="monospace" font-size="8px" text-anchor="middle">91.5KB</text>
<text x="650.0" y="472.8" fill="#56d364" font-family="monospace" font-size="8px" text-anchor="middle">91.4KB</text>
<rect x="665" y="44" width="12" height="12" fill="#58a6ff"/>
<text x="683" y="54" class="legend">Win i386</text>
<rect x="665" y="62" width="12" height="12" fill="#1f6feb"/>
<text x="683" y="72" class="legend">Win x64</text>
<rect x="665" y="80" width="12" height="12" fill="#388bfd"/>
<text x="683" y="90" class="legend">Win ARM64</text>
<rect x="665" y="98" width="12" height="12" fill="#3fb950"/>
<text x="683" y="108" class="legend">Linux i386</text>
<rect x="665" y="116" width="12" height="12" fill="#238636"/>
<text x="683" y="126" class="legend">Linux x64</text>
<rect x="665" y="134" width="12" height="12" fill="#2ea043"/>
<text x="683" y="144" class="legend">Linux ARM</text>
<rect x="665" y="152" width="12" height="12" fill="#56d364"/>
<text x="683" y="162" class="legend">Linux ARM64</text>
<rect x="665" y="170" width="12" height="12" fill="#f78166"/>
<text x="683" y="180" class="legend">UEFI x64</text>
<rect x="665" y="188" width="12" height="12" fill="#ffa657"/>
<text x="683" y="198" class="legend">UEFI ARM64</text>
</svg>