<svg xmlns="http://www.w3.org/2000/svg" width="800" height="400">
<defs>
<style>
.axis-text { fill: #8b949e; font-family: monospace; font-size: 11px; }
.title { fill: #c9d1d9; font-family: monospace; font-size: 14px; font-weight: bold; }
.legend { fill: #8b949e; font-family: monospace; font-size: 10px; }
.grid { stroke: #21262d; stroke-width: 1; }
</style>
</defs>
<rect width="800" height="400" fill="#0d1117"/>
<text x="400.0" y="25" class="title" text-anchor="middle">Binary Size Trend (.bin)</text>
<line x1="70" y1="40.0" x2="650" y2="40.0" class="grid"/>
<text x="60" y="44.0" class="axis-text" text-anchor="end">138KB</text>
<line x1="70" y1="100.0" x2="650" y2="100.0" class="grid"/>
<text x="60" y="104.0" class="axis-text" text-anchor="end">127KB</text>
<line x1="70" y1="160.0" x2="650" y2="160.0" class="grid"/>
<text x="60" y="164.0" class="axis-text" text-anchor="end">115KB</text>
<line x1="70" y1="220.0" x2="650" y2="220.0" class="grid"/>
<text x="60" y="224.0" class="axis-text" text-anchor="end">104KB</text>
<line x1="70" y1="280.0" x2="650" y2="280.0" class="grid"/>
<text x="60" y="284.0" class="axis-text" text-anchor="end">92KB</text>
<line x1="70" y1="340.0" x2="650" y2="340.0" class="grid"/>
<text x="60" y="344.0" class="axis-text" text-anchor="end">81KB</text>
<text x="70.0" y="360" class="axis-text" text-anchor="middle">02-05</text>
<text x="158.26086956521738" y="360" class="axis-text" text-anchor="middle">02-05</text>
<text x="246.52173913043478" y="360" class="axis-text" text-anchor="middle">02-06</text>
<text x="334.7826086956522" y="360" class="axis-text" text-anchor="middle">02-10</text>
<text x="423.04347826086956" y="360" class="axis-text" text-anchor="middle">02-23</text>
<text x="511.304347826087" y="360" class="axis-text" text-anchor="middle">02-24</text>
<text x="599.5652173913044" y="360" class="axis-text" text-anchor="middle">02-24</text>
<path d="M 70.0 156.4 L 82.6 157.0 L 95.2 158.2 L 107.8 156.3 L 120.4 156.4 L 133.0 157.1 L 145.7 158.2 L 158.3 157.1 L 170.9 140.0 L 183.5 156.3 L 196.1 157.1 L 208.7 144.9 L 221.3 156.4 L 233.9 156.0 L 246.5 150.7 L 259.1 150.7 L 271.7 150.7 L 284.3 150.7 L 297.0 150.7 L 309.6 151.0 L 322.2 151.0 L 334.8 221.7 L 347.4 221.7 L 360.0 220.8 L 372.6 220.8 L 385.2 220.8 L 397.8 207.0 L 410.4 202.6 L 423.0 202.6 L 435.7 203.2 L 448.3 204.0 L 460.9 202.3 L 473.5 202.3 L 486.1 201.3 L 498.7 199.7 L 511.3 201.3 L 523.9 202.3 L 536.5 201.3 L 549.1 202.3 L 561.7 202.6 L 574.3 202.6 L 587.0 202.3 L 599.6 200.6 L 612.2 202.2 L 624.8 201.8 L 637.4 201.3 L 650.0 202.6" fill="none" stroke="#58a6ff" stroke-width="2" opacity="0.8"/>
<circle cx="70.0" cy="156.4" r="3" fill="#58a6ff"/>
<circle cx="183.5" cy="156.3" r="3" fill="#58a6ff"/>
<circle cx="297.0" cy="150.7" r="3" fill="#58a6ff"/>
<circle cx="410.4" cy="202.6" r="3" fill="#58a6ff"/>
<circle cx="523.9" cy="202.3" r="3" fill="#58a6ff"/>
<circle cx="637.4" cy="201.3" r="3" fill="#58a6ff"/>
<circle cx="650.0" cy="202.6" r="4" fill="#58a6ff"/>
<path d="M 70.0 156.4 L 82.6 157.4 L 95.2 158.6 L 107.8 156.4 L 120.4 156.4 L 133.0 157.5 L 145.7 158.6 L 158.3 157.5 L 170.9 140.2 L 183.5 156.4 L 196.1 157.5 L 208.7 144.0 L 221.3 156.4 L 233.9 157.2 L 246.5 150.7 L 259.1 150.7 L 271.7 150.7 L 284.3 150.7 L 297.0 150.7 L 309.6 151.0 L 322.2 151.0 L 334.8 257.4 L 347.4 257.4 L 360.0 256.2 L 372.6 256.2 L 385.2 256.2 L 397.8 258.3 L 410.4 255.4 L 423.0 255.4 L 435.7 255.9 L 448.3 257.6 L 460.9 255.4 L 473.5 255.4 L 486.1 253.8 L 498.7 253.2 L 511.3 253.8 L 523.9 255.4 L 536.5 254.0 L 549.1 255.4 L 561.7 255.4 L 574.3 255.8 L 587.0 255.4 L 599.6 253.6 L 612.2 254.9 L 624.8 254.4 L 637.4 253.8 L 650.0 255.4" fill="none" stroke="#1f6feb" stroke-width="2" opacity="0.8"/>
<circle cx="70.0" cy="156.4" r="3" fill="#1f6feb"/>
<circle cx="183.5" cy="156.4" r="3" fill="#1f6feb"/>
<circle cx="297.0" cy="150.7" r="3" fill="#1f6feb"/>
<circle cx="410.4" cy="255.4" r="3" fill="#1f6feb"/>
<circle cx="523.9" cy="255.4" r="3" fill="#1f6feb"/>
<circle cx="637.4" cy="253.8" r="3" fill="#1f6feb"/>
<circle cx="650.0" cy="255.4" r="4" fill="#1f6feb"/>
<path d="M 70.0 172.1 L 82.6 172.7 L 95.2 174.2 L 107.8 172.1 L 120.4 172.1 L 133.0 172.9 L 145.7 174.2 L 158.3 172.9 L 170.9 154.7 L 183.5 172.1 L 196.1 172.9 L 208.7 158.4 L 221.3 172.1 L 233.9 172.3 L 246.5 166.9 L 259.1 166.9 L 271.7 166.9 L 284.3 166.9 L 297.0 166.9 L 309.6 167.1 L 322.2 167.1 L 334.8 254.5 L 347.4 254.5 L 360.0 253.7 L 372.6 253.7 L 385.2 253.7 L 397.8 243.7 L 410.4 242.4 L 423.0 242.4 L 435.7 242.6 L 448.3 245.2 L 460.9 242.4 L 473.5 242.4 L 486.1 236.6 L 498.7 241.0 L 511.3 236.6 L 523.9 242.4 L 536.5 243.6 L 549.1 242.4 L 561.7 242.4 L 574.3 242.7 L 587.0 242.4 L 599.6 241.9 L 612.2 237.3 L 624.8 243.8 L 637.4 236.6 L 650.0 242.4" fill="none" stroke="#388bfd" stroke-width="2" opacity="0.8"/>
<circle cx="70.0" cy="172.1" r="3" fill="#388bfd"/>
<circle cx="183.5" cy="172.1" r="3" fill="#388bfd"/>
<circle cx="297.0" cy="166.9" r="3" fill="#388bfd"/>
<circle cx="410.4" cy="242.4" r="3" fill="#388bfd"/>
<circle cx="523.9" cy="242.4" r="3" fill="#388bfd"/>
<circle cx="637.4" cy="236.6" r="3" fill="#388bfd"/>
<circle cx="650.0" cy="242.4" r="4" fill="#388bfd"/>
<path d="M 70.0 139.1 L 82.6 140.5 L 95.2 141.2 L 107.8 139.1 L 120.4 139.1 L 133.0 140.7 L 145.7 141.2 L 158.3 140.7 L 170.9 124.1 L 183.5 139.1 L 196.1 140.7 L 208.7 127.5 L 221.3 139.1 L 233.9 139.0 L 246.5 133.5 L 259.1 133.5 L 271.7 133.5 L 284.3 133.5 L 297.0 133.5 L 309.6 133.5 L 322.2 133.5 L 334.8 227.2 L 347.4 227.2 L 360.0 225.9 L 372.6 225.9 L 385.2 225.9 L 397.8 230.5 L 410.4 230.5 L 423.0 230.5 L 435.7 230.5 L 448.3 232.5 L 460.9 230.3 L 473.5 230.3 L 486.1 229.4 L 498.7 227.8 L 511.3 229.4 L 523.9 230.3 L 536.5 229.8 L 549.1 230.3 L 561.7 230.5 L 574.3 230.6 L 587.0 230.3 L 599.6 228.8 L 612.2 230.4 L 624.8 230.1 L 637.4 229.4 L 650.0 230.5" fill="none" stroke="#3fb950" stroke-width="2" opacity="0.8"/>
<circle cx="70.0" cy="139.1" r="3" fill="#3fb950"/>
<circle cx="183.5" cy="139.1" r="3" fill="#3fb950"/>
<circle cx="297.0" cy="133.5" r="3" fill="#3fb950"/>
<circle cx="410.4" cy="230.5" r="3" fill="#3fb950"/>
<circle cx="523.9" cy="230.3" r="3" fill="#3fb950"/>
<circle cx="637.4" cy="229.4" r="3" fill="#3fb950"/>
<circle cx="650.0" cy="230.5" r="4" fill="#3fb950"/>
<path d="M 70.0 217.2 L 82.6 218.7 L 95.2 218.6 L 107.8 217.2 L 120.4 217.2 L 133.0 218.8 L 145.7 218.6 L 158.3 218.8 L 170.9 201.0 L 183.5 217.2 L 196.1 218.8 L 208.7 205.2 L 221.3 217.2 L 233.9 216.9 L 246.5 212.8 L 259.1 212.8 L 271.7 212.8 L 284.3 212.8 L 297.0 212.8 L 309.6 212.8 L 322.2 212.8 L 334.8 284.0 L 347.4 284.0 L 360.0 282.4 L 372.6 282.4 L 385.2 282.4 L 397.8 283.7 L 410.4 283.7 L 423.0 283.7 L 435.7 283.7 L 448.3 285.5 L 460.9 283.7 L 473.5 283.7 L 486.1 283.6 L 498.7 281.2 L 511.3 283.6 L 523.9 283.7 L 536.5 283.7 L 549.1 283.7 L 561.7 283.7 L 574.3 284.0 L 587.0 283.7 L 599.6 282.0 L 612.2 284.8 L 624.8 284.1 L 637.4 283.6 L 650.0 283.7" fill="none" stroke="#238636" stroke-width="2" opacity="0.8"/>
<circle cx="70.0" cy="217.2" r="3" fill="#238636"/>
<circle cx="183.5" cy="217.2" r="3" fill="#238636"/>
<circle cx="297.0" cy="212.8" r="3" fill="#238636"/>
<circle cx="410.4" cy="283.7" r="3" fill="#238636"/>
<circle cx="523.9" cy="283.7" r="3" fill="#238636"/>
<circle cx="637.4" cy="283.6" r="3" fill="#238636"/>
<circle cx="650.0" cy="283.7" r="4" fill="#238636"/>
<path d="M 70.0 121.0 L 82.6 122.6 L 95.2 123.0 L 107.8 121.0 L 120.4 121.0 L 133.0 122.7 L 145.7 123.0 L 158.3 122.7 L 170.9 105.6 L 183.5 121.0 L 196.1 122.7 L 208.7 110.9 L 221.3 121.0 L 233.9 121.1 L 246.5 115.3 L 259.1 115.3 L 271.7 115.3 L 284.3 115.3 L 297.0 115.3 L 309.6 115.3 L 322.2 115.3 L 334.8 197.4 L 347.4 197.4 L 360.0 196.4 L 372.6 196.4 L 385.2 196.4 L 397.8 184.8 L 410.4 184.8 L 423.0 184.8 L 435.7 184.8 L 448.3 187.3 L 460.9 184.8 L 473.5 184.8 L 486.1 186.4 L 498.7 183.7 L 511.3 186.4 L 523.9 184.8 L 536.5 186.5 L 549.1 184.8 L 561.7 184.8 L 574.3 185.1 L 587.0 184.8 L 599.6 184.2 L 612.2 188.2 L 624.8 186.8 L 637.4 186.4 L 650.0 184.8" fill="none" stroke="#2ea043" stroke-width="2" opacity="0.8"/>
<circle cx="70.0" cy="121.0" r="3" fill="#2ea043"/>
<circle cx="183.5" cy="121.0" r="3" fill="#2ea043"/>
<circle cx="297.0" cy="115.3" r="3" fill="#2ea043"/>
<circle cx="410.4" cy="184.8" r="3" fill="#2ea043"/>
<circle cx="523.9" cy="184.8" r="3" fill="#2ea043"/>
<circle cx="637.4" cy="186.4" r="3" fill="#2ea043"/>
<circle cx="650.0" cy="184.8" r="4" fill="#2ea043"/>
<path d="M 70.0 211.5 L 82.6 213.3 L 95.2 213.7 L 107.8 211.5 L 120.4 211.5 L 133.0 213.5 L 145.7 213.7 L 158.3 213.5 L 170.9 196.5 L 183.5 211.5 L 196.1 213.5 L 208.7 200.0 L 221.3 211.5 L 233.9 211.8 L 246.5 206.4 L 259.1 206.4 L 271.7 206.4 L 284.3 206.4 L 297.0 206.4 L 309.6 206.4 L 322.2 206.4 L 334.8 293.1 L 347.4 293.1 L 360.0 292.4 L 372.6 292.4 L 385.2 292.4 L 397.8 284.1 L 410.4 284.1 L 423.0 284.1 L 435.7 284.1 L 448.3 287.2 L 460.9 284.1 L 473.5 284.1 L 486.1 282.5 L 498.7 284.3 L 511.3 282.5 L 523.9 284.1 L 536.5 286.7 L 549.1 284.1 L 561.7 284.1 L 574.3 284.4 L 587.0 284.1 L 599.6 284.8 L 612.2 283.9 L 624.8 286.9 L 637.4 282.5 L 650.0 284.1" fill="none" stroke="#56d364" stroke-width="2" opacity="0.8"/>
<circle cx="70.0" cy="211.5" r="3" fill="#56d364"/>
<circle cx="183.5" cy="211.5" r="3" fill="#56d364"/>
<circle cx="297.0" cy="206.4" r="3" fill="#56d364"/>
<circle cx="410.4" cy="284.1" r="3" fill="#56d364"/>
<circle cx="523.9" cy="284.1" r="3" fill="#56d364"/>
<circle cx="637.4" cy="282.5" r="3" fill="#56d364"/>
<circle cx="650.0" cy="284.1" r="4" fill="#56d364"/>
<path d="M 70.0 154.0 L 82.6 155.1 L 95.2 156.2 L 107.8 153.9 L 120.4 154.0 L 133.0 155.1 L 145.7 156.2 L 158.3 155.1 L 170.9 138.2 L 183.5 153.9 L 196.1 155.1 L 208.7 142.0 L 221.3 154.0 L 233.9 154.8 L 246.5 148.7 L 259.1 148.7 L 271.7 148.7 L 284.3 148.7 L 297.0 148.7 L 309.6 148.7 L 322.2 148.7 L 334.8 254.5 L 347.4 254.5 L 360.0 253.3 L 372.6 253.3 L 385.2 253.3 L 397.8 258.5 L 410.4 258.5 L 423.0 258.5 L 435.7 258.5 L 448.3 260.6 L 460.9 258.5 L 473.5 258.5 L 486.1 258.4 L 498.7 256.6 L 511.3 258.4 L 523.9 258.5 L 536.5 258.6 L 549.1 258.5 L 561.7 258.5 L 574.3 258.8 L 587.0 258.5 L 599.6 257.3 L 612.2 259.4 L 624.8 259.0 L 637.4 258.4 L 650.0 258.5" fill="none" stroke="#f78166" stroke-width="2" opacity="0.8"/>
<circle cx="70.0" cy="154.0" r="3" fill="#f78166"/>
<circle cx="183.5" cy="153.9" r="3" fill="#f78166"/>
<circle cx="297.0" cy="148.7" r="3" fill="#f78166"/>
<circle cx="410.4" cy="258.5" r="3" fill="#f78166"/>
<circle cx="523.9" cy="258.5" r="3" fill="#f78166"/>
<circle cx="637.4" cy="258.4" r="3" fill="#f78166"/>
<circle cx="650.0" cy="258.5" r="4" fill="#f78166"/>
<path d="M 70.0 167.1 L 82.6 167.9 L 95.2 169.2 L 107.8 167.1 L 120.4 167.1 L 133.0 167.9 L 145.7 169.2 L 158.3 167.9 L 170.9 149.6 L 183.5 167.1 L 196.1 167.9 L 208.7 153.3 L 221.3 167.1 L 233.9 167.3 L 246.5 162.0 L 259.1 162.0 L 271.7 162.0 L 284.3 162.0 L 297.0 162.0 L 309.6 162.0 L 322.2 162.0 L 334.8 248.7 L 347.4 248.7 L 360.0 247.8 L 372.6 247.8 L 385.2 247.8 L 397.8 240.8 L 410.4 240.8 L 423.0 240.8 L 435.7 240.8 L 448.3 243.6 L 460.9 240.8 L 473.5 240.8 L 486.1 235.3 L 498.7 239.8 L 511.3 235.3 L 523.9 240.8 L 536.5 242.3 L 549.1 240.8 L 561.7 240.8 L 574.3 241.1 L 587.0 240.8 L 599.6 240.6 L 612.2 236.3 L 624.8 242.4 L 637.4 235.3 L 650.0 240.8" fill="none" stroke="#ffa657" stroke-width="2" opacity="0.8"/>
<circle cx="70.0" cy="167.1" r="3" fill="#ffa657"/>
<circle cx="183.5" cy="167.1" r="3" fill="#ffa657"/>
<circle cx="297.0" cy="162.0" r="3" fill="#ffa657"/>
<circle cx="410.4" cy="240.8" r="3" fill="#ffa657"/>
<circle cx="523.9" cy="240.8" r="3" fill="#ffa657"/>
<circle cx="637.4" cy="235.3" r="3" fill="#ffa657"/>
<circle cx="650.0" cy="240.8" r="4" fill="#ffa657"/>
<text x="70.0" y="113.0" fill="#2ea043" font-family="monospace" font-size="8px" text-anchor="middle">122.6KB</text>
<text x="70.0" y="131.1" fill="#3fb950" font-family="monospace" font-size="8px" text-anchor="middle">119.1KB</text>
<text x="70.0" y="149.1" fill="#f78166" font-family="monospace" font-size="8px" text-anchor="middle">116.3KB</text>
<text x="70.0" y="167.1" fill="#1f6feb" font-family="monospace" font-size="8px" text-anchor="middle">115.8KB</text>
<text x="70.0" y="185.1" fill="#58a6ff" font-family="monospace" font-size="8px" text-anchor="middle">115.8KB</text>
<text x="70.0" y="203.1" fill="#ffa657" font-family="monospace" font-size="8px" text-anchor="middle">113.7KB</text>
<text x="70.0" y="221.1" fill="#388bfd" font-family="monospace" font-size="8px" text-anchor="middle">112.8KB</text>
<text x="70.0" y="239.1" fill="#56d364" font-family="monospace" font-size="8px" text-anchor="middle">105.2KB</text>
<text x="70.0" y="257.1" fill="#238636" font-family="monospace" font-size="8px" text-anchor="middle">104.2KB</text>
<text x="183.5" y="113.0" fill="#2ea043" font-family="monospace" font-size="8px" text-anchor="middle">122.6KB</text>
<text x="183.5" y="131.1" fill="#3fb950" font-family="monospace" font-size="8px" text-anchor="middle">119.1KB</text>
<text x="183.5" y="149.1" fill="#f78166" font-family="monospace" font-size="8px" text-anchor="middle">116.3KB</text>
<text x="183.5" y="167.1" fill="#58a6ff" font-family="monospace" font-size="8px" text-anchor="middle">115.8KB</text>
<text x="183.5" y="185.1" fill="#1f6feb" font-family="monospace" font-size="8px" text-anchor="middle">115.8KB</text>
<text x="183.5" y="203.1" fill="#ffa657" font-family="monospace" font-size="8px" text-anchor="middle">113.7KB</text>
<text x="183.5" y="221.1" fill="#388bfd" font-family="monospace" font-size="8px" text-anchor="middle">112.8KB</text>
<text x="183.5" y="239.1" fill="#56d364" font-family="monospace" font-size="8px" text-anchor="middle">105.2KB</text>
<text x="183.5" y="257.1" fill="#238636" font-family="monospace" font-size="8px" text-anchor="middle">104.2KB</text>
<text x="297.0" y="107.3" fill="#2ea043" font-family="monospace" font-size="8px" text-anchor="middle">123.7KB</text>
<text x="297.0" y="125.5" fill="#3fb950" font-family="monospace" font-size="8px" text-anchor="middle">120.2KB</text>
<text x="297.0" y="143.5" fill="#f78166" font-family="monospace" font-size="8px" text-anchor="middle">117.3KB</text>
<text x="297.0" y="161.5" fill="#1f6feb" font-family="monospace" font-size="8px" text-anchor="middle">116.9KB</text>
<text x="297.0" y="179.5" fill="#58a6ff" font-family="monospace" font-size="8px" text-anchor="middle">116.9KB</text>
<text x="297.0" y="197.5" fill="#ffa657" font-family="monospace" font-size="8px" text-anchor="middle">114.7KB</text>
<text x="297.0" y="215.5" fill="#388bfd" font-family="monospace" font-size="8px" text-anchor="middle">113.8KB</text>
<text x="297.0" y="233.5" fill="#56d364" font-family="monospace" font-size="8px" text-anchor="middle">106.2KB</text>
<text x="297.0" y="251.5" fill="#238636" font-family="monospace" font-size="8px" text-anchor="middle">105.0KB</text>
<text x="410.4" y="176.8" fill="#2ea043" font-family="monospace" font-size="8px" text-anchor="middle">110.4KB</text>
<text x="410.4" y="194.8" fill="#58a6ff" font-family="monospace" font-size="8px" text-anchor="middle">107.0KB</text>
<text x="410.4" y="222.5" fill="#3fb950" font-family="monospace" font-size="8px" text-anchor="middle">101.6KB</text>
<text x="410.4" y="240.5" fill="#ffa657" font-family="monospace" font-size="8px" text-anchor="middle">99.7KB</text>
<text x="410.4" y="258.5" fill="#388bfd" font-family="monospace" font-size="8px" text-anchor="middle">99.4KB</text>
<text x="410.4" y="276.5" fill="#1f6feb" font-family="monospace" font-size="8px" text-anchor="middle">96.9KB</text>
<text x="410.4" y="294.5" fill="#f78166" font-family="monospace" font-size="8px" text-anchor="middle">96.3KB</text>
<text x="410.4" y="312.5" fill="#238636" font-family="monospace" font-size="8px" text-anchor="middle">91.5KB</text>
<text x="410.4" y="330.5" fill="#56d364" font-family="monospace" font-size="8px" text-anchor="middle">91.4KB</text>
<text x="523.9" y="176.8" fill="#2ea043" font-family="monospace" font-size="8px" text-anchor="middle">110.4KB</text>
<text x="523.9" y="194.8" fill="#58a6ff" font-family="monospace" font-size="8px" text-anchor="middle">107.0KB</text>
<text x="523.9" y="222.3" fill="#3fb950" font-family="monospace" font-size="8px" text-anchor="middle">101.7KB</text>
<text x="523.9" y="240.3" fill="#ffa657" font-family="monospace" font-size="8px" text-anchor="middle">99.7KB</text>
<text x="523.9" y="258.3" fill="#388bfd" font-family="monospace" font-size="8px" text-anchor="middle">99.4KB</text>
<text x="523.9" y="276.3" fill="#1f6feb" font-family="monospace" font-size="8px" text-anchor="middle">96.9KB</text>
<text x="523.9" y="294.3" fill="#f78166" font-family="monospace" font-size="8px" text-anchor="middle">96.3KB</text>
<text x="523.9" y="312.3" fill="#238636" font-family="monospace" font-size="8px" text-anchor="middle">91.5KB</text>
<text x="523.9" y="330.3" fill="#56d364" font-family="monospace" font-size="8px" text-anchor="middle">91.4KB</text>
<text x="637.4" y="178.4" fill="#2ea043" font-family="monospace" font-size="8px" text-anchor="middle">110.1KB</text>
<text x="637.4" y="196.4" fill="#58a6ff" font-family="monospace" font-size="8px" text-anchor="middle">107.2KB</text>
<text x="637.4" y="221.4" fill="#3fb950" font-family="monospace" font-size="8px" text-anchor="middle">101.8KB</text>
<text x="637.4" y="239.4" fill="#ffa657" font-family="monospace" font-size="8px" text-anchor="middle">100.7KB</text>
<text x="637.4" y="257.4" fill="#388bfd" font-family="monospace" font-size="8px" text-anchor="middle">100.5KB</text>
<text x="637.4" y="275.4" fill="#1f6feb" font-family="monospace" font-size="8px" text-anchor="middle">97.2KB</text>
<text x="637.4" y="293.4" fill="#f78166" font-family="monospace" font-size="8px" text-anchor="middle">96.3KB</text>
<text x="637.4" y="311.4" fill="#56d364" font-family="monospace" font-size="8px" text-anchor="middle">91.7KB</text>
<text x="637.4" y="329.4" fill="#238636" font-family="monospace" font-size="8px" text-anchor="middle">91.5KB</text>
<text x="650.0" y="160.4" fill="#2ea043" font-family="monospace" font-size="8px" text-anchor="middle">110.4KB</text>
<text x="650.0" y="203.4" fill="#58a6ff" font-family="monospace" font-size="8px" text-anchor="middle">107.0KB</text>
<text x="650.0" y="347.4" fill="#3fb950" font-family="monospace" font-size="8px" text-anchor="middle">101.6KB</text>
<text x="650.0" y="365.4" fill="#ffa657" font-family="monospace" font-size="8px" text-anchor="middle">99.7KB</text>
<text x="650.0" y="383.4" fill="#388bfd" font-family="monospace" font-size="8px" text-anchor="middle">99.4KB</text>
<text x="650.0" y="401.4" fill="#1f6feb" font-family="monospace" font-size="8px" text-anchor="middle">96.9KB</text>
<text x="650.0" y="419.4" fill="#f78166" font-family="monospace" font-size="8px" text-anchor="middle">96.3KB</text>
<text x="650.0" y="437.4" fill="#238636" font-family="monospace" font-size="8px" text-anchor="middle">91.5KB</text>
<text x="650.0" y="455.4" fill="#56d364" font-family="monospace" font-size="8px" text-anchor="middle">91.4KB</text>
<rect x="665" y="44" width="12" height="12" fill="#58a6ff"/>
<text x="683" y="54" class="legend">Win i386</text>
<rect x="665" y="62" width="12" height="12" fill="#1f6feb"/>
<text x="683" y="72" class="legend">Win x64</text>
<rect x="665" y="80" width="12" height="12" fill="#388bfd"/>
<text x="683" y="90" class="legend">Win ARM64</text>
<rect x="665" y="98" width="12" height="12" fill="#3fb950"/>
<text x="683" y="108" class="legend">Linux i386</text>
<rect x="665" y="116" width="12" height="12" fill="#238636"/>
<text x="683" y="126" class="legend">Linux x64</text>
<rect x="665" y="134" width="12" height="12" fill="#2ea043"/>
<text x="683" y="144" class="legend">Linux ARM</text>
<rect x="665" y="152" width="12" height="12" fill="#56d364"/>
<text x="683" y="162" class="legend">Linux ARM64</text>
<rect x="665" y="170" width="12" height="12" fill="#f78166"/>
<text x="683" y="180" class="legend">UEFI x64</text>
<rect x="665" y="188" width="12" height="12" fill="#ffa657"/>
<text x="683" y="198" class="legend">UEFI ARM64</text>
</svg>