<svg xmlns="http://www.w3.org/2000/svg" width="800" height="400">
<defs>
<style>
.axis-text { fill: #8b949e; font-family: monospace; font-size: 11px; }
.title { fill: #c9d1d9; font-family: monospace; font-size: 14px; font-weight: bold; }
.legend { fill: #8b949e; font-family: monospace; font-size: 10px; }
.grid { stroke: #21262d; stroke-width: 1; }
</style>
</defs>
<rect width="800" height="400" fill="#0d1117"/>
<text x="400.0" y="25" class="title" text-anchor="middle">Binary Size Trend (.bin)</text>
<line x1="70" y1="40.0" x2="650" y2="40.0" class="grid"/>
<text x="60" y="44.0" class="axis-text" text-anchor="end">138KB</text>
<line x1="70" y1="100.0" x2="650" y2="100.0" class="grid"/>
<text x="60" y="104.0" class="axis-text" text-anchor="end">130KB</text>
<line x1="70" y1="160.0" x2="650" y2="160.0" class="grid"/>
<text x="60" y="164.0" class="axis-text" text-anchor="end">121KB</text>
<line x1="70" y1="220.0" x2="650" y2="220.0" class="grid"/>
<text x="60" y="224.0" class="axis-text" text-anchor="end">113KB</text>
<line x1="70" y1="280.0" x2="650" y2="280.0" class="grid"/>
<text x="60" y="284.0" class="axis-text" text-anchor="end">104KB</text>
<line x1="70" y1="340.0" x2="650" y2="340.0" class="grid"/>
<text x="60" y="344.0" class="axis-text" text-anchor="end">96KB</text>
<text x="70.0" y="360" class="axis-text" text-anchor="middle">02-05</text>
<text x="650.0" y="360" class="axis-text" text-anchor="middle">02-05</text>
<path d="M 70.0 175.9 L 650.0 182.6" fill="none" stroke="#58a6ff" stroke-width="2" opacity="0.8"/>
<circle cx="650.0" cy="182.6" r="4" fill="#58a6ff"/>
<path d="M 70.0 176.1 L 650.0 181.3" fill="none" stroke="#1f6feb" stroke-width="2" opacity="0.8"/>
<circle cx="650.0" cy="181.3" r="4" fill="#1f6feb"/>
<path d="M 70.0 195.8 L 650.0 200.9" fill="none" stroke="#388bfd" stroke-width="2" opacity="0.8"/>
<circle cx="650.0" cy="200.9" r="4" fill="#388bfd"/>
<path d="M 70.0 154.2 L 650.0 158.9" fill="none" stroke="#3fb950" stroke-width="2" opacity="0.8"/>
<circle cx="650.0" cy="158.9" r="4" fill="#3fb950"/>
<path d="M 70.0 258.7 L 650.0 264.4" fill="none" stroke="#238636" stroke-width="2" opacity="0.8"/>
<circle cx="650.0" cy="264.4" r="4" fill="#238636"/>
<path d="M 70.0 129.2 L 650.0 136.3" fill="none" stroke="#2ea043" stroke-width="2" opacity="0.8"/>
<circle cx="650.0" cy="136.3" r="4" fill="#2ea043"/>
<path d="M 70.0 252.5 L 650.0 257.3" fill="none" stroke="#56d364" stroke-width="2" opacity="0.8"/>
<circle cx="650.0" cy="257.3" r="4" fill="#56d364"/>
<path d="M 70.0 173.4 L 650.0 178.6" fill="none" stroke="#f78166" stroke-width="2" opacity="0.8"/>
<circle cx="650.0" cy="178.6" r="4" fill="#f78166"/>
<path d="M 70.0 188.8 L 650.0 194.0" fill="none" stroke="#ffa657" stroke-width="2" opacity="0.8"/>
<circle cx="650.0" cy="194.0" r="4" fill="#ffa657"/>
<rect x="665" y="44" width="12" height="12" fill="#58a6ff"/>
<text x="683" y="54" class="legend">Win i386</text>
<rect x="665" y="62" width="12" height="12" fill="#1f6feb"/>
<text x="683" y="72" class="legend">Win x64</text>
<rect x="665" y="80" width="12" height="12" fill="#388bfd"/>
<text x="683" y="90" class="legend">Win ARM64</text>
<rect x="665" y="98" width="12" height="12" fill="#3fb950"/>
<text x="683" y="108" class="legend">Linux i386</text>
<rect x="665" y="116" width="12" height="12" fill="#238636"/>
<text x="683" y="126" class="legend">Linux x64</text>
<rect x="665" y="134" width="12" height="12" fill="#2ea043"/>
<text x="683" y="144" class="legend">Linux ARM</text>
<rect x="665" y="152" width="12" height="12" fill="#56d364"/>
<text x="683" y="162" class="legend">Linux ARM64</text>
<rect x="665" y="170" width="12" height="12" fill="#f78166"/>
<text x="683" y="180" class="legend">UEFI x64</text>
<rect x="665" y="188" width="12" height="12" fill="#ffa657"/>
<text x="683" y="198" class="legend">UEFI ARM64</text>
</svg>