<svg xmlns="http://www.w3.org/2000/svg" width="800" height="400">
<defs>
<style>
.axis-text { fill: #8b949e; font-family: monospace; font-size: 11px; }
.title { fill: #c9d1d9; font-family: monospace; font-size: 14px; font-weight: bold; }
.legend { fill: #8b949e; font-family: monospace; font-size: 10px; }
.grid { stroke: #21262d; stroke-width: 1; }
</style>
</defs>
<rect width="800" height="400" fill="#0d1117"/>
<text x="400.0" y="25" class="title" text-anchor="middle">Binary Size Trend (.bin)</text>
<line x1="70" y1="40.0" x2="650" y2="40.0" class="grid"/>
<text x="60" y="44.0" class="axis-text" text-anchor="end">138KB</text>
<line x1="70" y1="100.0" x2="650" y2="100.0" class="grid"/>
<text x="60" y="104.0" class="axis-text" text-anchor="end">129KB</text>
<line x1="70" y1="160.0" x2="650" y2="160.0" class="grid"/>
<text x="60" y="164.0" class="axis-text" text-anchor="end">120KB</text>
<line x1="70" y1="220.0" x2="650" y2="220.0" class="grid"/>
<text x="60" y="224.0" class="axis-text" text-anchor="end">111KB</text>
<line x1="70" y1="280.0" x2="650" y2="280.0" class="grid"/>
<text x="60" y="284.0" class="axis-text" text-anchor="end">102KB</text>
<line x1="70" y1="340.0" x2="650" y2="340.0" class="grid"/>
<text x="60" y="344.0" class="axis-text" text-anchor="end">93KB</text>
<text x="70.0" y="360" class="axis-text" text-anchor="middle">02-05</text>
<text x="134.44444444444446" y="360" class="axis-text" text-anchor="middle">02-05</text>
<text x="198.88888888888889" y="360" class="axis-text" text-anchor="middle">02-05</text>
<text x="263.3333333333333" y="360" class="axis-text" text-anchor="middle">02-05</text>
<text x="327.77777777777777" y="360" class="axis-text" text-anchor="middle">02-05</text>
<text x="392.22222222222223" y="360" class="axis-text" text-anchor="middle">02-05</text>
<text x="456.66666666666663" y="360" class="axis-text" text-anchor="middle">02-05</text>
<text x="521.1111111111111" y="360" class="axis-text" text-anchor="middle">02-05</text>
<text x="585.5555555555555" y="360" class="axis-text" text-anchor="middle">02-05</text>
<text x="650.0" y="360" class="axis-text" text-anchor="middle">02-05</text>
<path d="M 70.0 190.6 L 134.4 192.1 L 198.9 190.7 L 263.3 192.1 L 327.8 190.7 L 392.2 168.7 L 456.7 190.7 L 521.1 175.0 L 585.6 189.8 L 650.0 189.3" fill="none" stroke="#58a6ff" stroke-width="2" opacity="0.8"/>
<circle cx="70.0" cy="190.6" r="3" fill="#58a6ff"/>
<circle cx="198.9" cy="190.7" r="3" fill="#58a6ff"/>
<circle cx="327.8" cy="190.7" r="3" fill="#58a6ff"/>
<circle cx="456.7" cy="190.7" r="3" fill="#58a6ff"/>
<circle cx="585.6" cy="189.8" r="3" fill="#58a6ff"/>
<circle cx="650.0" cy="189.3" r="4" fill="#58a6ff"/>
<path d="M 70.0 191.1 L 134.4 192.6 L 198.9 191.2 L 263.3 192.6 L 327.8 191.2 L 392.2 168.9 L 456.7 191.2 L 521.1 173.9 L 585.6 189.7 L 650.0 190.8" fill="none" stroke="#1f6feb" stroke-width="2" opacity="0.8"/>
<circle cx="70.0" cy="191.1" r="3" fill="#1f6feb"/>
<circle cx="198.9" cy="191.2" r="3" fill="#1f6feb"/>
<circle cx="327.8" cy="191.2" r="3" fill="#1f6feb"/>
<circle cx="456.7" cy="191.2" r="3" fill="#1f6feb"/>
<circle cx="585.6" cy="189.7" r="3" fill="#1f6feb"/>
<circle cx="650.0" cy="190.8" r="4" fill="#1f6feb"/>
<path d="M 70.0 210.7 L 134.4 212.7 L 198.9 211.0 L 263.3 212.7 L 327.8 211.0 L 392.2 187.6 L 456.7 211.0 L 521.1 192.4 L 585.6 210.0 L 650.0 210.3" fill="none" stroke="#388bfd" stroke-width="2" opacity="0.8"/>
<circle cx="70.0" cy="210.7" r="3" fill="#388bfd"/>
<circle cx="198.9" cy="211.0" r="3" fill="#388bfd"/>
<circle cx="327.8" cy="211.0" r="3" fill="#388bfd"/>
<circle cx="456.7" cy="211.0" r="3" fill="#388bfd"/>
<circle cx="585.6" cy="210.0" r="3" fill="#388bfd"/>
<circle cx="650.0" cy="210.3" r="4" fill="#388bfd"/>
<path d="M 70.0 169.4 L 134.4 170.2 L 198.9 169.6 L 263.3 170.2 L 327.8 169.6 L 392.2 148.2 L 456.7 169.6 L 521.1 152.6 L 585.6 167.6 L 650.0 167.5" fill="none" stroke="#3fb950" stroke-width="2" opacity="0.8"/>
<circle cx="70.0" cy="169.4" r="3" fill="#3fb950"/>
<circle cx="198.9" cy="169.6" r="3" fill="#3fb950"/>
<circle cx="327.8" cy="169.6" r="3" fill="#3fb950"/>
<circle cx="456.7" cy="169.6" r="3" fill="#3fb950"/>
<circle cx="585.6" cy="167.6" r="3" fill="#3fb950"/>
<circle cx="650.0" cy="167.5" r="4" fill="#3fb950"/>
<path d="M 70.0 270.0 L 134.4 269.8 L 198.9 270.1 L 263.3 269.8 L 327.8 270.1 L 392.2 247.2 L 456.7 270.1 L 521.1 252.5 L 585.6 268.1 L 650.0 267.7" fill="none" stroke="#238636" stroke-width="2" opacity="0.8"/>
<circle cx="70.0" cy="270.0" r="3" fill="#238636"/>
<circle cx="198.9" cy="270.1" r="3" fill="#238636"/>
<circle cx="327.8" cy="270.1" r="3" fill="#238636"/>
<circle cx="456.7" cy="270.1" r="3" fill="#238636"/>
<circle cx="585.6" cy="268.1" r="3" fill="#238636"/>
<circle cx="650.0" cy="267.7" r="4" fill="#238636"/>
<path d="M 70.0 146.3 L 134.4 146.8 L 198.9 146.5 L 263.3 146.8 L 327.8 146.5 L 392.2 124.5 L 456.7 146.5 L 521.1 131.3 L 585.6 144.3 L 650.0 144.4" fill="none" stroke="#2ea043" stroke-width="2" opacity="0.8"/>
<circle cx="70.0" cy="146.3" r="3" fill="#2ea043"/>
<circle cx="198.9" cy="146.5" r="3" fill="#2ea043"/>
<circle cx="327.8" cy="146.5" r="3" fill="#2ea043"/>
<circle cx="456.7" cy="146.5" r="3" fill="#2ea043"/>
<circle cx="585.6" cy="144.3" r="3" fill="#2ea043"/>
<circle cx="650.0" cy="144.4" r="4" fill="#2ea043"/>
<path d="M 70.0 263.1 L 134.4 263.5 L 198.9 263.3 L 263.3 263.5 L 327.8 263.3 L 392.2 241.3 L 456.7 263.3 L 521.1 245.9 L 585.6 260.8 L 650.0 261.1" fill="none" stroke="#56d364" stroke-width="2" opacity="0.8"/>
<circle cx="70.0" cy="263.1" r="3" fill="#56d364"/>
<circle cx="198.9" cy="263.3" r="3" fill="#56d364"/>
<circle cx="327.8" cy="263.3" r="3" fill="#56d364"/>
<circle cx="456.7" cy="263.3" r="3" fill="#56d364"/>
<circle cx="585.6" cy="260.8" r="3" fill="#56d364"/>
<circle cx="650.0" cy="261.1" r="4" fill="#56d364"/>
<path d="M 70.0 188.1 L 134.4 189.6 L 198.9 188.1 L 263.3 189.6 L 327.8 188.1 L 392.2 166.3 L 456.7 188.1 L 521.1 171.3 L 585.6 186.7 L 650.0 187.8" fill="none" stroke="#f78166" stroke-width="2" opacity="0.8"/>
<circle cx="70.0" cy="188.1" r="3" fill="#f78166"/>
<circle cx="198.9" cy="188.1" r="3" fill="#f78166"/>
<circle cx="327.8" cy="188.1" r="3" fill="#f78166"/>
<circle cx="456.7" cy="188.1" r="3" fill="#f78166"/>
<circle cx="585.6" cy="186.7" r="3" fill="#f78166"/>
<circle cx="650.0" cy="187.8" r="4" fill="#f78166"/>
<path d="M 70.0 204.6 L 134.4 206.2 L 198.9 204.6 L 263.3 206.2 L 327.8 204.6 L 392.2 181.0 L 456.7 204.6 L 521.1 185.8 L 585.6 203.6 L 650.0 203.9" fill="none" stroke="#ffa657" stroke-width="2" opacity="0.8"/>
<circle cx="70.0" cy="204.6" r="3" fill="#ffa657"/>
<circle cx="198.9" cy="204.6" r="3" fill="#ffa657"/>
<circle cx="327.8" cy="204.6" r="3" fill="#ffa657"/>
<circle cx="456.7" cy="204.6" r="3" fill="#ffa657"/>
<circle cx="585.6" cy="203.6" r="3" fill="#ffa657"/>
<circle cx="650.0" cy="203.9" r="4" fill="#ffa657"/>
<text x="70.0" y="138.3" fill="#2ea043" font-family="monospace" font-size="8px" text-anchor="middle">122.3KB</text>
<text x="70.0" y="161.4" fill="#3fb950" font-family="monospace" font-size="8px" text-anchor="middle">118.8KB</text>
<text x="70.0" y="180.1" fill="#f78166" font-family="monospace" font-size="8px" text-anchor="middle">116.0KB</text>
<text x="70.0" y="192.1" fill="#58a6ff" font-family="monospace" font-size="8px" text-anchor="middle">115.7KB</text>
<text x="70.0" y="204.1" fill="#1f6feb" font-family="monospace" font-size="8px" text-anchor="middle">115.6KB</text>
<text x="70.0" y="216.1" fill="#ffa657" font-family="monospace" font-size="8px" text-anchor="middle">113.6KB</text>
<text x="70.0" y="228.1" fill="#388bfd" font-family="monospace" font-size="8px" text-anchor="middle">112.7KB</text>
<text x="70.0" y="255.1" fill="#56d364" font-family="monospace" font-size="8px" text-anchor="middle">104.9KB</text>
<text x="70.0" y="267.1" fill="#238636" font-family="monospace" font-size="8px" text-anchor="middle">103.9KB</text>
<text x="198.9" y="138.5" fill="#2ea043" font-family="monospace" font-size="8px" text-anchor="middle">122.2KB</text>
<text x="198.9" y="161.6" fill="#3fb950" font-family="monospace" font-size="8px" text-anchor="middle">118.8KB</text>
<text x="198.9" y="180.1" fill="#f78166" font-family="monospace" font-size="8px" text-anchor="middle">116.0KB</text>
<text x="198.9" y="192.1" fill="#58a6ff" font-family="monospace" font-size="8px" text-anchor="middle">115.7KB</text>
<text x="198.9" y="204.1" fill="#1f6feb" font-family="monospace" font-size="8px" text-anchor="middle">115.6KB</text>
<text x="198.9" y="216.1" fill="#ffa657" font-family="monospace" font-size="8px" text-anchor="middle">113.6KB</text>
<text x="198.9" y="228.1" fill="#388bfd" font-family="monospace" font-size="8px" text-anchor="middle">112.6KB</text>
<text x="198.9" y="255.3" fill="#56d364" font-family="monospace" font-size="8px" text-anchor="middle">104.9KB</text>
<text x="198.9" y="267.3" fill="#238636" font-family="monospace" font-size="8px" text-anchor="middle">103.9KB</text>
<text x="327.8" y="138.5" fill="#2ea043" font-family="monospace" font-size="8px" text-anchor="middle">122.2KB</text>
<text x="327.8" y="161.6" fill="#3fb950" font-family="monospace" font-size="8px" text-anchor="middle">118.8KB</text>
<text x="327.8" y="180.1" fill="#f78166" font-family="monospace" font-size="8px" text-anchor="middle">116.0KB</text>
<text x="327.8" y="192.1" fill="#58a6ff" font-family="monospace" font-size="8px" text-anchor="middle">115.7KB</text>
<text x="327.8" y="204.1" fill="#1f6feb" font-family="monospace" font-size="8px" text-anchor="middle">115.6KB</text>
<text x="327.8" y="216.1" fill="#ffa657" font-family="monospace" font-size="8px" text-anchor="middle">113.6KB</text>
<text x="327.8" y="228.1" fill="#388bfd" font-family="monospace" font-size="8px" text-anchor="middle">112.6KB</text>
<text x="327.8" y="255.3" fill="#56d364" font-family="monospace" font-size="8px" text-anchor="middle">104.9KB</text>
<text x="327.8" y="267.3" fill="#238636" font-family="monospace" font-size="8px" text-anchor="middle">103.9KB</text>
<text x="456.7" y="138.5" fill="#2ea043" font-family="monospace" font-size="8px" text-anchor="middle">122.2KB</text>
<text x="456.7" y="161.6" fill="#3fb950" font-family="monospace" font-size="8px" text-anchor="middle">118.8KB</text>
<text x="456.7" y="180.1" fill="#f78166" font-family="monospace" font-size="8px" text-anchor="middle">116.0KB</text>
<text x="456.7" y="192.1" fill="#58a6ff" font-family="monospace" font-size="8px" text-anchor="middle">115.7KB</text>
<text x="456.7" y="204.1" fill="#1f6feb" font-family="monospace" font-size="8px" text-anchor="middle">115.6KB</text>
<text x="456.7" y="216.1" fill="#ffa657" font-family="monospace" font-size="8px" text-anchor="middle">113.6KB</text>
<text x="456.7" y="228.1" fill="#388bfd" font-family="monospace" font-size="8px" text-anchor="middle">112.6KB</text>
<text x="456.7" y="255.3" fill="#56d364" font-family="monospace" font-size="8px" text-anchor="middle">104.9KB</text>
<text x="456.7" y="267.3" fill="#238636" font-family="monospace" font-size="8px" text-anchor="middle">103.9KB</text>
<text x="585.6" y="136.3" fill="#2ea043" font-family="monospace" font-size="8px" text-anchor="middle">122.6KB</text>
<text x="585.6" y="159.6" fill="#3fb950" font-family="monospace" font-size="8px" text-anchor="middle">119.1KB</text>
<text x="585.6" y="178.7" fill="#f78166" font-family="monospace" font-size="8px" text-anchor="middle">116.3KB</text>
<text x="585.6" y="190.7" fill="#1f6feb" font-family="monospace" font-size="8px" text-anchor="middle">115.8KB</text>
<text x="585.6" y="202.7" fill="#58a6ff" font-family="monospace" font-size="8px" text-anchor="middle">115.8KB</text>
<text x="585.6" y="214.7" fill="#ffa657" font-family="monospace" font-size="8px" text-anchor="middle">113.7KB</text>
<text x="585.6" y="226.7" fill="#388bfd" font-family="monospace" font-size="8px" text-anchor="middle">112.8KB</text>
<text x="585.6" y="252.8" fill="#56d364" font-family="monospace" font-size="8px" text-anchor="middle">105.2KB</text>
<text x="585.6" y="264.8" fill="#238636" font-family="monospace" font-size="8px" text-anchor="middle">104.2KB</text>
<text x="650.0" y="136.4" fill="#2ea043" font-family="monospace" font-size="8px" text-anchor="middle">122.5KB</text>
<text x="650.0" y="159.5" fill="#3fb950" font-family="monospace" font-size="8px" text-anchor="middle">119.1KB</text>
<text x="650.0" y="179.8" fill="#f78166" font-family="monospace" font-size="8px" text-anchor="middle">116.1KB</text>
<text x="650.0" y="191.8" fill="#58a6ff" font-family="monospace" font-size="8px" text-anchor="middle">115.9KB</text>
<text x="650.0" y="203.8" fill="#1f6feb" font-family="monospace" font-size="8px" text-anchor="middle">115.6KB</text>
<text x="650.0" y="215.8" fill="#ffa657" font-family="monospace" font-size="8px" text-anchor="middle">113.7KB</text>
<text x="650.0" y="227.8" fill="#388bfd" font-family="monospace" font-size="8px" text-anchor="middle">112.8KB</text>
<text x="650.0" y="253.1" fill="#56d364" font-family="monospace" font-size="8px" text-anchor="middle">105.2KB</text>
<text x="650.0" y="265.1" fill="#238636" font-family="monospace" font-size="8px" text-anchor="middle">104.2KB</text>
<rect x="665" y="44" width="12" height="12" fill="#58a6ff"/>
<text x="683" y="54" class="legend">Win i386</text>
<rect x="665" y="62" width="12" height="12" fill="#1f6feb"/>
<text x="683" y="72" class="legend">Win x64</text>
<rect x="665" y="80" width="12" height="12" fill="#388bfd"/>
<text x="683" y="90" class="legend">Win ARM64</text>
<rect x="665" y="98" width="12" height="12" fill="#3fb950"/>
<text x="683" y="108" class="legend">Linux i386</text>
<rect x="665" y="116" width="12" height="12" fill="#238636"/>
<text x="683" y="126" class="legend">Linux x64</text>
<rect x="665" y="134" width="12" height="12" fill="#2ea043"/>
<text x="683" y="144" class="legend">Linux ARM</text>
<rect x="665" y="152" width="12" height="12" fill="#56d364"/>
<text x="683" y="162" class="legend">Linux ARM64</text>
<rect x="665" y="170" width="12" height="12" fill="#f78166"/>
<text x="683" y="180" class="legend">UEFI x64</text>
<rect x="665" y="188" width="12" height="12" fill="#ffa657"/>
<text x="683" y="198" class="legend">UEFI ARM64</text>
</svg>